<?xml version="1.0" standalone="no"?>
<!DOCTYPE svg PUBLIC "-//W3C//DTD SVG 20010904//EN"
 "http://www.w3.org/TR/2001/REC-SVG-20010904/DTD/svg10.dtd">
<svg version="1.0" xmlns="http://www.w3.org/2000/svg"
 width="1280.000000pt" height="416.000000pt" viewBox="0 0 1280.000000 416.000000"
 preserveAspectRatio="xMidYMid meet">
<metadata>
Created by potrace 1.15, written by Peter Selinger 2001-2017
</metadata>
<g transform="translate(0.000000,416.000000) scale(0.100000,-0.100000)"
fill="#000000" stroke="none">
<path d="M4635 4123 c-15 -28 -51 -59 -140 -118 -165 -111 -205 -168 -205
-292 0 -37 4 -53 13 -53 21 0 173 91 223 134 31 26 56 60 75 101 32 68 62 192
57 237 l-3 28 -20 -37z"/>
<path d="M8144 4099 c7 -94 51 -219 93 -269 40 -46 120 -103 209 -148 55 -28
63 -36 86 -89 66 -149 87 -249 95 -448 4 -135 2 -179 -16 -283 -11 -68 -34
-163 -50 -210 -16 -48 -32 -96 -36 -107 -3 -11 13 16 36 60 88 168 129 325
129 497 0 168 -42 317 -136 480 -37 65 -44 86 -44 131 0 69 -23 136 -63 182
-18 20 -84 71 -147 113 -83 56 -121 88 -138 117 l-24 40 6 -66z"/>
<path d="M3893 4058 c33 -45 44 -77 67 -197 23 -111 46 -169 89 -214 30 -33
81 -61 129 -72 l33 -7 -6 54 c-11 96 -37 202 -61 249 -28 57 -125 146 -203
188 -32 17 -62 31 -65 31 -4 0 4 -15 17 -32z"/>
<path d="M8855 4057 c-33 -17 -92 -63 -131 -102 -62 -62 -73 -78 -92 -140 -22
-71 -47 -233 -38 -242 11 -11 106 30 144 62 53 46 77 98 103 224 26 128 43
179 71 208 29 31 14 29 -57 -10z"/>
<path d="M4690 3693 c-43 -7 -82 -25 -199 -92 -85 -49 -128 -67 -165 -72 l-51
-5 38 -18 c60 -27 184 -48 256 -44 46 2 83 12 122 31 60 29 199 126 199 138 0
12 -101 57 -140 62 -19 2 -46 2 -60 0z"/>
<path d="M8030 3691 c-41 -8 -122 -51 -118 -63 6 -15 124 -98 187 -130 85 -43
166 -48 295 -19 51 12 102 28 112 36 17 13 15 14 -24 15 -46 0 -84 16 -208 91
-66 40 -180 83 -204 78 -3 -1 -21 -4 -40 -8z"/>
<path d="M4224 3523 c-145 -327 -147 -656 -4 -959 93 -197 218 -354 511 -638
145 -141 178 -177 154 -171 -16 4 -121 9 -232 10 l-201 3 -114 65 c-62 35
-194 108 -293 162 -99 54 -190 104 -202 112 -13 9 -23 13 -23 10 0 -14 294
-188 500 -296 63 -33 108 -62 100 -64 -8 -3 -55 -15 -105 -27 -49 -13 -193
-58 -320 -102 -126 -43 -288 -96 -360 -118 -71 -21 -122 -39 -112 -39 26 -1
227 45 327 75 47 14 94 27 105 30 l20 5 -20 -16 c-184 -145 -298 -282 -393
-470 -68 -137 -87 -212 -87 -350 0 -100 4 -131 24 -188 43 -126 151 -261 278
-348 74 -51 227 -118 330 -146 131 -34 351 -43 470 -19 307 62 476 248 489
536 3 58 1 125 -5 150 -9 41 -9 38 -4 -25 20 -272 -178 -534 -472 -625 -100
-30 -246 -37 -359 -16 -326 62 -584 289 -661 581 -21 78 -21 241 0 320 52 197
212 409 411 541 74 49 192 109 200 102 2 -2 -21 -51 -50 -108 -119 -232 -147
-371 -107 -531 35 -139 103 -302 149 -359 l21 -25 -6 76 c-7 88 1 115 84 314
30 71 64 163 75 204 40 147 9 301 -82 404 -19 22 -29 42 -24 46 16 15 138 41
246 52 375 37 852 -119 1339 -440 200 -131 519 -378 519 -402 0 -4 -70 -67
-155 -139 -85 -72 -187 -162 -225 -201 -66 -66 -144 -168 -135 -177 2 -2 28 7
57 20 72 34 173 117 361 298 l157 152 158 -153 c214 -208 316 -288 401 -314
l23 -7 -18 33 c-32 56 -191 215 -351 351 -84 71 -153 133 -153 138 0 21 307
261 495 387 382 254 711 398 1040 455 157 27 377 22 500 -12 44 -12 81 -23 83
-25 2 -2 -14 -26 -36 -54 -65 -82 -95 -154 -100 -245 -6 -106 7 -160 96 -381
77 -189 77 -190 77 -283 0 -93 0 -93 19 -70 29 35 90 172 126 283 46 142 50
241 16 358 -28 93 -96 248 -146 328 -16 27 -30 51 -30 54 0 3 26 -7 58 -21
203 -89 425 -309 522 -517 52 -109 73 -216 67 -332 -6 -122 -30 -202 -93 -309
-152 -260 -467 -421 -784 -402 -126 7 -190 23 -290 72 -134 66 -236 195 -286
359 -14 46 -18 95 -19 210 0 83 3 175 7 205 l6 55 -14 -55 c-7 -30 -17 -98
-20 -150 -24 -354 167 -633 493 -722 106 -28 303 -30 423 -4 258 56 448 189
541 382 22 45 46 112 54 150 19 91 19 256 -1 352 -46 227 -184 458 -362 609
-34 29 -58 53 -54 53 5 0 97 -29 205 -65 245 -82 348 -104 508 -112 l126 -6
-24 -42 c-31 -57 -53 -161 -53 -260 0 -105 24 -155 97 -205 29 -19 53 -42 53
-52 0 -9 13 -21 30 -27 17 -5 30 -17 30 -25 0 -8 13 -17 30 -21 16 -4 32 -11
35 -16 4 -5 22 -9 42 -9 26 0 36 -5 40 -19 3 -12 15 -21 32 -23 19 -2 26 -9
26 -24 1 -22 21 -54 35 -54 11 0 19 113 8 127 -11 14 -15 150 -4 180 4 12 2
32 -4 43 -7 14 -8 26 -2 33 12 15 7 106 -7 120 -6 6 -11 21 -11 33 0 12 -7 28
-16 35 -9 7 -20 23 -25 36 -5 13 -33 35 -71 54 -70 35 -173 108 -164 116 3 3
59 14 123 24 147 23 387 25 550 4 106 -14 374 -62 381 -70 1 -1 -12 -26 -30
-55 -32 -51 -33 -57 -33 -154 1 -98 2 -105 55 -241 48 -124 54 -149 54 -217 1
-93 8 -90 65 25 49 101 81 213 81 289 0 59 -33 179 -76 277 -13 29 -24 55 -24
56 0 1 55 -11 123 -26 358 -84 522 -109 702 -110 192 0 337 44 436 133 32 28
32 28 4 10 -193 -126 -435 -148 -810 -76 -216 42 -469 104 -485 119 -10 9 -20
11 -26 6 -5 -5 -55 1 -119 15 -213 45 -322 58 -513 58 l-182 1 70 32 c38 17
70 34 70 37 0 3 -20 -4 -45 -15 -144 -64 -378 -85 -597 -54 -151 21 -335 66
-578 140 -269 83 -405 122 -490 140 -41 9 -82 19 -90 21 -8 3 44 36 120 76
142 75 431 245 465 273 19 16 19 17 -5 2 -14 -8 -131 -72 -260 -142 -129 -70
-262 -144 -295 -163 l-60 -37 -130 3 c-115 3 -213 -5 -310 -24 -28 -5 -24 0
45 73 41 43 98 103 125 134 28 31 -11 -6 -85 -81 -132 -134 -136 -137 -195
-150 -92 -19 -284 -85 -395 -135 -279 -125 -579 -328 -893 -603 l-108 -94 -67
60 c-224 199 -580 454 -782 560 -52 28 -169 78 -260 112 -313 118 -406 173
-556 335 -516 555 -681 1050 -510 1529 19 53 32 96 30 96 -2 0 -16 -26 -30
-57z m5666 -2593 c54 -99 23 -60 -48 60 -57 96 -122 234 -122 259 0 7 29 -44
64 -115 36 -71 83 -163 106 -204z"/>
<path d="M2738 3358 c2 -24 8 -48 12 -53 9 -11 16 -65 25 -176 3 -37 11 -82
19 -100 17 -42 60 -89 80 -89 8 0 50 -19 95 -42 71 -37 82 -40 97 -27 31 25
44 76 44 166 0 112 -21 160 -85 194 -25 13 -45 30 -45 36 0 7 -9 13 -20 13
-11 0 -23 7 -26 15 -4 8 -17 15 -30 15 -13 0 -24 5 -24 10 0 6 -11 8 -25 4
-18 -4 -27 -1 -31 10 -3 9 -17 16 -31 16 -14 0 -22 4 -18 10 8 13 -12 40 -29
40 -8 0 -10 -15 -8 -42z m217 -243 c23 -33 52 -80 64 -105 12 -25 16 -37 9
-26 -7 10 -46 66 -87 125 -40 58 -63 97 -51 86 12 -11 42 -47 65 -80z"/>
<path d="M10030 3385 c-6 -8 -9 -19 -5 -25 4 -6 -4 -10 -19 -10 -17 0 -26 -5
-26 -16 0 -13 -7 -15 -30 -10 -17 3 -30 1 -30 -4 0 -6 -11 -10 -25 -10 -14 0
-25 -4 -25 -10 0 -5 -11 -12 -25 -16 -14 -3 -25 -11 -25 -18 0 -6 -21 -22 -46
-36 -65 -34 -83 -78 -84 -193 0 -89 13 -141 43 -165 13 -11 28 -7 98 27 45 23
88 41 95 41 19 0 63 49 80 89 7 18 16 65 19 105 10 128 15 160 25 170 12 12
13 96 1 96 -5 0 -14 -7 -21 -15z m-177 -282 c-80 -118 -95 -135 -59 -67 26 49
111 164 121 164 3 0 -25 -44 -62 -97z"/>
<path d="M3630 3291 c-19 -4 -51 -17 -70 -28 -30 -17 -86 -33 -113 -33 -4 0
-20 -6 -35 -13 -15 -7 -34 -12 -44 -10 -9 2 -19 -1 -23 -6 -3 -6 -17 -11 -30
-11 -14 0 -29 -9 -35 -20 -6 -11 -16 -20 -22 -20 -24 0 -61 -56 -75 -114 -8
-34 -23 -86 -34 -117 -26 -71 -17 -93 44 -110 81 -22 255 16 308 67 16 15 36
49 44 75 9 26 23 50 31 53 7 3 14 16 14 30 0 13 5 26 11 28 6 2 11 30 12 66 0
37 5 66 13 72 6 6 10 20 7 30 -4 15 0 20 15 20 18 0 32 18 32 41 0 10 0 10
-50 0z m-149 -200 c-31 -43 -183 -184 -222 -204 l-34 -18 30 22 c17 13 77 69
135 126 58 56 106 103 108 103 2 0 -6 -13 -17 -29z"/>
<path d="M9120 3292 c0 -24 13 -42 32 -42 13 0 18 -6 16 -17 -1 -10 2 -25 7
-33 5 -8 10 -42 12 -75 1 -33 7 -61 12 -63 6 -2 11 -15 11 -28 0 -14 7 -27 15
-30 8 -3 20 -24 25 -45 14 -51 60 -103 110 -123 72 -29 174 -40 235 -27 74 17
83 35 56 109 -11 32 -27 85 -36 119 -15 59 -50 113 -73 113 -6 0 -16 9 -22 20
-6 11 -21 20 -35 20 -13 0 -27 5 -31 11 -3 6 -17 8 -29 5 -13 -3 -27 -2 -30 4
-3 5 -17 10 -30 10 -13 0 -27 5 -31 11 -3 6 -14 9 -24 6 -11 -3 -28 2 -39 10
-12 8 -25 12 -30 8 -6 -3 -13 1 -18 8 -4 8 -21 17 -38 20 -16 3 -38 9 -47 12
-10 4 -18 3 -18 -3z m321 -306 c66 -63 87 -88 58 -67 -46 32 -193 176 -173
170 6 -2 58 -49 115 -103z"/>
<path d="M2674 2886 c-16 -4 -36 -12 -44 -17 -8 -5 -25 -13 -37 -19 -13 -5
-23 -14 -23 -20 0 -6 -11 -15 -25 -20 -14 -5 -25 -14 -25 -20 0 -5 -6 -10 -14
-10 -8 0 -21 -8 -28 -19 -7 -10 -23 -21 -35 -25 -13 -4 -23 -12 -23 -17 0 -6
-8 -8 -17 -5 -11 3 -33 -8 -57 -29 -33 -30 -36 -36 -21 -41 10 -4 27 -1 38 6
17 10 22 10 33 -5 8 -10 20 -15 28 -12 10 4 22 -3 32 -18 9 -14 22 -25 29 -25
7 0 18 -7 25 -15 7 -9 20 -13 27 -10 8 2 24 0 36 -7 12 -6 35 -12 52 -13 16
-2 51 -9 77 -15 44 -12 50 -11 105 15 79 39 189 148 198 199 9 47 -10 70 -72
85 -25 7 -69 24 -97 38 -53 28 -110 35 -162 19z m161 -182 c-27 -8 -90 -16
-140 -18 l-90 -5 72 9 c40 5 94 13 120 19 73 13 94 11 38 -5z"/>
<path d="M9989 2879 c-19 -10 -62 -28 -96 -39 -91 -31 -108 -47 -99 -95 10
-50 117 -158 198 -200 55 -29 58 -29 105 -15 26 7 62 14 78 15 17 1 40 7 52
13 12 7 28 9 36 7 7 -3 20 1 27 10 7 8 18 15 25 15 7 0 20 11 29 25 10 15 22
22 32 18 8 -3 20 2 28 12 11 15 16 15 33 5 11 -7 29 -10 38 -6 16 6 13 11 -20
39 -21 17 -44 32 -49 32 -6 1 -24 7 -41 15 -27 14 -40 24 -86 65 -9 8 -21 15
-27 15 -6 0 -16 9 -22 20 -6 11 -15 20 -21 20 -6 0 -22 9 -36 20 -14 11 -29
17 -34 14 -5 -3 -15 -2 -21 3 -24 15 -94 10 -129 -8z m66 -178 c139 -19 142
-20 50 -15 -49 2 -112 11 -140 19 -27 8 -36 13 -20 11 17 -2 66 -9 110 -15z"/>
<path d="M3087 2778 c6 -7 44 -58 85 -113 88 -117 168 -208 176 -200 3 3 -10
22 -30 43 -19 20 -79 92 -132 160 -53 67 -99 122 -102 122 -4 0 -2 -6 3 -12z"/>
<path d="M9588 2638 c-62 -78 -117 -149 -121 -158 -17 -32 79 79 151 175 41
55 79 106 85 113 5 6 7 12 4 12 -3 0 -56 -64 -119 -142z"/>
<path d="M1665 2563 c4 -10 10 -40 13 -66 3 -33 11 -52 23 -60 11 -7 19 -20
19 -30 0 -10 5 -28 11 -39 6 -11 12 -33 14 -47 1 -14 8 -48 15 -76 6 -27 13
-67 14 -87 1 -20 8 -43 14 -51 7 -8 9 -22 6 -32 -5 -11 3 -26 25 -45 17 -16
31 -36 31 -45 0 -8 11 -20 24 -26 13 -6 26 -20 29 -29 3 -12 21 -23 48 -30 87
-24 165 -48 224 -71 73 -27 103 -22 130 23 42 70 14 348 -45 444 -23 36 -90
78 -151 94 -29 8 -39 16 -39 30 0 16 -7 20 -30 20 -17 0 -39 9 -51 21 -13 13
-30 19 -50 17 -16 -1 -33 3 -37 9 -6 10 -16 10 -45 1 -32 -10 -39 -9 -50 5 -6
9 -28 17 -47 19 -30 3 -35 6 -32 25 3 23 -22 43 -53 43 -12 0 -15 -5 -10 -17z
m441 -433 c66 -76 144 -192 144 -213 0 -6 -17 17 -38 49 -47 72 -133 174 -262
309 l-95 100 91 -83 c51 -45 123 -118 160 -162z"/>
<path d="M11094 2572 c-7 -4 -14 -18 -15 -32 -3 -20 -10 -26 -39 -28 -19 -2
-40 -10 -47 -19 -10 -13 -19 -14 -52 -6 -31 8 -41 8 -45 -3 -4 -9 -15 -12 -35
-8 -21 5 -34 1 -50 -15 -12 -12 -34 -21 -51 -21 -23 0 -30 -4 -30 -20 0 -14
-11 -22 -42 -31 -62 -16 -124 -56 -147 -92 -50 -82 -86 -316 -62 -405 15 -52
42 -82 76 -82 14 0 53 12 88 26 34 14 101 36 148 49 72 18 93 29 128 62 22 23
41 48 41 57 0 8 11 23 25 32 18 12 24 22 19 36 -3 10 1 29 10 42 8 13 12 33 9
45 -3 12 -1 32 4 44 16 35 34 118 28 128 -4 5 1 19 9 31 9 12 16 32 16 43 0
11 8 25 19 32 12 8 20 27 23 60 3 26 9 56 13 66 5 13 2 17 -11 17 -11 0 -24
-4 -30 -8z m-274 -328 c-94 -98 -206 -233 -258 -310 -7 -11 -4 -1 7 21 34 72
112 168 233 288 65 64 122 117 125 117 3 0 -45 -52 -107 -116z"/>
<path d="M8425 2378 c-15 -24 -50 -72 -78 -108 -28 -37 -38 -54 -22 -40 40 36
147 190 132 190 -3 0 -17 -19 -32 -42z"/>
<path d="M5 2023 c4 -10 10 -31 13 -48 2 -16 10 -37 17 -45 20 -25 51 -129 60
-201 1 -14 8 -35 14 -46 5 -11 7 -23 4 -27 -4 -4 3 -13 15 -22 12 -8 22 -20
22 -26 0 -19 60 -66 93 -73 17 -3 74 -21 124 -38 l92 -32 22 21 c51 51 39 244
-21 342 -21 34 -74 72 -102 72 -9 0 -29 11 -44 25 -14 13 -31 22 -36 19 -5 -3
-18 2 -28 11 -11 10 -28 15 -40 12 -11 -3 -22 -1 -25 3 -3 5 -21 6 -40 3 -22
-3 -35 -2 -35 5 0 6 -12 12 -27 14 -16 2 -28 9 -28 16 0 14 -23 32 -44 32 -9
0 -11 -6 -6 -17z m306 -280 c41 -43 86 -94 99 -113 13 -19 -1 -8 -30 25 -29
33 -87 94 -129 135 -42 41 -62 65 -46 53 17 -11 64 -56 106 -100z"/>
<path d="M12763 2033 c-7 -2 -13 -13 -13 -24 0 -14 -7 -19 -29 -19 -17 0 -32
-4 -35 -8 -3 -5 -33 -9 -66 -9 -46 -1 -64 -5 -74 -18 -7 -10 -18 -15 -24 -11
-6 3 -19 -2 -29 -12 -10 -11 -39 -27 -65 -37 -25 -9 -56 -27 -67 -39 -69 -74
-99 -277 -52 -358 18 -33 30 -34 97 -8 29 10 81 26 116 34 61 14 128 58 128
83 0 6 9 18 20 28 11 10 17 22 14 26 -3 5 1 18 9 30 8 11 13 29 10 40 -3 10
-1 25 5 32 5 6 13 33 16 59 4 26 11 50 17 53 5 4 9 17 9 30 0 12 7 25 15 29 8
3 15 16 15 30 0 14 4 36 10 50 10 26 2 31 -27 19z m-226 -260 c-70 -71 -138
-143 -152 -162 -14 -19 -25 -31 -25 -27 0 21 81 115 182 211 61 58 113 105
116 105 3 0 -52 -57 -121 -127z"/>
<path d="M2360 1710 c78 -74 212 -166 318 -217 60 -29 92 -38 142 -40 l65 -4
-95 34 c-184 66 -304 131 -430 235 l-65 53 65 -61z"/>
<path d="M2218 1445 c-54 -8 -135 -21 -180 -30 -88 -17 -342 -94 -335 -102 4
-3 127 25 190 43 16 5 16 1 -6 -43 -73 -147 -108 -283 -96 -369 13 -97 79
-264 126 -323 l19 -24 -4 60 c-3 49 2 76 28 149 87 244 92 265 88 344 -5 78
-29 142 -71 188 -13 13 -17 26 -11 31 12 11 242 57 374 75 98 13 101 14 40 14
-36 0 -109 -6 -162 -13z"/>
<path d="M3063 1433 c42 -2 112 -2 155 0 42 1 7 3 -78 3 -85 0 -120 -2 -77 -3z"/>
<path d="M570 1375 c36 -38 162 -122 232 -155 70 -32 167 -60 211 -60 26 0 28
-2 17 -16 -8 -8 -44 -33 -82 -56 -37 -22 -68 -46 -68 -53 0 -7 -7 -18 -15 -25
-8 -7 -12 -16 -9 -22 3 -5 1 -14 -4 -21 -9 -11 -18 -74 -12 -87 6 -13 7 -200
2 -204 -4 -2 -6 -25 -4 -50 4 -41 6 -45 23 -35 10 5 19 18 19 29 0 10 9 22 20
25 11 3 20 13 20 21 0 9 11 14 29 14 17 0 33 5 36 10 3 6 15 10 26 10 10 0 19
6 19 14 0 8 9 18 20 21 11 3 20 12 20 19 0 7 20 27 44 44 56 40 70 80 63 176
-4 62 -14 104 -42 169 -6 14 -2 17 24 17 53 0 179 29 309 72 68 22 122 41 120
44 -2 2 -60 -7 -129 -21 -365 -71 -628 -43 -831 91 -47 31 -72 43 -58 29z
m490 -395 c-19 -48 -97 -190 -104 -190 -1 0 25 56 58 123 34 68 62 123 64 122
1 -1 -7 -26 -18 -55z"/>
<path d="M2992 1346 c-29 -23 -84 -58 -123 -76 -44 -22 -69 -40 -69 -50 0 -9
-9 -25 -20 -35 -11 -10 -20 -28 -20 -40 0 -11 -5 -26 -11 -32 -15 -15 -20
-104 -7 -120 6 -7 6 -19 -1 -31 -6 -12 -7 -41 -1 -82 5 -35 6 -68 3 -73 -3 -6
-6 -23 -5 -38 0 -16 -3 -29 -9 -29 -8 0 -2 -119 7 -129 8 -10 33 23 36 47 2
21 9 28 29 30 17 2 29 11 32 23 4 14 14 19 41 19 20 0 36 4 36 10 0 5 16 12
35 16 21 4 35 12 35 21 0 8 14 19 30 24 17 7 30 18 30 28 0 9 24 33 52 52 82
55 93 82 93 219 -1 181 -43 291 -112 290 -18 -1 -48 -17 -81 -44z m63 -168
c-32 -75 -136 -262 -170 -303 -13 -17 11 35 55 115 44 80 92 173 107 208 15
34 29 58 31 53 2 -5 -9 -38 -23 -73z"/>
<path d="M11689 1170 c-30 -18 -62 -110 -67 -195 -5 -97 11 -144 62 -177 19
-13 37 -31 40 -41 2 -10 14 -21 25 -24 12 -3 21 -12 21 -19 0 -8 9 -14 19 -14
11 0 23 -4 26 -10 3 -5 17 -10 31 -10 14 0 27 -7 30 -15 3 -8 14 -17 25 -20
10 -4 19 -15 19 -25 0 -11 9 -24 19 -29 17 -10 19 -6 23 35 2 25 -1 48 -5 51
-5 3 -6 68 -3 144 3 89 1 141 -5 145 -6 3 -8 12 -5 19 3 8 -2 19 -10 25 -8 7
-14 18 -14 25 0 7 -30 31 -67 54 -38 23 -83 53 -102 66 -38 28 -39 28 -62 15z
m110 -288 c23 -46 38 -81 33 -78 -14 8 -111 207 -117 241 -4 18 3 9 18 -25 13
-30 43 -93 66 -138z"/>
<path d="M5470 1001 c-5 -11 -22 -21 -37 -23 -16 -2 -32 -12 -38 -25 -11 -21
-11 -21 -23 -2 -17 27 -105 26 -149 -1 -69 -42 -113 -156 -113 -294 l0 -77 58
-26 c47 -22 72 -26 147 -27 120 -1 177 23 204 86 17 39 17 44 3 55 -13 10 -13
17 -4 35 6 13 16 52 22 88 5 36 16 70 23 75 9 7 14 30 13 68 -1 57 -2 58 -27
53 -18 -3 -29 1 -37 15 -15 24 -29 24 -42 0z"/>
<path d="M7288 1001 c-8 -14 -19 -18 -37 -15 -25 5 -26 4 -27 -53 -1 -40 4
-61 14 -69 8 -6 16 -22 17 -37 7 -64 18 -113 28 -125 7 -9 5 -18 -7 -31 -16
-18 -16 -21 4 -61 31 -60 88 -84 200 -84 67 0 98 5 145 25 l60 24 3 60 c8 132
-38 266 -107 312 -46 31 -133 33 -154 3 l-14 -21 -6 21 c-3 13 -17 22 -36 26
-18 4 -36 15 -42 25 -13 24 -26 24 -41 0z"/>
<path d="M4822 899 c-9 -14 -17 -17 -30 -10 -9 5 -47 6 -84 2 -53 -6 -71 -4
-82 8 -12 12 -20 12 -41 3 -14 -7 -39 -12 -55 -12 -32 0 -36 -9 -20 -41 9 -15
7 -21 -5 -25 -24 -10 -18 -41 9 -48 15 -4 26 -15 28 -28 2 -12 13 -28 26 -34
20 -10 21 -13 7 -24 -17 -14 -13 -44 17 -107 29 -64 95 -93 208 -93 48 0 112
5 143 11 l56 12 10 49 c21 96 7 194 -39 274 -28 49 -55 69 -101 76 -28 5 -38
2 -47 -13z"/>
<path d="M7930 913 c-65 -10 -110 -64 -135 -160 -18 -67 -19 -124 -4 -191 l10
-49 56 -12 c82 -16 216 -14 261 5 55 22 91 62 107 118 13 44 13 51 -1 67 -14
16 -14 18 4 23 11 4 23 18 26 31 4 15 16 27 31 31 29 7 33 31 8 50 -15 10 -16
15 -5 25 21 22 14 39 -18 39 -16 0 -40 5 -54 11 -20 9 -29 9 -41 -1 -11 -9
-36 -12 -73 -10 -78 4 -85 4 -104 -4 -11 -5 -18 -1 -23 13 -3 12 -9 20 -13 20
-4 -1 -18 -4 -32 -6z"/>
<path d="M5103 484 c-33 -8 -58 -111 -50 -214 9 -116 43 -174 116 -199 30 -10
36 -9 48 9 12 17 18 18 29 9 8 -6 47 -14 86 -16 44 -3 80 -11 90 -20 12 -11
21 -12 37 -4 11 6 34 11 51 11 30 0 31 2 25 29 -4 21 -2 30 9 34 23 9 19 31
-6 42 -13 6 -24 20 -26 32 -2 13 -12 29 -23 37 -18 12 -18 14 -3 27 12 10 15
23 10 57 -9 67 -39 107 -104 139 -50 25 -69 28 -162 30 -58 1 -115 -1 -127 -3z"/>
<path d="M7441 471 c-94 -33 -129 -72 -139 -156 -3 -29 0 -46 11 -56 13 -14
13 -17 -4 -27 -10 -7 -19 -21 -19 -32 0 -12 -10 -25 -25 -32 -28 -13 -33 -36
-9 -45 11 -4 13 -13 9 -34 -6 -27 -5 -29 25 -29 17 0 40 -5 51 -11 16 -8 25
-7 37 4 10 9 46 17 90 20 39 2 78 10 86 16 11 9 17 8 29 -9 12 -18 18 -19 48
-9 19 7 42 19 53 28 58 50 83 200 52 315 -16 58 -20 64 -48 70 -63 12 -192 6
-247 -13z"/>
</g>
</svg>
