<?xml version="1.0" standalone="no"?>
<!DOCTYPE svg PUBLIC "-//W3C//DTD SVG 20010904//EN"
 "http://www.w3.org/TR/2001/REC-SVG-20010904/DTD/svg10.dtd">
<svg version="1.0" xmlns="http://www.w3.org/2000/svg"
 width="1280.000000pt" height="1060.000000pt" viewBox="0 0 1280.000000 1060.000000"
 preserveAspectRatio="xMidYMid meet">
<metadata>
Created by potrace 1.15, written by Peter Selinger 2001-2017
</metadata>
<g transform="translate(0.000000,1060.000000) scale(0.100000,-0.100000)"
fill="#000000" stroke="none">
<path d="M7465 10526 c-7 -79 -2 -97 41 -149 26 -31 31 -75 13 -109 -9 -17
-13 -18 -20 -7 -5 8 -9 24 -9 37 0 17 -11 28 -42 42 -39 18 -78 26 -78 16 0
-14 34 -78 61 -116 37 -51 41 -88 14 -140 -13 -24 -19 -29 -25 -19 -5 7 -7 17
-4 21 3 4 -2 21 -11 38 -13 25 -22 30 -50 30 -41 0 -42 6 -14 55 25 42 19 52
-32 56 -26 2 -48 -4 -76 -23 -21 -14 -54 -29 -73 -32 -19 -4 -43 -10 -53 -13
-16 -4 -17 -2 -8 15 25 47 -1 126 -49 152 -26 14 -23 17 -44 -48 l-18 -52 26
-46 c14 -26 26 -50 26 -54 0 -12 -50 -70 -61 -70 -5 0 -9 17 -9 37 0 24 -9 51
-26 75 -30 43 -35 45 -57 21 -28 -31 -30 -67 -8 -111 12 -23 21 -52 21 -64 0
-13 -23 -55 -50 -93 -54 -75 -58 -85 -62 -155 l-3 -45 -29 30 c-15 17 -39 51
-52 77 l-24 48 26 41 c31 49 28 92 -8 145 -35 51 -45 43 -53 -40 -8 -87 -20
-90 -62 -19 l-26 44 26 27 c59 62 53 113 -22 186 -34 33 -40 36 -44 20 -25
-93 -29 -117 -25 -139 6 -30 -1 -31 -36 -4 -25 20 -36 59 -16 59 21 0 50 65
50 110 0 46 -30 110 -50 110 -6 0 -25 -29 -41 -65 -16 -36 -33 -65 -38 -65
-14 0 -51 69 -51 95 0 33 -62 75 -110 75 -64 0 -110 -12 -110 -27 0 -26 75
-93 104 -93 63 0 126 -52 126 -105 0 -22 -7 -19 -38 16 -23 26 -34 31 -75 31
-28 0 -59 -7 -74 -17 l-26 -17 39 -35 c55 -48 96 -64 160 -62 41 2 62 -3 81
-18 42 -31 40 -43 -5 -27 -43 14 -73 9 -132 -21 l-33 -17 29 -23 c55 -45 79
-50 156 -32 79 19 97 14 143 -40 36 -44 24 -59 -24 -31 -33 19 -42 20 -68 9
-47 -19 -130 -97 -117 -110 5 -6 44 -12 85 -12 56 -1 86 4 122 20 26 12 52 19
57 16 6 -4 20 -25 32 -48 11 -23 36 -60 54 -83 83 -100 83 -170 2 -276 -19
-24 -40 -59 -47 -76 -7 -18 -17 -32 -22 -32 -4 0 -13 25 -19 56 -12 55 -11 58
18 99 48 68 51 177 5 192 -19 7 -67 -86 -65 -124 2 -18 -1 -33 -6 -33 -14 0
-32 23 -32 42 0 25 -45 95 -69 108 -24 12 -111 13 -130 1 -11 -7 -10 -14 5
-39 23 -41 65 -70 110 -80 35 -7 65 -34 52 -47 -3 -3 -17 -1 -30 6 -46 21 -75
-7 -93 -90 l-7 -34 41 7 c22 3 57 14 76 23 50 24 68 10 77 -57 3 -30 16 -75
29 -102 12 -26 20 -51 16 -54 -3 -3 -37 14 -74 38 -37 25 -107 66 -154 92 -85
46 -158 110 -181 161 -9 21 -7 29 21 60 21 24 31 46 31 68 0 32 -53 137 -69
137 -9 0 -41 -116 -41 -150 0 -28 -14 -25 -45 11 -16 20 -24 38 -19 48 24 56
33 95 28 115 -7 30 -99 120 -113 112 -6 -4 -11 -38 -11 -82 0 -83 -10 -92 -41
-40 -14 24 -35 40 -64 52 -41 15 -47 15 -106 -3 l-63 -18 59 -43 c45 -31 69
-42 97 -42 42 0 54 -24 18 -35 -23 -7 -60 -51 -60 -71 0 -19 47 -18 120 3 56
15 63 15 95 0 19 -9 35 -24 35 -33 0 -13 -7 -15 -39 -9 -29 5 -48 1 -78 -14
-49 -26 -73 -46 -73 -58 0 -25 111 -31 185 -11 33 9 51 9 63 2 27 -17 115
-145 105 -154 -4 -4 -35 -10 -68 -14 -33 -3 -71 -7 -85 -8 -22 -3 -25 1 -28
29 -4 39 -42 73 -83 73 -33 0 -109 -28 -109 -40 0 -17 84 -80 106 -80 33 0 54
-10 54 -26 0 -8 -4 -14 -9 -14 -5 0 -32 -16 -61 -36 l-52 -36 -20 22 c-17 19
-29 21 -66 17 -26 -3 -53 -13 -65 -26 -20 -20 -20 -21 -2 -41 11 -12 35 -28
54 -36 l35 -15 -34 -33 c-19 -18 -43 -48 -53 -66 -24 -45 -34 -29 -42 70 -3
41 -13 109 -20 150 -8 41 -17 97 -21 124 l-7 49 28 -5 c43 -9 77 27 82 89 3
29 0 59 -7 72 -11 22 -12 21 -33 -20 -22 -44 -47 -63 -47 -36 0 8 10 38 21 66
21 49 21 53 5 89 -18 39 -70 82 -99 82 -26 0 -23 -103 3 -155 22 -44 27 -89 8
-83 -7 3 -16 18 -20 35 -11 41 -62 73 -118 73 -39 0 -42 -2 -35 -22 3 -13 9
-34 12 -48 6 -25 6 -25 -15 -6 -23 20 -54 94 -78 186 -17 66 -10 151 16 182
l18 22 26 -52 c29 -58 81 -92 140 -92 l35 0 -35 78 c-27 58 -44 83 -72 101
l-36 24 28 23 c15 13 30 24 34 24 4 0 15 -18 24 -40 13 -32 26 -44 63 -60 51
-22 115 -27 115 -9 0 21 -44 89 -67 104 -36 24 -28 35 25 35 66 0 121 33 150
90 12 24 22 53 22 63 0 18 -2 18 -24 4 -13 -9 -44 -21 -69 -28 -29 -7 -58 -24
-83 -50 -22 -23 -47 -39 -61 -39 -28 0 -29 7 -2 36 24 26 36 116 20 157 -12
32 -31 28 -31 -7 0 -12 -16 -37 -36 -57 -43 -41 -64 -79 -64 -116 -1 -22 -10
-34 -44 -55 -24 -16 -46 -28 -50 -28 -3 0 -6 20 -6 45 0 84 -46 145 -109 145
-18 0 -19 -5 -14 -72 4 -60 11 -81 35 -116 l30 -44 -31 -60 c-17 -34 -31 -76
-31 -94 0 -18 -4 -35 -9 -38 -5 -4 -34 29 -64 71 -30 43 -61 84 -70 92 -23 18
-21 40 5 68 15 16 23 37 23 61 0 44 -23 102 -39 102 -19 0 -53 -41 -71 -83
-18 -44 -27 -46 -46 -11 -12 23 -11 33 8 84 22 61 20 94 -8 161 -15 38 -36 34
-67 -11 -20 -30 -23 -43 -18 -87 3 -29 4 -53 0 -53 -3 0 -38 19 -77 42 -50 30
-81 42 -107 42 -54 -2 -140 -50 -140 -79 0 -14 76 -38 111 -35 44 4 44 0 5
-33 -22 -19 -36 -38 -33 -44 14 -22 106 -35 190 -28 l82 6 29 -30 c32 -33 20
-41 -24 -16 -14 8 -41 14 -61 15 -40 0 -99 -18 -99 -30 0 -11 69 -54 118 -73
35 -14 50 -15 87 -6 53 13 75 2 138 -65 44 -48 46 -66 12 -110 -16 -21 -25
-46 -25 -69 0 -21 -4 -37 -9 -37 -4 0 -52 23 -105 51 -110 58 -200 76 -225 45
-19 -22 -41 -20 -41 4 0 20 0 20 -38 1 -21 -11 -44 -27 -51 -35 -8 -9 -20 -16
-28 -16 -11 0 -8 11 12 46 23 40 27 54 22 96 -7 56 -39 108 -68 108 -13 0 -19
-7 -19 -24 0 -13 -8 -38 -17 -54 -17 -29 -17 -33 0 -79 36 -102 3 -174 -38
-82 -18 39 -53 72 -104 99 l-24 12 7 -57 c9 -81 34 -123 87 -149 l44 -21 0
-55 c0 -49 -2 -55 -20 -52 -10 2 -30 12 -43 23 -17 13 -41 19 -73 19 -42 0
-55 -5 -86 -33 -20 -19 -33 -39 -29 -45 12 -20 88 -35 168 -33 l77 1 27 -52
c14 -29 35 -63 47 -75 l20 -23 -21 0 c-12 0 -68 13 -124 29 -88 26 -107 36
-147 74 -52 51 -90 72 -144 82 -30 6 -37 4 -37 -9 0 -23 68 -95 96 -102 40
-10 29 -34 -16 -34 -22 0 -59 -5 -83 -12 -40 -10 -48 -9 -79 10 -51 32 -121
30 -170 -4 -50 -35 -48 -51 5 -58 81 -10 117 -18 117 -26 0 -4 -11 -18 -23
-31 -68 -69 -136 -171 -142 -214 -9 -59 -4 -65 47 -53 77 17 88 29 88 104 0
70 22 134 46 134 12 0 12 -6 -1 -37 -12 -29 -13 -43 -4 -72 15 -49 38 -83 50
-76 16 11 57 99 63 138 3 20 9 53 12 73 5 32 11 38 60 60 64 28 64 28 64 10 0
-7 -15 -24 -34 -37 -19 -13 -41 -35 -50 -50 -17 -28 -22 -84 -8 -93 17 -10 72
38 101 89 17 29 40 60 53 69 34 24 98 19 190 -14 68 -25 97 -30 156 -29 69 2
75 0 105 -28 18 -17 43 -34 56 -38 33 -10 19 -19 -88 -56 -76 -26 -97 -38
-112 -63 -24 -39 -24 -58 1 -81 30 -28 62 -12 130 64 58 65 112 102 128 87 3
-4 -9 -19 -27 -33 -46 -36 -103 -163 -73 -163 26 0 112 73 144 122 21 32 49
64 61 73 29 19 88 24 94 8 3 -8 -4 -13 -19 -13 -30 0 -50 -15 -82 -64 -34 -51
-33 -66 3 -66 47 0 82 18 139 72 l54 51 55 -6 c30 -3 79 -18 107 -32 54 -27
116 -79 116 -96 0 -17 -59 -1 -136 38 -39 19 -79 33 -89 31 -33 -6 -65 -65
-65 -119 0 -27 2 -49 5 -49 3 0 25 16 51 35 25 19 55 35 67 35 19 0 19 -2 -9
-31 -16 -17 -52 -41 -81 -54 -75 -34 -87 -56 -74 -146 5 -39 13 -75 18 -79 11
-11 113 107 113 131 0 23 37 101 54 111 31 21 35 -3 6 -39 -11 -14 -20 -41
-20 -60 0 -32 30 -106 48 -117 4 -2 23 20 41 50 29 49 32 60 29 122 -3 64 -2
67 21 70 37 6 68 -6 106 -40 46 -39 66 -81 94 -188 12 -47 29 -95 36 -107 8
-12 46 -38 84 -58 48 -25 94 -62 155 -124 47 -49 86 -94 86 -100 0 -6 -11 -11
-24 -11 -17 0 -27 9 -36 30 -28 67 -110 92 -164 49 -36 -29 -33 -45 12 -52 21
-4 46 -13 57 -22 18 -14 14 -15 -50 -12 l-70 2 -18 40 c-27 56 -43 72 -95 89
-43 15 -47 15 -85 -7 -43 -24 -59 -47 -32 -47 20 0 65 -44 65 -63 0 -12 -9
-12 -50 -4 -45 9 -55 7 -104 -17 -29 -14 -72 -46 -95 -71 -43 -47 -54 -73 -23
-59 9 4 58 10 107 14 94 6 117 14 149 49 20 22 70 29 81 11 3 -5 -12 -18 -34
-29 -30 -16 -43 -31 -56 -64 -9 -25 -15 -54 -13 -65 3 -19 7 -18 65 18 35 21
83 61 109 89 31 35 56 52 79 57 57 10 63 -5 16 -45 -37 -31 -44 -44 -48 -84
-6 -47 -5 -47 24 -47 42 0 92 37 123 90 28 48 76 80 122 80 39 0 92 -50 140
-134 22 -39 63 -108 89 -152 75 -125 80 -147 78 -314 -3 -156 6 -206 47 -276
34 -58 32 -64 -25 -64 -66 0 -140 15 -214 44 -34 13 -82 30 -106 37 -25 8 -46
19 -48 25 -2 5 19 16 46 23 27 7 58 22 69 34 20 23 42 60 42 73 0 14 -127 -4
-168 -24 -42 -20 -42 -20 -53 -1 -15 28 -3 39 43 39 51 0 102 32 123 77 17 36
18 43 6 61 -6 10 -20 8 -65 -12 -31 -14 -69 -34 -83 -46 -14 -11 -30 -20 -35
-20 -20 0 4 75 38 116 19 23 38 58 41 78 6 40 -4 106 -16 106 -5 0 -30 -19
-56 -42 -45 -42 -47 -45 -55 -118 -5 -41 -9 -78 -10 -82 -1 -18 -28 -6 -47 20
-21 29 -118 72 -162 72 -22 0 -22 -1 10 -61 37 -69 70 -99 110 -99 15 0 35 -3
44 -6 15 -6 45 -53 45 -71 0 -4 -31 -8 -69 -8 -61 0 -74 -3 -112 -31 -24 -17
-45 -36 -46 -41 -2 -6 10 -16 27 -23 36 -15 156 -8 191 10 19 11 27 6 80 -46
33 -32 59 -61 59 -64 0 -4 -63 -6 -140 -4 -117 1 -145 5 -172 21 -38 22 -136
136 -160 185 -9 18 -37 76 -62 129 -69 143 -61 176 29 123 38 -22 48 -24 82
-15 41 11 83 37 83 50 0 11 -105 49 -144 53 -51 5 -41 26 22 43 67 19 132 66
132 96 0 16 -7 19 -47 19 -27 0 -58 3 -71 6 -18 5 -32 -4 -75 -50 -29 -31 -55
-56 -59 -56 -5 0 -8 23 -8 50 0 56 -18 107 -44 129 -22 19 -25 14 -38 -61 -10
-62 -9 -67 16 -110 26 -45 33 -91 17 -117 -15 -24 -35 -6 -76 69 -33 60 -57
87 -135 152 -94 79 -149 138 -176 190 l-14 28 60 -7 c50 -5 60 -3 60 9 0 21
-83 96 -126 114 -36 15 -47 51 -21 73 11 8 20 1 45 -34 23 -33 41 -47 71 -55
41 -11 91 -5 91 11 0 7 -37 40 -110 98 -42 33 -13 37 48 6 43 -22 71 -29 114
-30 31 0 59 3 63 6 3 4 3 25 -1 47 -6 37 -10 42 -58 63 -46 20 -55 21 -96 9
-25 -7 -55 -15 -67 -17 -35 -8 -39 21 -8 62 32 41 38 107 13 132 -14 13 -19
11 -52 -21 -45 -45 -76 -105 -76 -146 0 -31 -44 -120 -60 -120 -4 0 -19 18
-34 41 -26 39 -106 99 -133 99 -30 0 -3 -102 39 -148 12 -12 41 -34 65 -48 35
-20 43 -30 43 -55 0 -16 7 -46 15 -66 8 -20 13 -38 11 -41 -8 -7 -108 29 -154
55 -55 32 -99 85 -140 167 l-33 66 35 34 c33 30 36 38 36 89 0 39 -5 62 -19
78 l-19 24 -22 -20 c-29 -26 -50 -68 -50 -100 0 -36 -15 -31 -67 21 -45 44
-46 47 -35 78 7 18 12 53 12 79 0 41 -5 51 -49 99 -54 58 -67 58 -78 -5 -4
-28 0 -46 21 -82 15 -25 26 -50 24 -55 -2 -5 -25 1 -53 15 -27 13 -59 25 -69
25 -11 0 -29 9 -41 20 -12 11 -37 25 -55 30 -32 9 -36 7 -82 -40 -77 -80 -65
-89 79 -58 40 8 63 8 93 -1 52 -16 51 -28 -3 -27 -33 1 -52 -6 -81 -27 -20
-16 -35 -34 -33 -40 8 -24 85 -31 147 -14 85 24 98 22 144 -25 45 -45 40 -54
-24 -39 -48 11 -82 2 -117 -31 -38 -36 -15 -48 94 -48 126 0 150 -11 191 -89
l33 -61 -39 0 c-68 0 -140 27 -157 59 -8 16 -28 40 -45 55 -26 21 -41 26 -83
25 -95 -1 -99 -10 -29 -58 35 -23 60 -46 57 -52 -10 -15 -136 -10 -185 7 -25
9 -58 13 -74 10 -71 -15 -106 -28 -106 -40 0 -15 68 -46 103 -46 12 0 28 -4
35 -8 16 -11 -4 -29 -76 -68 -32 -16 -60 -40 -69 -57 -18 -36 -20 -105 -4
-135 l12 -23 40 31 c47 38 69 68 69 95 0 28 37 85 55 85 14 0 14 -3 0 -30 -21
-40 -20 -99 2 -107 22 -9 52 31 82 109 26 65 62 108 92 108 26 0 24 -15 -6
-34 -29 -19 -50 -51 -59 -89 -6 -26 -5 -28 16 -22 62 17 99 41 128 82 l33 45
81 -7 c92 -8 130 -21 201 -71 32 -22 72 -38 110 -45 136 -26 175 -49 100 -60
-22 -3 -50 -10 -62 -17 -36 -20 -56 -14 -86 23 -78 97 -189 83 -257 -32 -21
-36 -12 -42 30 -18 41 24 150 14 150 -13 0 -5 -26 -25 -59 -45 -32 -20 -64
-43 -71 -52 -15 -18 -56 -20 -66 -4 -9 15 -93 5 -136 -17 -57 -28 -108 -87
-108 -125 0 -17 85 -2 149 27 99 45 97 24 -10 -78 l-82 -79 6 -47 c3 -26 11
-70 17 -99 l11 -52 51 52 50 51 -6 68 c-8 71 7 119 39 132 25 9 25 8 15 -20
-6 -14 -10 -38 -10 -54 0 -32 35 -120 48 -120 4 0 18 24 30 53 16 39 22 73 22
131 0 70 3 83 26 113 31 41 97 86 119 81 15 -3 15 -6 -4 -30 -12 -14 -21 -40
-21 -58 0 -46 21 -120 34 -120 18 1 86 125 95 176 16 83 67 106 176 80 131
-31 200 -83 259 -195 22 -41 48 -75 70 -90 52 -34 126 -129 126 -160 0 -7 -31
-11 -84 -11 -80 0 -89 -2 -166 -42 -90 -47 -77 -49 -169 16 -23 16 -65 37 -94
46 -46 15 -53 21 -60 53 -17 69 -90 100 -162 68 -49 -22 -115 -77 -115 -97 0
-19 43 -28 88 -19 20 4 49 9 65 12 41 8 34 -15 -10 -34 -21 -8 -50 -24 -65
-34 -18 -13 -43 -19 -85 -19 -69 0 -93 -14 -134 -78 -22 -35 -29 -58 -29 -96
l0 -50 28 26 c15 14 43 33 62 43 19 9 50 31 67 48 18 17 36 28 39 24 3 -3 -4
-35 -17 -70 l-22 -63 -91 -23 c-50 -13 -121 -36 -158 -53 -59 -27 -73 -30
-120 -23 -29 4 -143 10 -253 14 l-200 6 -19 40 c-10 22 -24 51 -30 65 -25 55
-186 96 -186 48 0 -6 16 -33 35 -59 37 -52 45 -93 19 -103 -32 -12 -43 -5 -62
37 -24 53 -107 126 -124 109 -7 -7 -23 -12 -37 -12 -13 0 -32 -7 -42 -16 -17
-15 -16 -18 23 -55 27 -25 38 -44 34 -54 -3 -9 -2 -25 4 -35 8 -16 4 -18 -43
-24 -29 -4 -60 -4 -69 -1 -28 11 -111 -39 -146 -88 -41 -58 -53 -107 -26 -107
36 0 157 49 167 67 6 10 27 34 46 53 l36 35 3 -32 c2 -18 -2 -41 -7 -52 -13
-24 -15 -98 -3 -105 14 -8 140 101 158 137 24 48 44 67 71 67 29 0 29 -5 -2
-55 -19 -32 -24 -54 -25 -107 0 -39 4 -68 10 -68 6 0 10 4 10 10 0 5 37 47 83
94 45 46 90 94 100 105 13 16 29 21 65 21 26 0 64 3 85 6 57 10 48 -16 -32
-85 -63 -54 -75 -60 -128 -66 l-58 -7 -132 -136 c-78 -81 -156 -173 -190 -224
-55 -84 -60 -88 -94 -88 -82 0 -160 -53 -179 -120 -12 -41 -13 -110 -2 -109
30 2 100 51 127 88 47 68 57 63 35 -16 -10 -37 -21 -80 -24 -95 -5 -22 -15
-29 -64 -43 -88 -26 -142 -87 -142 -161 l0 -36 38 7 c50 9 77 28 107 75 31 49
50 53 41 8 -4 -18 -10 -55 -13 -83 -3 -27 -14 -67 -24 -87 -29 -58 -19 -200
18 -240 15 -17 17 -17 35 -2 10 10 18 24 18 32 0 8 9 29 19 46 11 17 24 49 31
72 11 37 10 45 -14 92 -20 39 -26 66 -26 114 0 35 4 70 9 77 10 16 11 14 42
-69 13 -34 84 -120 99 -120 13 0 22 77 15 122 -5 29 -20 55 -52 89 -49 52 -64
92 -56 144 6 40 17 51 32 33 77 -98 122 -126 181 -113 17 4 30 9 30 13 0 3
-15 21 -32 40 l-33 33 32 27 c17 15 39 42 48 60 24 49 39 35 46 -41 7 -89 65
-206 117 -242 20 -14 40 -25 44 -25 12 0 9 133 -3 169 -7 21 -24 38 -49 51
-53 27 -80 65 -80 111 0 22 3 39 8 39 4 0 17 -18 29 -39 18 -31 34 -44 78 -60
70 -26 105 -27 105 -3 -1 9 -20 44 -43 77 -36 50 -51 63 -92 76 -60 21 -75 40
-75 98 0 71 12 78 47 27 39 -55 70 -76 123 -83 45 -6 46 -6 25 44 -22 52 -42
72 -102 98 -57 26 -73 47 -73 99 0 69 76 126 169 126 29 0 45 11 105 71 66 66
146 119 181 119 20 0 19 -11 -7 -64 -19 -40 -20 -48 -8 -90 20 -73 34 -75 58
-8 16 42 30 62 53 76 l32 19 -6 -29 c-3 -16 -14 -57 -24 -91 -18 -66 -27 -73
-91 -73 -41 0 -76 -33 -91 -86 -12 -44 -15 -114 -4 -114 4 0 25 9 47 20 27 13
50 35 69 66 18 30 32 43 38 37 13 -13 -12 -88 -49 -147 -34 -53 -40 -93 -22
-157 l10 -36 51 46 c73 66 82 88 63 145 -16 46 -13 116 5 116 5 0 16 -20 25
-45 16 -40 105 -135 128 -135 11 0 10 69 -2 110 -6 22 -32 55 -71 91 l-62 57
7 54 c11 79 17 98 32 98 9 0 14 -11 14 -31 0 -44 14 -65 64 -94 58 -34 76 -33
76 5 0 42 -34 105 -70 131 -16 13 -35 38 -41 57 -11 32 -9 36 22 67 19 17 60
42 92 53 59 22 137 29 137 13 0 -4 -22 -31 -50 -58 -48 -48 -50 -52 -50 -107
l0 -56 40 20 c45 23 67 51 76 98 7 35 28 43 39 15 3 -10 10 -54 15 -97 12
-105 28 -122 118 -129 37 -3 77 -8 90 -12 19 -6 22 -4 22 21 0 49 -32 87 -104
123 -71 36 -92 57 -102 109 -5 25 -3 32 9 32 8 0 21 -7 28 -17 15 -18 70 -43
94 -43 19 0 20 40 0 66 -8 10 -15 22 -15 25 0 4 42 9 93 11 80 4 101 9 157 38
38 19 94 61 135 101 107 104 185 129 273 89 68 -31 92 -55 157 -153 l60 -92
88 -5 c100 -6 100 -7 17 -72 l-45 -36 -35 19 c-99 54 -182 -72 -109 -165 l20
-26 32 47 c32 48 79 75 62 37 -4 -11 -15 -41 -24 -67 -10 -29 -29 -58 -48 -73
-31 -24 -46 -56 -58 -126 -7 -44 -14 -46 -44 -14 -13 13 -39 26 -62 30 -40 6
-129 -10 -129 -24 0 -5 17 -14 38 -21 49 -16 82 -38 82 -55 0 -11 -17 -14 -72
-14 -72 0 -73 0 -108 40 -33 38 -40 41 -110 50 -41 5 -76 7 -78 5 -8 -8 23
-86 42 -104 12 -11 39 -21 61 -23 58 -4 54 -32 -10 -74 -27 -18 -60 -41 -72
-52 -21 -19 -51 -97 -41 -107 3 -3 35 8 71 24 55 25 70 37 87 70 11 23 25 41
30 41 5 0 19 -18 30 -41 18 -35 65 -69 96 -69 13 0 -6 60 -32 102 -33 52 -24
72 35 76 45 3 50 -6 26 -48 -22 -39 -18 -65 20 -110 19 -23 35 -44 35 -46 0
-2 -44 0 -98 3 -108 6 -168 -4 -264 -43 -76 -32 -98 -30 -136 9 -39 40 -40 66
-7 97 14 13 30 41 36 62 8 33 7 45 -8 71 -17 28 -25 32 -68 35 l-48 3 17 -26
c20 -31 26 -96 9 -102 -7 -2 -18 11 -26 29 -25 58 -48 71 -111 64 -61 -8 -54
-15 -71 68 -7 33 -74 96 -102 96 -22 0 -23 -4 -23 -68 0 -54 4 -72 18 -85 10
-10 24 -17 30 -17 16 0 15 -25 0 -38 -7 -5 -29 -13 -48 -17 -50 -11 -69 -25
-91 -68 -17 -33 -18 -43 -8 -77 24 -80 51 -72 102 29 30 60 59 92 72 80 3 -3
-2 -20 -11 -38 -17 -34 -13 -70 12 -108 20 -31 27 -29 48 15 l18 37 13 -41
c20 -68 23 -69 76 -19 27 26 55 45 62 42 7 -2 22 -23 33 -48 24 -49 20 -60
-27 -85 -38 -19 -62 -18 -93 7 -44 34 -76 38 -123 16 l-42 -21 -48 21 c-74 33
-108 36 -154 13 -21 -11 -39 -24 -39 -29 0 -5 19 -21 43 -37 34 -23 51 -28 95
-26 28 1 52 -2 52 -6 0 -5 -16 -29 -35 -54 -36 -46 -36 -46 -107 -50 -68 -4
-72 -5 -110 -46 -42 -45 -47 -76 -15 -96 14 -9 30 -4 77 22 57 31 60 32 60 12
0 -11 -11 -43 -25 -70 -14 -27 -25 -66 -25 -86 0 -39 47 -137 63 -131 8 2 23
36 50 115 9 29 8 39 -13 76 -22 41 -22 76 -1 76 5 0 12 -9 16 -19 7 -24 59
-81 73 -81 5 0 13 32 16 70 6 61 5 75 -13 104 -26 42 -26 51 0 87 28 40 43 37
35 -6 -4 -19 -2 -44 4 -55 12 -23 80 -71 91 -65 3 3 10 21 13 40 6 29 1 46
-23 89 -35 60 -38 81 -15 90 31 12 54 6 89 -25 48 -43 89 -41 165 5 65 41 80
44 80 18 0 -23 -47 -67 -127 -121 -34 -23 -76 -61 -93 -86 -24 -35 -37 -45
-59 -45 -88 0 -114 -22 -125 -102 l-6 -48 41 30 c51 37 79 28 79 -24 0 -29 -5
-35 -42 -52 -33 -15 -46 -29 -65 -70 l-23 -52 19 -46 c11 -25 24 -46 28 -46 4
0 19 28 33 62 14 34 30 63 37 65 17 6 25 -50 18 -122 l-7 -65 38 -43 c22 -23
46 -53 56 -67 21 -33 34 -20 46 48 9 49 7 55 -19 95 -16 23 -37 53 -49 67 -11
14 -21 34 -22 45 -5 36 17 29 40 -14 22 -38 100 -94 103 -74 9 63 -14 114 -72
163 -43 36 -49 46 -49 81 0 46 13 51 30 10 16 -40 61 -80 106 -96 37 -13 39
-12 43 8 5 35 -28 85 -79 117 -46 29 -70 63 -70 98 0 29 58 90 135 142 50 34
82 64 103 98 31 51 97 110 109 98 4 -3 6 -30 4 -59 -2 -49 -5 -55 -56 -102
-49 -47 -85 -114 -85 -162 0 -35 75 19 105 76 17 34 45 42 45 12 0 -10 3 -38
6 -62 5 -44 5 -44 -41 -73 -58 -36 -69 -61 -51 -118 17 -55 37 -98 46 -98 4 0
10 23 13 51 7 56 31 103 50 96 8 -2 12 -29 13 -73 0 -38 6 -80 13 -92 12 -22
95 -82 113 -82 14 0 8 64 -11 105 -10 22 -30 58 -44 79 -15 21 -27 50 -27 65
0 24 2 23 43 -21 23 -26 55 -55 71 -64 l29 -18 -7 43 c-10 65 -30 96 -84 129
-49 30 -72 73 -72 133 0 23 2 22 36 -14 45 -47 87 -69 127 -65 l31 3 -45 51
c-24 29 -63 62 -85 74 -72 38 -86 114 -34 173 49 56 75 62 164 38 98 -27 190
-71 266 -127 100 -73 137 -80 216 -38 27 14 72 28 100 31 46 5 53 3 64 -17 11
-20 16 -21 78 -16 114 11 166 -18 77 -42 -27 -8 -61 -25 -76 -38 -34 -32 -52
-30 -66 6 -13 34 -52 53 -89 44 -39 -10 -94 -67 -94 -98 0 -24 2 -26 20 -16
26 14 105 9 105 -6 0 -14 -104 -94 -123 -94 -7 0 -30 9 -52 20 -47 24 -107 26
-138 4 -23 -16 -72 -86 -72 -103 0 -5 24 -13 54 -16 43 -6 61 -3 94 14 23 12
44 21 47 21 18 0 -3 -30 -60 -86 -59 -58 -65 -68 -65 -104 0 -46 33 -120 54
-120 8 0 28 16 45 35 29 34 31 40 31 119 0 72 3 85 21 102 l21 19 -7 -42 c-5
-30 -2 -58 10 -93 18 -55 24 -59 47 -32 37 42 49 81 47 164 -1 74 1 84 21 100
20 16 50 25 50 14 0 -2 -7 -21 -16 -42 -23 -55 -4 -194 26 -194 5 0 21 23 35
50 22 44 25 61 23 135 -3 80 -2 85 26 114 16 17 44 35 62 41 49 16 328 18 389
2 28 -7 90 -19 138 -26 126 -21 262 -87 467 -227 47 -32 105 -78 130 -101 l45
-42 -47 -12 c-26 -6 -67 -23 -90 -36 -70 -41 -177 -62 -271 -54 -45 4 -85 12
-88 18 -4 7 -1 24 7 39 23 46 18 91 -18 137 -18 23 -36 42 -40 42 -16 0 -48
-92 -48 -136 0 -58 -16 -56 -58 6 -27 39 -43 52 -81 65 -42 14 -81 13 -81 -2
0 -2 21 -34 47 -70 31 -43 58 -70 82 -80 57 -24 65 -29 68 -40 2 -6 -10 -16
-27 -23 -34 -14 -50 -43 -50 -91 l0 -29 68 36 c37 19 76 44 88 55 23 21 46 24
75 9 19 -11 19 -12 2 -42 -30 -50 -60 -68 -117 -68 -81 0 -108 -23 -134 -111
-26 -87 -27 -110 -7 -149 13 -25 13 -32 0 -57 -26 -49 -21 -56 35 -51 33 3 64
14 88 32 l37 26 3 -30 c2 -18 -6 -49 -17 -71 -12 -22 -21 -53 -21 -70 0 -35
29 -96 59 -123 21 -19 21 -19 51 47 16 37 30 74 30 82 0 9 -11 38 -25 65 -29
57 -33 92 -10 84 8 -4 15 -13 15 -21 0 -28 66 -83 99 -83 25 0 31 4 31 23 0
34 -34 82 -82 114 -59 39 -74 72 -58 129 7 24 16 44 20 44 4 0 13 -14 20 -30
14 -34 47 -55 103 -65 25 -5 37 -4 37 4 0 27 -30 79 -69 118 -34 35 -41 49
-41 81 0 71 89 131 195 132 17 0 50 14 75 30 60 40 74 40 56 -2 -8 -18 -19
-45 -25 -60 -8 -22 -17 -28 -40 -28 -45 0 -79 -19 -103 -58 -20 -33 -30 -104
-16 -118 9 -9 74 39 110 80 14 17 29 28 32 25 3 -3 2 -25 -2 -50 -6 -38 -12
-45 -38 -54 -43 -14 -64 -34 -85 -80 -21 -45 -24 -90 -8 -101 6 -3 35 17 65
47 43 43 54 49 60 36 6 -16 2 -58 -12 -125 -4 -22 -1 -40 9 -56 17 -25 103
-86 122 -86 7 0 15 16 18 35 7 44 -13 96 -59 149 -19 22 -34 49 -34 60 0 17 5
15 33 -15 30 -33 110 -69 123 -56 13 13 -47 114 -90 153 -40 36 -46 46 -46 81
0 22 3 43 7 46 11 12 33 -14 33 -39 0 -57 47 -104 105 -104 33 0 40 19 25 67
-14 44 -43 79 -82 99 -36 19 -72 88 -59 112 17 32 49 53 79 54 47 1 234 -160
303 -260 28 -43 80 -106 114 -142 35 -36 88 -106 118 -157 56 -94 150 -318
162 -386 12 -71 41 -122 98 -170 33 -29 67 -70 86 -106 35 -66 38 -83 17 -101
-8 -6 -16 -32 -18 -58 -2 -25 -8 -47 -13 -49 -6 -2 -21 17 -33 41 -24 50 -51
72 -101 82 -32 7 -33 6 -26 -17 19 -62 58 -120 94 -143 29 -19 40 -33 43 -58
3 -18 9 -41 13 -52 17 -39 -25 -10 -85 59 -38 44 -64 85 -70 110 -17 66 -27
82 -67 111 -70 51 -78 76 -44 139 23 43 13 87 -31 137 l-28 33 -20 -24 c-30
-35 -34 -67 -15 -117 9 -25 15 -48 12 -50 -6 -6 -80 39 -114 70 -18 15 -23 30
-23 69 0 42 -5 54 -34 83 -28 28 -42 34 -75 34 -23 0 -41 -2 -41 -4 0 -2 16
-27 35 -56 32 -47 44 -80 29 -80 -11 0 -50 24 -85 52 -50 40 -137 39 -173 -1
-16 -18 -15 -21 21 -51 37 -31 39 -31 113 -25 75 6 110 1 110 -16 0 -5 -16 -9
-35 -9 -26 0 -45 -9 -75 -37 -23 -20 -37 -40 -33 -44 7 -6 111 -29 134 -29 5
0 24 14 44 31 27 24 41 30 61 25 57 -15 101 -66 57 -66 -10 0 -35 -5 -56 -11
-41 -11 -77 -56 -77 -95 0 -20 3 -21 35 -14 28 6 40 4 60 -12 37 -29 31 -38
-30 -38 -67 0 -96 13 -119 52 -25 42 -73 68 -124 68 -40 0 -43 -2 -36 -22 17
-58 45 -98 72 -104 44 -9 52 -13 52 -23 0 -19 -71 -31 -117 -19 -53 13 -64 6
-103 -73 -23 -45 -27 -59 -17 -68 22 -17 105 14 153 59 60 55 77 55 48 -1 -18
-37 -11 -109 12 -109 24 0 89 73 107 121 22 57 54 75 103 59 19 -7 34 -15 34
-19 0 -4 -22 -16 -49 -28 -33 -14 -57 -32 -70 -54 l-21 -34 32 -3 c57 -6 99 8
143 49 25 23 52 39 66 39 34 0 176 -83 227 -133 46 -44 104 -135 96 -149 -3
-4 -25 2 -49 14 -37 18 -45 27 -45 49 0 39 -44 87 -86 95 -20 4 -40 2 -45 -3
-13 -13 10 -71 34 -92 31 -25 20 -41 -27 -41 -39 0 -47 4 -67 33 -37 54 -59
67 -116 67 -28 0 -55 -4 -58 -10 -9 -14 26 -58 58 -72 15 -7 27 -18 27 -24 0
-12 -53 -24 -111 -24 -20 0 -47 -8 -58 -17 -19 -16 -40 -73 -41 -110 0 -34
111 12 153 63 38 46 65 47 37 2 -19 -32 -26 -78 -14 -91 14 -13 101 42 113 72
14 32 48 68 57 58 3 -3 1 -14 -5 -25 -6 -12 -11 -39 -11 -61 0 -57 19 -53 94
19 73 70 94 74 153 31 44 -32 78 -80 88 -126 4 -16 26 -49 48 -72 39 -41 40
-42 23 -67 -20 -32 -21 -32 -58 -1 -16 14 -40 25 -54 25 -26 0 -107 -67 -98
-81 3 -5 39 -9 80 -9 83 0 83 0 30 -64 l-25 -30 -40 28 c-48 34 -73 30 -116
-14 -24 -25 -27 -34 -18 -48 11 -18 48 -21 96 -8 19 6 27 5 27 -5 0 -21 -40
-72 -73 -94 -17 -11 -36 -34 -43 -51 -11 -26 -10 -36 6 -72 11 -23 23 -42 27
-42 4 0 23 14 41 31 29 27 32 35 32 89 0 40 5 64 16 74 23 23 27 20 21 -16 -6
-44 15 -82 53 -98 26 -11 33 -11 40 -1 10 18 -3 69 -28 111 -27 44 -28 76 -2
118 30 49 43 41 35 -21 -6 -48 -4 -57 18 -83 l25 -29 23 48 c22 45 22 48 6 82
-20 42 -21 68 -6 98 25 47 57 48 138 7 49 -24 65 -39 90 -83 27 -47 31 -64 31
-129 0 -48 8 -104 24 -158 35 -126 38 -152 30 -283 l-7 -120 -50 -66 c-30 -40
-54 -83 -59 -109 -5 -23 -13 -42 -16 -42 -18 1 -32 19 -55 71 -14 33 -37 65
-56 79 -18 12 -44 41 -58 64 -14 22 -32 47 -41 53 -17 14 -95 16 -127 4 -19
-7 -18 -10 12 -39 17 -18 38 -32 47 -32 8 0 18 -4 21 -10 7 -11 -86 -60 -115
-60 -43 0 -79 -28 -90 -71 -14 -49 -6 -89 17 -89 25 0 102 68 121 107 20 43
51 66 71 53 12 -7 9 -14 -12 -40 -27 -31 -32 -61 -18 -109 4 -14 11 -26 17
-28 14 -5 76 83 83 120 15 74 69 53 95 -37 9 -29 27 -63 41 -76 18 -17 25 -34
25 -62 0 -46 -8 -47 -82 -13 -29 14 -64 25 -78 25 -31 0 -110 -36 -110 -49 0
-17 76 -51 113 -51 19 0 45 9 59 20 23 17 27 18 46 4 29 -20 28 -32 -3 -44
-37 -14 -65 -67 -65 -122 0 -26 4 -49 8 -52 17 -10 92 49 103 81 6 18 14 33
18 33 12 0 81 -125 81 -147 0 -11 -11 -53 -26 -94 -23 -68 -26 -94 -34 -339
-10 -297 -14 -319 -96 -507 -24 -56 -44 -109 -44 -117 0 -24 -14 -26 -59 -5
-24 10 -52 19 -63 19 -26 0 -68 -44 -68 -72 0 -13 -16 -47 -35 -77 -21 -33
-37 -74 -41 -103 -4 -29 -12 -48 -19 -48 -14 0 -35 51 -35 85 0 27 -29 55 -57
55 -26 0 -63 -40 -63 -69 0 -42 18 -62 53 -59 27 3 34 -2 54 -37 33 -58 30
-84 -17 -130 -24 -24 -43 -35 -49 -30 -10 11 -51 120 -51 135 0 6 11 10 25 10
32 0 32 13 0 30 -13 7 -43 35 -65 62 -23 26 -49 48 -60 48 -17 0 -17 -1 1 -36
22 -43 19 -50 -21 -59 -33 -7 -60 -47 -60 -90 0 -42 -24 -28 -53 30 -17 34
-27 72 -27 99 0 30 -6 48 -20 61 -10 9 -24 33 -30 51 -10 30 -16 34 -45 34
-24 0 -38 -6 -45 -19 -15 -30 -2 -50 40 -61 43 -12 54 -32 45 -82 -5 -25 -1
-40 13 -58 19 -25 52 -84 52 -95 0 -18 -32 0 -45 25 -8 16 -25 35 -38 41 -12
6 -38 26 -57 45 -37 35 -103 67 -157 78 -47 8 -41 -8 12 -33 25 -12 73 -48
106 -81 33 -33 64 -60 68 -60 4 0 13 -11 19 -25 15 -32 1 -33 -41 -1 -18 13
-60 37 -94 54 -49 25 -63 28 -63 17 0 -8 12 -25 27 -38 60 -50 97 -88 76 -78
-12 6 -30 10 -40 9 -10 -1 -39 8 -65 22 -55 28 -69 22 -39 -16 32 -40 23 -78
-9 -39 -17 21 -42 19 -38 -2 2 -14 -3 -17 -21 -15 -34 3 -37 9 -18 30 33 36
70 162 47 162 -6 0 -30 -18 -54 -40 -45 -41 -73 -52 -62 -24 3 9 6 19 6 23 0
4 25 33 55 65 55 57 76 108 36 86 -23 -12 -51 -13 -51 -2 0 4 15 14 33 22 32
15 38 35 23 70 -4 10 4 21 24 32 35 20 37 35 10 89 -26 50 -45 58 -74 30 -29
-28 -40 -27 -32 3 4 16 -1 32 -13 47 l-20 24 -45 -24 c-44 -23 -60 -44 -54
-72 2 -7 -6 -15 -17 -17 -54 -11 -57 -42 -10 -95 33 -38 33 -38 64 -22 18 9
36 13 41 10 6 -3 10 -31 10 -62 l0 -55 -37 7 c-21 4 -43 15 -51 26 -17 24 -28
24 -60 -2 l-27 -21 -5 38 c-6 44 -21 53 -48 26 -16 -16 -19 -29 -15 -63 5 -44
5 -44 -42 -67 -32 -16 -51 -32 -58 -52 -8 -20 -18 -30 -32 -30 -11 0 -33 -9
-50 -20 -56 -37 -89 -20 -37 20 34 27 51 57 52 93 l0 27 -40 -20 c-49 -25 -50
-25 -50 5 0 19 9 29 36 42 24 12 37 26 41 45 4 21 11 28 28 28 18 0 27 10 40
44 23 60 17 90 -17 94 -26 3 -28 7 -28 46 0 56 -16 70 -72 61 -60 -10 -78 -22
-78 -50 0 -22 -4 -25 -40 -25 -29 0 -42 -5 -50 -20 -6 -11 -8 -26 -4 -32 4 -7
7 -31 5 -54 -2 -37 1 -43 21 -46 17 -2 22 -9 20 -23 -2 -11 -4 -27 -5 -35 -1
-8 15 -22 36 -33 30 -14 38 -23 35 -40 -3 -24 -16 -25 -65 -6 -18 7 -36 10
-40 6 -12 -13 23 -61 61 -82 20 -11 36 -26 36 -32 0 -17 -19 -16 -50 2 -33 19
-70 19 -70 0 0 -8 27 -32 59 -55 54 -36 82 -72 67 -87 -3 -3 -19 9 -36 26 -30
29 -36 31 -106 31 -74 0 -87 -7 -59 -30 19 -16 16 -55 -3 -55 -8 0 -20 17 -27
39 -19 55 -31 63 -38 27 -4 -17 -11 -31 -16 -31 -10 0 -31 62 -31 93 0 9 -6
17 -13 17 -23 0 -48 -36 -58 -82 -12 -56 -29 -98 -40 -98 -4 0 -20 23 -35 50
-27 50 -38 59 -49 40 -14 -23 -25 -7 -25 35 0 25 -4 45 -9 45 -12 0 -51 -63
-51 -81 0 -8 -5 -21 -10 -29 -8 -12 -16 -8 -47 25 -32 34 -38 37 -41 21 -4
-18 -50 -65 -64 -66 -16 0 -7 37 27 115 34 76 35 84 29 158 -7 87 -25 99 -35
26 -14 -90 -38 -160 -70 -201 l-34 -42 -3 34 c-4 39 -18 61 -35 55 -7 -2 -25
-6 -40 -9 -23 -6 -27 -10 -21 -29 3 -12 17 -33 30 -48 23 -24 33 -79 15 -79
-5 0 -28 21 -50 47 l-42 48 4 -40 c3 -22 8 -51 12 -64 7 -19 5 -22 -11 -19
-16 2 -44 43 -57 83 -2 6 -11 4 -20 -4 -15 -12 -18 -10 -28 19 -9 25 -23 37
-64 56 -29 12 -56 28 -60 34 -4 6 -15 -5 -26 -27 -15 -28 -18 -49 -14 -80 8
-54 -8 -57 -48 -11 l-29 33 5 -35 c3 -19 8 -43 12 -52 11 -28 -22 -22 -41 7
-12 19 -15 37 -11 70 4 25 4 45 0 45 -3 0 -21 -9 -39 -21 -32 -19 -34 -20 -34
-2 0 10 4 34 10 53 11 37 4 100 -11 100 -5 0 -17 -16 -27 -36 -17 -34 -20 -35
-35 -19 -25 25 -21 65 13 115 16 25 30 52 30 61 0 21 -30 33 -44 19 -17 -17
-32 -12 -44 15 -20 43 -72 27 -72 -22 0 -16 -8 -27 -25 -33 -35 -13 -31 -32
15 -69 22 -17 43 -44 46 -59 3 -15 15 -46 27 -69 12 -23 18 -45 15 -49 -4 -4
-23 7 -43 25 -33 28 -55 39 -55 26 0 -3 7 -22 15 -42 18 -43 19 -85 3 -101
-24 -24 -33 -12 -30 36 3 43 2 46 -12 28 -9 -10 -17 -23 -19 -29 -6 -18 -27 3
-27 26 0 12 14 42 30 66 26 38 40 91 25 91 -2 0 -20 -14 -39 -30 -34 -30 -35
-30 -45 -11 -17 31 -13 98 9 141 29 56 26 72 -9 68 -22 -2 -35 4 -51 25 -24
31 -42 34 -64 12 -12 -12 -13 -22 -6 -41 13 -34 14 -34 -19 -34 -24 0 -41 -14
-41 -35 0 -2 20 -16 44 -30 38 -22 63 -51 53 -61 -1 -2 -25 3 -52 11 -27 9
-52 12 -57 7 -13 -13 20 -51 62 -72 39 -20 70 -54 70 -77 0 -22 -19 -14 -49
19 -16 18 -33 30 -37 26 -4 -5 1 -32 11 -62 10 -29 15 -61 12 -70 -8 -20 -37
-21 -37 -1 0 22 -18 18 -25 -5 -14 -45 -37 -13 -24 34 9 31 -12 96 -30 96 -6
0 -11 -16 -11 -35 0 -19 -9 -52 -20 -72 -11 -21 -20 -43 -20 -50 0 -24 -20
-13 -26 15 -3 15 -8 34 -10 42 -2 9 0 30 5 48 17 59 -26 26 -54 -41 -16 -40
-40 -49 -50 -19 -7 24 -85 88 -85 70 0 -7 7 -22 15 -32 17 -22 19 -36 7 -36
-5 0 -19 18 -31 41 -19 32 -22 51 -19 90 9 87 -34 73 -50 -16 l-8 -50 -33 65
c-35 69 -58 100 -74 100 -10 0 -6 -30 8 -64 8 -17 5 -19 -33 -14 -31 5 -45 2
-57 -12 -15 -16 -14 -20 8 -46 l25 -29 -29 -17 c-16 -10 -35 -34 -44 -53 -22
-54 -49 -45 -53 19 l-3 48 -25 -23 c-13 -12 -24 -33 -24 -46 0 -17 -6 -23 -21
-23 -20 0 -21 4 -15 47 3 27 9 60 12 75 9 39 -14 37 -27 -2 -26 -72 -58 -1
-34 73 24 74 5 109 -38 70 -18 -17 -20 -17 -39 10 -22 30 -40 34 -57 13 -10
-11 -10 -20 -1 -36 10 -18 8 -24 -7 -36 -17 -13 -17 -15 6 -34 13 -11 30 -20
37 -20 18 0 54 -58 54 -87 0 -29 -7 -29 -38 0 -23 20 -25 21 -17 2 25 -67 9
-76 -30 -17 -25 39 -75 82 -94 82 -6 0 1 -16 14 -36 27 -40 41 -95 30 -121 -5
-14 -13 -6 -32 37 -14 30 -29 62 -33 70 -4 8 -18 15 -31 15 -35 0 -38 -34 -4
-61 15 -12 26 -26 24 -32 -4 -10 -31 -3 -93 23 -15 7 -13 -1 13 -38 24 -35 28
-47 16 -47 -8 0 -15 3 -15 8 0 4 -9 13 -21 20 -18 11 -24 11 -40 -4 -18 -17
-19 -16 -19 24 0 23 9 64 20 92 22 57 18 61 -21 24 -30 -29 -49 -25 -49 9 0
14 11 28 30 39 56 32 48 106 -10 93 -23 -5 -29 -2 -34 18 -12 49 -68 41 -58
-8 4 -22 1 -25 -27 -25 -26 0 -31 -4 -31 -25 0 -21 7 -26 45 -36 34 -9 45 -16
45 -31 0 -17 -5 -19 -45 -13 -42 7 -45 6 -64 -25 -11 -18 -22 -54 -26 -81 -8
-55 -35 -90 -35 -45 0 25 -35 106 -45 106 -2 0 -3 -23 -2 -51 2 -57 -16 -78
-28 -32 l-7 28 -16 -32 c-9 -18 -19 -33 -24 -33 -11 0 -10 43 2 74 12 33 3 33
-32 -1 l-29 -27 -24 29 -24 30 -1 -41 c0 -61 -33 -87 -45 -35 -3 16 -13 35
-21 42 -11 9 -14 7 -14 -10 0 -30 -18 -61 -34 -61 -7 0 -18 11 -24 24 -6 14
-20 29 -30 35 -16 8 -24 4 -48 -20 -35 -37 -75 -59 -107 -59 -31 0 -67 39 -67
73 0 16 -8 30 -20 37 -18 10 -20 8 -20 -27 0 -60 -13 -70 -43 -34 -33 40 -41
39 -33 -4 6 -28 4 -35 -8 -35 -24 0 -49 57 -42 94 4 17 9 43 13 59 9 43 -15
32 -39 -18 -25 -52 -39 -56 -59 -17 l-14 27 -3 -43 c-3 -38 -5 -41 -23 -32
-16 9 -21 7 -28 -12 -8 -21 -10 -21 -16 -5 -4 10 0 37 10 63 9 25 15 48 12 51
-3 3 -24 -14 -45 -38 l-40 -42 -12 49 c-7 27 -14 69 -17 94 -6 53 -17 70 -47
70 -55 0 -60 -47 -11 -101 50 -55 47 -79 -5 -39 -14 11 -33 20 -43 20 -15 0
-12 -9 18 -52 32 -48 45 -88 29 -88 -3 0 -19 11 -36 25 -34 29 -68 33 -68 9 0
-20 -41 -94 -52 -94 -4 0 -13 21 -19 46 -12 48 -25 48 -31 0 -4 -35 -24 -45
-32 -18 -6 18 -9 18 -36 -9 -37 -38 -53 -37 -96 6 -19 19 -37 35 -39 35 -3 0
-2 -13 1 -30 4 -19 2 -30 -5 -30 -20 0 -51 39 -51 65 0 33 -13 32 -43 -6 l-24
-31 -24 39 -24 38 -5 -55 c-3 -30 -9 -55 -14 -55 -6 0 -15 22 -20 48 -10 46
-26 55 -26 17 0 -28 -25 -43 -40 -25 -7 8 -23 15 -35 15 -28 0 -40 39 -37 110
2 41 1 43 -12 27 -8 -11 -17 -35 -21 -56 -7 -42 -21 -68 -31 -58 -4 4 -8 40
-10 79 -3 90 -20 198 -32 210 -6 6 -12 -8 -16 -37 -9 -56 -23 -55 -54 6 -13
25 -36 53 -52 62 -28 17 -29 17 -49 -10 -12 -14 -24 -37 -27 -50 -11 -41 -34
-28 -34 20 0 42 -40 124 -70 142 -25 16 -31 -12 -10 -48 19 -31 20 -44 14
-113 l-7 -77 -28 30 c-36 41 -60 53 -103 53 -45 0 -54 -14 -17 -30 56 -23 92
-89 76 -140 -9 -28 -22 -25 -30 8 -5 24 -47 82 -59 82 -3 0 -6 -15 -8 -33 -2
-24 -8 -32 -23 -32 -24 0 -33 29 -34 116 -1 40 -7 73 -16 85 -13 18 -14 17
-15 -17 0 -75 -34 -54 -51 32 -10 49 -18 65 -48 90 -23 19 -45 29 -61 27 -22
-3 -25 -8 -28 -49 -3 -43 0 -49 30 -70 63 -43 74 -69 28 -69 -45 0 -39 -28 8
-35 20 -4 42 -8 48 -10 14 -4 60 -92 52 -100 -3 -4 -30 1 -59 9 -77 23 -83 22
-64 -15 9 -16 32 -47 51 -68 34 -38 43 -61 25 -61 -6 0 -16 8 -23 18 -7 10
-19 22 -27 26 -10 7 -12 2 -6 -22 5 -27 4 -30 -17 -30 -13 0 -34 -3 -47 -7
-21 -7 -23 -6 -16 11 25 60 28 93 14 145 -21 78 -44 78 -44 0 0 -49 -4 -65
-22 -83 l-22 -22 -12 30 c-13 34 -14 75 -4 165 7 63 6 67 -22 100 -27 31 -28
36 -16 59 7 14 13 33 13 42 0 14 6 16 30 12 42 -9 60 10 60 62 0 23 4 54 10
68 7 19 5 30 -9 47 -17 22 -21 22 -61 10 -48 -14 -56 -11 -41 17 18 34 13 77
-12 101 -20 18 -28 20 -51 11 -15 -5 -43 -10 -62 -10 -27 0 -37 -5 -45 -24
-10 -20 -8 -31 10 -59 24 -39 18 -49 -26 -45 -62 4 -108 -57 -66 -87 11 -8 26
-28 33 -46 12 -29 16 -31 52 -25 l38 6 -2 -42 c-1 -24 1 -58 6 -76 10 -43 -13
-43 -49 -1 -31 38 -42 32 -29 -18 7 -28 22 -47 58 -75 48 -35 90 -94 79 -111
-2 -4 -19 1 -37 13 -33 20 -116 28 -116 12 0 -16 36 -41 80 -57 53 -19 85 -47
111 -97 23 -44 23 -48 5 -48 -7 0 -21 12 -31 26 -11 17 -23 24 -35 21 -12 -3
-28 6 -44 24 -16 17 -36 29 -51 29 -29 0 -30 -2 -9 -41 8 -17 13 -33 10 -36
-3 -3 -29 11 -58 30 -59 41 -118 58 -118 36 0 -8 14 -22 30 -31 48 -27 72 -75
65 -128 -4 -25 -7 -56 -8 -69 l-2 -23 6355 -2 c6350 -1 6355 -1 6352 19 -12
71 -38 129 -80 180 -48 57 -62 66 -62 40 0 -8 -4 -15 -10 -15 -5 0 -10 11 -10
25 0 32 -13 32 -30 1 -21 -40 -38 -40 -46 -1 -5 28 -11 35 -29 35 -15 0 -26 8
-30 20 -7 21 -39 27 -50 10 -4 -6 -13 -5 -25 2 -16 11 -22 9 -35 -7 -15 -20
-16 -19 -39 8 l-23 29 -13 -32 -13 -31 -36 34 c-20 18 -48 41 -63 50 -26 16
-27 16 -54 -12 -23 -25 -31 -28 -52 -20 -19 7 -29 6 -44 -8 -17 -15 -21 -15
-28 -3 -6 8 -10 18 -10 22 0 5 -56 38 -65 38 -2 0 -8 -14 -15 -30 -15 -36 -20
-37 -50 -5 -31 33 -43 32 -63 -10 -20 -42 -44 -45 -53 -7 -11 44 -16 46 -31
11 l-14 -34 -16 28 c-14 27 -15 28 -29 10 -13 -17 -15 -17 -28 0 -16 21 -46
22 -72 2 -27 -21 -39 -18 -52 10 -13 29 -28 31 -54 8 -17 -16 -19 -15 -30 15
-7 18 -17 32 -22 32 -5 0 -25 -17 -44 -38 l-35 -37 -15 32 c-18 39 -24 40 -37
11 -6 -12 -20 -22 -32 -23 -13 -1 -32 -10 -43 -20 -18 -16 -23 -17 -30 -5 -6
8 -10 18 -10 23 0 16 -18 6 -23 -14 -7 -27 -25 -16 -43 28 -17 39 -30 35 -51
-15 l-15 -36 -16 22 c-17 22 -17 22 -49 3 l-31 -20 -9 37 c-6 24 -17 41 -33
49 -21 10 -28 9 -47 -9 -32 -30 -29 -52 13 -71 l36 -18 -27 -21 c-22 -17 -30
-19 -51 -9 -35 16 -115 13 -138 -4 -28 -21 -31 -20 -51 25 -28 61 -41 67 -49
21 -3 -21 -12 -44 -20 -50 -13 -11 -15 -5 -18 40 -2 32 -8 54 -16 57 -10 3
-13 -5 -10 -29 2 -29 0 -34 -19 -37 -12 -2 -33 -16 -47 -33 l-25 -29 -21 27
c-12 15 -24 40 -27 55 -6 32 -15 35 -37 12 -17 -17 -19 -23 -17 -69 l1 -30
-29 34 c-25 28 -33 32 -45 22 -11 -10 -17 -5 -32 26 -25 49 -44 54 -44 11 -1
-31 -1 -32 -15 -14 -25 33 -18 70 23 117 21 24 44 59 50 78 11 32 11 33 -12
27 -39 -10 -38 5 4 44 47 43 54 76 15 66 -14 -3 -36 -9 -50 -12 -14 -4 -25 -2
-25 3 0 22 41 61 71 67 42 8 59 23 59 52 0 19 -5 24 -24 24 -22 0 -25 5 -28
43 -3 40 -4 42 -33 39 -40 -5 -55 -19 -55 -51 0 -23 -6 -28 -45 -39 -25 -7
-45 -17 -45 -22 0 -6 16 -18 35 -27 37 -17 44 -38 23 -66 -12 -15 -17 -15 -60
-2 -43 12 -48 12 -48 -1 0 -16 38 -56 80 -85 37 -25 17 -42 -27 -24 -81 34
-98 6 -28 -46 44 -34 44 -34 45 -96 0 -52 -3 -64 -19 -73 -31 -16 -41 -12 -41
19 0 18 -11 43 -27 62 l-28 33 -5 -34 c-11 -75 -46 -38 -61 65 -9 63 -36 135
-50 135 -5 0 -9 -23 -11 -52 -4 -75 -28 -77 -28 -2 0 57 1 59 53 107 28 26 67
55 85 62 24 10 32 20 32 39 0 21 5 25 38 28 32 3 37 7 40 30 2 18 -3 30 -16
37 -20 11 -20 11 -1 48 25 50 24 60 -10 78 -26 13 -31 13 -45 0 -8 -8 -18 -24
-21 -35 -9 -29 -27 -24 -50 13 -14 22 -28 32 -45 32 -23 0 -25 -4 -24 -40 0
-22 4 -47 8 -56 5 -13 0 -18 -25 -23 -22 -4 -35 -2 -41 6 -11 18 -10 71 2 102
11 30 9 31 -29 11 -39 -20 -57 -66 -41 -104 9 -23 9 -33 -2 -50 -19 -31 -31
-25 -24 12 4 19 0 54 -9 83 -8 27 -15 64 -15 83 0 33 1 33 38 29 46 -6 77 5
92 32 10 18 7 25 -19 49 l-30 28 24 23 c24 23 32 60 19 94 -9 24 -52 19 -80
-9 l-26 -26 -23 26 c-29 31 -36 31 -63 2 -24 -25 -27 -48 -12 -76 7 -14 4 -20
-15 -29 -29 -14 -41 -52 -25 -82 10 -18 18 -21 45 -17 30 5 33 3 39 -25 11
-55 14 -54 -91 -32 -49 10 -73 -21 -73 -94 0 -32 -6 -66 -13 -76 -12 -17 -14
-16 -25 8 -20 45 -32 185 -33 396 -3 627 0 882 12 980 14 114 14 108 0 355 -8
135 -16 194 -40 289 -38 144 -38 160 -5 222 51 98 120 142 175 114 44 -23 99
-83 99 -108 0 -13 -14 -40 -31 -60 -58 -66 -79 -152 -38 -152 55 0 109 49 109
100 0 25 10 50 21 50 13 0 39 -56 39 -86 0 -17 -14 -45 -38 -73 -21 -25 -44
-56 -50 -68 -17 -31 -15 -83 2 -83 25 0 75 50 78 77 4 36 22 39 36 8 17 -38
15 -60 -13 -115 -27 -53 -32 -108 -14 -159 15 -42 41 -40 71 7 54 82 56 131 8
216 -26 45 -34 76 -19 76 6 0 34 -21 61 -46 40 -37 54 -45 81 -42 19 2 33 9
35 19 5 26 -40 81 -101 124 -50 35 -137 141 -137 168 0 4 26 5 58 2 50 -6 60
-4 80 15 30 28 25 48 -18 71 -39 21 -78 24 -129 9 -32 -9 -37 -7 -90 42 -31
28 -58 55 -59 59 -2 5 13 16 33 25 45 18 113 8 195 -30 42 -20 71 -26 122 -26
125 0 154 -28 113 -113 -23 -51 -34 -135 -19 -150 22 -22 84 61 84 112 0 38 9
39 40 6 22 -24 23 -28 12 -70 -17 -62 -15 -74 12 -119 l24 -40 20 33 c16 27
18 38 9 72 -12 49 -6 56 26 32 18 -13 26 -31 30 -62 5 -48 29 -77 91 -110 45
-23 56 -20 56 15 0 42 -38 102 -83 131 -51 33 -87 64 -87 75 0 13 43 9 90 -7
53 -19 50 -19 50 5 0 42 -34 60 -114 60 -88 0 -106 5 -106 32 0 19 4 20 49 14
43 -6 53 -3 80 20 18 15 30 31 28 37 -4 13 -86 46 -118 46 -15 1 -43 -6 -64
-14 -34 -15 -39 -15 -67 2 -17 10 -33 23 -34 28 -5 15 105 76 147 82 31 5 38
1 64 -32 18 -25 50 -48 93 -67 35 -16 67 -27 70 -24 2 3 -3 26 -13 52 -17 45
-80 104 -112 104 -20 0 -16 17 9 34 45 32 73 21 144 -54 37 -39 71 -70 76 -70
5 0 8 21 6 47 -3 41 -7 50 -35 68 -44 28 -44 55 1 55 18 0 39 -7 46 -15 24
-29 77 -35 126 -14 25 10 44 24 42 30 -2 6 -29 27 -61 47 l-57 35 -48 -21
c-64 -28 -74 -31 -94 -20 -24 12 -12 36 24 43 37 9 68 57 68 108 0 50 -22 49
-89 -5 -44 -36 -55 -51 -68 -99 -13 -48 -21 -59 -50 -73 -18 -9 -38 -16 -43
-16 -16 0 -11 33 10 65 11 17 20 41 20 53 0 15 19 43 53 76 28 30 73 76 99
104 26 28 69 65 94 83 45 31 51 32 151 33 98 1 106 0 124 -23 29 -35 25 -69
-12 -89 -17 -9 -37 -22 -46 -28 -19 -13 -66 -148 -53 -152 5 -2 27 6 48 18 28
16 46 37 65 76 41 83 67 68 67 -38 0 -45 -2 -49 -40 -73 -28 -17 -49 -43 -70
-85 -16 -33 -30 -62 -30 -65 0 -3 12 -5 27 -5 19 0 40 14 74 51 26 28 52 48
58 45 22 -14 10 -55 -29 -102 -22 -27 -40 -53 -40 -58 0 -5 10 -40 22 -77 26
-80 30 -79 85 19 36 64 36 65 25 127 -7 34 -12 70 -12 79 0 25 19 19 38 -13
28 -49 96 -67 138 -37 18 14 18 15 -11 51 -31 38 -76 66 -130 82 -24 7 -33 18
-47 58 -9 28 -17 58 -17 68 -2 30 37 19 84 -24 40 -37 45 -39 45 -20 0 30 -27
92 -53 119 -11 12 -45 30 -74 38 -41 12 -57 22 -69 46 -8 16 -13 32 -10 35 12
13 147 15 195 3 39 -9 59 -21 83 -50 34 -40 133 -110 155 -110 37 0 -6 86 -52
106 -62 26 -55 44 19 47 24 1 55 -4 70 -12 21 -12 26 -21 26 -54 0 -53 37
-119 65 -115 29 4 31 56 5 107 l-20 41 27 0 c19 0 39 -14 73 -50 40 -43 99
-80 130 -80 12 0 13 40 1 72 -5 13 -31 39 -57 58 -37 27 -62 36 -104 40 -66 6
-76 29 -18 43 61 14 115 99 77 122 -35 22 -133 -35 -164 -96 -13 -24 -22 -28
-80 -34 -36 -4 -69 -5 -72 -1 -3 3 11 24 31 46 20 22 36 48 36 58 0 9 3 28 7
40 5 22 4 24 -39 21 -42 -3 -47 0 -107 59 -34 34 -60 66 -57 71 4 5 36 19 72
31 l65 22 39 -27 c34 -23 47 -27 86 -22 49 5 99 35 99 58 0 21 -64 49 -112 49
-24 0 -43 4 -43 8 0 5 13 21 30 37 25 24 37 28 77 26 81 -4 100 -2 137 13 52
22 45 40 -23 66 -75 28 -107 19 -192 -52 -33 -27 -63 -47 -67 -44 -3 4 0 21 7
39 26 62 25 100 -4 135 -15 18 -33 32 -41 32 -8 0 -24 -21 -35 -47 -23 -53
-22 -102 4 -168 18 -48 12 -59 -52 -87 -62 -26 -79 -18 -52 26 15 23 21 50 21
87 0 75 -10 87 -46 61 -61 -42 -69 -59 -69 -136 l0 -71 -78 -26 c-43 -15 -92
-36 -107 -48 -44 -32 -50 -27 -50 39 0 67 7 74 80 86 42 7 112 55 99 69 -4 3
-22 8 -41 12 -32 5 -58 -4 -141 -45 -15 -7 6 121 24 153 10 16 24 58 32 92 22
97 81 179 166 231 68 42 75 44 168 49 77 4 115 12 175 35 102 40 151 34 214
-24 50 -46 52 -58 24 -119 -21 -46 -26 -105 -11 -128 7 -11 14 -10 40 8 38 28
51 50 51 92 0 30 1 31 23 17 12 -8 28 -27 35 -41 11 -22 9 -31 -13 -73 -16
-29 -25 -63 -25 -90 0 -54 17 -57 55 -13 20 25 25 38 20 60 -4 16 -3 29 2 29
31 -1 53 -54 53 -129 0 -39 5 -49 41 -83 59 -56 73 -49 77 36 l3 68 -61 60
c-79 79 -80 91 -2 64 50 -18 124 -10 120 12 -6 32 -55 55 -133 61 -67 6 -79
10 -107 38 -37 38 -31 52 15 35 49 -17 116 -16 124 3 7 20 -16 39 -95 76 -56
26 -67 28 -95 19 -29 -11 -38 -8 -94 26 -35 20 -63 40 -63 44 0 10 42 28 83
35 40 8 65 -3 119 -51 33 -30 105 -60 116 -49 13 13 -25 68 -59 86 -47 24 -49
34 -8 48 56 19 80 14 120 -29 49 -51 138 -105 152 -91 17 17 -12 69 -61 111
l-46 38 38 7 c29 6 50 2 95 -19 33 -15 77 -26 100 -26 l42 0 -41 60 c-22 33
-52 67 -66 77 -24 15 -28 15 -84 -12 -89 -42 -122 -17 -55 42 41 37 43 52 12
89 -23 26 -24 26 -49 10 -35 -23 -78 -87 -78 -117 0 -58 -28 -89 -80 -89 -26
0 -25 5 6 46 29 38 46 124 24 124 -24 0 -87 -42 -103 -70 -10 -15 -17 -44 -17
-64 0 -45 4 -43 -225 -103 -143 -37 -201 -48 -282 -51 -67 -2 -103 0 -103 7 0
6 8 26 17 46 14 29 15 40 5 55 -7 11 -12 39 -12 62 0 43 -29 120 -49 132 -20
13 -12 36 13 36 47 0 98 95 81 150 -8 25 -13 25 -80 -4 -35 -16 -59 -34 -67
-50 -6 -14 -15 -26 -20 -26 -17 0 -78 52 -78 67 0 8 26 44 58 81 31 37 70 88
85 112 66 106 160 119 225 31 12 -17 36 -38 53 -46 29 -16 104 -23 115 -12 11
11 -46 103 -74 120 -17 9 -50 17 -76 17 -55 0 -63 22 -15 39 74 26 113 13 143
-48 22 -42 92 -111 114 -111 5 0 12 10 15 21 11 41 -5 80 -44 111 -22 17 -39
35 -39 40 0 19 35 6 72 -28 36 -32 44 -35 79 -29 27 5 45 3 56 -7 15 -12 15
-9 9 27 -9 46 -38 82 -82 101 -26 11 -37 10 -75 -3 -71 -26 -106 -3 -48 30
l31 17 -6 78 c-3 42 -7 91 -9 107 -2 17 -4 40 -5 53 -1 13 -13 34 -27 47 -20
21 -34 25 -82 25 -32 0 -64 4 -72 9 -26 16 6 41 53 41 43 1 93 31 81 49 -7 13
-100 41 -132 41 -45 0 -82 -27 -93 -71 -11 -42 -36 -59 -86 -59 -31 0 -30 6 6
40 30 28 38 62 21 89 -8 12 -14 12 -41 1 -52 -21 -89 -63 -96 -109 -5 -30 -14
-45 -37 -60 l-30 -19 -34 34 c-54 54 -75 47 -62 -23 9 -46 8 -48 -28 -86 -38
-38 -177 -126 -201 -127 -9 0 -11 14 -6 58 9 79 26 108 67 116 29 5 108 70 96
79 -2 2 -21 8 -42 14 -31 9 -39 9 -44 -3 -8 -22 -33 -16 -33 8 0 32 74 98 110
98 33 0 35 3 20 31 -17 30 -83 26 -104 -6 -9 -14 -23 -25 -30 -25 -21 0 -38
61 -30 107 4 30 2 47 -11 67 -17 25 -16 26 29 90 25 36 59 74 75 85 34 25 117
61 138 61 24 0 73 -56 73 -84 0 -27 84 -134 107 -135 15 -1 21 45 11 83 -4 16
-19 42 -34 57 -32 33 -25 49 19 42 56 -9 64 -18 70 -80 13 -121 20 -163 29
-163 16 0 57 54 69 91 9 29 8 41 -5 67 -20 39 -20 42 4 42 23 0 35 -21 45 -77
5 -33 16 -50 43 -73 58 -48 65 -42 60 45 -6 89 -24 116 -94 135 -24 7 -47 16
-49 21 -3 4 9 28 27 53 28 41 36 46 69 46 20 0 66 -9 102 -20 74 -23 101 -49
117 -114 20 -78 47 -141 63 -144 20 -4 41 58 32 98 -7 33 0 37 30 15 17 -14
18 -19 7 -60 -7 -25 -12 -62 -12 -83 -1 -20 -7 -48 -15 -62 -19 -33 -18 -41 3
-33 25 9 62 44 78 76 30 57 45 -1 22 -86 -10 -40 -9 -48 17 -100 15 -31 30
-57 34 -57 15 0 51 80 51 113 0 19 -13 65 -30 102 -46 103 -40 118 26 62 50
-43 76 -57 108 -57 33 0 33 15 -3 71 -32 51 -81 79 -151 87 -34 4 -57 15 -92
45 -27 22 -48 44 -48 49 0 4 22 8 49 8 51 0 111 16 111 30 0 20 -125 90 -161
90 -11 0 -34 -11 -51 -25 -16 -14 -35 -25 -43 -25 -24 0 -145 62 -139 71 3 5
11 9 17 9 33 0 91 24 143 60 33 22 73 43 90 46 36 7 78 -12 109 -46 39 -44
155 -70 155 -36 0 25 -53 78 -98 98 -54 24 -45 39 26 46 47 4 51 2 83 -33 31
-34 110 -95 123 -95 3 0 6 17 6 38 0 30 -7 45 -35 72 -19 18 -32 37 -29 42 10
15 79 8 112 -12 44 -27 106 -26 144 3 97 73 97 91 0 101 -105 9 -148 7 -191
-10 -63 -25 -70 -13 -23 38 46 50 51 64 25 72 -35 11 -112 9 -127 -4 -9 -7
-25 -39 -37 -71 -24 -66 -32 -74 -74 -81 -16 -3 -47 -13 -69 -22 l-39 -17 7
23 c21 71 19 94 -12 129 l-31 34 -25 -54 c-19 -42 -24 -65 -19 -97 l5 -42 -71
-41 c-99 -58 -185 -78 -265 -62 -38 8 -71 22 -87 37 -14 13 -32 24 -41 24 -48
0 -63 29 -27 54 19 13 25 12 67 -10 34 -18 54 -23 76 -18 38 8 66 25 66 40 0
13 -55 37 -107 49 -18 3 -33 10 -33 15 0 17 50 47 89 54 57 9 86 48 94 127 4
34 5 65 2 67 -3 3 -36 -16 -74 -42 -48 -32 -74 -58 -86 -84 -32 -71 -39 -84
-58 -94 -26 -14 -31 -4 -18 33 17 49 13 75 -14 107 -25 30 -81 60 -92 49 -9
-10 17 -138 40 -189 17 -39 18 -52 9 -73 -16 -36 -25 -31 -42 23 -12 39 -23
51 -57 70 l-43 23 0 -64 c0 -52 5 -70 25 -98 13 -19 31 -46 40 -62 29 -51 -6
-81 -170 -142 -144 -53 -152 -59 -239 -152 -68 -73 -149 -133 -162 -120 -4 4
3 59 26 211 6 39 30 101 66 174 50 101 57 123 61 192 l6 79 37 -19 c36 -18 38
-18 71 -1 18 10 34 22 36 27 4 12 -68 54 -91 54 -23 0 -32 29 -14 46 13 14 19
12 53 -10 48 -33 91 -33 130 -1 l30 25 -25 19 c-14 11 -37 23 -52 26 -27 6
-37 28 -19 39 5 3 29 -1 53 -10 44 -14 47 -14 102 10 51 22 56 28 47 45 -12
21 -68 71 -81 71 -5 0 -15 3 -23 6 -9 3 -31 -11 -56 -36 -55 -55 -74 -51 -81
18 -3 31 -13 59 -23 69 -17 17 -19 17 -38 -6 -28 -34 -34 -68 -20 -122 12 -45
11 -52 -9 -84 -27 -43 -36 -44 -46 -3 -12 59 -53 98 -101 98 -24 0 -12 -77 27
-174 40 -99 43 -165 12 -257 -27 -78 -53 -109 -77 -89 -19 16 -19 44 1 75 19
29 8 74 -28 112 -30 32 -38 29 -27 -9 19 -66 2 -80 -31 -25 -30 48 -35 75 -16
96 27 29 20 69 -19 108 -19 19 -40 33 -47 31 -8 -3 -15 -31 -18 -73 l-5 -69
-32 38 c-18 20 -33 40 -33 45 0 4 -11 20 -25 35 -18 20 -34 26 -65 26 -28 0
-40 -4 -40 -14 0 -8 5 -18 11 -22 6 -4 8 -20 5 -40 -8 -37 11 -54 61 -54 30 0
93 -34 93 -50 0 -5 -15 -10 -34 -10 -40 0 -57 -18 -59 -62 -2 -31 0 -33 28
-30 17 2 49 13 72 24 39 20 44 20 67 5 23 -15 43 -53 34 -63 -3 -2 -19 1 -37
7 -27 9 -39 8 -72 -6 -64 -29 -65 -39 -8 -65 49 -24 51 -24 96 -7 57 21 68 14
89 -64 15 -58 10 -129 -10 -129 -26 0 -56 32 -56 59 0 16 -10 37 -23 49 -25
23 -84 48 -94 39 -3 -3 11 -35 30 -71 39 -71 34 -84 -23 -64 -38 13 -65 -7
-80 -61 -21 -75 -7 -91 41 -45 l27 26 -1 -65 c-3 -122 36 -111 89 26 22 57 29
67 50 67 71 0 15 -178 -71 -227 -22 -12 -56 -25 -77 -28 -20 -4 -76 -26 -125
-50 -48 -25 -87 -43 -88 -42 0 1 1 52 3 113 l4 110 41 15 c46 16 80 64 92 132
7 36 6 37 -21 37 -20 0 -39 -12 -70 -45 -43 -46 -69 -58 -61 -27 3 9 8 34 12
55 5 34 8 37 41 37 71 0 114 46 114 123 0 21 4 22 -54 -8 -27 -14 -56 -25 -63
-25 -28 0 -7 35 35 58 52 29 59 55 37 122 -20 59 -24 58 -88 -29 -31 -42 -41
-66 -46 -109 -3 -31 -11 -57 -16 -59 -6 -2 -19 12 -28 30 -16 30 -70 67 -97
67 -15 0 -12 -66 4 -103 7 -18 32 -49 55 -68 31 -25 43 -44 48 -72 6 -41 -9
-51 -27 -17 -12 21 -60 50 -85 50 -20 0 -20 -42 2 -87 10 -22 29 -41 50 -49
33 -14 51 -49 40 -78 -6 -15 -113 -76 -134 -76 -10 0 -12 10 -7 38 5 32 1 42
-29 77 l-35 40 -6 -27 c-3 -16 -8 -39 -11 -52 -3 -14 4 -48 15 -76 33 -85 21
-150 -15 -80 -16 31 -45 44 -89 38 l-27 -3 27 -52 c23 -43 35 -56 71 -69 39
-15 43 -20 43 -51 0 -44 -37 -83 -80 -83 -35 0 -125 63 -134 95 -19 64 7 166
65 255 94 146 127 231 139 363 5 53 16 121 24 150 14 54 38 380 34 477 -2 74
12 276 23 320 10 39 62 98 120 137 l39 26 38 -26 c48 -34 91 -42 135 -28 64
21 65 36 5 71 -29 16 -64 33 -78 36 -52 12 -52 12 -23 50 15 20 47 44 70 54
62 28 77 56 71 141 -3 38 -8 73 -12 76 -9 9 -114 -107 -120 -132 -3 -11 -7
-36 -10 -55 -6 -35 -49 -100 -60 -90 -3 3 0 25 6 48 11 44 0 92 -22 92 -17 0
-41 -59 -58 -143 -15 -73 -21 -84 -51 -104 -42 -29 -51 -29 -51 0 0 31 49 206
69 244 9 18 54 72 101 121 47 49 120 128 163 175 59 66 93 94 141 117 58 29
67 31 104 20 81 -21 131 -86 151 -193 12 -67 7 -87 -24 -87 -33 0 -95 -83 -95
-128 l0 -34 41 37 c35 31 94 65 114 65 3 0 5 -13 5 -30 0 -37 -34 -70 -73 -70
-15 0 -37 -5 -48 -10 -32 -18 -76 -120 -51 -120 24 0 102 34 118 51 36 40 44
22 19 -44 -19 -52 -22 -71 -14 -110 21 -116 87 -128 130 -25 11 27 9 36 -19
93 -31 59 -42 125 -23 125 5 0 15 -16 21 -35 6 -19 26 -46 44 -60 33 -25 96
-44 96 -30 0 21 -86 154 -116 178 -25 21 -34 37 -34 58 0 38 13 37 47 -7 32
-40 71 -64 105 -64 25 0 68 25 68 40 0 15 -115 88 -173 110 -30 12 -60 27 -66
34 -7 8 -16 40 -21 72 -5 33 -12 71 -16 87 -7 32 8 35 81 15 48 -13 51 -18 34
-49 -14 -26 5 -84 34 -104 32 -23 37 -19 37 28 0 56 18 117 34 117 8 0 19 -7
26 -15 9 -11 8 -19 -4 -37 -20 -29 -21 -97 0 -126 13 -18 63 -52 77 -52 12 0
16 131 6 154 -7 14 -9 29 -5 33 14 15 58 -34 75 -85 23 -66 42 -87 99 -106 81
-28 87 -20 52 72 -35 91 -66 122 -124 122 -13 0 -31 8 -40 19 -15 17 -15 19
-1 25 9 3 32 6 51 6 49 0 89 23 108 64 9 19 16 39 16 45 0 26 -81 1 -133 -40
-45 -36 -97 -53 -138 -44 -40 9 -36 21 16 44 47 21 85 69 85 109 0 20 -4 22
-22 16 -58 -17 -118 -56 -152 -98 -36 -44 -40 -46 -90 -46 -60 0 -140 22 -208
56 -69 35 -62 48 31 60 69 10 89 17 158 61 100 65 152 90 238 120 182 63 283
77 348 49 52 -22 67 -47 76 -126 7 -70 9 -75 54 -116 64 -61 81 -59 75 7 -5
46 -11 57 -52 94 -36 33 -46 50 -46 74 0 17 5 31 11 31 21 0 81 -78 115 -150
30 -64 34 -83 32 -135 -3 -57 -4 -60 -31 -63 -43 -5 -82 -86 -58 -121 8 -12
18 -9 57 17 53 34 64 33 64 -4 0 -17 -10 -30 -32 -43 -49 -29 -67 -50 -74 -88
-6 -32 15 -83 35 -83 5 0 20 18 35 40 32 49 51 53 42 8 -21 -98 -20 -104 16
-131 18 -13 48 -32 66 -41 32 -16 32 -16 42 9 20 54 12 82 -40 140 -47 52 -60
75 -42 75 13 0 29 -15 41 -37 6 -12 28 -27 49 -33 41 -11 92 -13 92 -4 0 13
-101 118 -137 142 -21 14 -41 30 -45 36 -9 14 -10 66 -1 66 3 0 23 -18 43 -40
32 -34 43 -40 78 -40 35 0 42 3 42 20 0 26 -65 88 -115 110 -55 24 -78 53 -91
113 -6 29 -15 67 -19 86 -7 31 -6 34 11 28 10 -4 61 -19 112 -34 50 -15 92
-31 92 -36 0 -5 -11 -22 -25 -39 -14 -16 -25 -38 -25 -48 0 -24 48 -79 89
-103 l31 -18 -7 90 c-6 87 -5 91 14 91 12 0 31 -8 44 -19 21 -17 22 -21 10
-49 -10 -23 -10 -39 -2 -64 11 -33 55 -88 70 -88 10 0 21 60 21 117 0 51 10
59 43 33 26 -20 26 -21 10 -64 -23 -60 -8 -107 52 -166 38 -37 47 -42 55 -30
17 27 11 109 -11 151 -11 23 -19 43 -16 45 2 2 23 -11 46 -29 28 -21 52 -53
72 -95 38 -80 65 -94 183 -100 118 -6 122 3 37 86 -103 102 -118 112 -171 112
-37 0 -52 5 -70 25 l-23 25 37 0 c41 0 96 27 96 46 0 16 -56 63 -84 70 -13 3
-48 -2 -78 -11 -69 -20 -148 -6 -148 26 0 16 8 19 53 19 63 0 87 20 112 89 15
43 15 43 -8 38 -138 -35 -141 -36 -175 -77 -35 -42 -71 -52 -113 -30 -25 14
-24 27 4 35 56 16 79 30 92 56 15 27 21 109 9 109 -20 0 -132 -81 -163 -118
l-38 -43 -84 21 c-83 21 -99 29 -292 153 -63 41 -89 51 -133 55 -35 3 -54 9
-54 17 0 26 133 165 158 165 5 0 13 -23 16 -52 10 -71 19 -84 70 -97 74 -18
81 -16 53 22 -14 17 -28 43 -32 57 -4 14 -18 44 -31 67 -24 41 -24 42 -5 53
11 5 29 10 40 10 17 0 21 -6 21 -30 0 -17 6 -43 14 -58 15 -29 61 -60 72 -49
3 3 1 36 -5 73 -7 36 -10 68 -8 71 3 2 17 1 31 -3 26 -6 27 -8 20 -60 -8 -65
9 -98 61 -120 61 -25 64 -21 37 62 -25 78 -22 107 7 65 9 -13 30 -39 48 -57
30 -33 32 -34 116 -34 80 0 85 1 80 20 -3 10 -29 41 -58 69 -51 48 -54 49
-109 48 -40 -1 -60 3 -66 13 -12 20 -5 27 34 34 33 6 106 72 106 96 0 15 -80
12 -138 -5 -29 -9 -67 -29 -86 -45 -24 -22 -44 -30 -70 -30 -44 0 -46 12 -6
40 37 26 72 92 68 126 l-3 24 -50 -24 c-62 -29 -100 -69 -115 -122 -11 -37
-17 -42 -63 -57 -28 -9 -52 -15 -54 -13 -2 1 4 22 12 46 8 23 15 55 15 71 0
40 -29 109 -47 109 -16 0 -64 -101 -65 -139 0 -14 8 -47 18 -72 l18 -46 -90
-98 c-49 -53 -107 -108 -129 -120 -41 -24 -232 -85 -266 -85 -11 0 -26 15 -38
38 -11 22 -35 46 -55 57 -20 11 -36 21 -36 24 0 2 5 21 11 41 7 21 9 50 5 64
-8 32 -66 72 -78 53 -12 -19 -8 -80 7 -107 19 -33 18 -40 -1 -40 -9 0 -36 18
-60 40 -37 34 -50 40 -88 40 -25 0 -48 -5 -52 -11 -12 -21 31 -64 77 -75 58
-14 62 -37 10 -53 -45 -13 -83 -55 -79 -85 2 -16 12 -22 40 -24 34 -3 44 3 91
47 44 42 60 51 90 51 27 0 41 -7 56 -26 12 -15 21 -34 21 -43 0 -18 -115 -106
-167 -127 -17 -8 -76 -23 -130 -35 -102 -21 -161 -49 -202 -93 -14 -14 -28
-26 -33 -26 -26 0 16 127 72 220 22 36 56 112 77 170 46 129 83 171 164 190
30 6 85 26 123 43 51 23 71 28 74 19 13 -39 48 -62 105 -68 41 -5 57 -3 57 5
0 25 -31 70 -71 104 l-41 36 41 25 c22 14 43 26 46 26 2 0 11 -15 19 -34 22
-52 95 -82 136 -56 12 8 5 19 -39 64 -30 31 -52 59 -48 62 4 4 33 -5 66 -20
76 -34 96 -33 137 8 45 45 43 63 -9 86 -47 21 -73 18 -136 -14 -17 -9 -40 -14
-51 -11 -18 6 -18 7 0 47 19 42 17 61 -7 89 -12 15 -11 19 16 39 17 12 31 27
31 33 0 7 -31 23 -69 36 -76 26 -86 24 -149 -31 -18 -16 -37 -26 -41 -24 -7 5
4 109 18 156 6 23 11 25 53 22 56 -4 122 28 144 70 15 29 19 108 6 108 -12 0
-141 -70 -147 -81 -4 -5 -13 -9 -21 -9 -20 0 -9 44 22 91 31 46 30 66 -8 144
-35 70 -52 81 -62 39 -4 -14 -18 -43 -32 -63 -38 -59 -41 -101 -10 -147 17
-25 26 -52 26 -76 0 -46 -15 -49 -38 -6 -29 53 -49 68 -91 68 -48 0 -71 -8
-71 -24 0 -18 51 -63 90 -80 62 -25 82 -56 78 -117 -2 -40 -7 -54 -18 -54 -11
0 -16 14 -18 50 -2 27 -10 57 -19 67 -13 15 -93 48 -115 48 -30 0 18 -107 71
-159 61 -60 54 -105 -37 -230 -27 -36 -61 -97 -76 -134 -16 -37 -34 -66 -40
-64 -27 9 -49 198 -25 213 18 11 49 87 49 121 0 18 -8 48 -17 68 -17 35 -33
46 -33 22 0 -28 -31 -117 -41 -117 -6 0 -22 25 -36 56 -21 46 -23 60 -14 80
24 53 8 116 -41 160 -27 25 -88 58 -95 51 -2 -3 1 -25 7 -49 6 -23 15 -59 20
-77 5 -19 8 -37 6 -39 -8 -8 -62 28 -95 62 -43 45 -89 48 -161 11 -62 -31 -68
-42 -33 -57 15 -7 41 -21 57 -32 26 -17 34 -18 89 -8 46 9 64 9 75 0 11 -10 7
-15 -22 -30 -37 -19 -66 -62 -66 -98 0 -25 1 -25 42 -1 21 12 57 20 102 23 64
3 70 1 87 -22 9 -14 20 -35 24 -47 9 -31 -10 -30 -59 3 -31 21 -46 25 -78 21
-45 -6 -88 -31 -88 -51 0 -21 66 -40 142 -41 56 0 70 -4 92 -24 22 -21 26 -34
26 -80 1 -31 5 -75 9 -99 10 -49 -8 -165 -34 -226 l-16 -38 -25 23 -24 23 26
27 c24 25 26 34 22 79 -3 28 -12 58 -21 67 -14 14 -17 11 -36 -33 -12 -26 -24
-58 -28 -71 -8 -36 -37 -25 -41 15 -2 20 4 43 17 61 34 47 28 101 -14 144 -57
59 -75 46 -75 -55 0 -27 -3 -48 -6 -48 -13 0 -52 25 -87 56 -41 37 -64 41
-147 23 -51 -11 -67 -32 -31 -44 11 -3 37 -20 58 -36 21 -17 45 -35 53 -39 12
-7 9 -14 -17 -39 -47 -43 -44 -60 10 -54 23 2 78 -2 122 -9 64 -11 80 -17 83
-32 4 -16 0 -18 -25 -10 -15 4 -50 8 -77 9 -44 0 -51 -3 -79 -38 -37 -45 -29
-58 41 -65 40 -3 62 1 107 22 67 30 96 33 117 9 40 -45 30 -105 -28 -174 -36
-43 -37 -46 -53 -144 -19 -123 -78 -236 -114 -222 -25 10 -21 35 13 74 20 22
30 45 30 65 0 30 -34 98 -50 98 -16 0 -41 -72 -38 -108 4 -48 -10 -44 -36 10
-17 35 -28 45 -57 52 -20 5 -44 6 -53 3 -15 -6 -13 -12 13 -50 16 -24 41 -51
55 -61 37 -24 32 -36 -13 -36 -58 0 -85 -14 -110 -55 -26 -44 -27 -59 -3 -50
9 4 41 11 71 15 29 5 65 17 79 26 24 16 26 15 43 -7 10 -13 19 -30 19 -37 0
-7 -33 -47 -74 -90 -40 -42 -85 -101 -100 -129 -14 -29 -29 -53 -32 -53 -4 0
-22 14 -41 30 -25 23 -43 30 -74 30 -47 0 -79 14 -79 35 0 11 12 15 45 15 41
0 47 3 75 42 16 22 30 45 30 50 0 11 -77 10 -122 -2 -20 -6 -48 -23 -61 -39
-24 -29 -25 -29 -111 -24 -47 3 -86 8 -86 10 0 3 24 29 54 59 30 29 72 79 94
111 59 86 63 89 107 58 42 -28 52 -29 89 -15 24 9 86 83 86 102 0 4 -18 5 -39
2 -22 -4 -54 -2 -71 4 -20 7 -39 8 -55 2 -33 -13 -32 -3 10 65 19 32 36 62 38
68 2 8 17 5 45 -7 36 -16 48 -17 82 -7 43 13 77 51 86 99 l6 29 -59 -5 c-32
-2 -68 -10 -80 -18 -37 -23 -41 -17 -28 44 7 38 24 73 48 105 43 56 44 68 17
133 l-21 47 -29 -28 c-15 -15 -39 -47 -51 -70 -23 -43 -23 -43 -4 -84 14 -33
16 -50 9 -79 -10 -39 -41 -54 -37 -17 8 65 -39 105 -124 105 -32 0 -53 -4 -53
-11 0 -12 25 -45 103 -134 26 -30 47 -57 47 -59 0 -16 -34 -94 -47 -108 -24
-26 -33 -22 -33 14 0 58 -79 138 -138 138 -18 0 -19 -3 -10 -34 14 -44 5 -66
-26 -66 -13 0 -34 -8 -47 -19 -19 -15 -23 -29 -24 -72 -1 -74 -32 -127 -49
-83 -3 9 -6 24 -6 34 0 28 -54 80 -84 80 -16 0 -26 -6 -26 -14 0 -21 37 -103
61 -138 l21 -29 -21 -49 c-14 -33 -21 -70 -21 -116 l0 -67 -89 -86 c-64 -63
-98 -105 -124 -156 -43 -82 -50 -92 -97 -127 -32 -24 -90 -47 -90 -35 0 2 7
24 15 47 8 23 20 95 26 159 18 195 25 218 76 269 52 54 70 85 79 141 6 35 11
42 40 51 19 7 39 20 44 30 12 22 13 110 2 110 -5 0 -26 -13 -48 -30 -21 -16
-44 -30 -50 -30 -7 0 -14 18 -16 41 -3 38 -1 42 28 54 24 10 33 21 37 46 6 31
-4 104 -16 115 -7 7 -77 -81 -77 -97 0 -8 -4 -20 -9 -28 -14 -22 -39 3 -47 48
-10 55 -28 77 -80 95 -65 22 -82 22 -61 -2 9 -10 23 -36 30 -58 10 -27 23 -44
46 -55 50 -24 72 -66 25 -49 -37 14 -86 12 -109 -6 -17 -13 -18 -16 -5 -25 37
-25 53 -30 110 -36 65 -6 90 -22 90 -54 0 -16 -3 -18 -19 -9 -25 13 -81 13
-101 0 -13 -9 -13 -11 0 -20 134 -83 155 -118 100 -164 -35 -29 -50 -33 -50
-13 0 7 -7 38 -16 67 -13 43 -29 67 -78 115 -86 84 -100 118 -94 220 6 90 28
148 77 205 l30 35 19 -45 c14 -33 29 -50 56 -62 45 -22 76 -23 76 -3 0 28 -30
89 -58 118 -26 28 -27 29 -8 43 11 8 23 14 27 14 7 0 24 -35 49 -98 8 -21 26
-40 51 -53 78 -39 99 -17 58 62 -11 23 -19 43 -17 45 2 2 21 -8 41 -21 21 -15
50 -25 70 -25 34 0 97 34 104 57 3 7 -17 26 -43 43 -43 27 -56 30 -129 30 -50
0 -88 5 -98 13 -16 11 -14 16 23 50 46 45 51 73 17 112 l-23 27 -39 -39 c-26
-25 -45 -56 -55 -88 -11 -37 -23 -54 -48 -68 -41 -24 -47 -18 -31 27 12 32 11
38 -17 82 -16 26 -33 48 -39 48 -5 1 -18 -21 -28 -49 -19 -48 -19 -53 -2 -117
l17 -68 -34 -40 c-18 -22 -39 -40 -45 -40 -7 0 -13 1 -13 3 0 16 33 222 42
257 18 77 77 171 157 250 125 125 191 159 354 182 80 12 131 4 170 -25 17 -12
16 -15 -19 -51 -34 -35 -36 -40 -30 -84 3 -25 8 -48 11 -50 9 -10 52 39 70 79
20 43 39 50 55 20 17 -33 11 -50 -25 -73 -20 -13 -38 -33 -41 -46 -7 -25 23
-152 35 -152 22 0 56 55 61 98 3 26 10 46 15 46 6 -1 18 -26 28 -55 15 -44 27
-60 66 -86 67 -47 81 -44 81 15 0 56 -5 64 -50 87 -48 24 -70 45 -70 67 0 22
9 23 39 1 23 -16 104 -23 117 -10 9 9 -19 45 -57 73 -20 14 -47 24 -67 24 -36
0 -92 45 -92 74 0 20 -1 20 55 -4 52 -22 68 -18 118 28 34 33 34 38 -4 51 -45
16 -119 14 -170 -4 -41 -15 -45 -14 -93 9 -28 14 -70 28 -93 31 -34 5 -43 11
-43 26 0 18 5 19 64 13 56 -6 69 -4 100 15 36 23 90 80 82 88 -2 2 -40 -3 -85
-13 -45 -10 -84 -14 -88 -11 -4 4 11 26 33 48 39 40 39 40 95 34 46 -5 64 -3
97 14 53 27 60 40 32 63 -15 12 -39 18 -76 18 -63 0 -68 11 -23 49 95 79 109
97 109 139 0 43 -20 72 -49 72 -34 0 -76 -69 -87 -141 -7 -42 -55 -119 -75
-119 -5 0 -9 15 -10 33 0 41 -21 99 -36 104 -15 5 -53 -54 -53 -81 0 -11 8
-43 17 -73 16 -50 16 -55 0 -88 -24 -50 -40 -45 -32 10 7 41 5 46 -26 75 -42
38 -61 35 -73 -12 -7 -29 -4 -49 14 -97 19 -52 21 -65 10 -90 -17 -41 -38 -58
-101 -80 -113 -39 -191 -84 -259 -147 -37 -35 -70 -64 -74 -64 -14 0 -4 51 13
66 85 71 98 89 105 143 4 30 3 58 -2 63 -5 5 -31 -16 -63 -53 -51 -59 -54 -61
-60 -38 -4 13 -7 41 -8 62 -1 34 2 38 30 44 17 3 37 16 46 30 13 20 14 30 3
69 -15 51 -25 52 -58 3 -31 -45 -47 -44 -47 6 0 31 5 42 23 51 62 31 99 97 87
154 -4 17 -8 30 -9 30 -28 0 -72 -31 -97 -66 -16 -24 -34 -44 -39 -44 -4 0
-15 20 -24 45 -11 35 -13 52 -4 70 22 49 -42 115 -126 131 l-38 7 7 -34 c13
-63 46 -124 83 -156 46 -39 38 -49 -19 -23 -47 21 -79 26 -79 11 0 -21 69 -98
113 -126 43 -28 87 -89 73 -103 -4 -3 -21 9 -39 26 -26 26 -41 32 -75 32 -23
0 -42 -4 -42 -10 0 -22 66 -82 112 -102 27 -11 53 -29 59 -39 11 -21 -1 -25
-29 -10 -9 5 -41 12 -70 16 l-53 7 21 -41 c12 -24 42 -57 70 -77 27 -19 52
-45 56 -57 18 -57 -2 -146 -59 -264 -23 -48 -37 -95 -42 -138 -3 -35 -10 -67
-15 -70 -12 -8 -61 62 -82 117 -10 28 -28 68 -38 89 -26 51 -25 75 5 111 33
39 31 61 -6 127 -29 51 -32 53 -45 36 -8 -10 -14 -35 -14 -54 0 -66 -16 -69
-36 -7 -17 53 -17 58 -1 91 21 43 22 134 3 160 -13 18 -15 17 -35 -15 -14 -24
-21 -52 -21 -87 0 -29 -4 -53 -9 -53 -20 0 -64 46 -93 96 -28 50 -33 54 -67
54 -21 0 -59 -7 -85 -16 l-47 -16 27 -30 c18 -18 49 -34 84 -44 72 -19 119
-43 131 -67 16 -29 4 -32 -34 -8 -38 23 -81 27 -124 10 l-28 -10 53 -31 c29
-16 80 -36 114 -44 67 -16 92 -32 115 -77 20 -39 11 -44 -37 -22 -32 15 -48
16 -78 9 -31 -8 -40 -7 -57 9 -11 10 -48 33 -82 52 l-63 35 0 -29 c0 -48 17
-80 55 -102 19 -12 35 -24 35 -29 0 -4 -37 -10 -82 -13 l-83 -7 -33 40 c-25
30 -41 40 -63 40 -27 0 -129 -44 -129 -56 0 -8 90 -44 112 -44 13 0 18 -6 16
-17 -2 -12 -19 -21 -55 -28 -28 -5 -61 -18 -72 -29 -22 -20 -37 -76 -28 -100
8 -21 69 2 110 42 18 18 37 32 41 32 8 0 1 -56 -11 -86 -3 -9 2 -14 14 -14 25
0 70 47 102 107 29 54 59 73 114 73 47 0 47 -10 0 -35 -25 -14 -42 -32 -52
-58 -7 -20 -11 -40 -8 -43 9 -9 90 31 141 70 31 23 58 36 78 36 68 0 254 -152
296 -242 34 -75 54 -178 33 -178 -5 0 -31 15 -59 33 l-51 32 0 63 c-1 35 -5
72 -11 82 -10 19 -59 40 -95 40 -21 0 -23 -4 -20 -49 1 -31 10 -61 24 -79 11
-17 21 -33 21 -36 0 -15 -46 -1 -110 33 -8 5 -18 27 -21 50 -4 30 -16 52 -42
78 -30 31 -44 37 -90 41 -35 3 -57 0 -62 -7 -9 -16 38 -76 86 -108 64 -42 53
-57 -36 -48 -100 9 -139 -4 -165 -55 -25 -49 -27 -125 -3 -134 11 -5 36 15 86
69 62 67 107 94 107 65 0 -5 -4 -10 -9 -10 -10 0 -51 -79 -51 -98 0 -7 7 -12
15 -12 21 0 111 46 153 77 22 16 42 23 64 21 35 -3 52 -28 20 -28 -50 0 -82
-40 -82 -105 0 -30 3 -35 24 -35 46 0 84 22 115 66 27 36 38 44 64 44 60 -1
90 -41 106 -139 12 -75 53 -144 116 -195 65 -54 100 -132 99 -221 -1 -38 -10
-99 -20 -134 -20 -67 -44 -93 -44 -47 0 53 -31 94 -103 137 -38 22 -71 38 -74
35 -11 -11 29 -142 53 -173 27 -36 29 -35 -48 -57 -66 -19 -72 -33 -27 -70 36
-31 28 -28 109 -31 144 -6 150 -26 57 -200 -21 -40 -40 -166 -35 -227 3 -27 1
-51 -4 -54 -5 -4 -22 5 -36 19 -32 30 -148 87 -178 87 -34 0 -157 49 -179 72
l-20 20 29 21 c65 48 76 66 76 128 0 32 -4 61 -10 64 -16 10 -80 -45 -101 -88
-33 -65 -42 -31 -17 65 21 83 22 88 6 122 -18 37 -88 82 -114 72 -9 -4 -14
-22 -14 -56 0 -53 10 -80 40 -115 20 -23 33 -94 21 -113 -7 -11 -9 -10 -14 3
-12 29 -72 47 -118 35 l-41 -11 18 -27 c33 -52 69 -83 111 -94 27 -6 48 -19
59 -37 9 -14 23 -30 31 -34 29 -17 14 -37 -28 -37 -30 0 -57 10 -99 36 -78 48
-94 68 -114 143 l-17 64 46 42 c44 41 45 44 45 101 0 62 -27 124 -53 124 -24
0 -62 -81 -67 -145 l-5 -60 -39 53 -39 53 43 44 c40 41 42 45 36 87 -7 49 -41
112 -56 103 -21 -13 -80 -134 -80 -164 0 -29 -2 -32 -22 -26 -38 12 -101 49
-111 66 -9 14 9 38 94 128 57 62 114 119 127 127 21 14 22 13 22 -9 0 -31 33
-73 72 -93 43 -22 58 -12 58 40 0 40 -4 48 -42 80 -46 40 -44 50 7 49 49 -1
55 -9 55 -62 0 -57 19 -86 80 -120 l43 -24 -7 34 c-3 19 -18 58 -32 87 -14 29
-24 56 -21 59 13 12 66 -34 96 -83 18 -30 41 -58 51 -64 24 -13 137 -13 145 0
9 14 -70 115 -100 128 -14 7 -35 12 -47 12 -28 0 -98 41 -98 57 0 8 11 13 28
13 38 0 69 24 77 60 9 40 -8 60 -50 60 -49 0 -63 -8 -95 -55 -28 -40 -32 -43
-91 -49 -33 -4 -63 -5 -66 -2 -3 2 7 20 21 39 14 19 26 44 26 55 0 32 -23 112
-32 112 -4 0 -22 -13 -40 -28 -32 -30 -33 -35 -28 -134 3 -63 -76 -174 -110
-153 -5 3 -10 37 -10 74 0 37 -9 100 -19 139 l-19 72 25 20 c14 11 29 20 34
20 15 0 39 58 39 94 0 26 -7 40 -31 60 -49 41 -59 35 -59 -34 0 -74 -17 -80
-53 -17 l-24 44 44 46 c47 50 52 74 29 137 -11 30 -17 35 -42 32 -58 -7 -67
-18 -62 -83 4 -51 2 -59 -13 -59 -16 0 -61 41 -113 105 -23 28 -29 30 -95 30
-100 0 -109 -14 -47 -68 27 -23 63 -49 79 -58 28 -15 29 -17 11 -23 -11 -3
-33 -19 -48 -35 l-29 -30 55 -16 c31 -8 81 -15 112 -14 46 2 61 -2 80 -20 23
-22 41 -61 28 -61 -4 0 -18 9 -32 20 -42 33 -105 23 -162 -25 -40 -34 -96 -34
-128 0 -13 14 -26 25 -30 25 -3 0 -12 -22 -19 -50 -19 -76 -43 -77 -57 -4 -5
25 -1 37 20 57 33 33 40 65 30 135 -8 53 -11 57 -34 53 -48 -6 -58 -18 -65
-81 -5 -39 -12 -60 -20 -60 -17 0 -25 23 -25 76 0 25 -5 54 -10 64 -10 18
-121 100 -135 100 -10 0 3 -147 15 -169 5 -11 28 -30 50 -42 39 -22 58 -58 24
-45 -56 22 -114 18 -114 -8 0 -24 73 -66 116 -66 44 0 76 -21 98 -64 23 -46 9
-60 -24 -23 l-29 32 -46 -16 -45 -17 -29 34 c-42 52 -99 172 -120 257 -23 87
-39 115 -87 152 -80 61 -84 141 -15 263 30 51 196 178 245 188 73 13 111 -13
59 -40 -16 -8 -34 -26 -41 -41 -13 -27 -17 -105 -5 -105 13 0 103 63 112 78 5
8 13 12 20 8 23 -15 9 -37 -34 -56 -51 -22 -85 -68 -85 -115 0 -56 14 -61 59
-20 47 43 61 40 42 -8 -26 -62 -25 -95 3 -137 14 -22 30 -40 35 -40 14 0 71
91 71 114 0 11 -9 39 -21 63 -28 57 -16 73 26 33 28 -28 38 -31 80 -28 27 2
50 8 52 14 7 22 -76 102 -114 111 -33 7 -40 15 -53 50 -18 52 -9 63 30 35 16
-12 43 -22 60 -22 40 0 130 38 130 55 0 20 -105 75 -142 75 -17 0 -46 -5 -65
-12 -30 -11 -35 -10 -62 16 -17 16 -52 34 -78 41 l-48 12 40 20 c22 11 63 28
91 37 73 24 133 67 199 141 l57 65 54 0 c69 0 121 26 164 80 18 23 31 42 29
44 -37 32 -84 32 -125 1 -38 -29 -44 -30 -44 -10 0 26 73 92 116 104 22 6 50
22 63 35 19 20 61 128 61 157 0 12 -67 11 -91 -1 -10 -6 -28 -28 -39 -49 -10
-21 -26 -41 -35 -44 -19 -8 -19 -8 5 53 24 60 26 120 5 159 -14 28 -91 101
-106 101 -3 0 -10 -33 -14 -74z m-2597 -298 c17 -11 32 -24 32 -29 0 -16 -34
-9 -60 11 -14 11 -39 20 -57 20 -40 0 -52 17 -16 23 37 5 61 -1 101 -25z
m2367 -66 c6 -4 16 -19 22 -34 7 -15 31 -39 53 -53 65 -41 66 -71 4 -143 -38
-45 -128 -96 -224 -127 -81 -26 -120 -48 -177 -99 -28 -25 -54 -46 -58 -46 -8
0 1 175 11 222 3 15 22 45 41 68 l36 41 21 -20 c29 -28 114 -28 174 -1 23 10
42 21 42 23 0 12 -103 57 -128 57 -38 0 -46 9 -25 32 21 24 31 23 54 -7 23
-29 72 -40 120 -28 47 13 47 35 -2 82 l-41 41 33 0 c19 0 39 -4 44 -8z m-1969
-427 c23 -23 54 -82 54 -103 0 -5 -13 -15 -29 -22 -16 -6 -37 -20 -47 -31 -24
-26 -27 -25 -53 22 l-23 41 21 29 c11 15 21 39 21 52 0 44 20 48 56 12z m-240
-37 c52 -25 58 -43 12 -32 -57 14 -96 9 -124 -17 -31 -29 -54 -71 -54 -98 0
-20 0 -20 43 -1 24 11 64 20 94 20 29 0 64 7 81 17 39 22 58 12 73 -37 18 -60
3 -70 -59 -41 -42 20 -54 21 -88 12 -47 -13 -114 -65 -99 -79 20 -18 148 -35
178 -23 50 19 67 14 83 -26 9 -21 36 -59 62 -85 25 -26 43 -50 39 -54 -12 -12
-128 35 -172 71 -29 24 -58 39 -85 42 -42 6 -52 -5 -25 -27 25 -21 17 -33 -17
-27 -18 3 -64 10 -103 16 -156 24 -187 35 -232 87 -24 27 -43 51 -43 55 0 3
18 11 39 18 49 14 79 60 88 130 l6 51 -47 -16 c-29 -10 -57 -29 -76 -52 -26
-32 -30 -34 -30 -15 0 48 18 70 74 93 53 21 60 22 135 10 75 -13 82 -12 128 8
60 27 66 27 119 0z m5802 -18 c28 0 55 -55 50 -103 -4 -37 -71 -98 -89 -80 -8
8 -6 15 10 25 14 8 21 23 21 43 0 34 -35 99 -49 91 -21 -13 -71 -137 -71 -175
0 -29 -6 -46 -22 -62 -50 -48 -158 -78 -158 -44 0 39 56 148 106 206 30 34 54
68 54 74 0 26 25 37 75 31 28 -3 60 -6 73 -6z m-5288 -154 c70 -47 84 -64 70
-86 -7 -11 -25 0 -76 46 -63 56 -86 84 -68 84 4 0 37 -20 74 -44z m-86 -76
c116 -120 147 -184 154 -316 3 -52 2 -94 -2 -94 -17 0 -179 136 -213 178 -21
26 -61 73 -90 104 -65 69 -82 107 -57 125 10 7 24 13 30 13 7 0 28 18 45 40
18 22 35 40 39 40 4 0 46 -41 94 -90z m2897 26 c39 -7 58 -23 83 -73 21 -41 9
-42 -40 -2 -22 18 -72 47 -111 66 -56 26 -73 38 -73 54 0 19 3 19 53 -9 28
-16 68 -32 88 -36z m-2040 -142 c125 -37 248 -121 356 -243 58 -66 76 -93 101
-163 46 -127 84 -199 142 -269 96 -115 141 -249 142 -418 1 -99 -1 -116 -17
-127 -24 -18 -40 -6 -21 15 34 38 6 159 -33 146 -16 -5 -20 2 -25 37 -11 74
-20 78 -64 30 -21 -23 -42 -42 -45 -42 -4 0 -7 29 -7 64 0 70 -22 115 -72 144
-37 22 -45 11 -53 -74 l-7 -71 36 -41 c36 -39 64 -104 49 -110 -5 -1 -29 -15
-54 -31 -47 -30 -59 -54 -59 -122 0 -26 2 -27 36 -22 34 6 36 5 26 -14 -11
-19 -7 -21 57 -27 47 -4 83 -1 116 8 56 17 141 11 168 -13 10 -8 33 -47 51
-86 19 -38 54 -96 80 -129 25 -32 46 -62 46 -66 0 -12 -143 1 -172 16 -15 8
-43 14 -61 14 -47 0 -97 -55 -97 -106 l0 -34 38 19 c68 35 70 9 3 -49 -72 -62
-89 -101 -68 -153 15 -36 64 -77 91 -77 17 0 23 46 18 136 -2 32 3 46 24 67
41 42 56 35 29 -13 -8 -14 -14 -33 -15 -42 0 -27 59 -88 85 -88 31 0 39 38 30
142 -8 88 -3 98 46 98 36 0 94 -65 110 -122 11 -41 8 -152 -7 -296 l-6 -53
-92 5 c-120 7 -122 7 -189 0 -37 -4 -69 -1 -89 7 -16 7 -48 11 -71 11 -22 -1
-50 4 -61 11 -12 8 -60 26 -108 40 -48 15 -101 39 -118 53 -34 29 -104 165
-119 234 -6 25 -11 95 -11 156 0 136 -15 186 -94 316 -31 52 -66 118 -76 147
-37 96 -37 271 0 182 6 -16 22 -39 35 -51 23 -22 25 -22 50 -6 15 10 24 23 22
29 -3 7 -17 41 -33 76 -27 61 -27 64 -9 77 28 21 35 17 35 -17 0 -41 15 -66
50 -84 43 -22 50 -19 50 22 l0 36 24 -22 c25 -24 100 -39 131 -27 14 5 13 12
-11 56 -36 65 -47 74 -107 80 -28 3 -52 10 -54 17 -2 6 16 23 41 38 53 31 64
56 42 90 -31 47 -103 21 -130 -45 -9 -22 -24 -43 -34 -46 -9 -3 -35 -14 -57
-25 -22 -10 -43 -19 -47 -19 -3 0 -4 17 -2 38 3 20 -1 48 -8 62 -13 23 -72 70
-89 70 -16 0 -10 -167 7 -210 14 -33 14 -45 4 -70 -9 -23 -10 -40 -1 -74 14
-59 14 -59 -9 -43 -10 7 -41 47 -68 88 -27 41 -61 85 -76 98 -28 27 -76 158
-79 221 l-2 35 55 6 c58 7 150 42 150 57 0 31 -59 42 -137 27 -35 -6 -43 -5
-43 7 0 25 25 39 57 32 24 -5 45 2 92 27 33 19 61 39 61 46 0 36 -101 68 -128
41 -6 -6 -15 -9 -18 -5 -4 4 10 25 30 47 35 39 37 45 34 98 -3 51 -5 57 -23
53 -11 -2 -25 -4 -30 -5 -6 0 -28 19 -50 43 l-39 43 27 24 c39 33 63 31 70 -5
6 -29 69 -96 90 -96 6 0 15 15 19 32 9 33 1 56 -38 110 -15 22 -15 23 7 32 37
15 110 13 170 -5z m3804 -25 c11 -17 -1 -21 -15 -4 -8 9 -8 15 -2 15 6 0 14
-5 17 -11z m-4130 -285 c3 -35 4 -68 0 -74 -12 -19 -35 -11 -35 13 0 44 -12
64 -46 80 -36 18 -40 33 -28 95 l6 31 48 -41 c45 -39 48 -45 55 -104z m-107
-109 c29 -28 42 -49 42 -68 0 -34 -16 -34 -51 -1 -27 26 -63 32 -124 22 -18
-3 -20 3 -23 55 -3 63 6 83 41 90 15 3 30 -6 47 -27 14 -17 44 -49 68 -71z
m3605 -137 c32 -50 43 -98 28 -127 -13 -23 -27 -26 -65 -12 -15 6 -37 6 -55 1
-41 -12 -42 12 -2 46 24 20 31 36 36 79 4 31 12 55 19 55 6 0 24 -19 39 -42z
m-1942 3 c35 -15 76 -33 91 -39 60 -25 86 -248 39 -340 -12 -24 -28 -45 -36
-48 -8 -3 -39 -37 -70 -74 -50 -61 -61 -70 -100 -75 -46 -7 -105 -38 -105 -55
0 -5 17 -13 39 -16 64 -10 68 -16 47 -71 -10 -26 -32 -87 -49 -135 -17 -49
-33 -88 -37 -88 -13 0 -109 150 -125 196 -37 105 -9 203 71 254 44 28 49 29
71 15 12 -8 43 -15 68 -15 41 0 52 5 93 44 26 25 43 48 39 53 -5 4 -42 7 -83
7 -41 -1 -74 0 -74 2 0 2 9 23 19 46 11 24 22 51 25 60 5 16 8 16 40 3 53 -22
68 -19 109 23 l38 39 -51 31 -51 32 -29 -22 c-39 -29 -46 -19 -20 31 21 41 21
42 1 85 -11 25 -28 47 -40 51 -26 8 -28 35 -2 35 10 0 47 -13 82 -29z m-1751
-18 c13 -9 40 -19 59 -23 46 -7 63 -41 59 -114 l-3 -54 -54 31 c-66 39 -87 68
-95 130 -6 52 -2 55 34 30z m1609 -68 c42 -82 46 -107 10 -62 -25 32 -41 34
-85 6 -35 -21 -46 -49 -19 -49 20 0 105 -78 105 -97 0 -8 -8 -28 -17 -46 l-17
-32 -13 44 c-16 55 -36 78 -77 87 -43 9 -56 22 -56 56 0 25 6 31 44 48 49 20
61 36 71 93 4 21 9 36 11 34 2 -2 22 -39 43 -82z m-259 -71 c27 -23 31 -32 28
-67 -2 -22 -8 -42 -13 -44 -9 -3 -75 115 -75 132 0 14 32 2 60 -21z m2340 -35
c0 -7 -22 -34 -49 -60 -49 -50 -75 -58 -112 -39 -38 21 -15 55 29 43 23 -6 69
16 96 46 21 23 36 27 36 10z m-2201 -164 c22 -24 38 -50 36 -57 -3 -7 -30 -25
-60 -40 -52 -25 -55 -25 -55 -7 0 33 24 149 31 149 4 0 25 -20 48 -45z m2179
-91 c20 -6 22 -12 22 -80 0 -73 32 -189 50 -182 4 2 24 23 44 46 40 49 46 84
21 132 -13 25 -13 30 -2 30 22 0 66 -39 84 -73 8 -18 29 -43 46 -57 l30 -26
-16 -109 c-29 -195 -38 -328 -32 -420 7 -99 -7 -242 -27 -275 -17 -27 -46 -22
-71 12 -17 23 -19 31 -9 53 17 37 15 99 -5 140 -17 36 -27 43 -38 25 -3 -5
-11 -10 -16 -10 -7 0 -8 24 -4 68 6 62 9 69 47 103 40 34 41 38 46 111 3 52 1
78 -8 83 -16 10 -98 -80 -102 -112 -5 -43 -22 -36 -51 19 -14 29 -37 70 -49
90 l-23 37 28 28 c17 19 27 40 27 59 0 37 -25 123 -42 147 -12 16 -17 11 -51
-53 -25 -47 -37 -83 -37 -110 0 -22 -4 -40 -10 -40 -5 0 -36 25 -67 55 -64 61
-101 74 -158 55 -20 -7 -39 -10 -41 -7 -17 17 82 128 177 200 66 50 174 77
237 61z m-2618 -232 c-29 -5 -36 4 -19 24 12 14 14 14 27 -3 11 -16 11 -18 -8
-21z m840 14 c9 -12 3 -19 -37 -39 -108 -55 -117 -84 -29 -94 58 -7 98 10 132
55 l28 35 28 -33 c15 -19 28 -38 28 -42 0 -4 -15 -15 -32 -24 -52 -26 -97 -75
-109 -116 -13 -51 -6 -59 44 -52 59 9 94 29 112 64 9 17 20 28 24 25 5 -2 16
-28 26 -57 20 -64 34 -80 103 -124 28 -19 52 -39 52 -44 0 -16 -61 -90 -74
-90 -5 0 -27 12 -48 26 -29 21 -45 25 -71 20 -48 -9 -147 -74 -147 -96 0 -26
64 -43 110 -30 43 12 100 13 100 2 0 -5 -10 -17 -21 -28 -12 -10 -35 -38 -51
-61 -16 -24 -34 -43 -40 -43 -6 0 -26 14 -45 30 -18 17 -41 30 -50 30 -23 0
-109 -57 -133 -88 -30 -37 -12 -47 85 -47 71 0 85 -3 85 -16 0 -24 -28 -45
-92 -69 -59 -22 -88 -49 -88 -85 -1 -11 -6 -30 -13 -43 l-13 -23 -26 24 c-50
46 -55 100 -32 364 5 58 2 86 -16 145 -27 89 -37 215 -21 286 14 67 78 212
104 235 24 22 109 24 127 3z m1381 -103 c8 -9 31 -29 52 -44 33 -24 44 -27 91
-22 56 6 96 -7 96 -32 0 -11 -11 -13 -49 -8 -44 5 -52 3 -75 -20 -36 -36 -34
-63 5 -71 51 -10 74 -7 123 15 26 11 55 17 66 14 24 -7 56 -51 65 -88 l7 -27
-52 24 c-43 20 -57 22 -81 14 -37 -13 -44 -25 -27 -45 25 -31 102 -73 134 -73
46 0 56 -18 53 -102 -2 -40 1 -88 5 -105 9 -40 1 -41 -44 -8 -44 32 -50 43
-50 86 0 25 -8 42 -27 61 -56 52 -140 78 -130 41 3 -10 8 -34 11 -53 5 -26 16
-42 44 -60 l37 -25 -33 -3 c-24 -2 -45 4 -72 23 -58 40 -104 33 -147 -23 -18
-24 -33 -49 -33 -55 0 -17 156 -15 197 2 34 14 83 8 83 -9 0 -6 -15 -10 -34
-10 -25 0 -40 -7 -55 -26 -22 -27 -29 -94 -11 -94 6 0 39 20 74 45 67 46 107
56 147 35 36 -20 19 -30 -49 -30 l-68 0 -32 -53 c-18 -29 -32 -58 -32 -64 0
-6 21 -13 48 -16 57 -6 97 9 154 58 23 19 47 35 55 35 7 0 22 -13 34 -29 12
-17 43 -43 69 -59 61 -38 68 -65 40 -152 -11 -36 -20 -83 -20 -105 0 -97 -53
-285 -80 -285 -23 0 -49 64 -56 139 -7 81 -23 125 -52 139 -21 12 -102 24
-102 16 0 -3 11 -20 25 -38 14 -18 25 -39 25 -47 0 -8 9 -31 20 -52 11 -20 20
-39 20 -42 0 -13 -52 -3 -65 13 -7 9 -22 28 -33 41 -15 19 -28 24 -63 24 -48
0 -129 -35 -129 -56 0 -12 106 -67 129 -67 18 0 12 -27 -13 -56 l-23 -28 -28
22 c-46 36 -75 29 -146 -37 -35 -32 -74 -61 -85 -65 -34 -11 -36 18 -4 61 22
28 30 49 30 81 0 41 -22 102 -38 102 -4 0 -21 -27 -39 -59 -28 -51 -31 -63
-23 -92 6 -19 10 -39 10 -46 0 -13 -109 -87 -117 -80 -2 3 -8 34 -13 69 -5 36
-12 72 -16 81 -4 12 3 17 31 23 52 9 55 30 10 68 -37 31 -38 34 -33 84 7 68
27 96 96 131 31 16 68 41 81 55 36 39 49 33 53 -21 3 -41 7 -50 37 -70 19 -13
45 -23 58 -23 27 0 27 2 -7 93 -25 67 1 64 35 -4 22 -42 35 -55 78 -75 71 -33
87 -32 87 6 0 70 -57 140 -113 140 -14 0 -38 11 -54 24 l-28 24 37 15 c20 8
41 24 47 35 14 26 14 102 1 102 -30 0 -80 -33 -122 -79 -62 -69 -88 -68 -103
4 -9 39 -18 55 -45 72 -37 25 -66 30 -73 11 -6 -18 36 -99 67 -127 14 -14 26
-30 26 -36 0 -33 -116 -100 -125 -72 -2 7 -6 62 -9 122 -3 61 -12 151 -20 200
-37 237 -39 253 -28 327 6 39 19 83 30 97 10 14 58 53 106 86 48 33 99 75 112
93 28 36 45 40 65 15z m-629 -400 c78 -41 148 -105 200 -184 51 -76 63 -152
54 -339 l-6 -145 -45 -39 c-29 -25 -45 -46 -45 -61 0 -47 -9 -55 -66 -55 -31
0 -54 4 -54 10 0 6 9 28 20 50 11 22 20 46 20 55 0 18 -81 79 -90 68 -15 -17
-31 -108 -25 -147 6 -40 5 -42 -60 -100 -36 -32 -68 -56 -71 -53 -3 3 9 38 27
79 29 65 32 82 31 158 l-1 86 46 12 c33 9 61 27 95 61 66 66 64 81 -11 81 -49
0 -65 -4 -89 -25 -50 -42 -59 -33 -46 48 l7 37 58 0 c67 0 84 12 119 79 38 76
25 86 -61 46 -29 -13 -56 -22 -59 -19 -3 3 12 20 33 37 33 29 37 37 36 77 -1
67 -22 144 -39 148 -9 1 -32 -24 -58 -65 -41 -64 -43 -71 -37 -123 8 -80 -3
-89 -52 -40 -39 39 -66 50 -77 31 -11 -17 22 -113 49 -141 30 -32 45 -112 26
-140 -8 -12 -16 -8 -44 23 -19 20 -40 37 -46 37 -19 0 -86 -37 -101 -55 -13
-15 -11 -20 12 -40 15 -13 52 -29 82 -35 42 -8 62 -19 82 -43 24 -28 26 -37
22 -107 -3 -65 -8 -84 -38 -133 -19 -31 -38 -57 -42 -57 -4 0 -19 18 -34 40
l-26 39 21 30 c40 55 17 132 -50 167 -27 13 -30 13 -36 -2 -3 -9 -2 -43 3 -76
11 -66 -1 -78 -26 -25 -14 30 -18 32 -76 35 -35 2 -76 -3 -94 -10 l-33 -13 28
-33 c32 -39 58 -54 105 -62 l35 -5 -47 -33 c-58 -40 -56 -62 6 -62 23 0 51 7
62 15 49 37 114 -1 114 -68 0 -51 -24 -99 -68 -138 l-36 -32 -27 32 c-14 18
-48 70 -75 117 -27 47 -65 112 -84 145 -19 33 -81 107 -138 164 -56 57 -102
108 -102 114 0 7 18 20 41 29 35 15 45 27 82 102 29 58 48 85 59 85 11 0 34
-27 61 -70 59 -94 72 -95 88 -5 15 87 6 119 -38 140 -18 8 -33 22 -33 31 0 18
46 84 79 113 21 19 21 19 21 -4 0 -28 59 -140 74 -140 6 0 20 33 30 73 9 39
20 80 22 89 3 9 -9 32 -27 53 l-32 36 30 30 c22 23 46 34 99 44 148 30 171 28
266 -22z m-3674 -168 c14 -54 15 -92 3 -99 -5 -3 -12 5 -15 18 -3 14 -24 35
-51 50 -25 15 -45 31 -45 36 0 15 43 40 70 40 22 0 28 -6 38 -45z m159 -11
c47 -51 51 -64 27 -88 -22 -23 -34 -20 -34 10 0 31 -17 65 -42 82 -20 15 -24
42 -6 42 6 0 31 -21 55 -46z m-284 -88 c14 -21 23 -43 21 -50 -6 -16 -84 -19
-85 -3 -4 46 17 116 30 101 4 -5 20 -26 34 -48z m1488 -196 c30 -6 131 -22
225 -35 98 -14 191 -33 218 -45 26 -11 57 -20 69 -20 55 -1 50 -17 -25 -80
-40 -35 -87 -79 -105 -99 l-31 -36 -25 23 c-65 61 -194 24 -243 -70 -8 -15
-14 -29 -14 -31 0 -8 205 -1 224 8 18 8 18 5 11 -26 -5 -19 -7 -55 -6 -80 1
-46 1 -47 -36 -54 -52 -10 -71 -21 -93 -58 -21 -33 -26 -92 -11 -116 13 -21
104 33 136 80 14 22 30 39 35 39 15 0 32 -80 25 -117 -5 -29 -3 -35 20 -45 23
-10 25 -16 23 -68 -2 -44 3 -64 21 -93 12 -20 25 -37 27 -37 15 0 64 130 64
169 0 37 -5 48 -35 75 -41 38 -33 56 28 56 39 0 77 14 77 29 0 4 -16 26 -35
48 -39 46 -38 73 4 73 43 0 71 11 71 28 0 24 -31 104 -48 124 -10 12 -33 18
-81 20 l-66 3 73 77 c93 97 127 114 196 99 28 -6 60 -8 72 -5 11 3 51 -2 88
-10 37 -9 93 -16 124 -16 63 0 187 -21 250 -43 33 -12 85 -45 135 -88 5 -3 3
-34 -3 -67 -11 -52 -15 -59 -32 -54 -18 4 -19 2 -13 -27 8 -36 3 -38 -68 -16
-41 12 -54 12 -80 1 -18 -7 -38 -20 -45 -29 -12 -14 -6 -18 53 -36 37 -12 93
-21 125 -21 47 0 64 -5 97 -29 40 -29 73 -67 73 -84 0 -5 -13 -6 -29 -2 -41 9
-71 -9 -71 -42 0 -14 -12 -42 -27 -62 -18 -23 -30 -53 -33 -84 l-5 -48 -49 44
-49 43 26 45 c30 51 36 131 14 183 l-13 29 -32 -39 c-27 -33 -32 -47 -32 -91
0 -29 -4 -53 -9 -53 -9 0 -33 47 -46 90 -12 40 -34 67 -64 80 -36 15 -133 9
-139 -8 -2 -7 23 -40 55 -73 44 -43 67 -59 87 -59 18 0 39 -12 59 -32 37 -36
25 -46 -28 -24 -21 9 -49 16 -63 16 -29 0 -92 -36 -92 -54 0 -18 133 -49 178
-41 33 5 43 1 97 -40 61 -47 85 -72 85 -88 0 -5 -15 1 -34 12 -18 12 -44 21
-57 21 -28 0 -109 -35 -109 -47 0 -5 25 -21 55 -36 48 -23 62 -26 115 -20 59
6 62 5 95 -27 78 -76 104 -224 55 -319 -12 -25 -28 -60 -34 -80 l-12 -34 -46
59 c-25 33 -53 66 -62 73 -20 17 -20 50 0 101 14 34 14 45 3 71 -23 58 -90
119 -129 119 -15 0 -2 -77 23 -127 11 -24 18 -45 15 -49 -6 -6 -82 39 -92 54
-3 5 0 25 6 45 19 61 -24 167 -67 167 -7 0 -21 -22 -30 -49 -16 -50 -16 -50
11 -91 31 -47 26 -59 -19 -41 -59 24 -87 25 -117 2 -37 -27 -62 -27 -108 3
-20 12 -101 39 -178 59 -78 20 -164 46 -190 58 -60 26 -165 58 -309 94 -111
28 -196 69 -215 106 -14 26 -14 27 28 34 21 3 53 15 71 26 50 30 82 130 36
113 -22 -9 -18 13 10 50 37 49 33 66 -15 66 -23 0 -54 -7 -70 -15 -42 -22 -37
-8 18 48 l47 48 -3 72 c-4 122 -13 130 -74 66 -50 -52 -61 -82 -53 -140 7 -49
-6 -89 -28 -89 -9 0 -12 11 -9 34 5 44 -10 70 -60 106 -56 41 -71 39 -66 -7 4
-33 3 -34 -9 -17 -61 88 -83 111 -120 128 -50 22 -55 33 -42 80 9 33 39 52 39
25 0 -6 19 -30 43 -53 23 -23 47 -51 53 -62 20 -32 38 -1 42 71 5 75 -9 105
-57 125 -17 7 -31 15 -31 19 0 17 34 52 83 84 44 30 71 39 148 51 52 8 97 14
100 15 4 1 31 -4 60 -9z m5019 -359 c0 -28 -4 -52 -9 -55 -10 -7 -111 12 -111
20 0 3 14 23 32 45 23 29 39 39 60 39 27 0 28 -2 28 -49z m-2541 -66 c16 -8
38 -34 52 -62 20 -41 24 -66 27 -172 4 -135 -2 -199 -21 -225 -10 -14 -23 1
-88 107 -88 140 -104 152 -185 142 -42 -5 -54 -10 -54 -24 0 -26 52 -71 82
-71 15 0 40 -11 55 -24 l28 -24 -28 -7 c-26 -7 -63 -4 -120 11 -20 4 -33 1
-47 -11 -27 -24 -52 -95 -48 -136 3 -30 6 -34 28 -30 13 1 51 27 83 57 52 49
63 54 103 54 38 0 45 -3 42 -17 -2 -10 -17 -20 -37 -24 -56 -12 -82 -46 -88
-119 -6 -62 -6 -62 18 -55 63 19 104 51 127 98 24 51 35 56 64 30 13 -12 18
-30 18 -69 0 -45 -8 -70 -51 -151 -28 -54 -60 -123 -71 -153 -24 -64 -64 -130
-78 -130 -11 0 -52 78 -70 135 -26 79 -92 219 -137 289 -55 84 -93 163 -93
192 0 12 11 36 25 55 13 19 34 52 46 74 25 46 73 106 141 177 54 57 82 60 108
13 21 -38 73 -65 128 -65 l43 0 -17 31 c-8 17 -34 51 -56 75 l-41 44 42 0 c23
0 55 -7 70 -15z m-2044 -35 c45 -46 39 -60 -26 -60 -52 0 -67 21 -46 65 9 19
20 35 25 35 4 0 26 -18 47 -40z m1089 -1 c19 -17 45 -46 56 -64 19 -31 20 -37
7 -62 -8 -15 -18 -43 -22 -60 -3 -18 -10 -33 -13 -32 -12 1 -142 161 -142 174
0 19 49 75 66 75 7 0 29 -14 48 -31z m1836 -26 c24 -30 21 -71 -7 -128 -21
-40 -19 -39 -45 -21 -37 26 -41 20 -36 -49 3 -36 3 -65 -1 -65 -14 0 -89 61
-105 85 -29 45 -111 46 -162 1 l-28 -23 39 -7 c22 -4 51 -13 65 -21 14 -7 43
-16 65 -20 44 -7 95 -31 95 -43 0 -5 -26 -8 -57 -8 -32 0 -68 -4 -80 -8 -20
-7 -23 -5 -23 19 0 27 0 28 -50 21 l-51 -7 -15 38 c-9 21 -29 52 -46 70 l-30
31 41 27 c33 23 48 26 80 21 44 -7 127 6 144 23 7 7 5 16 -8 31 -20 22 -20 22
50 21 31 -1 66 6 90 18 52 25 50 25 75 -6z m-3860 -10 c0 -16 -14 -54 -31 -86
-27 -52 -30 -65 -24 -110 l6 -52 -26 55 c-14 30 -42 69 -62 87 -32 27 -35 33
-24 47 8 9 26 16 41 16 16 0 42 13 66 35 48 42 54 43 54 8z m103 9 c9 -10 23
-35 32 -56 13 -31 18 -36 30 -26 8 7 15 19 15 26 0 62 66 -86 75 -168 7 -66 4
-68 -55 -38 -37 19 -42 19 -77 5 -43 -18 -93 -62 -93 -81 0 -7 18 -18 39 -25
33 -10 48 -9 98 9 52 17 64 18 91 6 18 -7 32 -18 32 -24 0 -7 9 -25 20 -40 23
-32 21 -35 -35 -45 -22 -4 -57 -16 -77 -26 -59 -30 -102 -25 -153 17 -72 58
-85 131 -34 180 61 58 70 100 44 209 -8 33 -15 68 -15 78 0 23 42 23 63 -1z
m-2232 -9 c2 -39 -2 -119 -7 -135 -3 -9 -22 -22 -42 -28 -20 -7 -56 -23 -80
-36 -41 -22 -45 -22 -68 -8 -13 9 -24 20 -24 25 0 5 15 32 33 59 22 34 46 56
77 71 25 12 56 32 69 45 28 28 41 30 42 7z m5439 -153 c0 -18 79 -97 110 -110
24 -10 30 -18 30 -44 -1 -44 -35 -116 -56 -116 -13 0 -16 7 -11 35 6 39 -17
76 -63 100 -25 13 -29 13 -34 -1 -13 -35 -4 -84 25 -140 31 -58 31 -58 14 -91
-21 -38 -38 -44 -29 -9 11 44 -11 66 -66 66 l-49 0 6 -32 c7 -38 25 -80 54
-125 18 -28 19 -35 7 -59 -16 -34 -75 -65 -134 -72 -52 -6 -53 -2 -24 84 31
91 60 231 67 319 9 123 57 205 120 205 18 0 33 -5 33 -10z m-3491 -15 c16 -8
37 -33 49 -58 28 -59 43 -159 27 -176 -2 -2 -34 11 -71 28 -64 30 -66 32 -58
58 5 16 8 58 6 96 -2 72 1 76 47 52z m5069 -38 c2 -15 19 -39 38 -57 29 -25
64 -83 64 -105 0 -12 -37 -3 -60 15 -14 11 -33 20 -43 20 -29 0 -89 -29 -82
-40 15 -24 89 -52 122 -47 27 5 36 2 48 -17 23 -35 9 -59 -29 -51 -17 4 -56 9
-87 12 -46 4 -62 10 -85 34 -54 57 -83 23 -58 -68 7 -24 9 -43 6 -43 -4 0 -27
21 -53 46 -66 65 -110 70 -178 19 -28 -20 -51 -40 -51 -44 0 -5 27 -17 59 -28
58 -18 61 -18 93 -1 18 9 40 17 49 18 17 0 76 -57 67 -65 -3 -3 -27 0 -53 7
-46 12 -47 12 -72 -16 -23 -27 -23 -30 -7 -39 17 -9 54 -11 143 -5 29 2 46 -1
48 -9 3 -9 -7 -13 -30 -13 -38 0 -62 -21 -72 -62 -7 -28 -7 -28 41 -28 46 1
51 3 77 41 23 33 31 38 42 29 25 -21 18 -57 -17 -82 -17 -13 -73 -64 -124
-115 -115 -113 -127 -118 -171 -68 -41 47 -41 62 -4 70 26 6 70 41 60 48 -2 2
-26 12 -52 23 -27 10 -48 24 -48 29 0 6 33 12 72 15 59 4 74 9 90 29 29 36 24
48 -24 55 -48 7 -68 2 -110 -27 -16 -10 -30 -17 -32 -15 -3 2 1 21 7 41 10 33
9 41 -8 64 -11 15 -25 28 -31 30 -17 6 -33 -56 -30 -119 1 -43 -2 -62 -15 -74
-20 -21 -32 -13 -73 47 -28 39 -28 40 -12 75 10 19 17 47 17 62 0 38 -19 102
-30 102 -15 0 -42 -46 -60 -102 l-16 -50 -37 35 c-20 19 -37 39 -37 45 0 6 55
51 123 102 139 104 332 204 412 215 34 5 72 21 120 51 38 24 74 43 80 41 5 -2
11 -15 13 -30z m-5780 -9 c5 -7 12 -22 16 -33 5 -18 -1 -23 -41 -35 -27 -8
-54 -16 -60 -18 -14 -4 -18 53 -7 82 7 20 77 22 92 4z m1258 -12 c19 -14 19
-15 -5 -40 -30 -32 -37 -32 -45 -2 -12 49 12 69 50 42z m1859 -28 c43 -51 177
-310 167 -325 -4 -5 -17 -15 -30 -22 -12 -6 -33 -34 -47 -61 -17 -33 -32 -50
-44 -50 -16 0 -18 5 -10 46 10 51 -4 96 -39 128 -30 26 -45 16 -65 -46 -23
-74 -22 -88 12 -136 22 -30 27 -43 18 -49 -29 -22 -149 -74 -155 -68 -4 4 -5
52 -4 108 4 100 5 104 50 187 45 83 46 88 51 193 5 92 9 111 25 123 28 20 30
19 71 -28z m2028 -23 c44 -30 47 -45 10 -45 -55 0 -73 10 -73 41 0 36 14 37
63 4z m-2210 -53 c11 -10 17 -29 17 -58 0 -37 -7 -50 -51 -101 -49 -56 -50
-59 -44 -106 8 -62 -8 -59 -47 9 -55 96 -53 90 -25 127 33 44 48 100 40 155
l-6 45 49 -28 c27 -16 57 -35 67 -43z m1571 -23 c31 -18 45 -20 96 -14 79 9
93 -1 85 -64 -10 -74 -24 -101 -52 -101 -13 0 -43 -4 -66 -10 -23 -5 -71 -16
-107 -24 -44 -10 -80 -12 -114 -7 -27 5 -57 6 -68 3 -22 -5 -24 15 -2 39 14
15 19 15 62 2 51 -15 94 -11 148 15 42 19 39 30 -12 60 -28 16 -48 21 -71 17
-44 -8 -41 7 6 33 23 13 41 32 45 47 8 30 6 30 50 4z m316 -104 c40 -20 38
-37 -2 -33 -25 2 -34 8 -36 26 -4 26 0 27 38 7z m1652 -32 c8 -10 34 -51 57
-90 24 -40 47 -73 51 -73 25 0 16 103 -11 137 -10 12 -10 16 2 24 18 11 51 2
64 -19 6 -10 31 -38 58 -63 26 -25 47 -48 47 -51 0 -4 -18 -17 -40 -29 -41
-23 -70 -69 -70 -112 0 -21 -8 -27 -57 -44 -32 -11 -66 -23 -75 -27 -37 -16
-18 23 24 51 36 24 44 36 50 73 4 24 5 46 2 49 -3 3 -34 -9 -69 -28 -78 -40
-109 -83 -103 -139 4 -34 0 -41 -54 -94 -32 -32 -60 -58 -63 -58 -3 0 -5 30
-5 67 l0 68 56 51 c31 29 54 58 52 66 -3 7 -21 14 -41 16 -28 2 -39 -2 -49
-17 -18 -30 -35 -26 -40 10 -4 27 0 34 31 55 80 52 88 68 45 84 -18 7 -33 6
-54 -5 -39 -20 -42 -19 -38 12 2 17 13 33 29 42 25 14 29 13 95 -36 38 -28 84
-58 102 -67 31 -16 32 -16 32 4 0 38 -37 94 -75 115 -34 17 -35 20 -19 32 25
18 48 16 66 -4z m-654 -99 c26 -8 2 -154 -25 -154 -5 0 -14 15 -21 33 -6 18
-28 48 -47 67 -33 32 -34 35 -18 52 15 17 61 18 111 2z m358 -16 c7 -11 -62
-84 -100 -105 -10 -6 -16 -15 -12 -22 11 -17 68 -13 103 9 l32 19 16 -22 c29
-42 21 -47 -70 -47 l-86 0 32 -40 c38 -47 53 -53 99 -40 45 13 52 1 48 -76 -6
-94 -58 -156 -58 -68 0 19 -3 34 -6 34 -19 0 -43 -25 -59 -62 -24 -55 -22 -53
-40 -38 -8 7 -15 26 -15 42 0 59 -34 99 -101 118 -27 8 -29 7 -29 -18 0 -57
20 -97 69 -142 28 -25 51 -54 53 -65 3 -18 -2 -20 -44 -17 -29 2 -59 -3 -77
-13 -17 -8 -51 -15 -77 -15 -35 0 -64 -9 -110 -35 -81 -44 -102 -38 -162 46
-55 78 -58 86 -37 109 39 43 91 18 106 -50 17 -76 52 -96 63 -36 l7 35 49 -6
50 -6 -16 39 c-24 58 -42 74 -85 74 -21 0 -50 5 -64 10 l-27 10 24 33 c14 17
54 50 90 72 203 126 318 203 360 241 49 46 62 52 74 32z m-1316 -5 c0 -10 -72
-83 -82 -83 -16 0 -7 51 12 70 19 19 70 28 70 13z m-613 -38 c-4 -8 -14 -15
-23 -15 -16 0 -16 2 1 20 20 22 31 20 22 -5z m776 -12 c40 -20 34 -34 -11 -27
-34 5 -43 2 -75 -29 -20 -19 -37 -42 -37 -52 0 -14 7 -16 43 -12 23 2 62 12
87 22 58 22 106 9 150 -41 47 -54 57 -81 37 -101 -15 -15 -17 -14 -27 11 -5
15 -10 31 -10 36 0 14 -42 50 -52 44 -4 -3 -8 -26 -8 -52 0 -38 5 -52 32 -79
l31 -32 -17 -64 c-22 -81 -50 -127 -76 -127 -11 0 -20 7 -20 16 0 8 -10 32
-22 54 -22 38 -22 39 -3 60 21 23 24 75 6 109 -18 32 -30 26 -54 -29 -27 -62
-51 -63 -55 -3 -2 33 -10 48 -38 72 -55 49 -68 43 -61 -31 4 -50 10 -66 29
-80 95 -70 99 -80 32 -77 -39 2 -50 -1 -66 -21 -30 -37 -20 -55 35 -58 35 -2
55 2 76 17 39 28 59 26 71 -4 24 -63 -58 -162 -150 -183 -81 -19 -127 -16
-141 9 -13 26 -3 165 17 223 8 21 14 65 14 97 0 119 42 220 130 311 51 53 65
55 133 21z m-351 -7 c8 -18 8 -37 -1 -70 -6 -25 -11 -61 -11 -80 0 -65 -14
-84 -66 -92 -37 -5 -56 -2 -90 15 -24 11 -44 25 -44 30 0 12 26 21 61 21 31 0
73 33 66 53 -2 7 -25 21 -50 31 l-47 20 -54 -23 c-50 -21 -56 -21 -90 -7 -20
8 -36 19 -36 24 0 12 97 59 170 83 30 10 83 18 118 18 57 1 63 -1 74 -23z
m-1230 -203 c100 -198 158 -334 158 -369 0 -15 -13 -69 -29 -118 -16 -50 -36
-122 -45 -159 -20 -87 -82 -207 -118 -227 -25 -13 -31 -13 -63 4 -19 11 -62
53 -94 95 -52 66 -150 168 -306 317 -22 22 -54 57 -70 78 -28 37 -30 43 -32
154 l-2 116 35 33 c46 43 74 42 113 -2 24 -28 31 -45 31 -77 0 -29 7 -49 21
-64 l22 -23 40 66 c49 81 45 107 -21 138 -50 23 -51 41 -5 68 l33 19 42 -36
c43 -37 91 -56 141 -56 l28 0 -23 41 c-22 39 -39 57 -84 86 -17 10 -17 13 -4
22 8 6 31 11 50 11 19 0 44 7 54 15 41 31 51 21 128 -132z m-972 72 c48 -25
39 -45 -19 -45 -52 0 -100 27 -87 48 10 17 72 15 106 -3z m1819 4 c44 -16 51
-36 45 -125 -5 -80 6 -122 33 -131 20 -7 53 58 53 105 0 52 15 52 42 2 23 -45
23 -87 -2 -128 -11 -18 -20 -42 -20 -53 0 -25 47 -119 60 -119 18 0 30 39 30
102 0 35 4 69 9 76 16 26 28 -12 35 -107 6 -91 5 -95 -28 -170 -38 -84 -71
-208 -85 -317 -9 -70 -24 -114 -40 -114 -4 0 -27 23 -50 50 -23 28 -48 50 -55
50 -27 0 -35 -89 -11 -130 33 -58 6 -68 -45 -15 -44 45 -87 54 -153 30 -58
-21 -52 -26 -98 90 -18 44 -70 161 -117 260 -125 267 -118 242 -92 327 36 117
103 167 157 116 30 -28 29 -59 -2 -88 -32 -30 -49 -82 -41 -126 8 -40 15 -41
67 -12 39 22 43 29 39 81 -2 34 13 35 40 0 24 -31 23 -60 -6 -135 -18 -45 -18
-48 -1 -84 17 -35 18 -36 37 -19 11 10 20 31 20 47 0 39 16 35 30 -6 8 -25 8
-46 1 -72 -9 -34 -8 -41 15 -71 14 -18 27 -33 29 -33 10 0 55 101 55 123 0 13
-15 37 -35 57 -19 19 -35 40 -35 47 0 16 0 16 43 -2 52 -22 97 -20 97 4 0 23
-100 91 -134 91 -19 0 -30 11 -50 47 -15 25 -25 48 -23 50 3 2 16 -1 31 -7 15
-5 47 -10 72 -10 51 0 57 14 23 62 -27 38 -74 58 -135 58 -37 0 -53 6 -79 29
-18 16 -38 30 -45 33 -35 11 48 68 145 98 22 7 51 21 65 31 29 21 64 24 109 8z
m-1691 -124 c25 -18 77 -91 92 -129 5 -14 8 -26 7 -26 -2 0 -40 36 -85 79 -75
73 -83 87 -47 90 6 1 20 -6 33 -14z m2023 -86 c15 -15 18 -24 10 -32 -8 -8
-18 -4 -36 13 -14 13 -25 27 -25 32 0 15 30 8 51 -13z m715 -25 c19 -9 34 -20
34 -24 0 -26 -103 -69 -135 -56 -14 5 -16 14 -10 44 4 20 12 40 18 44 19 12
57 9 93 -8z m121 -128 c34 -38 147 -255 174 -335 12 -34 19 -82 19 -128 l0
-73 -40 20 c-42 21 -105 27 -115 10 -13 -21 -23 -8 -30 37 -10 68 -48 103
-114 103 l-50 0 -21 56 c-11 31 -18 59 -16 62 9 8 63 -18 83 -40 10 -11 26
-24 35 -29 16 -8 18 -5 18 24 0 46 -58 113 -110 127 -38 10 -100 70 -100 97 0
7 37 24 83 38 45 15 96 35 112 45 17 11 33 20 36 20 4 0 20 -15 36 -34z m544
-95 c24 -11 64 -21 88 -21 54 0 131 -41 131 -70 0 -17 -4 -18 -30 -9 -26 10
-34 7 -70 -21 -40 -31 -70 -67 -70 -82 0 -5 34 -8 76 -8 72 0 77 2 102 30 15
17 32 30 38 30 21 0 36 -68 32 -139 -5 -94 -39 -156 -147 -268 l-90 -92 -39
72 c-21 40 -45 82 -53 95 -11 18 -11 25 -1 40 7 9 15 23 18 30 11 23 -15 115
-40 147 l-24 30 -21 -45 c-11 -25 -21 -64 -21 -87 0 -50 -8 -56 -49 -42 -35
12 -51 35 -51 72 0 14 -12 58 -26 99 -37 105 -44 147 -33 190 9 35 12 37 67
48 31 7 61 13 67 14 44 10 107 4 146 -13z m-847 -42 c14 -11 26 -25 26 -31 0
-6 -29 -42 -65 -79 -49 -52 -65 -77 -65 -98 l0 -28 47 8 c56 11 77 29 96 84
l14 40 16 -32 c24 -46 21 -76 -13 -130 -16 -26 -30 -59 -30 -74 0 -27 1 -27
30 -17 17 5 39 21 50 35 38 48 54 -6 25 -86 -14 -39 -13 -45 5 -81 11 -22 20
-49 20 -60 0 -38 24 -16 48 45 l23 59 -20 56 c-12 32 -21 64 -21 74 0 25 18
19 35 -13 17 -34 72 -71 106 -71 24 0 79 -45 79 -66 0 -7 -22 -20 -49 -29 -56
-18 -78 -39 -87 -81 -6 -33 12 -114 26 -114 24 0 71 55 84 100 21 70 32 87 67
99 30 10 31 10 24 -12 -33 -109 -31 -122 17 -94 16 9 34 14 39 11 6 -4 8 -36
3 -84 l-6 -77 51 -100 c28 -55 51 -110 51 -122 0 -21 -3 -20 -45 16 -31 27
-46 48 -51 73 -9 47 -32 86 -61 101 -20 11 -26 11 -33 -1 -16 -25 -11 -66 10
-85 20 -18 27 -45 12 -45 -5 0 -31 7 -59 15 -44 13 -51 19 -57 46 -13 67 -116
125 -116 65 0 -14 11 -38 25 -54 14 -17 25 -33 25 -36 0 -12 -55 -5 -74 9 -28
21 -82 18 -127 -7 -22 -12 -39 -25 -39 -29 0 -15 62 -59 83 -59 12 0 46 9 76
21 60 22 92 13 47 -15 -14 -9 -37 -23 -52 -32 -60 -36 -34 -79 39 -62 30 7 55
24 89 59 36 38 53 49 77 49 36 0 41 -17 8 -29 -32 -12 -47 -33 -54 -75 -5 -29
-2 -36 11 -36 27 0 88 35 120 69 39 41 67 39 106 -6 62 -71 84 -157 68 -268
-12 -87 -28 -112 -159 -249 -124 -130 -236 -223 -251 -208 -16 16 -22 136 -9
189 26 108 40 121 81 78 23 -25 82 -35 94 -17 10 17 -46 92 -80 107 -26 11
-34 20 -34 39 0 38 13 38 55 0 41 -37 66 -39 124 -9 l24 12 -41 41 c-23 23
-37 44 -32 47 5 3 31 3 59 -1 46 -6 51 -4 87 30 38 35 38 37 20 51 -35 27 -87
30 -126 7 -20 -11 -57 -23 -82 -27 l-47 -7 5 33 c5 28 1 39 -21 59 l-26 25
-19 -25 c-27 -35 -33 -74 -19 -114 11 -30 10 -37 -10 -65 -28 -39 -36 -39 -56
-1 -22 43 -57 63 -95 55 -17 -4 -34 -13 -37 -21 -9 -23 46 -84 93 -105 68 -28
73 -50 35 -154 -34 -94 -38 -137 -16 -175 26 -46 19 -119 -18 -178 -38 -61
-117 -122 -158 -122 -74 0 -209 82 -209 126 0 11 5 35 11 54 6 19 12 87 14
150 2 90 8 134 29 203 25 81 126 326 161 389 8 14 15 49 15 77 0 43 -3 51 -18
51 -34 0 -61 -41 -64 -98 l-3 -52 -39 26 c-36 25 -43 26 -80 16 -40 -10 -43
-9 -86 27 -25 21 -51 55 -59 76 -14 35 -13 39 4 51 32 24 57 16 104 -35 44
-47 107 -88 118 -77 3 3 2 21 -1 41 -8 41 -48 82 -88 90 -35 8 -36 24 -3 55
21 19 30 22 62 15 61 -13 176 -12 180 2 6 16 -69 53 -107 53 -38 0 -36 21 4
35 18 6 45 5 84 -3 53 -11 60 -10 100 10 23 13 42 26 42 29 0 10 -124 79 -143
79 -11 0 -46 -25 -79 -55 -33 -30 -63 -53 -68 -50 -4 3 -6 22 -3 43 3 26 -1
50 -12 72 l-17 33 -21 -22 c-17 -16 -22 -37 -27 -98 -5 -82 -27 -130 -53 -120
-15 6 -14 14 8 116 8 33 8 33 -16 21 -35 -19 -53 -48 -64 -104 -13 -58 -39
-82 -58 -51 -23 39 -26 68 -11 104 20 49 40 68 83 82 45 14 126 89 108 101
-20 13 -76 9 -107 -7 -29 -15 -30 -15 -30 9 0 29 52 76 84 76 28 0 103 -54
111 -80 9 -27 23 -25 31 4 6 25 -14 74 -40 95 -23 20 -19 31 10 31 19 0 45
-20 99 -75 41 -41 79 -75 86 -75 18 0 4 109 -19 139 -28 39 -60 51 -134 51
-38 0 -68 3 -68 6 0 3 11 19 25 36 21 24 25 40 25 89 0 52 -2 59 -19 59 -51 0
-120 -99 -121 -171 0 -31 -7 -42 -46 -74 -25 -21 -51 -51 -56 -67 -15 -42 -25
-34 -33 25 -11 80 -18 87 -53 49 -16 -17 -33 -44 -37 -59 -8 -34 -33 -63 -53
-63 -12 0 -14 14 -10 83 10 153 54 246 145 311 34 24 56 30 122 36 84 7 93 11
195 90 46 35 64 37 100 9z m-1401 -259 c20 -49 37 -99 37 -110 0 -11 14 -64
32 -117 30 -96 31 -103 33 -305 3 -240 -3 -266 -69 -281 -51 -13 -84 3 -165
82 -84 80 -96 112 -96 261 0 120 25 218 75 297 17 26 30 55 30 65 0 10 12 59
27 108 36 118 48 118 96 0z m-1724 3 c-15 -80 -17 -83 -55 -83 -19 0 -48 -7
-65 -15 -37 -20 -49 -13 -49 29 0 43 32 73 106 96 33 10 62 19 65 19 4 1 2
-20 -2 -46z m3816 -163 c22 -8 26 -14 20 -33 -4 -12 -10 -47 -15 -77 -4 -30
-11 -64 -15 -74 -8 -18 -5 -17 36 5 32 17 47 33 54 57 5 17 13 32 17 32 4 0
21 -24 38 -52 25 -45 30 -63 30 -124 0 -40 -7 -91 -16 -115 -10 -29 -17 -96
-21 -201 -4 -114 -9 -158 -18 -158 -7 0 -15 23 -18 60 -4 34 -18 93 -32 133
-100 280 -98 273 -103 420 -5 145 -5 145 43 127z m-1702 -180 c35 -16 51 -18
72 -10 35 13 68 13 83 -2 10 -10 1 -24 -40 -66 l-53 -53 23 -17 22 -17 -25
-38 c-14 -20 -30 -37 -35 -37 -19 0 -126 233 -115 251 9 13 17 12 68 -11z
m552 -3 c13 -21 13 -29 -1 -78 -9 -30 -18 -56 -20 -58 -2 -2 -15 4 -30 14 -23
15 -26 22 -21 56 5 42 31 89 47 89 5 0 16 -10 25 -23z m-195 -137 c10 -18 4
-29 -45 -82 -31 -33 -54 -65 -52 -72 2 -6 29 -12 60 -14 67 -4 91 14 102 77 4
22 11 44 17 47 15 10 65 -44 106 -114 20 -35 48 -83 62 -106 14 -24 49 -70 79
-102 114 -124 132 -183 91 -292 -11 -29 -20 -70 -20 -92 0 -44 -14 -56 -53
-46 -48 13 -51 20 -23 68 34 59 35 138 0 138 -24 0 -81 -59 -87 -90 -9 -41
-29 -38 -55 9 -30 53 -28 63 15 86 59 31 81 73 73 134 -8 62 -13 67 -45 53
-31 -14 -65 -68 -65 -104 0 -36 -27 -37 -36 -2 -4 14 -2 41 4 60 10 32 8 38
-34 89 -25 30 -51 55 -59 55 -20 0 -45 -52 -45 -95 0 -30 8 -45 45 -83 67 -68
77 -112 15 -67 -37 27 -78 32 -128 14 -27 -9 -30 -14 -22 -30 14 -24 84 -64
140 -79 25 -7 51 -17 58 -23 16 -13 55 -87 49 -93 -2 -3 -16 0 -31 6 -34 13
-116 -6 -116 -26 0 -18 66 -60 107 -69 17 -3 49 -1 70 5 36 11 45 10 91 -14
28 -14 65 -26 82 -26 42 0 56 -35 41 -110 -14 -66 -49 -122 -99 -154 -50 -33
-181 -66 -263 -66 -58 0 -72 4 -99 26 -33 29 -83 118 -95 172 -7 35 -18 350
-18 547 -1 158 20 255 79 370 59 114 82 136 104 95z m500 -405 c58 -29 64 -38
50 -65 -12 -22 -40 -27 -40 -7 0 8 -12 24 -26 38 -26 25 -49 59 -39 59 3 0 28
-11 55 -25z m1330 -71 c32 -65 48 -84 71 -84 26 0 31 -14 23 -66 l-7 -46 -36
7 c-20 4 -116 8 -213 9 -98 1 -180 5 -184 8 -11 11 98 128 146 156 61 37 142
72 160 69 8 -1 26 -25 40 -53z m-3167 -44 c32 -24 48 -46 69 -95 17 -42 22
-65 15 -65 -17 0 -120 40 -135 52 -7 6 -10 20 -6 30 3 11 0 33 -6 49 -13 30
-8 59 10 59 5 0 29 -14 53 -30z m539 -267 l41 -82 -16 -40 c-14 -33 -15 -49
-6 -88 6 -26 11 -79 10 -116 -1 -37 3 -84 9 -103 15 -46 7 -52 -36 -29 -85 46
-157 199 -221 473 -8 31 21 29 44 -4 38 -54 76 -94 89 -94 23 0 17 79 -8 130
-20 39 -38 55 -83 74 -5 2 4 16 20 30 l30 26 43 -48 c24 -26 61 -84 84 -129z
m1810 -368 c15 -33 3 -44 -75 -73 l-57 -21 47 59 c27 32 54 59 61 59 7 1 18
-10 24 -24z m-1611 -1320 c-7 -88 -14 -162 -17 -164 -13 -14 -33 29 -39 87
-11 115 -8 153 22 215 41 88 49 57 34 -138z m968 -1214 c11 -11 22 -37 25 -58
4 -21 15 -66 26 -100 11 -35 23 -83 27 -108 5 -37 3 -45 -10 -45 -9 0 -29 18
-43 40 -15 22 -30 40 -35 40 -5 0 -6 -28 -2 -62 6 -69 -10 -148 -30 -148 -19
0 -63 98 -87 191 l-21 82 35 36 c27 28 36 45 36 71 0 21 8 42 22 57 26 28 33
28 57 4z m216 -110 c5 -16 12 -19 40 -14 33 5 35 4 35 -21 0 -19 -16 -41 -55
-80 -36 -35 -55 -61 -55 -77 0 -13 -5 -31 -10 -39 -21 -32 -35 24 -30 120 2
37 44 130 59 130 6 0 12 -9 16 -19z m-1550 -191 c3 -5 17 -10 30 -10 35 0 38
-12 15 -73 -24 -64 -50 -93 -50 -56 0 21 -4 20 -44 -20 -24 -24 -46 -39 -49
-34 -12 20 9 140 31 171 23 31 55 42 67 22z m-7947 -66 c20 -6 22 -12 22 -68
0 -63 -11 -98 -24 -77 -12 19 -43 140 -38 146 7 6 12 6 40 -1z m6815 -62 c26
-27 27 -33 21 -86 -4 -31 -11 -59 -15 -62 -5 -3 -22 2 -38 11 -17 8 -35 15
-41 15 -23 0 -7 -43 31 -85 35 -37 39 -47 29 -60 -18 -22 -26 -19 -40 16 -8
18 -18 28 -26 25 -8 -3 -24 12 -40 39 -28 48 -38 54 -48 29 -10 -25 -26 -6
-26 32 0 44 -12 43 -33 -1 -21 -44 -37 -45 -37 -1 0 26 7 41 31 60 37 31 69
33 94 6 24 -26 50 -33 75 -20 26 14 26 35 -2 54 -21 15 -21 16 -3 36 24 27 36
25 68 -8z m-5964 -118 c32 -37 41 -55 45 -97 8 -80 4 -117 -15 -117 -17 0 -29
37 -29 86 0 29 -20 32 -27 4 -4 -15 -14 -20 -38 -20 -28 0 -35 5 -44 31 -21
60 -14 105 20 133 17 14 34 26 39 26 5 0 26 -21 49 -46z m6697 38 c21 -13 65
-114 62 -140 l-3 -27 -28 28 c-15 15 -29 27 -31 27 -2 0 -7 -11 -10 -25 -14
-54 -46 -13 -46 57 0 24 7 54 16 66 16 24 23 26 40 14z m-6886 -80 c0 -12 -3
-12 -15 -2 -8 7 -15 22 -15 34 1 21 1 21 15 2 8 -11 15 -26 15 -34z m5809 -68
c-36 -38 -45 -12 -12 37 l28 43 3 -28 c2 -19 -4 -36 -19 -52z m-1318 27 c23
-24 29 -38 29 -73 l0 -43 -21 25 c-40 51 -69 120 -49 120 6 0 25 -13 41 -29z
m-2103 -7 c21 -14 31 -54 14 -54 -10 0 -62 53 -62 63 0 12 25 8 48 -9z m-32
-51 c15 -20 19 -83 5 -83 -10 0 -31 54 -31 81 0 24 9 24 26 2z m-1292 -55 c17
-53 16 -68 -3 -68 -19 0 -34 41 -24 67 6 17 22 17 27 1z"/>
</g>
</svg>
