<?xml version="1.0" standalone="no"?>
<!DOCTYPE svg PUBLIC "-//W3C//DTD SVG 20010904//EN"
 "http://www.w3.org/TR/2001/REC-SVG-20010904/DTD/svg10.dtd">
<svg version="1.0" xmlns="http://www.w3.org/2000/svg"
 width="1280.000000pt" height="1013.000000pt" viewBox="0 0 1280.000000 1013.000000"
 preserveAspectRatio="xMidYMid meet">
<metadata>
Created by potrace 1.15, written by Peter Selinger 2001-2017
</metadata>
<g transform="translate(0.000000,1013.000000) scale(0.100000,-0.100000)"
fill="#000000" stroke="none">
<path d="M4665 10111 c-33 -10 -100 -38 -150 -63 -49 -25 -106 -49 -125 -53
-53 -11 -85 -31 -118 -72 -42 -54 -56 -85 -112 -244 -48 -138 -62 -192 -75
-293 -5 -40 -15 -57 -47 -89 -39 -39 -40 -41 -33 -91 4 -28 11 -143 15 -256 4
-113 12 -219 18 -235 6 -21 5 -61 -6 -134 -15 -99 -15 -107 6 -215 12 -61 25
-151 28 -201 4 -49 15 -112 26 -139 13 -34 21 -91 27 -195 7 -133 11 -152 39
-214 17 -38 36 -94 42 -125 10 -59 2 -143 -15 -149 -6 -1 -17 25 -26 60 -10
34 -33 107 -54 162 -32 89 -37 114 -45 245 -17 275 -23 303 -65 322 -24 11
-25 15 -22 87 2 74 1 78 -35 127 -36 49 -55 104 -60 174 -2 27 -8 35 -28 40
-29 7 -30 17 -10 128 17 93 4 144 -42 168 -29 15 -30 18 -23 62 20 134 22 126
-49 175 -26 18 -26 19 -26 157 0 127 -2 142 -20 160 -29 29 -55 25 -98 -15
-78 -70 -127 -195 -146 -372 -13 -115 -15 -123 -72 -232 -50 -95 -59 -121 -59
-164 0 -56 11 -77 92 -176 l42 -52 -19 -48 c-19 -48 -19 -49 1 -86 11 -21 30
-81 41 -134 11 -53 31 -125 45 -161 13 -36 35 -94 48 -130 15 -41 35 -74 54
-91 29 -24 31 -29 29 -95 -1 -82 8 -103 86 -199 50 -60 54 -69 44 -89 -7 -11
-15 -46 -18 -76 l-5 -55 -53 -21 c-91 -36 -139 -101 -149 -199 -5 -43 -1 -63
21 -110 33 -74 33 -101 -5 -183 -17 -37 -41 -114 -55 -172 -14 -58 -36 -138
-49 -179 -14 -40 -25 -86 -25 -102 0 -15 -23 -71 -51 -124 -27 -53 -59 -130
-70 -172 -45 -176 -9 -405 87 -547 72 -108 83 -130 114 -223 51 -151 60 -156
265 -168 138 -7 249 -28 313 -57 33 -16 49 -32 63 -62 26 -58 24 -67 -24 -117
-90 -91 -274 -438 -320 -603 -14 -49 -34 -101 -44 -115 -23 -32 -272 -156
-358 -178 -120 -32 -221 10 -271 113 -28 57 -28 61 -26 214 1 96 -5 236 -17
365 -11 116 -25 296 -31 400 -6 105 -18 280 -26 390 -30 389 -33 450 -23 568
11 149 22 192 73 297 40 85 40 85 47 235 3 82 11 163 17 178 7 16 12 41 12 56
0 69 -76 86 -335 77 -104 -3 -207 -11 -227 -16 -46 -13 -68 -43 -68 -93 0 -56
-19 -123 -41 -143 -35 -32 -111 -29 -264 11 -170 44 -278 51 -503 36 -171 -11
-465 -56 -642 -97 -58 -13 -217 -60 -355 -104 -137 -44 -304 -94 -371 -110
-264 -65 -354 -116 -354 -198 0 -33 32 -83 113 -178 132 -155 326 -478 398
-664 23 -58 54 -125 70 -150 81 -129 159 -422 159 -602 0 -113 12 -151 48
-156 18 -3 26 5 42 40 22 51 40 180 40 294 0 91 20 213 50 298 52 152 239 463
364 606 89 102 250 247 331 300 135 87 176 111 211 126 65 27 245 64 344 70
95 6 236 -8 254 -26 5 -5 12 -103 17 -219 4 -116 10 -214 13 -219 2 -4 12
-150 21 -323 18 -355 18 -357 52 -493 63 -258 94 -440 104 -616 5 -96 15 -222
22 -280 6 -58 12 -172 12 -255 0 -143 -1 -153 -27 -209 -16 -32 -28 -68 -28
-80 0 -12 25 -50 58 -87 83 -93 102 -128 117 -216 8 -43 23 -112 34 -153 11
-41 43 -181 71 -310 61 -281 83 -371 116 -467 26 -78 44 -215 69 -528 8 -110
27 -281 41 -380 50 -360 54 -476 19 -515 -19 -21 -19 -50 1 -78 24 -34 68 -52
128 -52 46 0 57 -3 67 -21 18 -35 -5 -89 -66 -158 -46 -52 -55 -68 -55 -100 0
-87 98 -161 224 -168 70 -4 92 0 206 42 59 22 117 13 166 -26 45 -35 77 -37
109 -5 43 43 46 118 5 129 -34 9 -41 49 -34 204 7 136 3 212 -27 553 -19 223
-63 441 -122 605 -47 131 -147 450 -162 519 -9 38 -35 115 -59 170 -68 155
-95 272 -162 708 -31 197 -30 200 35 218 147 42 355 50 419 16 35 -18 62 -66
62 -109 0 -36 72 -141 123 -179 74 -54 82 -90 42 -177 -55 -117 -97 -405 -93
-636 l3 -170 70 -22 c39 -12 108 -28 154 -37 128 -23 126 -19 126 -234 l0
-177 47 -110 c67 -158 83 -245 83 -440 -1 -182 -20 -285 -76 -400 -48 -97 -86
-135 -191 -191 -128 -68 -158 -95 -158 -146 0 -55 25 -92 84 -124 67 -37 184
-45 272 -19 78 23 258 34 544 35 209 0 244 -2 310 -21 89 -25 172 -22 375 12
106 18 172 22 360 23 198 1 234 3 256 18 39 25 61 81 66 173 6 96 2 107 -86
215 -94 114 -119 174 -127 295 -11 198 -64 415 -140 572 -20 43 -60 99 -99
142 -35 39 -75 92 -88 118 -70 141 -122 330 -142 523 -8 74 -26 176 -41 228
l-27 93 19 42 c26 59 74 108 169 177 168 121 206 192 175 327 -8 34 -6 55 11
110 48 153 26 189 -196 312 -49 28 -166 95 -260 151 -93 55 -208 115 -253 132
l-84 32 4 121 c4 144 20 186 123 321 75 98 122 186 155 289 19 59 24 98 28
252 l4 183 -76 83 c-175 194 -210 337 -105 432 44 40 68 44 93 16 10 -11 44
-113 76 -228 32 -114 91 -300 130 -413 39 -113 102 -299 140 -415 37 -115 95
-282 128 -370 32 -88 103 -299 156 -469 117 -374 175 -537 227 -637 53 -101
73 -119 146 -128 71 -8 85 -16 115 -61 14 -22 45 -46 82 -64 49 -25 74 -30
160 -35 121 -7 145 -19 181 -92 40 -78 68 -78 156 0 58 52 94 72 116 64 27
-10 220 -276 284 -392 66 -118 263 -406 337 -489 37 -43 93 -111 124 -153 61
-83 136 -172 263 -314 44 -49 109 -127 143 -172 48 -63 89 -102 180 -170 110
-83 159 -114 356 -224 43 -24 126 -80 185 -125 140 -107 234 -145 474 -194 50
-10 68 -21 129 -76 41 -37 91 -71 117 -80 25 -10 96 -36 156 -60 129 -50 195
-63 525 -104 135 -17 310 -40 390 -53 213 -33 494 -24 614 20 23 8 102 19 176
23 107 7 154 15 227 40 51 16 99 30 107 30 8 0 50 19 93 41 43 23 113 56 155
74 94 40 253 143 332 216 32 29 84 85 114 124 31 38 78 95 106 125 l51 56 -3
154 c-2 116 1 170 12 213 22 82 20 114 -9 142 -55 56 -185 22 -277 -72 -25
-26 -70 -88 -98 -138 -29 -49 -59 -98 -67 -107 -9 -10 -58 -34 -109 -54 -96
-37 -168 -79 -261 -154 -60 -49 -98 -59 -208 -60 -66 0 -98 -7 -180 -36 -55
-19 -158 -51 -230 -70 l-130 -35 -361 -11 -362 -10 -58 28 c-58 28 -61 28
-299 35 -132 3 -249 10 -260 14 -11 5 -40 23 -65 41 -92 65 -233 125 -341 144
-109 20 -420 172 -398 194 3 4 78 2 165 -4 87 -5 215 -10 284 -10 164 -1 314
-15 370 -35 25 -9 79 -19 120 -22 86 -6 110 1 410 121 301 121 360 159 460
297 32 44 70 82 103 103 58 38 157 132 157 151 0 7 22 45 49 86 85 130 140
261 166 395 23 116 -6 174 -85 174 -56 0 -91 -29 -144 -121 -37 -64 -78 -113
-170 -204 -131 -130 -223 -197 -436 -319 -214 -123 -323 -160 -520 -176 -63
-5 -174 -17 -247 -26 -96 -12 -176 -15 -295 -11 -179 5 -233 17 -293 63 -30
23 -52 30 -113 35 -69 7 -77 10 -103 43 -23 26 -47 40 -107 60 -42 14 -102 28
-132 32 -67 8 -229 85 -315 150 -33 25 -143 101 -245 168 -207 138 -322 238
-376 329 -21 34 -48 77 -61 95 -26 35 -23 52 10 52 13 0 42 -22 77 -59 33 -35
74 -67 103 -79 27 -12 70 -40 97 -62 26 -22 78 -58 116 -81 38 -23 90 -57 116
-76 171 -124 578 -225 686 -169 25 13 62 16 194 15 152 -2 171 0 279 28 92 24
145 46 250 103 74 39 166 95 204 123 39 28 98 71 133 95 99 70 128 148 74 202
l-28 28 -190 -2 -189 -3 -99 -42 c-158 -69 -253 -85 -501 -85 -285 0 -449 30
-675 125 -159 67 -218 100 -329 186 -58 45 -128 100 -156 121 -27 21 -88 61
-135 87 -47 26 -109 62 -139 79 -119 68 -281 257 -281 328 0 30 1 30 38 26 21
-3 92 -30 157 -61 66 -30 144 -64 173 -75 51 -20 102 -49 249 -142 34 -22 124
-72 200 -112 l137 -72 391 0 c339 -1 401 1 474 17 102 22 200 60 335 131 65
34 121 57 152 61 119 15 182 54 341 217 l91 93 21 120 c35 199 27 265 -30 265
-40 0 -72 -17 -219 -120 -283 -198 -536 -305 -750 -317 -144 -8 -371 26 -443
67 -58 32 -147 49 -266 50 -46 0 -95 10 -170 34 -58 19 -142 41 -186 49 -203
37 -495 208 -694 407 -87 87 -104 99 -164 119 -36 12 -78 32 -93 43 -25 20
-26 22 -8 35 28 20 97 16 259 -17 157 -32 160 -33 333 -145 149 -96 325 -154
529 -175 178 -18 316 1 538 76 88 29 226 66 307 82 164 33 216 57 267 121 108
136 138 395 51 441 -31 17 -66 5 -137 -46 -112 -80 -164 -99 -273 -99 -57 -1
-107 -6 -125 -14 -22 -10 -126 -17 -382 -24 -349 -9 -353 -9 -402 12 -28 12
-78 24 -112 28 -53 5 -67 11 -112 50 -58 50 -36 47 -227 27 -47 -5 -70 0 -155
30 -55 20 -138 46 -185 57 -124 29 -217 98 -285 209 -39 64 -69 94 -156 156
-90 63 -144 120 -171 181 -39 89 -3 121 62 54 43 -44 157 -103 292 -150 155
-54 212 -61 510 -63 236 -1 293 2 416 21 278 42 469 104 607 195 44 29 108 68
143 86 74 39 95 62 118 133 9 29 30 77 45 107 20 38 29 70 29 103 0 188 -153
195 -397 20 -176 -126 -249 -147 -538 -147 -290 -1 -443 31 -698 143 -147 65
-213 87 -367 126 -167 43 -256 91 -369 199 -53 51 -132 117 -175 147 -61 41
-104 83 -184 179 -153 183 -232 310 -193 310 14 0 83 -49 126 -90 93 -88 127
-107 207 -114 41 -4 105 -15 141 -25 36 -11 105 -22 154 -26 48 -3 114 -13
147 -21 85 -21 208 -32 501 -45 366 -17 404 -16 442 4 18 10 77 26 130 37 143
29 241 80 329 172 112 118 170 266 162 413 -9 170 -97 207 -176 75 -71 -121
-156 -192 -280 -237 -148 -54 -268 -49 -412 17 -47 21 -121 48 -165 60 -89 23
-306 98 -495 172 -69 27 -145 54 -170 59 -25 6 -148 17 -275 24 -208 13 -239
17 -323 45 -62 20 -140 36 -230 46 -139 16 -160 22 -147 44 8 13 103 11 307
-6 70 -6 82 -4 125 18 30 16 73 27 115 31 86 8 123 27 138 71 11 35 23 42 105
66 22 7 72 26 110 43 65 29 81 31 240 38 105 5 189 14 220 23 41 13 79 15 205
10 l155 -7 172 -69 c106 -43 193 -72 226 -75 103 -10 266 42 275 88 2 9 -18
41 -43 70 -26 30 -65 81 -88 114 -92 135 -173 196 -318 240 -97 30 -134 47
-170 76 -60 48 -422 48 -596 -1 -91 -25 -131 -25 -211 0 l-64 20 -106 -24
c-59 -13 -127 -27 -152 -31 -85 -12 -175 -38 -309 -87 -167 -61 -194 -75 -365
-187 -183 -120 -199 -121 -117 -4 106 150 201 233 285 249 22 4 75 31 120 62
106 72 153 91 256 104 88 10 108 18 200 74 81 49 117 59 378 105 208 36 249
40 334 35 111 -7 203 -25 309 -60 142 -47 152 -48 293 -36 256 22 282 36 273
145 -2 34 -11 74 -20 90 -65 125 -246 237 -427 264 -41 7 -112 21 -158 31
-103 25 -139 25 -327 0 -131 -17 -162 -18 -247 -8 l-98 12 -118 -58 c-84 -40
-137 -60 -184 -66 -99 -14 -199 -52 -269 -101 -14 -10 -77 -44 -140 -76 -168
-86 -462 -278 -533 -348 -38 -37 -84 -99 -121 -160 -144 -246 -244 -367 -269
-326 -10 16 24 126 66 211 42 86 49 95 243 278 39 37 87 80 108 95 25 19 49
53 75 105 l37 77 113 55 c158 77 227 153 174 192 -48 35 -35 66 45 104 32 15
73 37 93 49 19 13 89 40 155 60 66 20 139 48 162 61 88 51 146 59 423 58 189
0 285 -5 370 -18 202 -31 205 -31 229 -7 37 37 23 108 -31 158 -35 33 -102 59
-203 80 -140 28 -514 25 -689 -6 -249 -44 -290 -60 -706 -284 -241 -129 -309
-174 -346 -225 -43 -58 -106 -121 -144 -144 -65 -39 -102 -83 -150 -179 l-49
-97 -78 -3 c-63 -3 -84 -9 -107 -26 -42 -34 -50 -29 -42 23 19 144 144 423
251 566 67 89 105 124 209 193 68 45 102 88 117 151 14 56 41 80 183 162 123
71 136 84 170 173 16 41 26 46 158 74 101 21 128 43 128 100 0 24 3 46 8 49 4
2 37 -1 73 -8 62 -12 104 -29 176 -72 32 -19 32 -19 57 5 13 12 30 36 36 51
23 55 -33 126 -132 169 -96 41 -424 136 -468 135 -30 -1 -81 -16 -150 -46 -58
-25 -123 -48 -145 -51 -61 -9 -231 -99 -321 -170 -47 -37 -99 -91 -126 -129
-37 -50 -60 -72 -109 -98 -35 -18 -91 -58 -125 -89 -34 -31 -81 -68 -105 -82
-36 -21 -52 -41 -86 -108 -38 -73 -43 -90 -43 -150 0 -38 -11 -133 -25 -212
-14 -79 -25 -160 -25 -179 0 -19 -5 -42 -10 -50 -28 -43 -45 75 -36 250 8 154
19 210 52 274 26 49 26 52 14 117 -20 107 3 222 89 440 96 245 162 352 251
409 81 52 101 119 43 141 -37 14 -111 10 -178 -10z m-65 -166 c0 -3 -21 -46
-46 -96 -79 -158 -155 -382 -173 -514 -33 -228 -44 -364 -49 -565 -6 -296 8
-543 59 -1037 l13 -121 -32 -69 c-29 -64 -32 -78 -32 -169 0 -104 -10 -135
-37 -113 -8 7 -13 35 -13 73 -1 68 -17 162 -49 279 -11 44 -34 179 -51 302
-16 123 -41 284 -55 359 -28 152 -30 184 -13 221 9 19 9 94 -1 318 -6 160 -14
317 -17 348 l-5 56 40 26 39 26 4 103 c4 97 8 112 66 263 70 185 71 185 223
263 95 48 129 60 129 47z m1245 -251 c72 -18 105 -38 105 -63 0 -28 -27 -45
-73 -46 -65 -3 -65 -3 -111 -45 -25 -23 -64 -46 -90 -54 -60 -18 -124 -71
-177 -147 -32 -45 -61 -71 -118 -106 -150 -92 -205 -150 -219 -233 -6 -39 -14
-48 -62 -81 -113 -78 -248 -257 -339 -450 -50 -108 -64 -125 -119 -154 -30
-14 -33 -20 -27 -43 11 -40 6 -738 -5 -807 -6 -37 -18 -67 -32 -82 -40 -43
-43 -33 -79 322 -17 170 -23 570 -10 678 12 106 105 599 116 617 3 5 25 10 49
10 51 0 65 13 101 95 38 86 60 112 124 148 31 17 108 81 171 142 63 60 140
126 170 146 209 138 455 198 625 153z m-2224 -525 c4 -13 8 -49 8 -79 1 -30
11 -80 22 -110 13 -34 24 -92 28 -155 l6 -99 33 -7 c18 -4 36 -9 39 -13 3 -3
0 -45 -7 -92 -12 -78 -12 -89 3 -113 33 -51 49 -96 59 -161 7 -45 21 -85 48
-130 21 -36 43 -82 50 -103 6 -21 24 -52 38 -69 26 -30 27 -39 33 -177 6 -153
15 -197 74 -370 78 -232 84 -360 21 -424 -15 -15 -20 -15 -45 -3 -53 28 -141
107 -166 150 -30 52 -31 84 -5 136 11 22 20 45 20 52 0 7 -25 36 -56 64 -55
51 -56 53 -51 96 3 23 8 56 12 71 6 24 2 34 -27 65 -37 39 -68 82 -68 93 0 4
14 12 30 18 44 15 40 46 -9 71 -50 25 -96 81 -121 148 -27 72 -26 90 10 110
16 9 30 21 30 27 0 5 -31 40 -69 77 l-70 68 42 0 c46 0 87 22 87 47 0 31 -34
84 -101 157 -38 42 -69 85 -69 95 0 11 16 38 35 61 39 47 42 61 49 220 5 111
28 256 48 293 12 24 31 17 39 -14z m3292 -205 c22 -8 54 -14 71 -14 33 0 65
-15 54 -25 -3 -4 -41 -2 -83 4 -95 14 -410 14 -434 2 -10 -6 -64 -15 -121 -20
-80 -9 -115 -17 -161 -41 -33 -16 -105 -46 -162 -65 -56 -20 -131 -52 -167
-72 -159 -86 -314 -222 -355 -310 -15 -30 -58 -89 -96 -130 -38 -41 -78 -91
-87 -111 -10 -22 -36 -49 -63 -67 -129 -85 -241 -219 -329 -395 -49 -95 -56
-117 -75 -225 -16 -84 -30 -105 -72 -105 -15 0 -30 11 -44 33 -19 30 -20 43
-15 177 3 102 12 180 30 264 14 65 26 120 26 123 0 2 26 1 58 -3 52 -6 61 -4
88 19 16 14 54 70 84 124 67 122 73 130 136 158 32 14 63 38 85 66 71 91 174
182 302 266 152 101 398 230 507 266 86 29 377 86 495 97 104 10 278 2 328
-16z m347 -449 c41 -14 101 -30 135 -35 68 -11 258 -100 318 -150 27 -23 37
-39 37 -61 0 -16 -2 -29 -4 -29 -2 0 -55 -16 -116 -35 l-112 -35 -122 39
c-223 72 -418 89 -591 52 -50 -11 -144 -29 -211 -40 -132 -23 -189 -40 -309
-96 -44 -20 -141 -52 -215 -71 -106 -27 -153 -45 -220 -83 -47 -27 -121 -62
-165 -77 -98 -34 -146 -79 -253 -235 -40 -59 -111 -146 -157 -193 -62 -63 -95
-107 -124 -164 -22 -43 -46 -84 -55 -91 -19 -16 -60 -10 -64 9 -1 9 27 65 64
125 37 61 75 134 85 163 10 29 48 101 85 160 144 233 180 270 342 356 57 30
102 62 118 83 30 40 94 72 141 73 23 0 47 14 92 50 123 104 252 161 349 157
41 -2 58 4 103 33 30 19 83 49 118 67 l63 33 182 1 c99 0 204 4 231 9 102 15
178 11 255 -15z m-23 -730 c101 -19 247 -70 323 -112 118 -66 237 -204 228
-266 -5 -33 -54 -34 -130 -1 -35 14 -103 41 -153 59 -49 18 -116 45 -149 60
l-59 28 -121 -12 c-66 -6 -168 -16 -226 -22 -58 -5 -112 -12 -120 -14 -8 -3
-76 -9 -150 -14 -125 -9 -142 -13 -211 -46 -42 -20 -93 -38 -115 -41 -106 -14
-108 -15 -155 -65 -46 -49 -46 -50 -142 -64 -53 -8 -115 -24 -137 -35 -38 -19
-51 -20 -178 -14 l-137 7 -105 -43 c-189 -76 -244 -86 -280 -50 -41 41 -17 78
80 122 30 14 87 53 125 88 39 34 135 105 215 158 204 135 352 192 630 247 149
29 234 31 305 9 69 -21 112 -20 188 5 36 12 94 26 129 31 77 11 248 3 345 -15z
m-2359 -560 c37 -38 42 -47 32 -60 -17 -20 -62 -19 -145 5 -39 12 -109 24
-156 27 -81 5 -92 4 -160 -24 -84 -35 -149 -49 -149 -34 0 18 81 71 134 87 28
8 120 19 204 24 85 4 156 11 159 14 15 15 39 3 81 -39z m146 -169 c30 -13 42
-30 95 -140 33 -69 78 -152 100 -184 21 -32 45 -78 51 -102 18 -66 95 -237
152 -337 28 -48 79 -158 113 -243 34 -85 88 -207 120 -270 32 -63 77 -174 101
-247 24 -73 68 -190 99 -260 96 -226 223 -601 254 -751 6 -29 31 -101 56 -161
42 -103 71 -221 54 -221 -16 0 -133 189 -194 315 -138 285 -299 625 -337 710
-21 50 -65 144 -97 210 -32 66 -66 140 -75 165 -23 62 -49 95 -70 87 -22 -9
-19 -19 75 -269 81 -215 102 -262 176 -390 24 -42 61 -116 82 -165 70 -160
310 -632 385 -756 40 -67 97 -165 126 -217 80 -143 228 -362 327 -482 137
-168 321 -379 371 -426 37 -35 42 -45 32 -57 -24 -29 -255 -85 -350 -85 -76 0
-110 17 -150 75 -39 57 -59 69 -137 85 -73 15 -91 32 -126 115 -14 33 -43 94
-66 135 -46 85 -151 389 -216 625 -40 144 -167 521 -209 619 -9 21 -37 107
-62 190 -25 83 -65 198 -88 256 -70 171 -131 366 -215 690 -37 143 -258 824
-331 1020 -17 47 -58 146 -90 220 -64 147 -79 205 -61 239 14 25 55 28 105 7z
m716 -41 c58 -8 172 -34 253 -57 148 -42 150 -42 235 -31 115 14 198 2 342
-49 63 -22 176 -60 250 -85 74 -25 189 -65 255 -88 66 -23 145 -48 175 -55 30
-7 98 -30 150 -51 118 -47 223 -63 323 -49 98 14 126 24 248 88 122 64 139 64
139 -1 0 -54 -36 -114 -110 -180 -73 -66 -152 -104 -263 -127 -50 -10 -105
-24 -122 -30 -55 -21 -153 -27 -222 -14 -37 7 -139 15 -227 19 -252 10 -380
23 -436 45 -39 15 -72 20 -143 19 -65 -1 -115 5 -171 20 -44 11 -102 21 -130
21 -75 1 -130 31 -226 124 -94 91 -161 139 -292 210 -47 26 -103 60 -124 77
-40 32 -133 64 -216 75 -41 6 -60 15 -86 40 -65 64 -12 91 183 93 61 0 157 -6
215 -14z m-1290 -72 c63 -122 162 -245 325 -408 208 -208 285 -329 285 -449 0
-58 -11 -86 -53 -133 -19 -21 -39 -48 -46 -61 -11 -20 -9 -23 15 -32 55 -21
141 38 159 109 7 28 23 51 36 51 9 0 104 -288 114 -346 8 -51 -12 -77 -79
-101 -45 -17 -56 -27 -126 -128 -68 -99 -87 -119 -185 -193 -71 -53 -128 -88
-160 -97 -27 -9 -74 -25 -103 -37 -53 -22 -53 -22 -185 -5 l-132 17 -100 -26
c-111 -28 -147 -27 -246 6 -47 16 -99 23 -205 27 l-142 6 -18 46 c-26 71 -69
153 -123 235 -27 42 -59 104 -71 138 -41 121 -37 348 9 453 11 26 52 72 108
124 l90 83 6 181 c11 346 68 428 219 313 57 -43 82 -43 128 -2 22 20 48 36 57
36 9 0 25 8 35 17 17 15 22 15 42 3 13 -8 45 -41 70 -72 67 -82 119 -110 217
-116 l79 -5 0 -62 c0 -48 4 -66 19 -79 42 -38 91 26 91 117 0 110 -58 239
-127 287 -63 43 -102 180 -52 180 4 0 26 -35 49 -77z m930 -170 c94 -97 227
-288 293 -422 39 -79 42 -90 42 -170 0 -81 3 -92 46 -186 43 -94 256 -733 300
-902 11 -42 31 -102 45 -134 26 -62 31 -113 13 -125 -16 -9 -24 7 -64 129 -20
60 -76 201 -126 315 -50 114 -113 263 -141 332 -27 69 -63 148 -79 177 -27 46
-181 388 -275 608 -19 44 -62 136 -96 205 -34 69 -65 143 -69 165 -3 22 -10
52 -14 68 -6 24 -4 27 16 27 17 0 50 -26 109 -87z m194 17 c14 -5 34 -27 46
-50 11 -22 52 -75 91 -118 39 -42 92 -109 118 -147 112 -170 284 -376 385
-463 56 -48 139 -123 186 -168 169 -161 236 -202 382 -234 130 -28 227 -61
425 -146 178 -76 234 -91 438 -114 163 -18 454 -24 520 -10 88 18 212 71 310
131 158 99 178 109 222 109 23 0 45 -4 48 -10 5 -8 -46 -193 -64 -230 -4 -8
-49 -37 -101 -63 -52 -26 -131 -75 -177 -108 -100 -73 -121 -80 -309 -113
-249 -42 -349 -51 -584 -51 -229 0 -297 7 -455 47 -187 46 -273 101 -399 252
-99 119 -316 360 -372 414 -25 23 -43 32 -68 32 -65 0 -117 65 -234 295 -34
66 -89 153 -121 194 -33 40 -82 110 -109 155 -28 44 -78 117 -111 161 -94 123
-138 215 -114 238 9 9 17 9 47 -3z m-2515 -106 c10 -10 -12 -52 -33 -62 -71
-32 -360 -42 -388 -14 -11 11 -9 16 7 28 49 37 229 66 345 57 36 -3 67 -7 69
-9z m-95 -198 c33 -14 50 -44 37 -64 -4 -8 -62 -8 -186 -2 -182 9 -256 23
-236 43 33 33 319 50 385 23z m-933 -20 c194 -26 331 -75 382 -136 25 -29 27
-38 21 -79 -4 -25 -7 -47 -9 -48 -1 -2 -77 -7 -169 -13 -209 -13 -287 -24
-401 -61 -160 -51 -312 -153 -513 -344 -214 -203 -405 -485 -497 -735 -43
-117 -54 -123 -80 -52 -91 243 -356 725 -517 941 -78 103 -89 130 -65 148 14
12 230 75 337 99 41 9 127 36 190 59 63 24 158 55 210 70 52 14 149 44 215 65
77 25 149 41 200 45 44 3 109 13 145 21 165 36 369 44 551 20z m848 -127 c55
-12 81 -33 63 -51 -15 -15 -358 4 -374 20 -14 14 0 20 68 32 72 12 186 11 243
-1z m-20 -138 c29 -29 40 -99 56 -369 9 -136 20 -276 25 -312 6 -36 17 -234
25 -440 8 -206 20 -404 25 -440 25 -161 29 -215 30 -365 0 -180 -14 -326 -35
-364 -7 -14 -21 -42 -30 -61 -20 -42 -51 -77 -87 -96 -67 -35 -78 0 -118 376
-25 234 -49 383 -96 590 -60 267 -80 448 -93 830 -6 190 3 617 13 627 2 2 27
12 57 23 75 27 201 28 228 1z m2995 -166 c37 -66 80 -156 97 -200 17 -44 75
-173 130 -286 54 -113 118 -255 143 -315 24 -60 66 -161 94 -224 56 -132 219
-584 257 -715 14 -48 28 -111 31 -139 l6 -52 -70 -51 c-86 -63 -129 -86 -143
-77 -22 13 -40 78 -79 291 -56 305 -94 474 -130 575 -16 49 -30 100 -30 115 0
15 -16 76 -35 137 -19 61 -43 149 -54 196 -28 120 -128 396 -201 555 -44 97
-70 170 -80 233 -5 30 -12 64 -16 75 -12 41 14 3 80 -118z m498 -585 c47 -69
99 -160 116 -202 46 -110 104 -368 84 -368 -9 0 -83 152 -97 200 -4 14 -31 77
-60 140 -61 136 -102 241 -120 311 -8 28 -12 49 -10 48 2 -2 41 -60 87 -129z
m-1239 -228 c17 -30 18 -35 5 -48 -17 -17 -141 -30 -183 -20 -27 7 -27 7 -9
28 11 11 39 34 64 49 60 39 97 36 123 -9z m-714 -173 c54 -19 38 -70 -38 -123
-28 -19 -48 -26 -63 -22 -29 7 -68 64 -68 98 0 27 23 40 90 51 43 7 46 7 79
-4z m758 -14 c71 -21 126 -65 154 -122 19 -39 23 -64 23 -133 -1 -158 -69
-332 -186 -474 -121 -147 -138 -172 -189 -257 -125 -212 -384 -446 -628 -569
-107 -53 -154 -67 -304 -91 -131 -21 -171 -22 -362 -3 -47 5 -77 1 -130 -15
-40 -13 -118 -25 -179 -30 -104 -7 -111 -9 -130 -35 -45 -60 -76 -83 -135
-101 -74 -22 -172 -25 -195 -6 -15 12 -15 16 -1 37 34 53 11 94 -55 94 -47 0
-70 16 -70 49 0 34 20 53 83 80 26 11 59 32 73 46 38 38 19 55 -62 55 -120 0
-97 30 91 121 77 37 165 84 195 103 86 57 172 61 231 12 40 -34 57 -33 117 7
61 42 202 102 301 128 41 11 100 35 130 54 31 18 108 49 171 69 63 19 132 47
152 60 20 14 60 58 90 98 29 40 88 119 130 175 122 161 132 193 73 217 -42 18
-45 40 -10 87 13 19 32 49 42 67 16 31 16 33 0 50 -16 15 -20 15 -45 2 -15 -9
-42 -37 -59 -64 -33 -48 -41 -71 -61 -178 -22 -114 -138 -305 -228 -373 -23
-18 -74 -42 -114 -55 -175 -56 -181 37 -23 359 60 123 86 166 132 212 45 47
64 59 98 65 33 5 59 21 115 70 119 105 289 179 468 204 84 11 233 4 297 -15z
m1470 -283 c46 -83 103 -219 103 -249 0 -40 -28 -25 -46 25 -9 26 -36 90 -59
142 -73 162 -71 213 2 82z m179 19 c50 -37 82 -72 128 -143 60 -92 128 -138
286 -193 58 -20 149 -56 203 -82 86 -39 104 -45 140 -39 119 20 137 19 160 -2
27 -25 69 -42 106 -42 15 0 54 -9 87 -20 91 -32 316 -43 591 -30 359 17 523
40 726 104 37 12 49 13 53 3 8 -21 -24 -177 -41 -204 -24 -36 -104 -69 -242
-98 -66 -14 -192 -48 -278 -75 -254 -81 -454 -106 -606 -76 -185 38 -379 119
-494 207 -94 72 -132 86 -255 92 -121 7 -199 26 -285 68 -136 67 -216 168
-291 369 -25 69 -53 137 -60 152 -18 36 -18 38 9 38 13 0 42 -13 63 -29z m37
-450 c21 -23 41 -60 50 -92 8 -30 30 -108 48 -174 26 -98 38 -126 65 -152 51
-52 114 -44 114 13 0 21 6 37 15 40 25 10 96 -40 214 -148 61 -56 146 -128
189 -160 109 -82 293 -171 428 -207 61 -17 144 -41 185 -55 41 -13 124 -32
184 -40 157 -23 161 -24 205 -61 54 -45 126 -56 391 -58 241 -2 261 1 469 70
175 58 343 138 446 213 50 37 92 60 108 60 23 0 26 -4 26 -34 0 -63 -66 -163
-184 -278 -71 -69 -86 -78 -204 -119 -48 -17 -117 -48 -153 -70 -96 -57 -242
-107 -357 -121 -58 -7 -233 -12 -438 -13 l-341 0 -104 52 c-57 28 -160 89
-229 135 -72 48 -173 105 -235 132 -61 26 -126 58 -145 70 -39 25 -94 46 -185
71 -110 31 -205 96 -205 141 0 16 -98 167 -127 197 -10 11 -34 29 -53 41 -27
17 -41 38 -66 101 -17 44 -61 153 -98 243 -72 177 -89 242 -63 242 8 0 30 -17
50 -39z m-115 -61 c68 -127 142 -384 123 -426 -18 -41 -178 -73 -209 -42 -24
24 -13 65 35 124 55 68 58 88 24 202 -28 93 -41 169 -34 205 7 35 12 30 61
-63z m-120 -293 c2 -10 -10 -39 -27 -65 -28 -45 -36 -72 -33 -118 1 -12 31
-50 66 -85 109 -110 289 -449 238 -449 -26 0 -390 450 -441 545 -39 74 -25 98
93 160 73 38 99 41 104 12z m-1617 -139 c6 -24 9 -82 7 -129 -5 -104 -10 -112
-168 -269 -112 -111 -159 -150 -335 -281 -260 -192 -355 -218 -451 -122 -44
44 -118 193 -110 221 9 27 45 41 169 63 140 25 326 88 386 130 25 18 101 75
169 127 100 76 132 107 169 164 40 60 121 138 144 138 5 0 13 -19 20 -42z
m1905 -116 c23 -46 -20 -142 -63 -142 -27 0 -53 48 -53 99 0 61 91 94 116 43z
m163 -128 c25 -22 61 -76 96 -142 30 -59 71 -136 90 -170 19 -35 33 -68 29
-73 -3 -5 -18 -9 -33 -9 -64 0 -195 120 -206 189 -4 20 -17 72 -31 116 -28 92
-28 97 -12 113 18 18 24 15 67 -24z m-1711 -8 c37 -18 85 -39 107 -46 58 -18
114 -48 160 -85 22 -17 72 -50 112 -73 83 -49 103 -72 103 -122 0 -121 -108
-103 -259 44 -47 45 -113 100 -146 122 -106 69 -184 162 -158 187 9 10 6 11
81 -27z m-127 -85 c51 -33 137 -105 330 -276 75 -66 162 -143 194 -170 52 -45
58 -54 52 -77 -9 -34 -72 -96 -151 -149 -49 -33 -67 -39 -109 -39 -71 0 -131
31 -162 84 -14 24 -25 52 -25 63 0 11 -22 76 -49 144 -63 159 -151 413 -151
433 0 23 20 20 71 -13z m-137 -28 c7 -16 39 -105 69 -200 31 -95 79 -236 107
-314 116 -324 119 -449 11 -541 -23 -20 -77 -56 -120 -81 -42 -25 -125 -81
-185 -126 -169 -126 -203 -143 -230 -116 -20 21 -21 84 -1 213 8 53 23 187 35
297 25 245 31 280 86 525 48 214 75 280 134 334 48 43 75 46 94 9z m1895 -86
c45 -59 50 -77 22 -77 -21 0 -81 63 -81 85 0 7 -3 20 -6 29 -14 36 26 13 65
-37z m-2192 -154 c3 -9 1 -34 -5 -57 -46 -157 -74 -335 -102 -643 -24 -253
-27 -278 -47 -357 -24 -97 -48 -135 -100 -158 -42 -18 -61 -20 -217 -15 -168
4 -255 19 -263 43 -2 7 15 29 37 50 56 52 71 84 150 318 156 464 152 452 216
543 91 128 266 293 311 293 8 0 16 -7 20 -17z m2270 -60 c18 -46 -101 -74
-132 -31 -14 21 -14 24 2 35 26 20 122 17 130 -4z m-3802 -47 c12 -18 18 -69
25 -197 13 -259 50 -440 129 -631 17 -40 59 -158 94 -263 35 -104 97 -280 136
-390 39 -110 80 -243 91 -295 60 -298 89 -805 55 -964 -10 -49 -12 -74 -4 -88
15 -28 9 -30 -51 -17 -55 12 -137 8 -281 -12 -117 -17 -153 15 -88 77 37 34
68 97 69 137 0 44 -26 95 -80 153 -27 30 -54 72 -60 92 -5 20 -17 109 -25 197
-8 88 -24 239 -35 335 -11 96 -24 261 -30 365 -6 105 -16 210 -21 235 -6 25
-15 81 -20 125 -6 44 -32 168 -59 275 -27 107 -65 275 -85 374 -19 98 -46 225
-60 282 -28 116 -31 157 -12 171 6 6 44 13 82 17 39 3 95 14 125 25 73 26 87
25 105 -3z m3988 -26 c25 -20 97 -150 97 -175 0 -6 14 -54 30 -106 24 -73 28
-99 21 -116 -13 -28 -25 -29 -51 -3 -31 31 -58 92 -76 171 -9 41 -29 99 -44
130 -51 102 -40 149 23 99z m-112 -97 c39 -43 66 -133 40 -133 -27 0 -121 114
-121 146 0 30 51 22 81 -13z m322 -7 c20 -14 76 -57 124 -96 48 -39 122 -92
163 -117 154 -94 270 -174 339 -233 45 -38 91 -68 124 -79 28 -10 81 -34 117
-54 36 -20 94 -43 130 -52 36 -9 99 -27 141 -40 113 -35 265 -49 479 -42 210
7 353 26 455 61 124 42 421 62 432 29 5 -15 -135 -120 -225 -169 -37 -20 -108
-61 -157 -90 -141 -83 -282 -112 -416 -83 -59 13 -152 1 -258 -31 -75 -24
-142 -25 -248 -5 -154 29 -264 75 -373 155 -36 26 -105 70 -154 96 -97 54
-134 85 -454 399 -113 110 -213 208 -224 218 -24 23 -58 100 -58 133 0 31 18
31 63 0z m-3131 -72 c8 -8 -11 -67 -85 -259 -36 -93 -84 -224 -106 -289 -40
-116 -74 -186 -91 -186 -12 0 -20 27 -20 63 1 67 60 409 78 449 52 115 192
255 224 222z m2685 -169 c27 -19 21 -40 -15 -59 -19 -10 -32 -11 -49 -3 -30
13 -30 50 0 65 30 15 39 14 64 -3z m543 -120 c18 -19 31 -38 27 -42 -8 -7 -54
33 -68 60 -16 28 5 19 41 -18z m-250 0 c17 -18 19 -25 9 -25 -18 0 -59 28 -59
41 0 17 26 9 50 -16z m216 -137 c117 -121 191 -225 180 -254 -9 -24 -56 7
-125 82 -75 83 -155 234 -123 234 4 0 35 -28 68 -62z m-2102 -114 c31 -12 55
-73 85 -224 38 -187 91 -394 120 -471 13 -35 45 -83 81 -125 153 -176 205
-266 221 -381 5 -37 16 -99 24 -136 9 -38 20 -125 25 -193 11 -149 28 -195
123 -346 103 -165 116 -212 64 -240 -22 -12 -461 -36 -680 -37 -83 -1 -99 2
-104 16 -4 11 0 21 11 27 71 43 107 71 130 105 28 40 55 55 118 66 20 3 47 14
60 25 l23 18 -30 12 c-16 6 -58 10 -92 8 -71 -4 -57 -23 -119 152 -51 146 -74
187 -148 268 -72 78 -72 80 -80 198 -4 57 -11 92 -26 117 -46 77 -62 270 -40
457 6 47 27 157 46 245 20 88 44 204 54 257 21 106 38 149 72 172 24 17 38 19
62 10z m-251 -254 c-1 -45 -14 -129 -34 -210 -29 -121 -33 -154 -36 -315 -4
-182 2 -236 40 -371 21 -71 30 -271 18 -382 -8 -77 -15 -102 -40 -141 -39 -61
-70 -150 -78 -225 -5 -52 -3 -64 23 -112 53 -98 26 -108 -355 -129 -156 -8
-302 -22 -336 -30 -76 -19 -136 -19 -180 -1 -62 26 -46 59 55 112 68 36 200
164 230 223 34 68 42 162 30 359 -18 287 -46 463 -91 573 -20 47 -23 72 -23
194 -1 210 6 220 206 269 144 35 201 57 299 118 46 28 120 73 164 100 43 27
86 47 95 46 12 -3 15 -18 13 -78z m2715 -63 c119 -113 203 -181 283 -228 41
-24 88 -60 106 -79 18 -19 56 -61 84 -92 74 -83 131 -108 269 -119 132 -10
173 -26 222 -82 l38 -42 99 -5 c85 -5 103 -9 123 -27 34 -32 85 -51 184 -68
99 -17 326 -20 436 -5 40 5 139 14 219 20 282 19 547 115 820 298 183 123 350
286 408 400 41 80 91 92 77 19 -9 -46 -123 -275 -185 -369 -38 -59 -68 -91
-126 -134 -43 -31 -97 -83 -123 -117 -112 -148 -167 -188 -367 -262 -55 -21
-144 -57 -199 -81 -189 -84 -242 -91 -332 -43 l-59 32 -230 -13 c-182 -10
-261 -10 -380 -1 -277 22 -283 25 -673 239 -300 166 -366 221 -535 456 -30 40
-71 81 -106 105 -31 22 -69 54 -83 73 -66 86 -98 198 -57 198 5 0 44 -33 87
-73z m452 -715 c25 -14 79 -49 121 -79 42 -29 94 -60 114 -69 21 -8 89 -47
152 -85 63 -38 117 -69 121 -69 4 0 43 -27 87 -60 44 -33 154 -98 245 -145
133 -70 188 -92 280 -116 121 -32 228 -80 328 -148 33 -22 77 -43 99 -46 21
-3 133 -10 248 -15 186 -8 220 -12 295 -36 82 -26 94 -27 300 -28 300 0 555
36 802 113 70 22 178 47 240 56 155 22 186 34 315 118 62 41 163 97 225 126
108 50 114 55 142 104 42 77 144 216 171 233 13 9 36 14 51 12 44 -5 50 -27
31 -107 -10 -39 -21 -113 -26 -163 -15 -158 -63 -250 -191 -372 -105 -98 -205
-149 -437 -220 -217 -67 -319 -92 -433 -107 -115 -15 -230 -44 -320 -82 -70
-30 -82 -32 -190 -31 -128 1 -231 13 -425 49 -71 13 -175 29 -230 35 -55 6
-140 15 -190 20 -180 21 -416 104 -618 218 -42 24 -103 47 -160 61 -206 49
-278 81 -391 171 -92 73 -204 149 -266 180 -25 12 -122 74 -217 136 -178 118
-230 167 -322 298 -64 93 -52 106 49 48z m-3033 -504 c46 -48 91 -152 114
-263 10 -53 19 -105 19 -115 0 -26 -85 -125 -138 -160 -58 -38 -91 -37 -111 5
-8 17 -28 52 -43 78 -15 27 -28 59 -28 71 0 12 18 72 39 133 22 60 46 142 54
182 23 109 42 123 94 69z"/>
<path d="M4115 6306 c-36 -16 -51 -33 -60 -66 -8 -35 13 -52 100 -80 39 -13
92 -34 119 -47 54 -27 95 -26 128 4 26 23 22 38 -14 65 -18 12 -54 44 -79 69
-62 64 -130 83 -194 55z"/>
<path d="M3603 5915 c-70 -30 -21 -85 76 -85 38 0 53 4 60 18 13 25 -4 51 -45
68 -41 17 -50 17 -91 -1z"/>
<path d="M3518 5619 c-19 -10 -24 -54 -9 -77 22 -35 269 -67 306 -39 17 13 17
17 5 32 -48 58 -250 115 -302 84z"/>
</g>
</svg>
