<?xml version="1.0" encoding="UTF-8" standalone="no"?>
<!-- Created with Inkscape (http://www.inkscape.org/) -->

<svg
   version="1.1"
   id="svg198"
   width="1773.312"
   height="1657.7668"
   viewBox="0 0 1773.312 1657.7668"
   sodipodi:docname="Boat32a.svg"
   inkscape:version="1.2.2 (732a01da63, 2022-12-09, custom)"
   xmlns:inkscape="http://www.inkscape.org/namespaces/inkscape"
   xmlns:sodipodi="http://sodipodi.sourceforge.net/DTD/sodipodi-0.dtd"
   xmlns="http://www.w3.org/2000/svg"
   xmlns:svg="http://www.w3.org/2000/svg">
  <defs
     id="defs202" />
  <sodipodi:namedview
     id="namedview200"
     pagecolor="#ffffff"
     bordercolor="#000000"
     borderopacity="0.25"
     inkscape:showpageshadow="2"
     inkscape:pageopacity="0.0"
     inkscape:pagecheckerboard="0"
     inkscape:deskcolor="#d1d1d1"
     showgrid="false"
     inkscape:zoom="0.38583845"
     inkscape:cx="818.99563"
     inkscape:cy="765.86458"
     inkscape:window-width="1846"
     inkscape:window-height="1016"
     inkscape:window-x="0"
     inkscape:window-y="0"
     inkscape:window-maximized="1"
     inkscape:current-layer="layer1" />
  <g
     inkscape:groupmode="layer"
     id="layer1"
     inkscape:label="Layer 1">
    <path
       style="fill:#000000;stroke-width:3.12206"
       d="m 1340.7996,1610.5849 c 31.9565,-85.4194 40.6525,-130.4241 38.8287,-200.9528 -0.6448,-24.9366 -0.2098,-45.3394 0.9665,-45.3394 2.6571,0 180.9406,-32.1825 296.1036,-53.4505 53.8687,-9.9484 87.8922,-17.6652 91.3202,-20.7123 6.5077,-5.7845 7.1218,-19.1599 1.2484,-27.1923 -3.5411,-4.8427 -6.9113,-5.46 -21.0739,-3.86 l -16.8587,1.9045 -53.4165,-72.4465 C 1648.5388,1148.6899 1524.7839,981.21606 1402.9069,816.37133 1281.03,651.52662 1117.3469,429.71868 1039.1667,323.46473 L 897.02091,130.27581 894.94694,98.6765 C 893.80629,81.29688 891.99751,53.96651 890.92745,37.94235 888.76278,5.52586 885.70416,-0.07394 870.20364,7.3e-4 c -16.6895,0.0804 -19.32503,3.65513 -18.27754,24.79096 0.51433,10.37853 0.0954,18.87006 -0.93103,18.87006 -1.0264,0 -73.41671,11.94187 -160.86733,26.5375 -87.45064,14.59563 -161.01537,26.5375 -163.47715,26.5375 -2.46182,0 -16.4038,-15.15133 -30.98221,-33.66962 -34.49486,-43.81728 -34.62918,-43.92398 -45.30284,-35.98491 -14.75635,10.97576 -12.84506,16.28184 22.187,61.59498 l 32.58968,42.15395 -16.69164,73.67075 c -89.19655,393.68145 -171.39352,660.17964 -278.1706,901.882 -28.4984,64.5094 -84.2747,176.6456 -113.918902,229.0297 l -21.643,38.2453 h -29.6195 c -27.285,0 -30.2234,0.6039 -37.2827002,7.6632 -10.8132,10.8132 -10.3509,25.0984 1.0417,32.1889 4.7877002,2.9798 20.7212002,14.2001 35.4077002,24.9343 26.1719,19.1285 26.7819,19.8734 30.6837,37.4647 11.171,50.3648 37.888602,106.088 66.859102,139.444 l 13.3283,15.3457 549.2615,13.4042 c 302.09382,7.3723 564.89652,13.4623 584.00602,13.5332 l 34.7445,0.1297 z m -57.1569,15.3194 c 33.5172,-66.3972 55.8733,-158.6456 55.8733,-230.551 0,-24.1657 0.1979,-24.8165 7.5498,-24.8165 4.1524,0 9.5988,-0.7863 12.103,-1.7472 6.8503,-2.6287 8.7972,9.8719 8.7297,56.0506 -0.098,66.7332 -11.0976,113.5059 -49.8236,211.8521 -3.2078,8.1463 -4.4258,8.5857 -23.7964,8.5857 h -20.4156 z m -618.49144,5.2668 c -265.29696,-6.1813 -487.97778,-11.9361 -494.84628,-12.7884 -10.1992,-1.2655 -14.4913,-4.0958 -23.4155,-15.44 -6.01,-7.6399 -11.3216,-15.0672 -11.8036,-16.5051 -0.4819,-1.438 36.7486,-3.5908 82.7347,-4.7839 263.99901,-6.8492 563.68499,-33.416 988.87672,-87.6625 60.0275,-7.6584 109.7222,-13.3431 110.4326,-12.6326 2.2627,2.2627 -6.3077,42.1591 -9.0564,42.1591 -1.4504,0 -42.4233,5.5436 -91.051,12.319 -48.6276,6.7754 -104.234,14.0349 -123.5695,16.132 -19.3356,2.097 -37.5618,5.5852 -40.5026,7.7513 -15.4448,11.3765 18.213,8.8752 173.9649,-12.9281 41.9562,-5.8733 76.8712,-10.0914 77.5891,-9.3735 2.9955,2.9954 -9.5084,32.7576 -14.3632,34.1875 -2.8937,0.8524 -34.0409,5.8845 -69.2161,11.1822 -35.1752,5.2978 -65.3108,10.9883 -66.9682,12.6457 -1.9363,1.9364 -1.8368,4.1898 0.2784,6.3052 2.3078,2.3077 23.0275,0.1613 69.3097,-7.1794 36.3099,-5.7593 66.0179,-10.0759 66.0179,-9.5927 0,0.4833 -5.6032,13.0069 -12.4516,27.8302 -6.8484,14.8233 -11.5416,28.424 -10.4293,30.2237 1.3991,2.2637 -16.6532,2.6738 -58.5752,1.3306 -33.3287,-1.0678 -277.65872,-6.9989 -542.95569,-13.1803 z m -550.11438,-77.4947 -8.1768,-16.6722 117.579,-2.0205 c 294.93527,-5.0683 607.6245,-32.8798 1007.36592,-89.5982 48.0797,-6.8218 88.4713,-12.4043 89.7592,-12.4055 3.176,0 2.8934,25.5145 -0.339,30.611 -4.0081,6.3195 -388.61636,53.4341 -602.99892,73.8676 -203.75675,19.4207 -400.28125,31.313 -535.5633,32.4085 l -59.4492,0.4815 z m -18.651002,-45.3703 -4.8643,-15.2114 59.685002,-2.0288 c 32.8268,-1.1159 110.96495,-3.4117 173.64019,-5.102 257.74664,-6.9507 469.47875,-26.9185 763.34343,-71.9885 62.7908,-9.6302 227.2618,-37.1451 233.374,-39.0418 4.8714,-1.5117 5.4636,0.865 5.4636,21.9303 0,12.9942 -0.8969,23.6259 -1.9931,23.6259 -1.0962,0 -47.81,6.3721 -103.8085,14.1604 -430.42371,59.8633 -744.99131,86.8351 -1030.81252,88.3842 l -89.1633,0.4833 z m -10.19,-36.6708 c -1.1284,-4.4955 -1.452,-8.7731 -0.7193,-9.5058 0.7327,-0.7325 39.901202,-2.1895 87.041102,-3.2377 l 85.709,-1.9056 9.85623,7.287 c 5.421,4.0078 9.05825,8.0893 8.08295,9.0699 -1.68679,1.6958 -72.98238,4.4352 -151.57278,5.8236 l -36.345802,0.6421 z m 194.416522,-12.454 -16.64568,-14.3835 -92.59744,2.1364 -92.597502,2.1364 -22.2945,-16.2156 c -12.2619,-8.9186 -21.5219,-16.988 -20.5778,-17.9322 1.3353,-1.3352 803.432272,-28.074 859.226332,-28.6431 l 12.99145,-0.1326 1.18224,19.5128 c 0.65018,10.7321 0.84111,20.0322 0.42419,20.6669 -1.18279,1.8006 -110.01215,14.8288 -196.1805,23.4853 -135.81311,13.6439 -273.82489,22.3916 -367.3676,23.2853 l -48.91737,0.4673 z M 893.14585,725.83163 C 877.82677,360.08241 864.64912,49.94489 863.86221,36.63712 c -1.41157,-23.87054 -1.32979,-24.19596 6.07915,-24.19596 4.13046,0 7.50991,1.84181 7.50991,4.09291 0,7.4543 90.18984,1361.39853 92.08433,1382.38453 l 1.85751,20.5766 -24.33596,2.8388 -24.33601,2.8389 -0.86119,-17.1713 c -0.47367,-9.4443 -13.39499,-316.4208 -28.7141,-682.16997 z m 89.14624,681.38937 c -2.33062,-14.8532 -49.17356,-730.29216 -47.89888,-731.56681 2.08365,-2.08368 39.34064,69.30938 56.32695,107.93552 39.98554,90.92526 62.60264,179.16471 70.82064,276.30219 7.299,86.2745 1.6473,177.8649 -19.0963,309.4719 l -6.4584,40.9749 -22.2898,3.0617 c -12.2594,1.684 -23.98238,3.2654 -26.05099,3.5144 -2.06858,0.2492 -4.47757,-4.1132 -5.35322,-9.6938 z m 66.87241,-1.7683 c 0,-1.4019 3.4888,-24.8311 7.7529,-52.065 14.497,-92.5899 18.2718,-136.777 18.4049,-215.4443 0.1657,-97.9643 -8.6604,-164.67743 -32.837,-248.20368 -9.8813,-34.13816 -38.345,-108.82118 -51.76069,-135.80955 -4.26787,-8.58566 -5.68722,-13.5029 -3.15409,-10.9272 14.21718,14.45622 415.14608,577.30533 413.03818,579.84903 -0.3223,0.3888 -60.6397,11.9443 -134.0389,25.6787 -73.3991,13.7345 -134.6725,25.7256 -136.1632,26.6468 -1.4906,0.9213 -3.6078,5.7614 -4.7047,10.7559 -1.872,8.5229 -3.3734,9.3099 -24.4362,12.8073 -12.3429,2.0495 -28.0613,4.8178 -34.9299,6.1516 -17.4939,3.3972 -17.1713,3.3866 -17.1713,0.5604 z M 12.688778,1397.8549 c 0.026,-2.1465 1.0799,-5.4774 2.3415,-7.402 2.2026,-3.3604 77.0937,-6.0172 724.271452,-25.6938 l 169.37322,-5.1495 -10e-4,7.0246 c -10e-4,5.9969 -1.71442,7.0566 -11.70927,7.2427 -6.43925,0.12 -196.45557,6.2642 -422.2585,13.6538 -486.242402,15.9127 -462.078802,15.3727 -462.016902,10.3241 z m 1124.663722,-9.3358 c 0.7099,-2.1297 7.5004,-4.9615 15.09,-6.293 7.5896,-1.3314 147.2672,-27.4111 310.3949,-57.955 276.8065,-51.8289 296.6645,-55.1406 297.6284,-49.636 0.568,3.244 0.3334,6.5974 -0.5212,7.4521 -3.4348,3.4347 -596.1014,109.4712 -615.0369,110.0389 -5.734,0.1718 -8.3918,-1.097 -7.5552,-3.607 z M 90.692478,1371.6241 c 0,-1.1191 6.2074,-12.7967 13.794402,-25.9503 7.587,-13.1535 27.8786,-51.2246 45.0926,-84.6024 99.7517,-193.4184 182.90535,-413.15405 258.07725,-681.97655 20.44994,-73.13111 72.52354,-282.30358 92.29279,-370.72741 7.58004,-33.90398 14.60827,-61.65127 15.61837,-61.66066 1.50745,-0.0141 319.85542,408.91286 350.91659,450.7622 l 9.32657,12.56589 14.69109,343.56678 c 8.08008,188.96175 14.7713,354.93275 14.86936,368.82435 l 0.17825,25.2577 -74.14892,2.0292 c -252.04018,6.8976 -733.804652,22.1169 -738.367052,23.3256 -1.2878,0.3412 -2.3415,-0.2953 -2.3415,-1.4144 z M 1377.4709,1267.4953 C 1297.5803,1152.2988 1146.2746,940.5001 989.25813,724.07261 L 931.35625,644.2621 915.13392,401.39671 c -8.92227,-133.57597 -15.60677,-243.48092 -14.85446,-244.23324 2.05886,-2.05888 78.41292,112.56027 110.53004,165.92255 108.6994,180.60333 204.9022,388.0819 296.0387,638.46104 50.5564,138.89344 122.3119,354.30154 118.819,356.69134 -7.6564,5.2385 -14.0147,-1.4559 -48.1963,-50.7431 z m 28.0467,-58.5584 C 1276.163,824.73816 1181.0938,596.77512 1064.7285,391.77131 c -15.595,-27.47412 -26.3825,-47.84556 -23.9724,-45.26985 2.4102,2.5757 49.8415,66.49985 105.403,142.05369 55.5614,75.55382 206.8604,280.49013 336.2199,455.414 129.3595,174.92385 234.6314,318.61105 233.9376,319.30485 -1.7405,1.7405 -257.849,50.2367 -267.5285,50.6587 -7.5196,0.3278 -9.1026,-3.5134 -43.2705,-104.9958 z M 759.9803,439.38272 C 698.46042,359.96534 604.07779,238.33767 550.24117,169.099 483.21348,82.89552 452.95871,41.64077 454.26717,38.23098 c 1.14115,-2.97373 3.01763,-3.82605 4.65855,-2.11592 1.51124,1.57498 95.59525,120.85966 209.07561,265.07704 177.28404,225.30289 206.32788,263.64734 206.32788,272.39965 0,5.60241 -0.56127,10.18619 -1.24729,10.18619 -0.68599,0 -51.58172,-64.97785 -113.10162,-144.39522 z M 691.82923,312.26103 C 557.35637,141.40196 534.29239,110.63728 539.18662,108.65315 547.52161,105.27413 849.3913,55.14786 851.1022,56.85873 c 0.78939,0.78942 5.57566,100.35144 10.63609,221.24895 5.06046,120.89751 9.74688,229.91074 10.41433,242.25165 l 1.21354,22.43798 -11.56448,-14.63286 C 855.4412,520.11639 778.95357,422.95984 691.82923,312.26103 Z"
       id="path316" />
  </g>
</svg>
