<?xml version="1.0" standalone="no"?>
<!DOCTYPE svg PUBLIC "-//W3C//DTD SVG 20010904//EN"
 "http://www.w3.org/TR/2001/REC-SVG-20010904/DTD/svg10.dtd">
<svg version="1.0" xmlns="http://www.w3.org/2000/svg"
 width="1280.000000pt" height="986.000000pt" viewBox="0 0 1280.000000 986.000000"
 preserveAspectRatio="xMidYMid meet">
<metadata>
Created by potrace 1.15, written by Peter Selinger 2001-2017
</metadata>
<g transform="translate(0.000000,986.000000) scale(0.100000,-0.100000)"
fill="#000000" stroke="none">
<path d="M5510 9775 l0 -25 168 0 167 0 -167 -77 -168 -76 0 -34 0 -33 210 0
210 0 0 25 0 25 -172 1 -173 0 55 26 c30 14 104 45 164 69 61 25 115 49 121
54 6 5 10 23 7 40 l-4 30 -209 0 -209 0 0 -25z"/>
<path d="M1613 9599 c-40 -12 -79 -58 -95 -112 -6 -23 -12 -90 -12 -148 1
-136 23 -191 91 -221 77 -34 159 -4 189 68 21 50 18 64 -14 64 -23 0 -30 -6
-37 -32 -6 -17 -22 -40 -37 -52 -34 -25 -71 -15 -102 27 -19 26 -21 42 -21
161 0 110 3 136 18 159 40 62 115 57 139 -9 10 -28 17 -34 40 -34 19 0 28 5
28 16 0 28 -31 82 -55 98 -31 20 -92 27 -132 15z"/>
<path d="M2913 9591 c-30 -14 -49 -32 -65 -63 -21 -39 -23 -56 -23 -173 0
-116 2 -135 23 -172 31 -59 62 -76 136 -78 49 -1 69 -6 101 -28 47 -32 56 -33
72 -8 10 17 7 22 -28 46 -28 18 -39 32 -36 43 3 9 13 37 22 62 24 65 18 249
-10 304 -38 76 -115 103 -192 67z m98 -41 c34 -19 52 -70 57 -166 8 -161 -34
-249 -111 -228 -54 16 -72 66 -72 204 0 90 4 122 18 147 27 50 66 65 108 43z"/>
<path d="M850 9575 c0 -24 3 -25 55 -25 l55 0 2 -217 3 -218 30 0 30 0 3 218
2 217 55 0 c52 0 55 1 55 25 l0 25 -145 0 -145 0 0 -25z"/>
<path d="M1200 9355 l0 -245 125 0 125 0 0 25 c0 25 0 25 -95 25 l-95 0 0 89
0 89 89 7 c81 6 88 9 84 26 -5 16 -15 19 -67 19 -105 0 -106 1 -106 86 l0 74
90 0 c89 0 90 0 90 25 l0 25 -120 0 -120 0 0 -245z"/>
<path d="M1880 9365 c0 -129 0 -238 0 -242 0 -5 12 -8 28 -8 l27 0 3 113 3
112 78 0 c63 0 80 -3 85 -16 3 -9 6 -60 6 -115 l0 -99 30 0 30 0 0 245 0 245
-30 0 -29 0 -3 -102 -3 -103 -50 -3 c-27 -2 -65 -1 -82 3 l-33 6 0 68 c0 103
-8 131 -36 131 l-24 0 0 -235z"/>
<path d="M2270 9355 l0 -245 30 0 30 0 0 188 c1 149 3 183 12 167 7 -11 44
-94 84 -185 l71 -165 37 -3 36 -3 0 245 0 246 -30 0 -30 0 0 -187 -1 -188 -50
115 c-27 63 -65 148 -84 188 -33 69 -35 72 -70 72 l-35 0 0 -245z"/>
<path d="M2670 9355 l0 -245 30 0 30 0 0 245 0 245 -30 0 -30 0 0 -245z"/>
<path d="M3212 9397 c3 -221 7 -236 65 -274 39 -26 133 -24 170 3 57 41 63 70
63 282 l0 192 -29 0 -30 0 -3 -201 -3 -201 -28 -24 c-37 -31 -81 -31 -112 1
-24 23 -25 29 -25 163 0 77 -3 167 -6 201 -7 59 -8 61 -36 61 l-29 0 3 -203z"/>
<path d="M3610 9355 l0 -246 123 3 c118 3 122 4 125 26 3 21 1 22 -92 22 l-96
0 0 89 0 89 85 7 c74 6 85 10 85 26 0 17 -8 19 -62 19 -108 0 -108 1 -108 86
l0 74 90 0 c89 0 90 0 90 25 l0 25 -120 0 -120 0 0 -245z"/>
<path d="M5635 9451 c-64 -12 -105 -38 -122 -79 -30 -71 0 -141 74 -174 39
-17 62 -20 152 -16 88 3 112 7 142 25 87 55 79 182 -16 224 -48 21 -168 32
-230 20z m222 -74 c70 -37 46 -111 -43 -135 -61 -16 -180 -10 -223 13 -48 24
-61 86 -25 116 40 33 233 36 291 6z"/>
<path d="M6112 9213 l3 -46 88 -33 c49 -18 91 -35 93 -37 3 -3 -38 -20 -90
-38 l-96 -34 0 -47 0 -46 58 17 c31 10 67 23 78 29 56 30 180 62 239 62 88 0
95 4 95 56 l0 44 -91 0 c-88 0 -95 2 -235 60 l-145 59 3 -46z"/>
<path d="M10182 9154 c-12 -8 -34 -37 -47 -64 -26 -52 -53 -74 -79 -64 -32 12
-29 58 5 67 14 4 19 14 19 36 0 39 -26 42 -67 7 -24 -21 -28 -32 -28 -75 0
-66 33 -103 94 -105 48 -1 71 18 110 91 18 33 33 49 49 51 52 8 74 -59 27 -80
-18 -8 -25 -19 -25 -41 0 -28 2 -29 32 -23 43 8 56 22 68 68 21 77 -26 148
-99 148 -20 0 -47 -7 -59 -16z"/>
<path d="M5510 9075 l0 -25 210 0 210 0 0 25 0 25 -210 0 -210 0 0 -25z"/>
<path d="M5510 8870 c0 -123 1 -130 20 -130 17 0 20 7 20 50 l0 50 190 0 190
0 0 25 0 25 -175 1 c-96 1 -181 2 -187 3 -8 1 -14 21 -16 54 -3 44 -6 52 -23
52 -18 0 -19 -8 -19 -130z"/>
<path d="M941 8938 c-54 -29 -66 -61 -66 -178 0 -125 14 -156 78 -177 59 -20
106 1 135 57 41 82 24 243 -31 288 -23 20 -88 25 -116 10z m85 -83 c17 -40 19
-139 3 -183 -19 -55 -61 -52 -80 5 -14 44 -8 175 10 197 23 27 51 20 67 -19z"/>
<path d="M1160 8760 l0 -180 30 0 30 0 0 100 c0 55 4 100 9 100 5 0 26 -44 48
-97 39 -97 39 -98 76 -101 l37 -3 0 180 0 181 -30 0 -30 0 0 -107 c0 -59 -4
-103 -8 -97 -4 5 -25 53 -47 107 l-38 97 -39 0 -38 0 0 -180z"/>
<path d="M1452 8763 l3 -178 93 -3 92 -3 0 31 0 30 -60 0 -60 0 0 150 0 150
-35 0 -35 0 2 -177z"/>
<path d="M1680 8760 l0 -180 35 0 35 0 0 180 0 180 -35 0 -35 0 0 -180z"/>
<path d="M1810 8760 l0 -180 30 0 30 0 1 78 c1 42 4 88 8 102 6 22 11 15 39
-55 18 -44 37 -90 42 -102 7 -18 18 -23 44 -23 43 0 43 2 38 203 l-4 157 -29
0 -29 0 -1 -107 c0 -122 2 -123 -60 30 l-31 77 -39 0 -39 0 0 -180z"/>
<path d="M2102 8763 l3 -178 95 0 95 0 3 28 3 27 -65 0 c-65 0 -66 0 -66 28 1
44 32 72 79 72 39 0 41 2 41 30 l0 30 -60 0 -60 0 0 40 c0 40 0 40 38 40 61 0
82 10 82 36 0 24 -2 24 -95 24 l-95 0 2 -177z"/>
<path d="M2470 8815 c0 -117 1 -125 19 -125 17 0 20 8 23 48 2 33 7 47 18 48
8 1 99 2 203 2 l187 2 0 25 0 25 -205 0 -205 0 0 50 c0 43 -3 50 -20 50 -19 0
-20 -7 -20 -125z"/>
<path d="M4453 8915 c-50 -22 -67 -65 -67 -175 -1 -116 17 -163 70 -180 27 -9
40 -9 64 3 16 9 30 11 30 6 0 -5 9 -9 20 -9 19 0 20 7 20 101 l0 100 -52 -3
c-39 -2 -53 -7 -53 -18 0 -10 12 -16 33 -18 36 -4 40 -18 22 -84 -11 -38 -35
-54 -68 -43 -31 9 -42 50 -42 149 0 80 3 97 21 120 28 35 68 32 87 -6 8 -17
21 -28 33 -28 22 0 22 -2 8 40 -8 22 -22 37 -45 46 -40 17 -41 17 -81 -1z"/>
<path d="M3095 8908 c2 -7 18 -88 36 -180 30 -160 33 -168 55 -168 25 0 21
-13 60 195 l18 90 29 -143 c28 -134 31 -142 53 -142 13 0 24 1 24 3 0 2 16 82
35 177 19 95 35 175 35 177 0 2 -9 3 -20 3 -14 0 -21 -9 -26 -37 -3 -21 -16
-85 -28 -143 l-22 -105 -12 65 c-39 203 -44 221 -65 218 -18 -3 -25 -22 -51
-143 l-30 -140 -25 143 c-23 135 -25 142 -47 142 -14 0 -22 -5 -19 -12z"/>
<path d="M3480 8740 l0 -180 85 0 c78 0 85 2 85 20 0 18 -7 20 -65 20 l-65 0
0 65 0 65 60 0 c53 0 60 2 60 20 0 18 -7 20 -60 20 l-61 0 3 58 3 57 63 3 c46
2 62 7 62 17 0 12 -17 15 -85 15 l-85 0 0 -180z"/>
<path d="M3700 8740 l0 -180 66 0 c59 0 68 3 95 29 38 39 41 109 6 145 -23 23
-23 24 -5 46 26 32 23 86 -7 115 -21 22 -33 25 -90 25 l-65 0 0 -180z m118
134 c26 -18 30 -65 6 -88 -8 -9 -31 -16 -50 -16 l-34 0 0 60 c0 59 0 60 28 60
15 0 38 -7 50 -16z m-11 -145 c34 -13 43 -25 43 -65 0 -44 -20 -65 -68 -71
l-42 -6 0 77 c0 84 5 89 67 65z"/>
<path d="M3940 8740 c0 -173 1 -180 20 -180 18 0 20 7 20 74 l0 73 51 7 c68 9
99 42 99 103 0 36 -6 50 -29 74 -27 26 -36 29 -95 29 l-66 0 0 -180z m137 123
c18 -23 16 -64 -3 -91 -11 -16 -25 -22 -55 -22 l-39 0 0 63 c0 35 3 67 8 71
12 13 76 -2 89 -21z"/>
<path d="M4176 8763 c-21 -87 -40 -168 -43 -180 -4 -18 -1 -23 15 -23 17 0 23
10 33 55 l12 55 47 0 47 0 13 -55 c10 -42 18 -55 32 -55 10 0 18 7 18 15 0 9
-19 90 -41 180 -41 162 -42 165 -68 165 -27 0 -28 -3 -65 -157z m74 74 c0 -12
7 -46 14 -74 l14 -53 -37 0 -38 0 16 79 c15 74 31 99 31 48z"/>
<path d="M4650 8740 l0 -180 85 0 c78 0 85 2 85 20 0 18 -7 20 -65 20 l-65 0
0 65 0 65 60 0 c53 0 60 2 60 20 0 18 -7 20 -60 20 l-61 0 3 58 c2 42 7 57 18
58 8 1 36 2 63 3 35 1 47 5 47 16 0 12 -16 15 -85 15 l-85 0 0 -180z"/>
<path d="M10078 8908 c-21 -5 -49 -23 -63 -40 -22 -26 -25 -39 -25 -104 l0
-74 176 0 176 0 -4 75 c-3 67 -6 78 -33 105 -44 44 -143 60 -227 38z m180 -85
c11 -10 23 -28 27 -40 6 -23 6 -23 -119 -23 -119 0 -126 1 -126 20 0 11 9 29
20 40 28 28 167 29 198 3z"/>
<path d="M6110 8765 c0 -74 0 -138 0 -142 0 -5 15 -9 35 -11 33 -3 35 -1 35
26 0 17 9 37 23 50 22 21 32 22 200 22 l177 0 0 45 0 45 -197 2 -198 3 -3 48
c-3 46 -4 47 -38 47 l-34 0 0 -135z"/>
<path d="M5740 8714 c-85 -25 -172 -49 -192 -55 -35 -9 -38 -13 -38 -44 0 -33
2 -35 53 -49 98 -29 351 -96 359 -96 4 0 8 11 8 24 0 21 -8 27 -62 43 l-63 19
0 59 0 60 60 16 c53 14 60 19 63 42 4 35 1 35 -188 -19z m14 -76 c10 -37 7
-68 -6 -68 -7 0 -50 10 -95 22 l-82 23 77 21 c100 28 99 28 106 2z"/>
<path d="M2472 8618 c3 -23 4 -23 176 -23 94 0 172 -1 172 -1 0 -1 -79 -34
-176 -74 l-175 -73 3 -31 3 -31 223 -3 222 -2 0 25 0 25 -182 2 -183 3 135 53
c74 29 155 61 180 70 39 15 45 22 48 50 l3 32 -226 0 -226 0 3 -22z"/>
<path d="M10015 8615 c-22 -22 -25 -32 -25 -104 l0 -80 43 -6 c23 -3 101 -5
172 -3 l130 3 3 33 3 32 -77 0 -76 0 6 32 c3 17 8 34 11 36 3 3 33 8 67 11 63
6 63 6 66 40 l3 34 -71 -5 c-43 -3 -77 -11 -88 -21 -15 -14 -19 -14 -41 4 -34
28 -96 25 -126 -6z m116 -72 c15 -41 5 -53 -46 -53 -41 0 -45 2 -45 24 0 44
10 56 46 56 28 0 36 -5 45 -27z"/>
<path d="M6109 8565 c0 -3 -1 -22 -2 -42 l0 -38 236 -3 237 -2 0 45 0 45 -235
0 c-129 0 -235 -2 -236 -5z"/>
<path d="M11434 8531 c-82 -50 -108 -130 -102 -315 5 -147 20 -199 69 -241 54
-45 149 -41 183 7 14 20 14 20 18 -3 2 -18 10 -25 31 -27 l27 -3 0 166 0 166
-82 -3 c-82 -3 -83 -3 -86 -30 -3 -27 -2 -28 46 -28 46 0 50 -2 55 -27 7 -41
-7 -127 -25 -156 -21 -30 -62 -42 -99 -27 -46 19 -62 69 -67 206 -7 184 27
274 103 274 41 0 73 -24 83 -63 7 -27 13 -33 42 -35 33 -3 33 -3 27 33 -8 48
-30 81 -70 105 -41 26 -112 26 -153 1z"/>
<path d="M10550 8245 l0 -296 138 3 137 3 3 28 3 27 -105 0 -106 0 0 113 c0
76 3 107 10 97 6 -10 10 -11 10 -2 0 9 24 12 85 12 l85 0 0 30 0 30 -72 0
c-121 0 -118 -2 -118 101 l0 89 100 0 100 0 0 30 0 30 -135 0 -135 0 0 -295z"/>
<path d="M10902 8248 l3 -293 30 0 30 0 5 219 5 219 28 -59 c15 -32 56 -131
90 -219 l63 -160 39 0 40 0 3 220 c2 121 0 253 -3 293 -7 71 -7 72 -36 72
l-29 0 -1 -227 0 -228 -85 210 c-47 116 -88 218 -91 228 -4 13 -16 17 -49 17
l-44 0 2 -292z"/>
<path d="M11770 8245 l0 -295 29 0 c21 0 30 6 35 23 8 30 8 428 0 506 -7 59
-8 61 -35 61 l-29 0 0 -295z"/>
<path d="M11950 8245 l0 -295 30 0 30 0 0 233 0 232 28 -60 c16 -33 59 -138
96 -232 l68 -173 39 0 39 0 0 295 0 295 -30 0 -30 0 0 -227 c-1 -262 5 -260
-85 -33 -31 80 -68 171 -82 203 -25 55 -27 57 -64 57 l-39 0 0 -295z"/>
<path d="M12392 8248 l3 -293 138 -3 137 -3 0 31 0 30 -105 0 -105 0 0 96 c0
121 3 124 108 124 43 0 81 2 84 5 3 3 3 17 0 30 -4 24 -8 25 -76 25 -119 0
-116 -2 -116 101 l0 89 98 0 c54 0 101 2 104 5 3 3 3 17 0 30 l-4 25 -134 0
-134 0 2 -292z"/>
<path d="M6174 8406 c-54 -24 -64 -49 -64 -162 l0 -101 38 -7 c20 -3 126 -6
235 -6 l197 0 0 45 0 45 -84 0 c-126 0 -139 11 -88 68 26 29 35 32 85 32 79 0
87 5 87 54 l0 41 -87 -4 c-87 -3 -143 -20 -143 -43 0 -7 -9 -2 -21 11 -39 42
-98 52 -155 27z m124 -103 c6 -9 12 -32 12 -50 0 -33 0 -33 -49 -33 -67 0 -81
7 -81 39 0 19 8 32 25 41 14 7 25 18 25 23 0 14 53 -2 68 -20z"/>
<path d="M5510 8371 c0 -34 3 -39 28 -45 15 -3 90 -23 166 -45 l139 -38 -49
-12 c-27 -7 -102 -26 -166 -43 l-118 -31 0 -38 0 -39 210 0 210 0 0 25 0 25
-172 1 -173 1 155 35 c195 43 199 45 193 76 -4 23 -18 28 -156 66 -84 23 -156
44 -162 46 -5 2 63 4 153 4 l162 1 0 25 0 25 -210 0 -210 0 0 -39z"/>
<path d="M10170 8356 c-69 -18 -137 -36 -152 -39 -25 -7 -28 -12 -28 -51 l0
-44 165 -41 c90 -22 169 -41 175 -41 7 0 10 14 8 32 -3 28 -8 34 -43 44 -27 7
-40 16 -39 27 3 66 3 65 44 72 38 6 40 9 40 41 0 43 -4 43 -170 0z m20 -92 c0
-23 -3 -25 -22 -20 -13 4 -41 10 -63 14 l-40 6 50 12 c72 17 75 17 75 -12z"/>
<path d="M2880 8245 l0 -85 -84 0 -84 0 -7 75 c-6 65 -9 75 -26 75 -17 0 -19
-8 -19 -75 l0 -75 -75 0 -75 0 0 80 c0 73 -2 80 -20 80 -19 0 -20 -7 -20 -104
l0 -103 48 -5 c26 -3 126 -5 222 -4 l175 1 3 104 c3 101 -2 120 -30 121 -5 0
-8 -38 -8 -85z"/>
<path d="M10055 8102 c-51 -24 -65 -55 -65 -142 l0 -68 175 -2 175 -1 0 66 c0
119 -38 157 -165 162 -63 3 -89 0 -120 -15z m210 -73 c8 -8 16 -25 17 -39 l3
-25 -122 -3 c-122 -3 -123 -2 -123 20 0 30 10 45 40 57 35 15 168 7 185 -10z"/>
<path d="M6341 8042 l-234 -57 0 -55 0 -55 44 -13 c24 -7 123 -30 219 -53 96
-22 183 -42 193 -45 14 -5 17 1 17 40 0 42 -2 46 -27 52 -70 15 -78 20 -81 51
-4 39 30 78 76 87 31 7 32 9 32 57 0 27 -1 49 -2 48 -2 -1 -108 -26 -237 -57z
m44 -113 c4 -17 5 -32 2 -35 -2 -2 -27 1 -56 8 -56 13 -68 34 -23 44 15 3 32
7 37 9 25 8 34 3 40 -26z"/>
<path d="M2470 7980 c0 -45 -14 -39 220 -95 155 -37 165 -28 -82 -85 l-138
-32 0 -39 0 -39 225 0 225 0 0 25 0 25 -182 2 -183 3 135 28 c246 51 232 46
228 76 -3 25 -10 28 -163 67 -205 52 -202 51 -120 51 39 -1 118 0 178 1 l107
2 0 25 0 25 -225 0 -225 0 0 -40z"/>
<path d="M5557 7989 c-32 -19 -47 -65 -47 -147 l0 -80 123 -4 c67 -2 161 -2
210 0 84 4 87 5 87 28 0 24 -1 24 -95 24 l-95 0 0 43 c0 67 20 87 88 87 82 0
102 8 102 37 0 25 -1 25 -79 22 -63 -3 -86 -9 -110 -27 -17 -12 -31 -18 -31
-13 0 31 -113 53 -153 30z m122 -63 c7 -8 16 -37 19 -65 l5 -51 -77 0 -76 0 0
48 c0 70 26 96 85 86 16 -2 36 -11 44 -18z"/>
<path d="M9990 7800 l0 -30 103 0 102 -1 -77 -34 c-43 -19 -89 -37 -103 -41
-21 -5 -25 -12 -25 -44 0 -37 1 -37 46 -44 59 -8 252 -8 282 0 18 5 22 13 20
33 l-3 26 -115 5 -115 5 80 23 c120 34 149 52 153 96 l3 36 -175 0 -176 0 0
-30z"/>
<path d="M10522 7613 l3 -178 32 -3 31 -3 6 63 c7 89 7 88 31 88 33 0 44 -19
47 -85 3 -60 3 -60 36 -63 l32 -3 0 68 c0 47 -5 76 -16 91 -14 20 -14 25 -2
40 24 28 29 52 18 93 -15 53 -48 69 -145 69 l-75 0 2 -177z m132 114 c22 -16
25 -65 5 -78 -8 -5 -26 -9 -41 -9 -27 0 -28 2 -28 50 0 46 2 50 23 50 13 0 31
-6 41 -13z"/>
<path d="M10790 7610 l0 -181 98 3 97 3 3 28 3 27 -65 0 c-65 0 -66 0 -66 28
1 44 32 72 79 72 39 0 41 2 41 30 l0 30 -60 0 -60 0 0 40 0 40 60 0 60 0 0 30
0 30 -95 0 -95 0 0 -180z"/>
<path d="M11012 7778 c3 -7 24 -88 48 -180 l43 -168 42 0 42 0 41 173 c23 94
42 175 42 180 0 4 -15 7 -33 7 l-34 0 -18 -87 c-10 -49 -24 -106 -30 -128
l-12 -39 -29 124 -29 125 -39 3 c-29 3 -37 0 -34 -10z"/>
<path d="M11308 7759 c-3 -17 -3 -98 0 -181 l5 -149 31 3 31 3 3 105 c2 58 0
138 -3 178 -7 71 -7 72 -35 72 -23 0 -28 -5 -32 -31z"/>
<path d="M11440 7610 l0 -180 94 0 c92 0 94 1 98 25 3 13 3 27 0 30 -3 3 -32
5 -64 5 l-58 0 0 36 c0 45 21 63 73 64 34 0 37 2 37 30 0 30 -1 30 -55 30
l-55 0 0 40 0 39 58 3 c54 3 57 4 60 31 l3 27 -95 0 -96 0 0 -180z"/>
<path d="M11660 7782 c0 -9 55 -287 65 -329 4 -18 12 -23 39 -23 38 0 41 7 67
159 l13 74 12 -59 c7 -32 18 -85 25 -117 l12 -58 36 3 36 3 32 155 c41 201 41
200 3 200 -33 0 -30 8 -57 -140 l-17 -95 -8 45 c-4 25 -15 78 -24 118 -16 73
-16 73 -47 70 -31 -3 -31 -3 -54 -112 -24 -115 -33 -138 -33 -90 0 16 -7 68
-16 117 l-16 87 -34 0 c-19 0 -34 -4 -34 -8z"/>
<path d="M6508 7655 l-3 -80 -200 -3 -200 -2 3 -39 c4 -37 5 -39 49 -45 25 -3
130 -6 233 -6 153 0 189 3 193 14 3 8 3 64 0 124 l-6 110 -33 4 -33 4 -3 -81z"/>
<path d="M5597 7666 c-50 -18 -74 -41 -87 -82 -21 -63 8 -127 74 -161 40 -21
160 -28 229 -13 85 17 119 50 125 123 4 54 3 58 -30 91 -19 19 -52 39 -73 45
-55 15 -192 13 -238 -3z m253 -60 c13 -6 31 -23 40 -38 13 -25 13 -31 0 -55
-21 -37 -68 -52 -167 -52 -100 -1 -157 18 -171 57 -10 30 -2 61 22 81 35 29
218 34 276 7z"/>
<path d="M2470 7575 l0 -25 225 0 225 0 0 25 0 25 -225 0 -225 0 0 -25z"/>
<path d="M10160 7536 l-165 -42 -3 -45 -3 -46 158 -37 c87 -21 166 -40 176
-43 14 -3 17 2 17 29 0 32 -3 35 -46 46 -43 12 -46 14 -39 40 3 14 7 31 8 37
1 5 18 15 37 21 31 9 35 15 38 47 2 21 0 36 -5 36 -4 -1 -82 -20 -173 -43z
m30 -92 c0 -20 -4 -25 -16 -20 -9 3 -34 9 -55 12 -45 8 -44 13 3 24 59 14 68
12 68 -16z"/>
<path d="M2551 7469 c-61 -13 -76 -38 -79 -139 l-4 -90 34 -1 c98 -4 195 -4
301 0 115 4 117 4 117 28 0 23 -1 23 -106 23 l-106 0 7 48 c10 67 21 75 120
80 84 4 85 5 85 31 l0 26 -87 -5 c-87 -5 -133 -20 -133 -42 0 -6 -11 -1 -24
11 -29 28 -80 40 -125 30z m99 -69 c14 -14 20 -33 20 -65 l0 -45 -80 0 -80 0
0 45 c0 59 25 85 80 85 27 0 47 -7 60 -20z"/>
<path d="M6108 7371 l-3 -39 44 -6 c24 -3 108 -6 187 -6 131 0 146 -2 164 -20
25 -25 25 -41 1 -71 -19 -23 -24 -24 -205 -27 l-186 -4 0 -38 0 -38 77 -8
c100 -9 314 0 342 16 59 31 82 151 41 217 -35 58 -58 63 -268 63 l-190 0 -4
-39z"/>
<path d="M8505 7356 c-46 -21 -67 -51 -72 -103 -6 -66 19 -102 102 -148 93
-52 119 -112 74 -169 -39 -49 -118 -27 -135 39 -5 18 -13 25 -31 25 -24 0 -25
-3 -20 -37 4 -22 19 -49 37 -68 26 -26 38 -30 84 -30 94 0 140 45 139 139 -1
62 -22 90 -107 142 -78 47 -86 56 -86 105 0 67 69 94 109 43 12 -15 21 -33 21
-41 0 -10 9 -13 28 -11 22 2 26 7 24 28 -5 39 -30 70 -67 86 -42 17 -61 17
-100 0z"/>
<path d="M9673 7359 c-49 -14 -73 -52 -73 -115 0 -62 28 -102 94 -136 70 -35
96 -66 96 -115 0 -97 -108 -117 -146 -27 -11 26 -20 34 -40 34 -24 0 -25 -3
-19 -32 10 -48 32 -78 70 -94 97 -40 195 21 195 121 0 63 -28 103 -106 150
-93 56 -119 110 -74 155 36 36 91 21 108 -30 8 -23 17 -30 36 -30 17 0 26 6
26 16 0 25 -28 78 -49 91 -28 17 -82 23 -118 12z"/>
<path d="M5510 7250 l0 -110 210 0 210 0 0 25 c0 24 -1 24 -97 27 l-98 3 -3
78 c-3 69 -5 77 -22 77 -18 0 -20 -7 -20 -80 l0 -81 -67 3 -68 3 -3 83 c-3 74
-5 82 -22 82 -19 0 -20 -7 -20 -110z"/>
<path d="M7810 7115 l0 -245 25 0 c25 0 25 1 25 79 0 43 3 93 6 110 6 29 9 31
54 31 62 0 74 -15 78 -104 4 -104 8 -116 37 -116 24 0 25 2 25 74 0 95 -7 129
-33 157 -15 16 -17 24 -9 27 22 7 42 60 42 109 0 90 -46 123 -170 123 l-80 0
0 -245z m172 178 c24 -28 30 -70 14 -107 -11 -27 -22 -36 -49 -41 -19 -4 -45
-5 -58 -3 -23 3 -24 7 -27 86 l-3 82 54 0 c39 0 58 -5 69 -17z"/>
<path d="M8140 7115 l0 -245 115 0 115 0 0 25 c0 25 -1 25 -85 25 l-85 0 0 90
0 89 78 3 c71 3 77 5 80 26 3 21 0 22 -65 22 -37 0 -73 4 -80 8 -6 4 -13 39
-15 80 l-3 72 81 0 c44 0 83 3 86 6 3 3 4 14 1 25 -5 17 -15 19 -114 19 l-109
0 0 -245z"/>
<path d="M8750 7165 c0 -207 6 -241 49 -279 27 -24 116 -32 151 -14 13 7 35
29 47 47 22 33 23 42 23 237 l0 204 -25 0 -25 0 0 -177 c0 -188 -9 -246 -40
-263 -32 -17 -70 -11 -95 15 -25 24 -25 25 -25 225 l0 200 -30 0 -30 0 0 -195z"/>
<path d="M9110 7115 l0 -246 113 3 c108 3 112 4 115 26 3 21 1 22 -82 22 l-86
0 0 220 0 220 -30 0 -30 0 0 -245z"/>
<path d="M9290 7335 c0 -24 3 -25 55 -25 l55 0 0 -220 0 -220 25 0 25 0 0 138
c0 75 3 174 7 220 l6 82 48 0 c46 0 49 2 49 25 l0 25 -135 0 -135 0 0 -25z"/>
<path d="M9990 7235 c0 -114 0 -115 24 -115 20 0 24 6 30 39 3 22 11 39 18 38
7 0 73 1 146 1 l132 2 0 35 0 35 -150 0 -150 0 0 40 c0 36 -2 40 -25 40 l-25
0 0 -115z"/>
<path d="M10520 7044 l0 -195 48 3 47 3 3 41 c2 27 11 49 25 63 22 20 35 21
252 23 l230 3 3 58 3 57 -233 0 c-128 0 -243 3 -254 6 -18 5 -23 16 -29 70
l-7 64 -44 0 -44 0 0 -196z"/>
<path d="M2878 7098 l-3 -83 -81 -3 -82 -3 -7 76 c-6 65 -9 75 -26 75 -17 0
-19 -8 -19 -75 l0 -76 -72 3 -73 3 -3 78 c-3 69 -5 77 -22 77 -19 0 -20 -7
-20 -105 l0 -105 225 0 226 0 -3 107 c-3 92 -5 108 -20 111 -15 3 -18 -8 -20
-80z"/>
<path d="M10210 7103 c-28 -11 -62 -48 -86 -95 -19 -37 -30 -48 -48 -48 -47 0
-60 55 -16 67 15 4 20 14 20 39 0 19 -4 34 -9 34 -27 0 -62 -23 -76 -49 -34
-66 -4 -145 61 -157 55 -10 86 5 114 57 38 70 49 80 84 77 27 -3 31 -7 31 -33
0 -22 -6 -33 -22 -40 -17 -7 -23 -18 -23 -43 0 -30 2 -32 28 -26 38 9 69 40
76 76 8 43 -10 105 -37 123 -27 17 -76 27 -97 18z"/>
<path d="M6194 7060 c-16 -5 -41 -21 -55 -36 -21 -23 -25 -37 -29 -129 l-5
-104 29 -5 c16 -3 122 -6 237 -6 l209 0 0 45 0 44 -92 3 -93 3 -5 51 c-6 54
-27 95 -63 118 -29 20 -95 27 -133 16z m110 -112 c9 -12 16 -35 16 -50 0 -28
0 -28 -70 -28 l-70 0 0 35 c0 19 5 35 11 35 5 0 7 4 4 10 -3 5 0 7 8 4 8 -3
18 -1 22 5 12 20 63 12 79 -11z"/>
<path d="M3110 6845 l0 -215 34 0 c39 0 46 11 46 78 0 37 5 50 21 60 12 7 23
11 25 9 3 -2 18 -35 34 -73 l29 -69 45 -3 46 -3 -26 58 c-14 32 -39 91 -56
131 l-29 74 24 36 c37 54 77 121 77 127 0 3 -18 5 -40 5 -39 0 -42 -3 -79 -62
-72 -115 -68 -114 -76 -20 l-8 82 -33 0 -34 0 0 -215z"/>
<path d="M3417 7053 c-4 -3 -7 -100 -7 -215 l0 -208 115 0 115 0 0 35 0 35
-76 0 -77 0 6 42 c7 55 35 78 94 78 44 0 44 0 41 33 l-3 32 -69 3 -68 3 7 32
c4 18 7 37 8 44 0 8 27 15 69 19 65 6 69 8 64 28 -3 11 -6 27 -6 34 0 9 -27
12 -103 12 -57 0 -107 -3 -110 -7z"/>
<path d="M3670 7048 c0 -7 21 -62 47 -123 42 -97 48 -121 53 -200 l5 -90 40 0
40 0 6 85 c6 79 14 108 67 245 38 96 38 95 -1 95 -42 0 -49 -8 -76 -90 -12
-36 -25 -70 -29 -77 -5 -8 -19 17 -36 65 -16 42 -33 83 -38 90 -13 16 -78 16
-78 0z"/>
<path d="M3970 7033 c0 -16 17 -111 38 -213 l37 -185 42 -3 41 -3 10 48 c6 26
16 81 23 121 6 42 15 70 20 65 5 -5 19 -58 32 -118 l23 -110 41 -3 41 -3 11
48 c11 51 55 282 66 346 l6 38 -38 -3 -38 -3 -22 -129 c-12 -70 -24 -130 -26
-132 -2 -3 -14 48 -26 112 -26 137 -33 154 -67 154 -31 0 -37 -14 -65 -154
-26 -125 -29 -123 -53 32 -9 57 -18 108 -21 113 -4 5 -22 9 -41 9 -31 0 -34
-3 -34 -27z"/>
<path d="M4488 7031 c-47 -41 -62 -95 -56 -213 5 -106 22 -148 71 -178 63 -39
148 -15 183 52 25 48 31 190 11 259 -22 74 -52 101 -120 107 -49 4 -57 1 -89
-27z m119 -68 c14 -21 18 -48 18 -123 0 -104 -17 -150 -55 -150 -39 0 -55 46
-55 155 0 62 5 108 13 123 18 31 57 29 79 -5z"/>
<path d="M4770 6845 l0 -215 40 0 40 0 0 65 c0 69 18 105 52 105 25 0 32 -18
38 -95 l5 -70 38 -3 37 -3 0 73 c0 52 -5 84 -19 110 -18 36 -18 38 0 54 14 13
19 31 19 70 0 92 -47 122 -192 124 l-58 0 0 -215z m151 135 c13 -7 19 -21 19
-43 0 -42 -15 -57 -57 -57 -31 0 -33 2 -33 34 0 19 7 39 16 47 14 12 14 14 -3
20 -14 6 -12 8 10 8 16 1 37 -4 48 -9z"/>
<path d="M5080 6845 l0 -215 78 0 c133 0 179 44 189 183 7 86 -14 171 -49 204
-27 26 -92 42 -165 43 l-53 0 0 -215z m163 114 c26 -33 27 -180 1 -231 -12
-22 -21 -28 -49 -28 l-35 0 0 118 c0 88 4 123 15 139 12 17 12 23 3 26 -7 2 1
3 17 1 17 -2 38 -14 48 -25z"/>
<path d="M5510 7025 l0 -25 164 -2 164 -3 -164 -74 -164 -74 0 -34 0 -33 210
0 210 0 0 25 0 25 -172 2 -172 3 70 29 c38 16 112 46 164 68 52 21 99 43 105
48 7 5 10 23 7 40 l-4 30 -209 0 -209 0 0 -25z"/>
<path d="M2533 6885 c-46 -20 -63 -60 -63 -150 l0 -75 38 -1 c20 0 75 -2 122
-3 47 -2 131 0 188 2 99 5 102 6 102 28 0 24 -2 24 -94 24 l-93 0 -6 56 c-7
67 -27 101 -72 120 -43 17 -81 17 -122 -1z m93 -45 c29 0 54 -39 54 -85 l0
-45 -85 0 -85 0 0 33 c0 55 11 79 44 93 17 7 37 11 44 9 8 -3 20 -5 28 -5z"/>
<path d="M10548 6793 c-26 -4 -28 -8 -28 -54 l0 -49 173 -1 c94 -1 177 -1 182
0 36 5 -49 -36 -190 -90 l-165 -64 0 -67 0 -68 306 0 305 0 -3 53 -3 52 -175
3 -175 2 40 25 c22 13 56 29 75 35 56 18 141 50 193 73 l47 20 0 64 0 63 -234
0 c-128 0 -253 2 -277 4 -24 2 -56 2 -71 -1z"/>
<path d="M6250 6714 c-57 -11 -88 -26 -116 -55 -26 -27 -29 -37 -29 -95 0 -63
2 -67 37 -99 47 -43 101 -58 208 -58 104 0 161 15 202 52 27 24 32 36 35 87 8
114 -58 165 -222 170 -49 1 -101 0 -115 -2z m232 -106 c28 -14 40 -45 28 -68
-14 -27 -70 -40 -173 -40 -113 0 -157 16 -157 59 0 20 5 30 13 29 6 -2 11 2
10 8 -1 6 3 11 10 12 7 1 35 6 62 11 55 10 180 3 207 -11z"/>
<path d="M6865 6696 c-110 -41 -139 -190 -54 -274 18 -17 62 -47 100 -67 76
-40 99 -65 99 -110 0 -48 -25 -75 -69 -75 -41 0 -63 17 -80 63 -10 24 -15 27
-61 27 l-50 0 0 -34 c0 -37 31 -89 73 -120 22 -16 46 -22 105 -24 127 -5 188
38 199 142 11 96 -30 158 -145 221 -83 46 -102 62 -102 90 0 27 52 78 77 73
10 -1 26 -20 36 -40 18 -36 21 -38 68 -38 49 0 49 0 49 34 0 40 -34 94 -77
118 -43 26 -119 32 -168 14z"/>
<path d="M8618 6694 c-53 -16 -83 -48 -99 -106 -25 -94 19 -167 136 -228 80
-41 105 -70 105 -120 0 -46 -24 -70 -73 -70 -39 0 -77 35 -77 71 0 16 -8 19
-56 19 l-57 0 6 -40 c7 -51 45 -102 93 -125 29 -13 54 -16 115 -13 117 7 157
42 166 146 10 108 -31 163 -174 236 -48 24 -73 49 -73 75 0 18 52 71 69 71 21
0 48 -27 53 -55 3 -17 11 -20 58 -20 l55 0 -4 30 c-7 65 -52 117 -116 134 -50
14 -69 13 -127 -5z"/>
<path d="M9677 6696 c-74 -27 -108 -79 -128 -192 -16 -93 -6 -260 19 -317 37
-83 99 -114 208 -105 88 7 125 45 139 141 l7 47 -56 0 c-44 0 -56 -3 -56 -15
0 -30 -30 -75 -54 -81 -67 -16 -101 68 -94 230 5 112 19 151 68 186 l30 21 25
-25 c14 -14 25 -34 25 -46 0 -18 6 -20 56 -20 l57 0 -6 40 c-7 54 -40 105 -81
124 -50 24 -115 28 -159 12z"/>
<path d="M10115 6703 c-85 -22 -126 -73 -127 -156 -1 -85 33 -133 128 -180 88
-44 114 -72 114 -121 0 -51 -22 -76 -68 -76 -36 0 -68 27 -78 65 -6 23 -11 25
-60 25 -50 0 -54 -2 -54 -23 0 -12 10 -43 23 -67 31 -64 82 -90 171 -90 94 0
148 26 170 81 32 79 13 182 -41 232 -11 9 -56 36 -99 60 -70 37 -79 46 -82 73
-4 42 31 86 67 82 20 -2 29 -11 37 -38 11 -34 13 -35 65 -35 l54 0 -3 34 c-4
48 -36 96 -76 115 -38 18 -110 28 -141 19z"/>
<path d="M7157 6693 c-4 -3 -7 -26 -7 -50 l0 -43 55 0 c30 0 58 1 62 3 16 5
21 -64 22 -285 l1 -228 55 0 55 0 0 220 c0 145 4 228 12 244 11 25 57 46 101
46 14 0 17 9 17 50 l0 50 -183 0 c-101 0 -187 -3 -190 -7z"/>
<path d="M7630 6695 c0 -3 -31 -139 -70 -302 -38 -163 -70 -298 -70 -300 0 -2
25 -3 57 -1 l56 3 18 55 c10 30 19 56 19 57 1 10 66 33 94 33 38 0 43 -9 62
-112 l6 -38 59 0 c33 0 59 4 59 9 0 16 -129 546 -139 574 -10 26 -14 27 -81
27 -38 0 -70 -2 -70 -5z m104 -266 c9 -39 16 -75 16 -80 0 -5 -20 -9 -45 -9
-25 0 -45 3 -45 8 2 42 38 152 50 152 4 0 15 -32 24 -71z"/>
<path d="M7880 6650 l0 -49 63 -3 62 -3 3 -252 2 -253 54 0 c40 0 55 4 60 16
3 9 6 111 6 228 0 156 3 217 13 230 7 9 35 23 62 30 36 9 50 17 49 29 0 9 -1
31 -2 47 l-2 30 -185 0 -185 0 0 -50z"/>
<path d="M8317 6693 c-4 -3 -7 -141 -7 -305 l0 -298 60 0 60 0 0 274 c0 150
-3 288 -6 305 -6 29 -9 31 -54 31 -25 0 -50 -3 -53 -7z"/>
<path d="M8910 6650 l0 -50 50 0 c28 0 53 0 56 1 19 2 24 -48 24 -268 l0 -243
54 0 55 0 3 229 c3 261 5 265 84 277 l44 6 0 49 0 49 -185 0 -185 0 0 -50z"/>
<path d="M9340 6395 l0 -305 60 0 60 0 0 259 c0 142 -3 279 -6 305 l-7 46 -53
0 -54 0 0 -305z"/>
<path d="M5510 6666 c0 -31 30 -36 248 -36 l172 0 0 30 0 30 -210 0 -210 0 0
-24z"/>
<path d="M2793 6554 l-111 -55 -101 51 c-55 27 -103 50 -106 50 -3 0 -5 -10
-5 -23 0 -18 15 -30 82 -63 l83 -41 -83 -42 c-70 -35 -82 -45 -82 -66 0 -14 3
-25 6 -25 4 0 49 20 102 45 52 25 102 45 111 45 9 0 63 -23 120 -50 57 -28
105 -50 107 -50 2 0 4 11 4 25 0 22 -12 31 -92 70 l-92 45 92 42 c84 38 92 44
92 70 0 15 -3 28 -7 27 -5 0 -58 -25 -120 -55z"/>
<path d="M3090 6265 l0 -195 53 0 c115 0 162 57 162 200 0 68 -4 92 -20 120
-27 46 -76 70 -142 70 l-53 0 0 -195z m122 144 c29 -15 48 -70 48 -136 0 -114
-30 -163 -97 -163 l-33 0 0 155 0 155 31 0 c17 0 39 -5 51 -11z"/>
<path d="M3370 6265 l0 -195 89 0 c85 0 101 5 101 35 0 2 -33 5 -72 7 l-73 3
0 70 c0 49 4 70 13 71 6 1 35 2 62 3 43 1 50 4 50 21 0 18 -7 20 -65 20 l-65
0 0 60 0 60 70 0 c63 0 70 2 70 20 0 19 -7 20 -90 20 l-90 0 0 -195z"/>
<path d="M3590 6448 c0 -7 21 -95 46 -195 47 -180 48 -183 74 -183 27 0 28 2
74 183 25 101 46 188 46 195 0 7 -8 12 -18 12 -16 0 -25 -25 -57 -147 -39
-152 -54 -196 -55 -158 0 11 -11 67 -25 125 -44 179 -44 180 -65 180 -11 0
-20 -6 -20 -12z"/>
<path d="M3880 6265 l0 -195 89 0 c85 0 101 5 101 35 0 2 -33 5 -72 7 l-73 3
-3 66 -3 66 32 7 c17 3 47 6 65 6 27 0 34 4 34 20 0 11 -3 19 -7 19 -5 -1 -34
-1 -65 0 l-58 1 0 60 0 60 70 0 c63 0 70 2 70 20 0 19 -7 20 -90 20 l-90 0 0
-195z"/>
<path d="M4120 6265 l0 -196 87 3 c74 3 88 6 91 21 3 15 -5 17 -67 17 l-71 0
0 175 c0 168 -1 175 -20 175 -19 0 -20 -7 -20 -195z"/>
<path d="M4367 6440 c-35 -28 -49 -77 -49 -175 0 -137 33 -195 111 -195 44 0
75 20 98 63 25 46 25 218 0 268 -30 60 -109 79 -160 39z m100 -34 c28 -24 28
-26 28 -139 0 -100 -3 -118 -19 -136 -28 -31 -77 -25 -94 11 -34 72 -26 225
13 264 30 30 37 30 72 0z"/>
<path d="M4610 6266 l0 -197 23 3 c20 3 22 9 25 86 l3 82 40 0 c82 0 129 56
115 134 -11 57 -45 78 -131 84 l-75 5 0 -197z m138 138 c16 -11 22 -25 22 -54
0 -49 -21 -70 -71 -70 l-39 0 0 54 c0 30 -3 61 -6 70 -5 13 1 16 33 16 21 0
49 -7 61 -16z"/>
<path d="M4870 6266 c0 -188 1 -196 20 -196 18 0 20 8 22 156 l3 157 35 -154
c31 -137 37 -154 57 -157 25 -4 23 -10 63 173 17 76 33 141 35 144 3 2 5 -68
5 -157 0 -155 1 -162 20 -162 19 0 20 7 20 196 l0 195 -32 -3 -33 -3 -31 -120
c-17 -66 -34 -133 -39 -150 -6 -26 -11 -14 -32 83 -37 174 -42 186 -80 190
l-33 3 0 -195z"/>
<path d="M5230 6265 l0 -195 89 0 c80 0 89 2 94 20 5 19 0 20 -69 20 l-75 0 3
73 c2 55 6 72 18 73 8 1 36 2 63 2 40 2 47 5 47 22 0 18 -7 20 -65 20 l-65 0
0 60 0 60 70 0 c63 0 70 2 70 20 0 19 -7 20 -90 20 l-90 0 0 -195z"/>
<path d="M5470 6275 c0 -102 0 -188 0 -192 0 -5 8 -8 18 -8 15 0 18 15 22 142
l5 143 61 -143 c54 -129 63 -142 87 -145 l27 -3 0 191 c0 163 -2 191 -15 197
-9 3 -18 4 -20 2 -2 -2 -5 -68 -7 -146 -1 -78 -6 -139 -10 -135 -3 4 -21 43
-38 87 -66 167 -81 195 -106 195 l-24 0 0 -185z"/>
<path d="M5727 6453 c-20 -19 -5 -33 38 -33 l45 0 0 -176 0 -175 23 3 c22 3
22 5 25 176 l2 172 40 0 c33 0 40 3 40 20 0 19 -7 20 -103 20 -57 0 -107 -3
-110 -7z"/>
<path d="M1427 6399 c-37 -28 -50 -81 -46 -182 5 -110 24 -141 91 -145 54 -4
85 18 94 66 5 25 3 32 -9 32 -9 0 -22 -12 -29 -27 -27 -55 -68 -56 -95 -2 -15
29 -17 167 -3 203 5 15 21 31 35 38 21 9 28 8 45 -7 11 -10 20 -26 20 -37 0
-11 7 -18 20 -18 29 0 26 45 -5 75 -30 31 -82 33 -118 4z"/>
<path d="M1667 6409 c-44 -26 -68 -144 -48 -239 16 -72 42 -100 96 -100 71 0
105 56 105 175 0 80 -15 130 -47 155 -27 21 -77 26 -106 9z m73 -29 c50 -27
53 -230 5 -270 -24 -20 -61 -4 -76 32 -17 42 -17 175 1 208 21 40 38 47 70 30z"/>
<path d="M1880 6245 c0 -163 1 -176 18 -173 14 3 17 16 20 81 3 75 4 77 28 77
50 0 61 -14 68 -90 6 -62 10 -70 28 -70 20 0 21 4 15 71 -3 41 -12 78 -21 88
-13 14 -12 19 5 40 26 32 24 84 -5 117 -20 24 -32 28 -90 32 l-66 4 0 -177z
m130 116 c25 -48 -6 -101 -60 -101 l-30 0 0 60 0 60 40 0 c29 0 42 -5 50 -19z"/>
<path d="M2115 6408 c-3 -8 -4 -86 -3 -173 l3 -160 83 -3 c77 -3 82 -2 82 18
0 18 -6 20 -65 20 l-66 0 3 63 c2 40 7 62 16 63 6 1 32 2 57 3 32 1 45 5 45
16 0 10 -15 15 -57 17 l-58 3 -3 52 -3 52 63 3 c48 2 63 7 63 18 0 21 -153 28
-160 8z"/>
<path d="M6196 6355 c-71 -25 -80 -42 -86 -161 -3 -58 -3 -108 -1 -110 2 -2
109 -4 238 -4 l233 0 0 45 0 45 -95 0 -95 0 0 48 c0 107 -93 173 -194 137z
m108 -107 c9 -12 16 -35 16 -50 0 -28 0 -28 -70 -28 l-70 0 0 35 c0 23 5 35
14 35 7 0 19 7 26 15 19 23 66 19 84 -7z"/>
<path d="M11030 6220 l0 -110 -85 0 -84 0 -3 98 -3 97 -47 3 -48 3 0 -100 0
-101 -70 0 -70 0 0 59 c0 32 -3 79 -6 105 l-7 46 -43 0 -44 0 0 -165 0 -165
305 0 305 0 0 164 c0 161 0 164 -22 170 -13 3 -35 6 -50 6 l-28 0 0 -110z"/>
<path d="M2878 6208 l-3 -83 -81 -3 -82 -3 -7 81 c-6 69 -10 80 -26 80 -17 0
-19 -8 -19 -80 l0 -81 -72 3 -73 3 -3 78 c-3 69 -5 77 -22 77 -19 0 -20 -7
-20 -105 l0 -105 225 0 225 0 0 110 c0 103 -1 110 -20 110 -17 0 -19 -8 -22
-82z"/>
<path d="M4229 5906 c-102 -27 -171 -87 -218 -186 -23 -48 -26 -68 -26 -160 0
-92 3 -112 26 -160 45 -95 113 -151 295 -244 168 -85 214 -140 214 -251 0
-107 -54 -165 -155 -165 -90 0 -145 48 -171 150 l-11 45 -121 3 -120 3 5 -43
c8 -71 43 -166 77 -211 74 -98 183 -142 346 -141 272 2 405 129 402 384 -2
204 -75 299 -341 435 -162 84 -193 114 -199 192 -3 48 0 64 20 92 36 54 73 76
125 76 39 0 49 -5 78 -37 25 -27 36 -50 41 -86 6 -48 8 -50 43 -56 20 -3 74
-6 120 -6 l83 0 -4 63 c-9 140 -99 258 -225 297 -75 23 -210 26 -284 6z"/>
<path d="M8243 5902 c-147 -53 -228 -160 -276 -367 -18 -77 -21 -122 -20 -315
0 -166 4 -245 15 -300 56 -266 179 -375 418 -374 212 0 330 87 375 276 8 35
15 80 15 101 l0 37 -119 0 -118 0 -7 -42 c-17 -107 -72 -168 -151 -168 -84 0
-130 58 -160 198 -18 87 -21 430 -4 531 22 139 95 231 184 231 71 0 110 -42
130 -140 l12 -55 116 -3 117 -3 0 39 c0 100 -62 237 -132 293 -68 55 -123 72
-238 76 -84 3 -116 0 -157 -15z"/>
<path d="M60 5551 l0 -348 31 -7 c17 -3 47 -6 65 -6 l34 0 0 128 c0 123 1 129
24 151 20 19 32 22 59 17 54 -10 60 -26 68 -157 4 -66 9 -123 13 -126 10 -10
113 -16 118 -7 3 5 2 65 -2 134 -5 90 -12 136 -26 163 -18 39 -18 39 5 80 51
89 35 230 -32 281 -48 36 -99 46 -234 46 l-123 0 0 -349z m265 214 c19 -18 25
-35 25 -70 0 -67 -31 -95 -105 -95 l-55 0 0 72 c0 60 4 76 22 95 30 32 81 31
113 -2z"/>
<path d="M570 5551 l0 -348 31 -7 c17 -3 99 -6 181 -6 110 0 150 3 152 13 3 6
7 31 9 55 l5 42 -86 0 c-48 0 -104 3 -124 6 l-38 7 0 59 c0 62 18 111 45 122
9 3 52 6 95 6 88 0 89 1 82 73 l-4 47 -109 0 -109 0 0 45 c0 51 20 99 45 109
9 3 54 6 100 6 46 0 86 4 89 9 3 4 3 31 -1 60 l-6 51 -178 0 -179 0 0 -349z"/>
<path d="M990 5888 c0 -7 37 -165 82 -350 92 -377 77 -348 180 -348 55 0 57 1
67 33 21 65 149 593 154 635 l5 42 -64 0 c-58 0 -64 -2 -69 -22 -3 -13 -25
-117 -50 -233 -42 -197 -62 -279 -64 -263 -6 48 -88 429 -103 481 l-11 37 -64
0 c-44 0 -63 -4 -63 -12z"/>
<path d="M1540 5552 l0 -350 23 -6 c12 -3 41 -6 65 -6 l42 0 -2 353 -3 352
-62 3 -63 3 0 -349z"/>
<path d="M1790 5551 l0 -350 43 -6 c23 -3 105 -5 182 -3 l140 3 5 53 6 52 -86
0 c-47 0 -102 3 -122 6 l-38 7 0 69 c0 60 3 72 25 93 22 23 32 25 110 25 l85
0 0 60 0 60 -110 0 -110 0 0 55 c0 46 4 60 25 80 22 23 32 25 113 25 101 0
101 0 94 73 l-4 47 -179 0 -179 0 0 -349z"/>
<path d="M2210 5887 c0 -26 127 -677 134 -684 3 -4 32 -9 64 -11 l58 -4 11 38
c7 22 24 102 38 178 27 141 48 206 59 176 3 -8 21 -96 41 -194 19 -99 37 -182
40 -185 3 -2 32 -7 65 -9 l59 -4 10 38 c5 22 17 75 26 119 9 44 33 166 55 270
21 105 40 211 43 238 l5 47 -62 0 -62 0 -29 -187 c-15 -104 -33 -210 -40 -238
l-11 -50 -8 50 c-12 79 -64 340 -76 385 l-11 40 -54 0 c-30 0 -55 -2 -55 -3 0
-2 -21 -107 -46 -233 -41 -207 -54 -261 -54 -225 0 25 -51 368 -61 414 l-11
47 -64 0 c-45 0 -64 -4 -64 -13z"/>
<path d="M4990 5235 l0 -665 344 0 c343 0 345 0 351 21 9 28 22 178 16 184 -2
3 -109 5 -238 5 l-233 0 0 169 0 170 26 20 c25 20 40 21 216 21 l189 0 -3 103
-3 102 -210 5 -210 5 -3 134 c-4 191 -17 181 245 181 l203 0 0 105 0 105 -345
0 -345 0 0 -665z"/>
<path d="M6155 5888 c-2 -7 -29 -123 -60 -258 -31 -135 -96 -414 -145 -620
-48 -206 -91 -390 -95 -407 l-7 -33 121 0 c66 0 122 4 126 9 3 5 16 64 30 130
39 190 39 191 212 191 146 0 127 21 168 -187 l28 -143 129 0 c119 0 129 1 124
18 -3 9 -71 294 -150 632 -80 338 -149 629 -154 645 l-8 30 -157 3 c-121 2
-158 0 -162 -10z m221 -535 c24 -120 44 -224 44 -231 0 -11 -21 -13 -99 -10
-55 1 -102 6 -106 9 -7 7 70 398 87 442 7 18 14 25 20 19 6 -6 30 -108 54
-229z"/>
<path d="M6950 5235 l0 -666 123 3 122 3 5 262 c6 308 1 295 105 294 85 0 132
-22 159 -75 17 -34 21 -68 27 -245 3 -113 10 -214 14 -223 6 -16 22 -18 121
-18 l114 0 -6 193 c-8 279 -21 344 -89 425 -14 16 -25 33 -25 37 0 4 22 31 49
61 63 68 86 153 79 279 -10 147 -73 247 -192 302 l-61 28 -272 3 -273 3 0
-666z m475 449 c41 -19 61 -49 75 -108 20 -91 -11 -180 -77 -218 -34 -21 -154
-35 -197 -24 l-26 6 0 158 c0 202 0 202 112 202 52 0 91 -5 113 -16z"/>
<path d="M8970 5235 l0 -666 123 3 122 3 3 274 c2 238 5 277 19 293 14 16 34
18 154 18 l139 0 2 -292 3 -293 121 -3 121 -3 7 47 c8 61 8 1094 -1 1202 l-6
82 -123 0 c-68 0 -123 -3 -123 -7 1 -5 1 -122 0 -260 l-1 -253 -155 0 -155 0
0 214 c0 117 -3 234 -6 260 l-7 46 -118 0 -119 0 0 -665z"/>
<path d="M10212 5889 c-33 -10 -74 -61 -102 -129 -14 -33 -45 -46 -84 -36 -50
12 -46 90 5 108 23 8 29 16 27 32 -4 29 -46 24 -75 -10 -27 -30 -31 -99 -8
-144 21 -40 72 -56 118 -37 27 12 41 29 67 81 41 82 49 88 96 84 71 -6 86 -90
24 -126 -38 -22 -44 -67 -7 -57 44 14 66 36 77 76 18 66 -8 141 -53 154 -43
13 -52 13 -85 4z"/>
<path d="M10522 5803 l3 -88 125 -26 c69 -15 157 -33 195 -41 l70 -14 -170
-32 c-93 -18 -182 -35 -197 -38 -28 -6 -28 -6 -28 -89 l0 -83 63 -7 c34 -3
170 -5 302 -3 l240 3 3 53 3 52 -143 1 c-79 1 -156 4 -173 8 -29 7 -28 7 20
18 28 7 82 17 120 23 39 6 94 16 123 21 l52 10 0 54 0 53 -72 15 c-40 9 -122
26 -181 38 -69 14 -104 25 -95 30 7 5 89 9 181 9 l168 0 -3 58 -3 57 -303 3
-303 2 3 -87z"/>
<path d="M3533 5859 c-50 -14 -97 -69 -142 -163 -45 -96 -73 -126 -113 -126
-31 0 -68 31 -68 56 0 9 20 37 45 62 43 43 45 47 45 105 l0 60 -42 -6 c-107
-14 -171 -136 -138 -265 25 -102 89 -147 197 -140 83 5 107 24 165 132 52 99
70 122 111 143 51 26 97 -6 97 -68 0 -45 -30 -84 -74 -95 -25 -6 -26 -10 -26
-70 0 -35 4 -64 9 -64 39 0 119 24 137 41 48 45 68 172 43 264 -30 110 -134
166 -246 134z"/>
<path d="M10310 5545 l0 -75 -175 0 -175 0 0 -24 c0 -21 5 -24 61 -30 34 -3
122 -6 195 -6 l134 0 0 105 c0 98 -1 105 -20 105 -18 0 -20 -7 -20 -75z"/>
<path d="M10090 5340 c-98 -12 -130 -43 -130 -126 0 -45 4 -57 30 -82 70 -71
277 -68 341 4 41 46 30 137 -20 173 -40 29 -135 42 -221 31z m169 -59 c36 -10
65 -54 57 -86 -10 -38 -64 -58 -161 -59 -90 0 -131 14 -154 56 -14 25 -14 29
5 55 26 35 49 41 149 41 44 0 91 -3 104 -7z"/>
<path d="M3127 5333 c-4 -3 -7 -32 -7 -64 l0 -58 43 -6 c23 -3 170 -5 327 -3
l285 3 0 65 0 65 -321 3 c-176 1 -323 -1 -327 -5z"/>
<path d="M10615 5296 c-37 -16 -70 -52 -84 -89 -6 -16 -11 -82 -11 -147 l0
-119 53 -6 c28 -3 165 -5 302 -3 l250 3 3 57 3 57 -123 3 -123 3 -6 71 c-6 89
-30 132 -89 162 -51 25 -128 29 -175 8z m150 -131 c19 -18 25 -35 25 -70 l0
-46 -87 3 -88 3 -2 30 c-3 32 15 58 57 88 34 24 67 21 95 -8z"/>
<path d="M3545 5109 c-57 -14 -100 -61 -156 -171 -50 -99 -68 -118 -113 -118
-29 0 -66 31 -66 55 0 9 20 36 45 61 43 43 45 47 45 104 0 56 -2 60 -22 60
-36 -1 -102 -35 -126 -64 -33 -43 -48 -127 -34 -195 13 -63 34 -96 81 -128 64
-43 160 -38 220 12 16 14 50 66 76 116 32 63 56 96 78 110 66 40 117 15 117
-58 0 -45 -26 -77 -72 -88 -27 -7 -28 -10 -28 -72 l0 -66 53 7 c95 12 137 65
145 180 5 80 -8 138 -40 186 -40 58 -125 87 -203 69z"/>
<path d="M10023 5001 c-50 -23 -63 -45 -63 -108 0 -86 46 -122 169 -130 131
-9 213 30 226 106 10 59 -15 107 -67 131 -60 27 -206 27 -265 1z m242 -45 c64
-27 71 -92 12 -123 -46 -24 -203 -25 -240 0 -59 39 -57 95 6 122 42 19 178 19
222 1z"/>
<path d="M1330 4785 l0 -205 39 0 38 0 6 65 c6 64 22 95 49 95 35 0 93 24 114
47 32 34 33 108 3 147 -35 44 -70 56 -164 56 l-85 0 0 -205z m168 123 c15 -13
16 -70 0 -86 -7 -7 -29 -12 -49 -12 -31 0 -37 3 -34 18 2 10 5 33 6 52 2 19 8
38 14 42 11 8 43 1 63 -14z"/>
<path d="M1660 4785 l0 -205 40 0 40 0 0 48 c0 53 27 115 51 120 30 6 49 -26
49 -83 0 -76 5 -85 52 -85 l41 0 -6 80 c-3 45 -12 91 -20 103 -13 20 -13 25 4
46 24 29 25 98 3 130 -26 36 -74 51 -169 51 l-85 0 0 -205z m154 135 c30 -11
42 -49 26 -79 -8 -16 -20 -21 -54 -21 -43 0 -44 1 -40 28 3 15 6 36 7 47 3 34
20 41 61 25z"/>
<path d="M2058 4975 c-45 -25 -68 -88 -68 -191 0 -109 24 -169 80 -196 70 -35
157 -13 193 50 27 47 34 172 13 244 -23 79 -59 108 -134 108 -31 -1 -69 -7
-84 -15z m117 -65 c25 -27 33 -167 13 -225 -12 -36 -16 -40 -48 -40 -51 0 -62
27 -58 154 3 88 6 105 23 117 26 19 49 17 70 -6z"/>
<path d="M2360 4785 l0 -207 104 4 c100 3 106 4 135 32 44 42 49 85 19 145
-22 41 -23 50 -12 66 24 33 17 91 -15 127 -29 33 -31 33 -130 36 l-101 4 0
-207z m158 129 c24 -17 29 -53 10 -72 -7 -7 -29 -12 -50 -12 -35 0 -38 2 -38
29 0 17 5 33 10 36 8 5 7 11 -1 21 -9 11 -6 14 18 14 16 0 39 -7 51 -16z m16
-170 c9 -8 16 -27 16 -41 0 -39 -27 -63 -72 -63 -37 0 -38 1 -38 35 0 54 19
85 51 85 15 0 35 -7 43 -16z"/>
<path d="M2700 4785 l0 -205 120 0 120 0 0 30 c0 29 -2 30 -42 30 -24 0 -60 3
-80 6 -33 6 -38 10 -38 34 0 15 9 39 21 54 18 22 28 26 75 26 l55 0 -3 33 -3
32 -72 3 c-78 3 -86 10 -62 54 9 16 8 23 -2 29 -9 5 17 9 64 9 l77 0 0 35 0
35 -115 0 -115 0 0 -205z"/>
<path d="M750 4930 c0 -18 8 -20 161 -22 l161 -3 -158 -65 c-147 -60 -159 -67
-162 -93 l-3 -27 205 0 c199 0 206 1 206 20 0 19 -7 20 -167 21 l-168 0 110
43 c61 23 131 50 156 59 65 24 80 38 73 65 -6 22 -7 22 -210 22 -196 0 -204
-1 -204 -20z"/>
<path d="M10681 4835 c-117 -26 -171 -86 -171 -189 0 -137 86 -202 282 -213
105 -6 195 6 266 37 33 15 47 29 62 62 36 78 21 189 -32 245 -56 60 -268 90
-407 58z m258 -119 c76 -7 103 -28 99 -73 -4 -53 -38 -73 -142 -86 -145 -18
-286 13 -286 62 0 22 34 67 63 83 24 13 134 26 182 21 17 -1 54 -4 84 -7z"/>
<path d="M9960 4625 c0 -118 1 -125 20 -125 17 0 20 7 20 50 l0 50 175 0 175
0 0 25 0 25 -175 0 -175 0 0 50 c0 43 -3 50 -20 50 -19 0 -20 -7 -20 -125z"/>
<path d="M813 4631 c-49 -23 -63 -45 -63 -99 0 -54 29 -88 92 -107 108 -32
266 -11 307 42 47 59 12 147 -67 171 -64 19 -220 15 -269 -7z m277 -49 c64
-31 49 -90 -28 -112 -41 -11 -153 -13 -200 -4 -65 13 -93 72 -52 109 38 34
213 38 280 7z"/>
<path d="M3120 4585 l0 -64 43 -19 c23 -10 83 -34 132 -52 50 -18 94 -36 98
-40 4 -4 -54 -31 -130 -61 l-138 -54 -3 -74 c-3 -67 -1 -73 15 -66 10 4 38 13
63 20 25 7 113 43 195 81 l150 69 115 5 115 5 0 65 0 65 -130 5 -130 5 -189
88 c-104 48 -193 87 -197 87 -5 0 -9 -29 -9 -65z"/>
<path d="M11035 4412 c-3 -3 -5 -52 -5 -109 l0 -103 -255 0 -255 0 0 -54 c0
-52 1 -54 31 -60 17 -3 155 -6 305 -6 l274 0 -2 163 -3 162 -43 6 c-23 3 -44
3 -47 1z"/>
<path d="M4590 4245 c0 -108 1 -115 20 -115 17 0 20 7 20 45 0 43 1 45 30 45
64 0 91 70 45 115 -18 19 -35 25 -70 25 l-45 0 0 -115z m85 45 c0 -18 -6 -26
-22 -28 -20 -3 -23 1 -23 28 0 27 3 31 23 28 16 -2 22 -10 22 -28z"/>
<path d="M4776 4348 c-18 -55 -27 -92 -40 -150 l-14 -68 24 0 c16 0 24 7 26
23 2 15 11 23 29 25 21 2 28 -2 33 -22 5 -19 13 -26 31 -26 21 0 24 4 20 23
-3 12 -16 63 -29 112 -21 84 -24 90 -49 93 -16 2 -29 -2 -31 -10z m37 -85 c4
-33 2 -43 -9 -43 -15 0 -17 12 -8 59 8 39 10 37 17 -16z"/>
<path d="M4931 4341 c-24 -24 -35 -78 -28 -139 7 -61 32 -82 95 -78 l47 2 3
68 3 67 -37 -3 c-42 -3 -58 -26 -25 -35 32 -8 24 -63 -9 -63 -23 0 -30 19 -30
90 0 72 21 98 50 62 20 -24 50 -30 50 -9 0 7 -7 23 -16 35 -20 29 -76 30 -103
3z"/>
<path d="M5090 4245 l0 -115 28 -2 c50 -3 86 2 94 15 5 8 -5 13 -35 17 -39 5
-42 7 -45 38 -3 31 -3 32 38 32 34 0 41 3 38 18 -2 12 -14 18 -41 20 -32 3
-37 7 -37 28 0 21 4 24 40 24 33 0 40 3 40 20 0 18 -7 20 -60 20 l-60 0 0
-115z"/>
<path d="M5493 4335 c-31 -19 -49 -41 -70 -83 -27 -55 -28 -63 -28 -207 0
-170 10 -217 58 -272 40 -45 82 -63 148 -63 163 0 215 88 207 350 -4 133 -22
196 -71 249 -53 57 -171 70 -244 26z m152 -92 c26 -26 36 -62 42 -153 10 -148
-21 -269 -71 -278 -73 -15 -101 45 -101 218 0 136 9 168 61 209 32 25 47 26
69 4z"/>
<path d="M9498 4340 c-41 -22 -80 -81 -98 -148 -15 -59 -13 -256 3 -319 29
-108 95 -163 196 -163 122 0 167 36 196 157 25 104 18 297 -14 368 -41 93 -90
125 -188 125 -38 -1 -71 -8 -95 -20z m151 -104 c50 -53 52 -330 4 -395 -36
-48 -91 -41 -118 16 -23 48 -32 230 -15 292 12 46 66 111 92 111 8 0 25 -11
37 -24z"/>
<path d="M757 4343 c-4 -3 -7 -15 -7 -25 0 -17 13 -18 211 -18 188 0 210 2
205 16 -3 9 -6 20 -6 25 0 10 -393 13 -403 2z"/>
<path d="M5903 4038 l2 -313 60 0 60 0 5 108 c6 125 9 130 91 141 88 12 129
34 150 80 44 98 13 228 -67 273 -35 20 -53 23 -171 23 l-131 0 1 -312z m257
171 c17 -39 6 -100 -21 -121 -13 -11 -38 -18 -65 -18 l-44 0 0 73 c0 75 10 96
50 109 27 9 68 -13 80 -43z"/>
<path d="M6332 4303 l3 -48 60 -3 c33 -2 63 -9 67 -15 4 -7 8 -126 8 -264 l0
-253 60 0 60 0 0 239 c0 226 1 240 21 265 16 21 29 26 64 26 52 0 59 8 50 60
l-7 40 -194 0 -195 0 3 -47z"/>
<path d="M6792 4038 l3 -313 56 -3 c52 -3 57 -1 63 20 8 31 8 468 0 547 l-7
61 -59 0 -58 0 2 -312z"/>
<path d="M7032 4038 l3 -313 51 -3 c65 -4 63 -8 65 208 1 191 6 186 47 -50
l27 -155 52 -3 c63 -4 64 -3 88 133 29 165 46 235 56 230 5 -4 9 -86 9 -186
l0 -180 58 3 57 3 3 240 c2 132 0 273 -3 313 l-7 72 -83 0 -83 0 -11 -47 c-6
-27 -22 -104 -36 -173 -31 -150 -36 -172 -41 -168 -2 2 -15 71 -29 153 -14 83
-31 169 -37 193 l-10 42 -89 0 -89 0 2 -312z"/>
<path d="M7660 4035 l0 -315 60 0 60 0 0 315 0 315 -60 0 -60 0 0 -315z"/>
<path d="M7870 4305 c0 -25 1 -46 3 -46 1 -1 53 -4 115 -8 l112 -6 -125 -227
c-101 -183 -126 -234 -123 -260 l3 -33 190 0 190 0 5 47 6 47 -111 3 c-100 3
-110 5 -107 21 2 10 45 94 97 188 108 195 119 224 110 279 l-7 40 -179 0 -179
0 0 -45z"/>
<path d="M8435 4338 c-2 -7 -34 -139 -70 -293 -36 -154 -69 -290 -72 -302 -5
-22 -2 -23 55 -23 58 0 60 1 71 31 6 18 11 40 11 49 0 9 11 29 25 44 20 22 32
26 79 26 l55 0 11 -57 c19 -98 15 -93 81 -93 44 0 59 4 59 14 0 8 -20 99 -45
203 -25 103 -53 217 -61 253 -9 36 -22 86 -31 113 l-15 47 -74 0 c-51 0 -76
-4 -79 -12z m92 -356 c-22 -2 -44 1 -49 6 -11 11 9 106 30 147 l16 30 21 -90
21 -90 -39 -3z"/>
<path d="M8702 4303 c2 -29 8 -48 16 -49 6 -1 37 -2 67 -3 l55 -1 2 -262 3
-263 56 -3 c52 -3 57 -1 63 20 3 13 6 123 6 246 0 209 1 223 20 242 14 14 33
20 65 20 l45 0 0 50 0 50 -201 0 -200 0 3 -47z"/>
<path d="M9170 4035 l0 -315 60 0 60 0 0 315 0 315 -60 0 -60 0 0 -315z"/>
<path d="M9902 4038 l3 -313 51 -3 52 -3 4 163 c2 91 8 171 14 181 12 21 27
-10 107 -223 l43 -115 67 -3 67 -3 0 278 c0 153 -3 295 -6 316 -7 37 -7 37
-55 37 l-49 0 -2 -202 -3 -203 -19 50 c-10 28 -45 119 -78 203 l-59 152 -70 0
-69 0 2 -312z"/>
<path d="M3940 4189 l0 -150 38 3 c33 3 37 6 40 32 7 59 28 65 220 66 l172 0
0 45 0 45 -182 0 c-101 0 -189 4 -197 9 -7 5 -16 29 -18 55 -5 45 -7 46 -39
46 l-34 0 0 -151z"/>
<path d="M980 4213 c-17 -16 -43 -50 -58 -78 -24 -45 -31 -50 -65 -53 -47 -4
-67 11 -67 50 0 22 7 33 30 46 16 9 30 25 30 35 0 26 -43 21 -74 -9 -60 -60
-16 -174 68 -174 51 0 80 17 107 62 49 81 68 98 109 98 48 0 72 -22 68 -64 -2
-22 -12 -36 -35 -51 -18 -11 -32 -28 -33 -39 0 -16 5 -17 32 -12 45 9 68 35
75 84 11 82 -34 132 -116 132 -30 0 -49 -7 -71 -27z"/>
<path d="M3678 4118 l-3 -123 -277 -3 -278 -2 0 -64 0 -63 68 -6 c85 -9 540
-9 570 -1 22 6 22 8 22 185 0 135 -3 181 -12 184 -7 2 -30 6 -50 10 l-37 6 -3
-123z"/>
<path d="M4617 4000 c-42 -49 -47 -171 -11 -242 9 -18 28 -31 53 -39 81 -24
131 35 131 154 0 75 -18 130 -48 146 -12 6 -39 11 -60 11 -32 0 -45 -6 -65
-30z m100 -40 c20 -39 17 -153 -5 -180 -22 -27 -49 -18 -59 19 -11 41 -8 144
6 169 15 29 41 25 58 -8z"/>
<path d="M4834 4017 c-2 -7 -3 -76 -2 -152 l3 -140 27 -3 c26 -3 26 -1 33 62
l7 66 44 0 c40 0 44 2 44 25 0 22 -5 25 -32 25 -44 0 -54 9 -60 48 l-5 32 54
0 c50 0 53 1 53 25 0 25 -1 25 -80 25 -57 0 -82 -4 -86 -13z"/>
<path d="M5034 4017 c-2 -7 -3 -76 -2 -152 l3 -140 26 -3 c26 -3 27 -1 34 62
l7 66 44 0 c40 0 44 2 44 25 0 21 -5 25 -32 26 -50 1 -63 10 -63 47 l0 32 52
0 c50 0 53 2 53 25 0 25 -1 25 -80 25 -57 0 -82 -4 -86 -13z"/>
<path d="M11035 4012 c-3 -3 -5 -54 -5 -114 l0 -108 -85 0 -85 0 0 100 0 100
-50 0 -50 0 0 -100 0 -100 -70 0 -70 0 0 59 c0 32 -3 79 -6 105 l-7 46 -43 0
-44 0 0 -159 0 -158 31 -7 c17 -3 155 -6 305 -6 l274 0 -2 168 -3 167 -43 6
c-23 3 -44 3 -47 1z"/>
<path d="M4330 3925 l0 -85 -65 0 -65 0 0 75 0 75 -35 0 -35 0 0 -75 0 -75
-55 0 -55 0 0 34 c0 18 -3 54 -6 80 -6 44 -8 46 -40 46 l-34 0 0 -124 0 -125
128 -3 c70 -2 175 -2 235 0 l107 3 0 123 c0 120 -1 124 -22 130 -56 15 -58 13
-58 -79z"/>
<path d="M803 3955 c-17 -7 -36 -22 -42 -34 -16 -28 -14 -93 4 -117 34 -49
122 -55 162 -11 11 12 32 44 47 70 30 52 63 71 108 62 66 -15 61 -125 -5 -125
-11 0 -17 -8 -17 -25 0 -29 10 -31 55 -9 41 19 59 61 52 117 -8 60 -42 87
-111 87 -60 0 -91 -21 -121 -81 -37 -72 -77 -95 -126 -69 -37 20 -16 100 27
100 8 0 14 10 14 25 0 29 -3 29 -47 10z"/>
<path d="M3735 3789 c-16 -5 -151 -41 -300 -79 -148 -39 -280 -73 -292 -76
-22 -6 -23 -12 -23 -89 l0 -83 48 -16 c26 -8 137 -38 247 -66 110 -28 233 -60
274 -71 41 -10 78 -19 83 -19 13 0 9 115 -4 128 -7 7 -19 12 -28 12 -9 0 -40
7 -68 15 l-52 16 0 60 c0 73 19 95 102 119 l53 16 3 63 c2 35 -1 67 -5 71 -4
4 -21 3 -38 -1z m-227 -257 l3 -53 -28 7 c-66 15 -110 26 -142 36 l-33 10 28
14 c37 17 135 43 154 41 11 -2 16 -17 18 -55z"/>
<path d="M4320 3683 c-41 -20 -103 -48 -137 -64 l-61 -27 -85 59 c-47 32 -88
59 -91 59 -3 0 -6 -21 -6 -48 l0 -47 97 -60 96 -60 -96 -3 -97 -3 0 -44 0 -45
235 0 235 0 0 45 0 45 -80 0 c-63 0 -82 3 -86 15 -9 24 13 43 93 80 l73 34 0
50 c0 28 -3 51 -7 50 -5 0 -42 -17 -83 -36z"/>
<path d="M750 3670 c0 -19 7 -20 208 -20 201 0 208 1 208 20 0 19 -7 20 -208
20 -201 0 -208 -1 -208 -20z"/>
<path d="M10520 3562 l0 -59 38 -11 c20 -6 114 -27 207 -48 94 -20 176 -40
183 -43 7 -4 -86 -29 -207 -56 l-221 -49 0 -61 0 -62 73 13 c39 7 175 40 301
74 126 33 231 60 233 60 2 0 3 32 1 72 l-3 71 -275 72 c-151 40 -287 75 -302
79 l-28 6 0 -58z"/>
<path d="M757 3564 c-4 -4 -7 -20 -7 -35 0 -25 6 -29 53 -43 28 -9 98 -26 155
-38 56 -13 102 -25 102 -28 0 -3 -66 -20 -148 -38 -81 -19 -150 -36 -154 -39
-5 -2 -8 -17 -8 -32 0 -25 5 -29 38 -35 48 -8 143 -8 274 0 96 6 105 9 101 25
-5 18 -19 19 -172 20 l-166 1 162 33 c172 35 183 39 183 60 0 21 -13 26 -175
66 l-150 38 160 3 c152 3 160 4 160 23 0 19 -8 20 -201 23 -110 1 -203 -1
-207 -4z"/>
<path d="M6922 3550 c-20 -13 -42 -39 -55 -68 -19 -41 -22 -64 -22 -182 0
-121 2 -139 23 -177 29 -56 63 -77 122 -77 75 0 126 44 132 114 3 31 0 35 -21
35 -18 0 -27 -8 -34 -30 -16 -49 -37 -66 -76 -63 -27 2 -41 11 -57 36 -41 60
-45 253 -7 331 34 68 116 65 136 -6 10 -34 54 -53 64 -27 9 23 -17 83 -48 109
-39 32 -109 34 -157 5z"/>
<path d="M7296 3561 c-5 -8 -126 -494 -126 -506 0 -3 13 -5 28 -5 28 0 29 3
47 80 l18 80 68 0 67 0 19 -77 c18 -76 20 -78 51 -81 18 -2 32 0 32 3 0 17
-122 480 -131 496 -10 20 -63 27 -73 10z m65 -192 l26 -99 -55 0 c-51 0 -54 1
-49 23 3 12 14 59 23 104 10 45 21 79 24 77 3 -3 17 -50 31 -105z"/>
<path d="M7555 3557 c-3 -7 -4 -123 -3 -257 l3 -245 118 -3 c69 -1 117 1 117
7 0 5 3 16 6 25 5 13 -3 16 -52 16 -33 0 -75 3 -94 6 l-35 6 3 126 c2 70 1
173 -3 230 -7 100 -7 102 -31 102 -14 0 -27 -6 -29 -13z"/>
<path d="M7897 3550 c-15 -12 -38 -41 -50 -63 -20 -38 -22 -57 -22 -182 0
-155 12 -198 67 -239 36 -26 115 -27 153 -2 30 19 70 99 61 122 -12 30 -45 15
-65 -31 -14 -31 -27 -46 -45 -51 -74 -18 -106 31 -114 171 -8 155 25 245 90
245 32 0 65 -28 74 -64 6 -27 52 -43 61 -20 8 21 -15 79 -42 104 -37 35 -129
40 -168 10z"/>
<path d="M8180 3360 c0 -231 6 -264 56 -297 37 -24 130 -24 167 0 52 34 61 68
65 241 2 88 1 184 -3 213 -6 48 -9 53 -31 53 l-24 0 0 -195 c0 -248 -9 -277
-87 -277 -23 0 -43 8 -57 21 -20 20 -21 34 -26 234 l-5 212 -27 3 -28 3 0
-211z"/>
<path d="M8565 3557 c-3 -7 -4 -123 -3 -257 l3 -245 116 -3 117 -3 4 26 c5 24
4 25 -51 25 -31 0 -73 3 -93 6 l-38 7 0 228 0 229 -25 0 c-14 0 -28 -6 -30
-13z"/>
<path d="M8965 3558 c-6 -17 -125 -496 -125 -503 0 -3 13 -5 29 -5 28 0 30 3
48 78 l19 77 66 3 67 3 11 -43 c6 -24 16 -60 21 -80 9 -33 14 -38 39 -38 17 0
30 2 30 5 0 9 -99 404 -116 463 -15 50 -17 52 -50 52 -19 0 -37 -6 -39 -12z
m66 -183 l27 -105 -55 0 c-52 0 -55 1 -49 23 3 12 13 59 23 105 9 45 20 82 23
82 3 0 17 -47 31 -105z"/>
<path d="M9140 3546 c0 -28 16 -36 71 -36 l39 0 2 -227 3 -228 28 -3 27 -3 2
210 c1 116 2 219 2 229 1 13 13 18 56 22 51 5 55 7 55 30 l0 25 -142 3 -143 3
0 -25z"/>
<path d="M9487 3564 c-4 -4 -7 -121 -7 -261 l0 -253 30 0 30 0 -2 258 c-3 250
-4 257 -23 260 -12 2 -24 0 -28 -4z"/>
<path d="M9704 3551 c-64 -39 -96 -177 -76 -323 18 -126 62 -181 144 -181 63
0 102 24 129 80 22 43 24 61 24 183 0 119 -3 140 -22 180 -13 25 -36 53 -52
63 -38 23 -108 22 -147 -2z m123 -53 c29 -32 43 -90 43 -180 0 -155 -30 -222
-98 -216 -33 3 -40 8 -59 48 -20 38 -23 60 -23 155 0 117 9 166 36 196 24 26
75 25 101 -3z"/>
<path d="M10015 3557 c-3 -7 -4 -123 -3 -257 l3 -245 27 -3 28 -3 2 200 3 201
82 -198 82 -197 36 -3 35 -3 -2 258 -3 258 -25 0 -25 0 -5 -195 -5 -195 -64
160 c-92 229 -95 235 -132 235 -16 0 -32 -6 -34 -13z"/>
<path d="M6160 3390 l0 -170 45 0 c45 0 45 0 45 36 0 25 7 41 23 55 20 16 41
18 209 19 102 0 193 3 202 6 12 4 16 20 16 55 l0 49 -225 0 -225 0 0 44 c0 66
-6 76 -51 76 l-39 0 0 -170z"/>
<path d="M4570 3365 c0 -178 1 -185 20 -185 18 0 20 7 20 85 l0 85 39 0 c51 0
65 -19 71 -99 4 -57 8 -66 25 -69 20 -3 20 1 17 70 -2 41 -10 83 -19 96 -13
21 -13 26 0 40 24 27 29 60 17 97 -17 51 -43 65 -122 65 l-68 0 0 -185z m138
133 c15 -13 16 -62 2 -89 -8 -14 -21 -19 -55 -19 l-45 0 0 58 c0 32 2 61 5 63
7 8 79 -3 93 -13z"/>
<path d="M4829 3498 c-1 -29 -1 -111 0 -183 l1 -130 82 -3 c57 -2 84 1 89 10
14 22 -1 28 -67 28 l-64 0 0 70 0 70 60 0 c44 0 60 4 60 14 0 9 -19 16 -60 20
l-60 7 0 54 0 55 65 0 c58 0 65 2 65 20 0 18 -7 20 -85 20 l-85 0 -1 -52z"/>
<path d="M5050 3364 l0 -185 23 3 c20 3 22 9 25 79 l3 77 51 4 c68 7 98 39 98
104 0 37 -6 51 -29 75 -27 27 -35 29 -100 29 l-71 0 0 -186z m145 123 c35 -50
6 -107 -55 -107 l-38 0 -4 66 c-1 36 -2 67 -1 68 1 1 20 0 43 -2 27 -3 45 -11
55 -25z"/>
<path d="M5335 3526 c-34 -34 -48 -98 -42 -187 8 -119 37 -159 115 -159 72 0
102 55 102 190 0 96 -8 128 -40 160 -30 30 -103 28 -135 -4z m95 -16 c54 -29
53 -261 -1 -290 -28 -16 -57 -3 -75 32 -24 45 -17 218 10 247 21 23 38 26 66
11z"/>
<path d="M5572 3368 c3 -181 3 -183 26 -186 21 -3 22 -1 22 82 l0 86 34 0 c49
0 66 -21 66 -85 0 -67 7 -85 32 -85 19 0 20 5 16 75 -4 54 -10 81 -24 96 -12
13 -15 23 -8 27 42 27 45 103 5 143 -27 27 -35 29 -100 29 l-71 0 2 -182z
m141 120 c37 -44 8 -98 -54 -98 l-39 0 0 64 0 65 38 -6 c20 -3 45 -14 55 -25z"/>
<path d="M5800 3530 c0 -17 7 -20 40 -20 l40 0 0 -165 c0 -158 1 -165 20 -165
19 0 20 7 22 140 1 77 2 150 2 163 1 18 8 23 41 27 27 3 41 10 43 23 3 15 -7
17 -102 17 -99 0 -106 -1 -106 -20z"/>
<path d="M4015 3326 c-61 -27 -70 -47 -73 -166 l-4 -108 74 -7 c40 -3 145 -5
233 -3 l160 3 0 45 0 45 -97 3 c-86 2 -98 5 -98 20 0 10 14 31 31 48 26 25 40
30 97 34 l67 5 3 43 3 44 -95 -4 c-82 -3 -98 -6 -119 -26 -22 -21 -25 -21 -38
-6 -16 20 -70 44 -96 44 -10 -1 -31 -7 -48 -14z m109 -108 c9 -12 16 -35 16
-50 0 -28 -1 -28 -65 -28 -64 0 -65 0 -64 28 0 28 17 77 18 54 1 -10 6 -10 23
2 31 22 54 20 72 -6z"/>
<path d="M992 3206 c-18 -9 -35 -22 -38 -30 -5 -14 -10 -13 -31 4 -37 29 -104
27 -140 -4 -25 -21 -28 -32 -31 -99 l-4 -74 43 -4 c24 -3 118 -4 209 -4 l165
1 3 56 c5 96 -33 153 -109 164 -19 2 -49 -2 -67 -10z m108 -54 c15 -12 24 -33
27 -65 l6 -48 -84 3 -84 3 2 45 c2 32 8 50 24 63 27 22 81 22 109 -1z m-202
-8 c17 -12 22 -25 22 -60 l0 -44 -65 0 -65 0 0 40 c0 68 55 101 108 64z"/>
<path d="M3120 3166 c0 -47 3 -54 23 -60 12 -3 103 -6 202 -6 143 -1 176 -3
160 -12 -11 -7 -101 -46 -200 -88 l-180 -76 -3 -71 c-3 -66 -1 -71 20 -77 13
-3 161 -6 331 -6 l307 0 0 60 0 60 -167 1 c-93 1 -179 4 -193 8 -23 7 -21 9
30 33 30 14 104 45 164 68 61 23 123 50 138 61 26 19 28 25 28 90 l0 69 -330
0 -330 0 0 -54z"/>
<path d="M6160 3125 c0 -25 1 -46 3 -47 1 0 74 -4 162 -7 l160 -6 -162 -65
-163 -65 0 -57 0 -58 270 0 270 0 0 45 0 45 -127 0 c-212 0 -218 16 -31 78
163 55 160 52 156 120 l-3 57 -267 3 -268 2 0 -45z"/>
<path d="M11030 3025 l0 -115 -72 0 c-40 0 -78 4 -85 8 -8 5 -13 42 -15 102
l-3 95 -47 3 -48 3 0 -105 0 -106 -54 0 c-82 0 -86 3 -86 70 0 31 -3 78 -6
104 l-7 46 -43 0 -44 0 0 -165 0 -165 305 0 305 0 0 160 c0 120 -3 162 -12
165 -7 2 -30 6 -50 10 l-38 6 0 -116z"/>
<path d="M4168 2951 l-228 -56 0 -57 0 -57 43 -12 c93 -25 400 -99 413 -99 18
0 20 79 2 84 -7 3 -33 10 -58 18 -43 13 -45 15 -42 48 3 43 25 67 74 82 37 11
38 12 38 60 0 26 -3 47 -7 47 -5 -1 -110 -27 -235 -58z m45 -113 c2 -18 3 -35
2 -36 -2 -2 -30 2 -62 9 -32 6 -52 14 -45 16 6 3 10 9 7 13 -4 7 37 21 86 29
4 1 9 -14 12 -31z"/>
<path d="M752 2898 c3 -23 6 -23 174 -28 124 -4 176 -9 188 -19 20 -17 21 -60
2 -87 -13 -17 -30 -19 -191 -22 -175 -3 -176 -3 -173 -25 3 -22 6 -22 174 -22
184 0 212 6 233 52 14 31 14 85 0 117 -22 47 -61 56 -244 56 l-166 0 3 -22z"/>
<path d="M10020 2819 c-87 -17 -120 -60 -120 -155 0 -56 2 -62 23 -68 32 -8
385 -7 390 2 3 4 2 40 -2 81 -6 68 -10 76 -40 102 -23 18 -53 31 -95 38 -71
12 -93 12 -156 0z m209 -64 c33 -16 41 -33 41 -81 l0 -34 -165 0 -165 0 0 40
c0 46 24 76 67 86 16 3 33 8 38 10 22 8 157 -7 184 -21z"/>
<path d="M6610 2661 l0 -101 -75 0 -75 0 0 91 0 90 -42 -3 -43 -3 -3 -87 -3
-88 -59 0 -59 0 -3 93 -3 92 -42 3 -43 3 0 -145 0 -144 83 -7 c45 -3 165 -5
267 -3 l185 3 3 148 c2 121 0 147 -11 147 -8 0 -29 3 -46 6 l-31 7 0 -102z"/>
<path d="M3739 2706 c-2 -2 -112 -32 -244 -66 -132 -34 -269 -70 -305 -79
l-65 -17 -3 -85 -3 -85 43 -12 c128 -36 587 -152 602 -152 14 0 17 9 14 63
l-3 62 -77 19 -78 18 0 61 c0 76 20 100 102 123 l58 17 0 68 c0 60 -2 69 -18
69 -10 0 -21 -2 -23 -4z m-231 -258 c2 -30 -1 -48 -8 -48 -19 0 -154 32 -169
40 -28 15 92 61 149 57 22 -2 25 -7 28 -49z"/>
<path d="M10680 2697 c-71 -20 -116 -53 -139 -101 -18 -35 -21 -61 -21 -158
l0 -116 73 -7 c39 -3 176 -5 302 -3 l230 3 3 98 c1 53 -2 115 -8 138 -15 55
-71 114 -128 134 -62 23 -250 30 -312 12z m293 -131 c45 -18 58 -38 60 -88 l2
-43 -170 -3 c-180 -3 -255 3 -255 20 0 24 35 80 63 100 17 12 46 25 66 29 50
11 195 2 234 -15z"/>
<path d="M11300 2496 l0 -163 48 -6 c73 -9 126 4 130 31 3 21 0 22 -57 22
l-61 0 0 44 0 45 53 3 c48 3 52 5 52 28 0 23 -4 25 -52 28 l-53 3 0 35 c0 32
2 34 33 34 56 0 77 10 77 36 0 23 -2 24 -85 24 l-85 0 0 -164z"/>
<path d="M11520 2495 l0 -165 25 0 c27 0 33 19 38 122 l2 58 37 -87 c33 -78
40 -89 67 -94 17 -4 33 -4 36 -1 3 3 5 79 5 169 l0 163 -30 0 -30 0 0 -102 -1
-103 -41 103 c-40 101 -41 102 -74 102 l-34 0 0 -165z"/>
<path d="M11820 2633 c-67 -61 -60 -265 9 -303 29 -15 77 -12 91 5 11 14 14
13 25 -2 7 -9 19 -14 29 -10 13 5 16 22 16 97 l0 90 -55 0 c-52 0 -55 -1 -55
-25 0 -20 5 -25 26 -25 25 0 26 -2 21 -37 -9 -50 -29 -63 -63 -39 -16 12 -19
27 -19 104 0 94 11 122 46 122 10 0 23 -9 29 -20 7 -13 21 -20 40 -20 32 0 36
9 18 43 -18 35 -40 46 -85 47 -33 0 -50 -6 -73 -27z"/>
<path d="M12040 2495 l0 -165 35 0 35 0 0 128 c0 70 -3 144 -6 165 -6 33 -10
37 -35 37 l-29 0 0 -165z"/>
<path d="M12160 2496 l0 -166 30 0 29 0 3 101 3 100 40 -100 c38 -95 41 -100
73 -103 18 -2 35 -2 37 1 7 7 6 217 -1 279 -6 46 -9 52 -30 52 -23 0 -23 -3
-26 -101 l-3 -102 -40 99 c-40 99 -40 99 -77 102 l-38 3 0 -165z"/>
<path d="M12430 2496 l0 -163 48 -6 c27 -3 67 -3 90 0 36 5 42 9 42 29 0 22
-4 24 -55 24 l-55 0 0 45 0 45 50 0 c49 0 50 1 50 30 0 29 -1 30 -50 30 l-50
0 0 35 c0 33 2 35 33 35 56 0 77 10 77 36 0 24 -2 24 -90 24 l-90 0 0 -164z"/>
<path d="M1000 2623 c-22 -11 -44 -35 -60 -65 -35 -63 -59 -88 -87 -88 -43 0
-63 18 -63 56 0 31 4 37 30 47 22 8 30 18 30 35 0 21 -3 23 -27 18 -97 -23
-98 -169 -2 -198 57 -17 104 9 141 77 44 82 94 106 146 69 40 -28 16 -114 -33
-114 -9 0 -15 -9 -15 -25 0 -22 3 -25 28 -19 46 10 82 57 82 109 0 88 -90 139
-170 98z"/>
<path d="M3940 2557 l0 -63 128 -27 c70 -15 133 -27 141 -27 8 0 11 -3 7 -7
-4 -5 -67 -19 -139 -33 l-132 -26 -3 -67 -3 -67 236 0 235 0 0 40 0 40 -82 1
c-46 1 -108 4 -138 8 l-55 6 115 18 c172 27 162 23 158 70 -3 40 -4 41 -53 53
-27 7 -77 18 -109 24 -70 14 -59 30 20 30 28 0 72 3 98 6 46 7 46 7 46 45 l0
39 -235 0 -235 0 0 -63z"/>
<path d="M9900 2446 l0 -94 63 -7 c34 -3 127 -5 207 -3 143 3 145 3 144 26 0
12 -1 56 -2 97 -2 68 -4 75 -22 75 -18 0 -20 -7 -20 -75 l0 -75 -75 0 -75 0 0
33 c0 68 -12 107 -31 107 -17 0 -19 -8 -19 -70 l0 -70 -65 0 -65 0 0 75 c0 68
-2 75 -20 75 -19 0 -20 -7 -20 -94z"/>
<path d="M6160 2287 l0 -73 128 -27 c70 -15 142 -30 160 -33 17 -4 32 -10 32
-13 0 -4 -71 -21 -157 -37 l-158 -29 -3 -78 -3 -77 271 0 271 0 -3 48 c-2 28
-8 47 -15 48 -7 1 -82 2 -165 4 -151 2 -152 2 -93 14 33 7 98 19 145 26 126
19 130 21 130 74 0 50 3 47 -95 66 -235 45 -244 60 -37 60 l132 0 0 50 0 50
-270 0 -270 0 0 -73z"/>
<path d="M9900 2196 l0 -93 38 -7 c53 -8 370 -7 375 2 2 4 2 49 -1 100 -4 82
-7 92 -23 92 -17 0 -19 -8 -19 -75 l0 -75 -75 0 -75 0 0 33 c0 68 -12 107 -31
107 -17 0 -19 -8 -19 -70 l0 -70 -65 0 -65 0 0 75 c0 68 -2 75 -20 75 -19 0
-20 -7 -20 -94z"/>
<path d="M10540 1946 l0 -206 25 0 c25 0 25 1 25 90 l0 90 49 0 c66 0 81 -21
81 -112 l0 -68 31 0 c24 0 30 3 25 16 -3 9 -6 45 -6 80 0 55 -4 69 -24 89 -18
18 -21 25 -10 29 8 3 22 21 31 40 14 30 15 41 4 76 -17 57 -47 73 -147 78
l-84 5 0 -207z m160 144 c24 -24 27 -82 4 -104 -10 -10 -33 -16 -65 -16 l-49
0 0 70 0 70 45 0 c32 0 51 -6 65 -20z"/>
<path d="M10926 2098 c-8 -29 -31 -114 -51 -188 -20 -74 -39 -143 -41 -152 -4
-14 1 -18 20 -18 23 0 28 7 42 59 l17 59 55 7 c63 8 66 6 83 -72 11 -49 14
-53 41 -53 15 0 28 1 28 3 0 9 -100 356 -109 380 -8 21 -17 27 -40 27 -27 0
-31 -4 -45 -52z m75 -117 c10 -35 19 -65 19 -67 0 -2 -20 -4 -45 -4 -51 0 -51
-1 -30 84 22 84 27 96 32 71 3 -11 13 -49 24 -84z"/>
<path d="M11180 1945 l0 -205 25 0 26 0 -3 160 c-2 87 0 156 3 152 3 -4 37
-75 74 -159 63 -140 70 -152 97 -155 18 -3 32 0 34 7 3 7 4 99 2 206 -3 193
-3 194 -25 197 l-23 3 -1 -163 -1 -163 -30 65 c-123 267 -119 260 -150 260
l-28 0 0 -205z"/>
<path d="M11537 2143 c-4 -3 -7 -96 -7 -205 l0 -198 24 0 c20 0 24 6 30 46 3
26 6 61 6 79 0 28 33 76 44 64 2 -2 27 -46 56 -96 48 -85 55 -93 82 -93 l30 0
-25 43 c-13 23 -43 77 -67 120 l-42 78 61 78 c34 44 61 82 61 85 0 3 -11 6
-24 6 -19 0 -41 -22 -98 -95 -40 -52 -75 -94 -78 -95 -3 0 -5 15 -5 32 -2 140
-5 158 -23 158 -10 0 -22 -3 -25 -7z"/>
<path d="M11850 1946 l0 -206 25 0 25 0 -2 203 c-3 201 -3 202 -25 205 l-23 3
0 -205z"/>
<path d="M11999 2146 c-2 -2 -3 -95 -1 -205 3 -192 4 -201 22 -201 19 0 20 8
20 168 l0 167 76 -167 c70 -154 78 -166 105 -170 16 -3 31 -2 34 0 7 8 6 278
-1 351 -6 50 -10 61 -25 61 -18 0 -19 -11 -20 -162 l0 -163 -32 66 c-18 36
-52 109 -76 162 -39 88 -46 97 -71 97 -14 0 -29 -2 -31 -4z"/>
<path d="M12404 2131 c-45 -28 -69 -95 -68 -196 0 -96 15 -146 55 -180 39 -32
95 -34 133 -4 21 17 26 18 26 5 0 -10 9 -16 25 -16 l25 0 0 110 0 110 -65 0
c-58 0 -65 -2 -65 -20 0 -16 7 -20 35 -20 l35 0 0 -49 c0 -129 -126 -135 -145
-6 -12 76 0 183 22 213 36 49 123 35 123 -20 0 -13 8 -18 30 -18 17 0 30 2 30
5 0 20 -32 75 -51 89 -32 22 -106 21 -145 -3z"/>
<path d="M2625 2080 c-48 -11 -74 -32 -98 -80 -19 -39 -22 -61 -22 -160 0
-135 20 -195 77 -230 65 -39 164 -16 200 46 42 73 41 269 -2 354 -29 56 -93
85 -155 70z m55 -80 c10 -5 23 -24 29 -41 14 -42 13 -204 -2 -249 -11 -31 -16
-35 -47 -35 -29 0 -37 5 -49 30 -19 39 -22 225 -4 247 7 8 9 19 5 23 -4 5 -2
5 5 1 6 -3 14 -2 18 4 3 5 0 10 -7 10 -9 0 -9 3 2 10 19 12 27 12 50 0z"/>
<path d="M3442 2079 c-18 -4 -45 -17 -59 -30 -45 -43 -56 -84 -57 -214 -1
-138 14 -183 74 -223 29 -20 44 -23 88 -20 68 6 111 44 119 106 l6 42 -39 0
c-34 0 -41 -5 -54 -33 -12 -25 -21 -32 -45 -32 -47 0 -56 30 -51 165 5 133 6
140 20 137 6 -1 10 4 8 11 -1 7 4 15 12 18 22 8 55 -14 62 -41 5 -22 12 -25
50 -25 29 0 44 4 44 13 -1 21 -36 91 -54 106 -22 19 -84 29 -124 20z"/>
<path d="M4245 2081 c-50 -12 -76 -31 -91 -66 -31 -74 -7 -141 65 -182 95 -54
111 -70 111 -114 0 -32 -4 -41 -25 -51 -33 -15 -72 2 -85 37 -8 21 -16 25 -51
25 -41 0 -41 0 -35 -32 9 -46 29 -73 69 -92 44 -20 95 -21 146 0 62 25 88 83
71 158 -11 49 -41 80 -113 119 -59 31 -91 72 -67 87 6 4 10 13 8 21 -2 10 6
14 27 14 23 0 33 -7 43 -27 11 -24 19 -28 54 -28 l41 0 -6 38 c-7 41 -54 92
-86 92 -11 0 -25 2 -33 4 -7 2 -26 1 -43 -3z"/>
<path d="M2174 2067 c-2 -7 -3 -114 -2 -237 l3 -225 41 -3 41 -3 5 76 c6 89
20 110 81 119 83 14 123 64 115 148 -10 98 -67 138 -196 138 -58 0 -84 -4 -88
-13z m180 -89 c17 -24 21 -65 8 -85 -11 -18 -52 -30 -80 -25 -23 4 -24 8 -18
48 3 24 11 53 18 64 17 27 53 26 72 -2z"/>
<path d="M2880 1840 l0 -240 120 0 120 0 0 35 c0 35 0 35 -44 35 -24 0 -58 3
-75 6 l-31 7 0 146 c0 80 -3 170 -6 199 l-7 52 -38 0 -39 0 0 -240z"/>
<path d="M3170 1840 l0 -240 45 0 45 0 0 194 c0 106 -3 214 -6 240 -7 46 -7
46 -45 46 l-39 0 0 -240z"/>
<path d="M3670 1840 l0 -240 45 0 45 0 0 209 c0 115 -3 223 -6 240 -6 28 -10
31 -45 31 l-39 0 0 -240z"/>
<path d="M3840 1840 l0 -240 125 0 125 0 0 40 c0 22 -3 39 -7 39 -5 -1 -41 -1
-80 0 l-73 1 0 39 c0 24 8 48 21 65 18 22 28 26 75 26 l55 0 -3 38 -3 37 -72
3 -73 3 0 32 c1 54 29 77 94 77 l56 0 0 40 0 40 -120 0 -120 0 0 -240z"/>
<path d="M9900 1935 c0 -108 1 -115 20 -115 17 0 20 7 20 45 l0 45 185 0 185
0 0 25 0 25 -185 0 -185 0 0 45 c0 38 -3 45 -20 45 -19 0 -20 -7 -20 -115z"/>
<path d="M6160 1782 l0 -49 46 -7 c26 -3 122 -6 214 -6 146 0 169 -2 183 -17
19 -23 23 -41 14 -75 -11 -41 -49 -48 -263 -48 l-194 0 0 -50 0 -50 223 0
c191 0 227 2 257 18 49 24 65 62 65 154 0 83 -12 110 -69 152 -25 20 -44 21
-252 24 l-224 3 0 -49z"/>
<path d="M9900 1760 c0 -19 7 -20 163 -20 l162 -1 -162 -65 c-158 -64 -163
-67 -163 -95 l0 -29 205 0 c198 0 205 1 205 20 0 19 -7 20 -122 22 -68 1 -143
0 -168 -1 -25 -2 -43 0 -40 3 5 4 146 60 283 110 41 16 47 21 47 47 l0 29
-205 0 c-198 0 -205 -1 -205 -20z"/>
<path d="M10105 1455 l-200 -51 -3 -31 -3 -31 203 -49 c194 -48 203 -49 206
-30 5 25 -6 31 -74 46 l-54 12 4 52 4 52 61 14 c57 14 61 16 61 43 0 15 -1 27
-2 27 -2 -1 -93 -25 -203 -54z m35 -86 c0 -38 -2 -41 -22 -35 -13 3 -54 13
-92 23 l-70 17 70 17 c110 27 114 26 114 -22z"/>
<path d="M3218 1423 l-68 -4 0 -149 c0 -127 2 -150 15 -150 12 0 15 14 15 69
l0 70 52 3 c71 4 73 24 3 33 l-55 6 0 45 0 44 55 0 c48 0 55 2 55 20 0 11 -1
19 -2 18 -2 -1 -33 -3 -70 -5z"/>
<path d="M3360 1402 c-57 -58 -47 -252 15 -276 24 -9 64 -7 84 4 46 24 66 164
36 237 -29 69 -86 84 -135 35z m95 -32 c18 -36 20 -155 2 -190 -8 -16 -23 -26
-40 -28 -23 -3 -30 2 -42 32 -27 63 -16 187 18 208 24 15 47 7 62 -22z"/>
<path d="M3935 1406 c-29 -29 -39 -76 -33 -161 5 -84 29 -119 84 -123 32 -2
44 2 64 23 23 25 25 34 25 132 0 102 -1 105 -28 129 -36 31 -81 31 -112 0z
m92 -33 c26 -39 25 -173 -1 -202 -48 -53 -90 -4 -90 104 0 111 49 163 91 98z"/>
<path d="M3560 1270 l0 -150 69 0 c51 0 70 4 74 15 5 11 -6 15 -51 17 l-57 3
-3 133 c-2 108 -5 132 -17 132 -13 0 -15 -25 -15 -150z"/>
<path d="M3740 1270 l0 -150 69 0 c51 0 70 4 74 15 5 11 -6 15 -51 17 l-57 3
-3 133 c-2 108 -5 132 -17 132 -13 0 -15 -25 -15 -150z"/>
<path d="M4115 1398 c12 -55 55 -264 55 -270 0 -5 9 -8 19 -8 23 0 24 4 47
125 16 85 34 133 34 90 0 -11 10 -64 22 -117 17 -80 25 -98 39 -98 20 0 22 6
58 175 25 118 25 125 7 125 -13 0 -36 -80 -53 -183 -8 -50 -18 -37 -32 43 -22
116 -30 140 -50 140 -15 0 -22 -19 -42 -116 l-24 -117 -11 54 c-6 30 -17 82
-24 117 -10 50 -16 62 -32 62 -14 0 -17 -5 -13 -22z"/>
<path d="M6260 1388 c-110 -29 -145 -178 -64 -268 55 -60 106 -75 259 -75 117
1 135 3 180 25 60 30 81 74 70 155 -3 28 -7 77 -8 110 l-2 60 -147 3 -148 3 0
-91 0 -90 40 0 c28 0 40 4 40 14 0 20 48 56 74 56 38 0 66 -28 66 -65 0 -52
-31 -67 -150 -73 -138 -7 -230 20 -230 66 0 8 16 29 35 48 30 28 35 39 35 78
0 25 -3 47 -7 49 -5 2 -24 0 -43 -5z"/>
<path d="M9929 1171 c-27 -27 -29 -35 -29 -104 l0 -75 118 -4 c64 -2 156 -2
205 0 77 4 87 6 87 23 0 17 -8 19 -64 19 -35 0 -78 3 -95 6 -31 7 -32 8 -26
48 9 56 26 66 112 66 71 0 73 1 73 25 0 24 -2 25 -65 25 -70 0 -135 -20 -135
-42 -1 -9 -4 -8 -13 3 -20 26 -53 39 -97 39 -33 0 -48 -6 -71 -29z m135 -37
c10 -9 16 -33 16 -60 l0 -44 -70 0 -70 0 0 44 c0 27 6 51 16 60 20 21 88 21
108 0z"/>
<path d="M6219 957 c-46 -31 -58 -72 -58 -199 l-1 -108 270 0 270 0 0 49 0 49
-109 4 c-60 1 -113 6 -117 10 -12 12 17 67 46 88 20 14 45 20 82 20 91 0 98 5
98 63 l0 50 -99 -6 c-97 -5 -153 -22 -165 -49 -3 -10 -8 -8 -16 5 -32 50 -142
64 -201 24z m159 -105 c6 -9 12 -35 12 -59 l0 -43 -52 0 c-86 0 -101 7 -94 43
8 38 23 57 60 72 33 14 55 10 74 -13z"/>
<path d="M10120 896 c-91 -23 -177 -46 -192 -49 -23 -6 -28 -13 -28 -37 0 -33
-15 -28 225 -85 83 -20 158 -38 168 -41 13 -4 17 0 17 19 0 19 -7 26 -27 31
-16 4 -45 12 -66 17 l-37 10 4 52 4 51 61 14 c54 12 61 16 61 38 0 13 -6 24
-12 23 -7 0 -87 -20 -178 -43z m20 -86 c0 -46 2 -46 -100 -21 -79 20 -78 22
10 45 87 23 90 22 90 -24z"/>
<path d="M9900 621 c0 -19 8 -20 169 -23 149 -3 171 -5 190 -22 12 -11 21 -31
21 -46 0 -15 -9 -35 -21 -46 -19 -17 -41 -19 -190 -22 -155 -3 -169 -5 -169
-21 0 -23 52 -31 194 -31 127 1 174 11 205 46 20 24 23 36 19 81 -3 38 -11 61
-27 76 -20 21 -32 22 -206 25 -179 3 -185 3 -185 -17z"/>
<path d="M6445 545 c-121 -30 -233 -58 -250 -63 -29 -7 -30 -10 -33 -75 -2
-37 -1 -67 0 -67 2 0 114 -27 248 -60 135 -33 255 -63 268 -65 22 -5 23 -3 20
47 l-3 53 -62 13 -63 14 0 40 c0 49 40 93 93 103 l37 7 0 54 c0 45 -3 54 -17
53 -10 0 -117 -25 -238 -54z m33 -148 c3 -33 1 -38 -15 -34 -10 3 -42 11 -71
17 -48 11 -52 14 -39 27 16 17 71 32 102 30 16 -2 21 -10 23 -40z"/>
<path d="M9950 332 c-25 -12 -39 -28 -49 -58 -13 -37 -12 -44 5 -80 30 -62 75
-79 209 -79 118 0 158 12 189 57 22 31 20 80 -5 112 -17 21 -18 26 -5 26 9 0
16 8 16 20 0 19 -7 20 -110 20 l-110 0 0 -60 c0 -53 2 -60 20 -60 16 0 20 7
20 36 l0 36 57 -4 c43 -4 61 -10 75 -28 25 -31 20 -58 -15 -84 -25 -18 -42
-21 -130 -21 -113 0 -163 14 -177 50 -14 36 -1 63 37 77 25 9 33 17 31 32 -4
27 -17 29 -58 8z"/>
</g>
</svg>
