<?xml version="1.0" encoding="UTF-8" standalone="no"?>
<!-- Created with Inkscape (http://www.inkscape.org/) -->
<svg xmlns:inkscape="http://www.inkscape.org/namespaces/inkscape"
  xmlns:rdf="http://www.w3.org/1999/02/22-rdf-syntax-ns#" xmlns="http://www.w3.org/2000/svg"
  xmlns:sodipodi="http://sodipodi.sourceforge.net/DTD/sodipodi-0.dtd" xmlns:cc="http://creativecommons.org/ns#"
  xmlns:xlink="http://www.w3.org/1999/xlink" xmlns:dc="http://purl.org/dc/elements/1.1/"
  xmlns:svg="http://www.w3.org/2000/svg" xmlns:ns1="http://sozi.baierouge.fr" id="svg2"
  sodipodi:docname="AWeaveBlack.svg"
  inkscape:export-filename="C:\Documents and Settings\Randall W. Wilke\Desktop\black.png" viewBox="0 0 564.32 511.99"
  inkscape:export-xdpi="90" version="1.1" inkscape:export-ydpi="90" inkscape:version="0.48.0 r9654">
  <sodipodi:namedview id="base" bordercolor="#666666" inkscape:pageshadow="2" inkscape:window-y="-4" fit-margin-left="0"
    pagecolor="#ffffff" inkscape:window-height="721" inkscape:window-maximized="1" inkscape:zoom="1"
    inkscape:window-x="-4" showgrid="true" borderopacity="1.0" inkscape:current-layer="layer1" inkscape:cx="282.15765"
    inkscape:cy="255.99736" fit-margin-top="0" fit-margin-right="0" fit-margin-bottom="0" inkscape:window-width="1024"
    inkscape:pageopacity="0.0" inkscape:document-units="px" />
  <g id="layer1" inkscape:label="Layer 1" inkscape:groupmode="layer" transform="translate(-49.393 -343.7)">
    <path id="path3846" style="color:#000000;fill:#000000" inkscape:connector-curvature="0"
      d="m170.34 343.7-5.7587 3.3309 40.299 23.269-5.7587 3.3309-40.299-23.281-5.7587 3.3309 40.311 23.269-5.7704 3.3309-40.299-23.281-5.7587 3.3309 40.311 23.269-5.7587 3.3192-40.311-23.269-5.7587 3.3309v46.539l5.7587 3.3309v-46.55l5.7587 3.3309v46.539l5.7587 3.3309v-46.55l5.7587 3.3309v46.539l5.7587 3.3309v-46.55l5.7587 3.3309v46.539l5.7587 3.3192-0.0117 0.0117v46.539l-0.0117 0.0117v-6.65l-40.299 23.281v-6.65l40.299-23.281v-6.65l-40.299 23.281v-6.65l40.299-23.281v-6.6383l-40.299 23.269v-6.65l40.299-23.269v-6.65l-40.299-23.281h-0.0117v-6.65l-40.299 23.281v-6.65l40.299-23.281v-6.65l-40.299 23.281v-6.65l40.299-23.281v-6.6383l-40.299 23.269v-6.65l40.299-23.269v-6.65l-40.299-23.281-5.7587 3.3309 40.299 23.269-5.7587 3.3309-40.299-23.281-5.7587 3.3309 40.311 23.269-5.7704 3.3309-40.299-23.281-5.7587 3.3309 40.311 23.269-5.7587 3.3192-40.311-23.269-5.7587 3.3309v46.539l5.7587 3.3309v-46.55l5.7587 3.3309v46.539l5.7587 3.3309v-46.55l5.7587 3.3309v46.539l5.7587 3.3309v-46.55l5.7587 3.3309v46.539l5.7587 3.3192 5.7587-3.3192 5.7587-3.3192 40.311 23.269-5.7587 3.3192-40.311-23.269-5.7587 3.3309v46.515l-5.7587 3.3309 40.299 23.269-5.7587 3.3309-40.299-23.281-5.7587 3.3309 40.311 23.269-5.7704 3.3309-40.299-23.281-5.7587 3.3309 40.311 23.269-5.7587 3.3192-40.311-23.269-5.7587 3.3309v46.539l5.7587 3.3309v-46.55l5.7587 3.3309v46.539l5.7587 3.3309v-46.55l5.7587 3.3309v46.539l5.7587 3.3309v-46.55l5.7587 3.3309v46.539l5.7587 3.3192 40.299-23.269v-6.65l-40.299 23.281v-6.65l40.299-23.281v-6.65l-40.299 23.281v-6.65l40.299-23.281v-6.6383l-40.299 23.269v-6.65l40.299-23.269v-6.65l0.0117 0.0117v46.539l-5.7587 3.3309 40.299 23.269-5.7587 3.3309-40.299-23.281-5.7587 3.3309 40.311 23.269-5.7704 3.3309-40.299-23.281-5.7587 3.3309 40.311 23.269-5.7587 3.3192-40.311-23.269-5.7587 3.3309v46.527l-5.7587 3.3309 40.299 23.269-5.7587 3.3309-40.299-23.281-5.7587 3.3309 40.311 23.269-5.7704 3.3309-40.299-23.281-5.7587 3.3309 40.311 23.269-5.7587 3.3192-40.311-23.269-5.7587 3.3309v46.539l5.7587 3.3309v-46.55l5.7587 3.3309v46.539l5.7587 3.3309v-46.55l5.7587 3.3309v46.539l5.7587 3.3309v-46.55l5.7587 3.3309v46.539l5.7587 3.3191 40.299-23.269v-6.65l-40.299 23.281v-6.65l40.299-23.281v-6.65l-40.299 23.281v-6.65l40.299-23.281v-6.6383l-40.299 23.269v-6.65l40.299-23.269v-6.65h0.0117v46.539l5.7587 3.3309v-46.55l5.7587 3.3309v46.539l5.7587 3.3309v-46.55l5.7587 3.3309v46.539l5.7587 3.3309v-46.55l5.7587 3.3309v46.539l5.7587 3.3191 40.299-23.269 0.0117 0.0117-5.7587 3.3309 40.299 23.269-5.7587 3.3309-40.299-23.281-5.7587 3.3309 40.311 23.269-5.7704 3.3309-40.299-23.281-5.7587 3.3309 40.311 23.269-5.7587 3.3192-40.311-23.269-5.7587 3.3309v46.527l-0.0117 0.0116v-6.6383l-40.299 23.281v-6.65l40.299-23.281v-6.6501l-40.299 23.281v-6.65l40.299-23.281v-6.6383l-40.299 23.269v-6.65l40.299-23.269v-6.6501l-40.299-23.281-5.7587 3.3309 40.299 23.269-5.7587 3.3309-40.299-23.281-5.7587 3.3309 40.311 23.269-5.7704 3.3309-40.299-23.281-5.7587 3.3309 40.311 23.269-5.7587 3.3191-40.311-23.269-5.7587 3.3309v46.515l-5.7587 3.3309 40.299 23.269-5.7587 3.3309-40.299-23.281-5.7587 3.3309 40.311 23.269-5.7704 3.3309-40.299-23.281-5.7587 3.3309 40.311 23.269-5.7587 3.3192-40.311-23.269-5.7587 3.3309v46.539l5.7587 3.3309v-46.55l5.7587 3.3309v46.539l5.7587 3.3309v-46.55l5.7587 3.3309v46.539l5.7587 3.3309v-46.55l5.7587 3.3309v46.539l5.7587 3.3192 40.299-23.269v-6.6501l-40.299 23.281v-6.65l40.299-23.281v-6.65l-40.299 23.281v-6.6501l40.299-23.281v-6.6383l-40.299 23.269v-6.65l40.299-23.269v-6.6501l0.0117 0.0116v46.527l5.7587 3.3309v-46.55l5.7587 3.3309v46.539l5.7587 3.3309v-46.55l5.7587 3.3309v46.539l5.7587 3.3309v-46.55l5.7587 3.3309v46.539l5.7587 3.3192 40.299-23.269v-6.6501l-40.299 23.281v-6.65l40.299-23.281v-6.65l-40.299 23.281v-6.6501l40.299-23.281v-6.6383l-40.299 23.269v-6.65l40.299-23.269v-6.6501h0.0117v46.539l5.7587 3.3309v-46.55l5.7587 3.3309v46.539l5.7587 3.3309v-46.55l5.7587 3.3309v46.539l5.7587 3.3309v-46.55l5.7587 3.3309v46.539l5.7587 3.3192 40.299-23.269 5.7587 3.3309v-46.55l5.7587 3.3309v46.539l5.7587 3.3309v-46.55l5.7587 3.3309v46.539l5.7587 3.3309v-46.55l5.7587 3.3309v46.539l5.7587 3.3192 40.299-23.269v-6.6501l-40.299 23.281v-6.65l40.299-23.281v-6.65l-40.299 23.281v-6.6501l40.299-23.281v-6.6383l-40.299 23.269v-6.65l40.299-23.269v-6.6501h0.0117v46.539l5.7587 3.3309v-46.55l5.7587 3.3309v46.539l5.7587 3.3309v-46.55l5.7587 3.3309v46.539l5.7587 3.3309v-46.55l5.7587 3.3309v46.539l5.7587 3.3192 40.299-23.269v-6.6501l-40.299 23.281v-6.65l40.299-23.281v-6.65l-40.299 23.281v-6.6501l40.299-23.281v-6.6383l-40.299 23.269v-6.65l40.299-23.269v-6.6501h0.0117v46.539l5.7587 3.3309v-46.55l5.7587 3.3309v46.539l5.7587 3.3309v-46.55l5.7587 3.3309v46.539l5.7587 3.3309v-46.55l5.7587 3.3309v46.539l5.7587 3.3192 40.299-23.269 5.7586 3.3309v-46.55l5.7586 3.3309v46.539l5.7587 3.3309v-46.55l5.7587 3.3309v46.539l5.7587 3.3309v-46.55l5.7586 3.3309v46.539l5.7587 3.3192 40.299-23.269v-6.6501l-40.299 23.281v-6.65l40.299-23.281v-6.65l-40.299 23.281v-6.6501l40.299-23.281v-6.6383l-40.299 23.269v-6.65l40.299-23.269v-6.6501l-40.299-23.281-0.0116 0.0116v-6.6501l-40.299 23.281v-6.65l40.299-23.281v-6.65l-40.299 23.281v-6.6501l40.299-23.281v-6.6383l-40.299 23.269v-6.65l40.299-23.269v-6.65l-11.506-6.6618v-46.55l5.7587 3.3309v46.539l5.7587 3.3191 40.299-23.269v-6.65l-40.299 23.281v-6.65l40.299-23.281v-6.65l-40.299 23.281v-6.65l40.299-23.281v-6.6383l-40.299 23.269v-6.65l40.299-23.269v-6.65l-40.299-23.281h-0.0116v-6.65l-40.299 23.281v-6.65l40.299-23.281v-6.65l-40.299 23.281v-6.65l40.299-23.281v-6.6383l-40.299 23.269v-6.65l40.299-23.269v-6.65l-5.747-3.3309-5.7587-3.3192v-46.55l5.7587 3.3309v46.539l5.7587 3.3192 40.299-23.269v-6.65l-40.299 23.281v-6.65l40.299-23.281v-6.65l-40.299 23.281v-6.65l40.299-23.281v-6.6383l-40.299 23.269v-6.65l40.299-23.269v-6.65l-40.299-23.281-0.0116 0.0117v-6.65l-40.299 23.281v-6.65l40.299-23.281v-6.65l-40.299 23.281v-6.65l40.299-23.281v-6.6383l-40.299 23.269v-6.65l40.299-23.269v-6.65l-5.747-3.3309-5.7587-3.3192v-46.55l5.7587 3.3309v46.539l5.7587 3.3192 40.299-23.269v-6.65l-40.299 23.281v-6.65l40.299-23.281v-6.65l-40.299 23.281v-6.65l40.299-23.281v-6.6383l-40.299 23.269v-6.65l40.299-23.269v-6.65l-40.299-23.281-5.7587 3.3309 40.299 23.269-5.7587 3.3309-40.299-23.281-5.7587 3.3309 40.311 23.269-5.7704 3.3309-40.299-23.281-5.7587 3.3309 40.311 23.269-5.7587 3.3192-40.311-23.269-5.7587 3.3309v46.539h-0.0116v-6.65l-40.299 23.281v-6.65l40.299-23.281v-6.65l-40.299 23.281v-6.65l40.299-23.281v-6.6383l-40.299 23.269v-6.65l40.299-23.269v-6.65l-40.299-23.281-5.7587 3.3309 40.299 23.269-5.7587 3.3309-40.299-23.281-5.7587 3.3309 40.311 23.269-5.7704 3.3309-40.299-23.281-5.7587 3.3309 40.311 23.269-5.7587 3.3192-40.311-23.269-5.7587 3.3309-40.299-23.281-5.7587 3.3309 40.299 23.269-5.7587 3.3309-40.299-23.281-5.7587 3.3309 40.311 23.269-5.7704 3.3309-40.299-23.281-5.7587 3.3309 40.311 23.269-5.7587 3.3192-40.311-23.269-5.7587 3.3309v46.539h-0.0117l-5.7352 3.3309 40.299 23.269-5.7587 3.3309-40.299-23.281-5.7587 3.3309 40.311 23.269-5.7704 3.3309-40.299-23.281-5.7587 3.3309 40.311 23.269-5.7587 3.3192-40.311-23.269-5.7587 3.3309v46.539h-0.0117-0.0117v-6.65l-40.299 23.281v-6.65l40.299-23.281v-6.65l-40.299 23.281v-6.65l40.299-23.281v-6.6383l-40.299 23.269v-6.65l40.299-23.269v-6.65l-5.747-3.3309-5.7587-3.3192v-46.55l5.7587 3.3309v46.539l5.7587 3.3192 40.299-23.269v-6.65l-40.299 23.281v-6.65l40.299-23.281v-6.65l-40.299 23.281v-6.65l40.299-23.281v-6.6383l-40.299 23.269v-6.65l40.299-23.269v-6.65l-40.299-23.281-5.7587 3.3309 40.299 23.269-5.7587 3.3309-40.299-23.281-5.7587 3.3309 40.311 23.269-5.7704 3.3309-40.299-23.281-5.7587 3.3309 40.311 23.269-5.7587 3.3192-40.311-23.269-5.7587 3.3309v46.539h-0.0117v-6.65l-40.299 23.281v-6.65l40.299-23.281v-6.65l-40.299 23.281v-6.65l40.299-23.281v-6.6383l-40.299 23.269v-6.65l40.299-23.269v-6.65l-40.299-23.281-5.7587 3.3309 40.299 23.269-5.7587 3.3309-40.299-23.281-5.7587 3.3309 40.311 23.269-5.7704 3.3309-40.299-23.281-5.7587 3.3309 40.311 23.269-5.7587 3.3192-40.311-23.269-5.747 3.3309h-0.0117l-40.287-23.281zm46.046 26.6 5.7587 3.3309v46.539l-5.7587-3.3309v-46.539zm80.621 0 5.7587 3.3309v46.539l-5.7587-3.3192v-46.55zm80.621 0 5.7587 3.3309v46.539l-5.7587-3.3309v-46.539zm80.61 0 5.7587 3.3309v46.539l-5.7587-3.3309v-46.539zm80.621 0 5.7587 3.3309v46.539l-5.7587-3.3192v-46.55zm-86.38 3.3309v6.65l-40.299 23.269v-6.65l40.299-23.269zm-241.85 0.0117v6.65l-40.287 23.258v-6.65l40.287-23.258zm17.276 3.3074 5.7587 3.3309v46.539l-5.7587-3.3192v-46.55zm80.621 0 5.7587 3.3309v46.539l-5.7587-3.3192v-46.55zm80.621 0 5.7587 3.3309v46.539l-5.7587-3.3192v-46.55zm80.61 0 5.7587 3.3309v46.539l-5.7587-3.3192v-46.55zm80.621 0 5.7587 3.3309v46.539l-5.7587-3.3192v-46.55zm-310.96 6.65 5.7587 3.3309v46.539l5.7587 3.3192 5.7587-3.3192 5.7587-3.3192 40.311 23.269-5.7587 3.3192-40.311-23.269-5.7587 3.3309-5.7587-3.3309-5.7587-3.3192v-46.55zm161.24 0 5.7587 3.3309v46.539l5.7587 3.3192 5.7587-3.3192 5.7587-3.3192 40.311 23.269-5.7587 3.3192-40.311-23.269-5.7587 3.3309-5.7587-3.3309-5.7587-3.3192v-46.55zm80.61 0 5.7587 3.3309v46.539l5.7587 3.3192 5.7587-3.3192 5.7587-3.3192 40.311 23.269-5.7587 3.3192-40.311-23.269-5.7587 3.3309-5.7587-3.3309-5.7587-3.3192v-46.55zm-28.793 3.3192v6.65l-40.299 23.281v-6.65l40.299-23.281zm-241.85 0.0117v6.65l-40.287 23.269v-6.65l40.287-23.269zm241.85 13.288v6.65l-40.299 23.281v-6.65l40.299-23.281zm-241.85 0.0117v6.65l-40.287 23.269v-6.65l40.287-23.269zm-5.747 16.619 40.299 23.269-5.7587 3.3309-40.299-23.281 5.7587-3.3192zm80.61 0 40.299 23.269-5.7587 3.3309-40.299-23.281 5.7587-3.3192zm161.24 0 40.299 23.269-5.7587 3.3309-40.299-23.281 5.7587-3.3192zm80.61 0 40.299 23.269-5.7587 3.3309-40.299-23.281 5.7587-3.3192zm-403.08 0.0118 40.299 23.269-5.7587 3.3309-40.299-23.281 5.7587-3.3192zm69.104 6.6383 40.311 23.269-5.7704 3.3309-40.299-23.281 5.7587-3.3192zm80.61 0 40.311 23.269-5.7704 3.3309-40.299-23.281 5.7587-3.3192zm161.24 0 40.311 23.269-5.7704 3.3309-40.299-23.281 5.7587-3.3192zm80.61 0 40.311 23.269-5.7704 3.3309-40.299-23.281 5.7586-3.3192zm-403.08 0.0117 40.311 23.269-5.7704 3.3309-40.299-23.281 5.7587-3.3192zm69.104 6.6383 40.311 23.269-5.7587 3.3192-40.311-23.269 5.7587-3.3192zm-5.7587 9.9692 5.7587 3.3309v46.539l-5.7587-3.3192v-46.55zm80.61 0 5.7587 3.3309v46.527l-5.7587-3.3192v-46.539zm80.633 0 5.7587 3.3309v46.539l-5.7587-3.3192v-46.55zm80.61 0 5.7587 3.3309v46.527l-5.7587-3.3192v-46.539zm80.61 0 5.7587 3.3309v46.527l-5.7587-3.3192v-46.539zm-403.08 0.0117 5.7587 3.3309v46.515l-5.7587-3.3192v-46.527zm155.47 3.3192v6.65l-40.299 23.269v-6.65l40.299-23.269zm161.24 0v6.65l-40.299 23.269v-6.65l40.299-23.269zm80.61 0v6.65l-40.299 23.269v-6.65l40.299-23.269zm-305.19 3.3192 5.7587 3.3309v46.539l-5.7587-3.3192v-46.55zm80.61 0 5.7587 3.3309v46.539l-5.7587-3.3309v-46.539zm80.633 0 5.7587 3.3309v46.539l-5.7587-3.3192v-46.55zm80.61 0 5.7587 3.3309v46.539l-5.7587-3.3309v-46.539zm80.61 0 5.7586 3.3309v46.539l-5.7586-3.3309v-46.539zm-403.08 0.0117 5.7587 3.3309v46.527l-5.7587-3.3309v-46.527zm92.139 6.6383 5.7587 3.3309v46.539l5.747 3.3192v0.0117l-5.747-3.3309-5.7587-3.3192v-46.55zm80.61 0 5.7587 3.3309v46.539l-5.7587-3.3192v-46.55zm80.633 0 5.7587 3.3309v46.539l5.747 3.3192v46.539l-0.0117 0.0117v-6.65l-40.299 23.281v-6.65l40.299-23.281v-6.65l-40.299 23.281v-6.65l40.299-23.281v-6.6383l-40.299 23.269v-6.65l40.299-23.269v-6.65l-11.494-6.65v-46.55zm80.61 0 5.7587 3.3309v46.539l-5.7587-3.3192v-46.55zm80.61 0 5.7587 3.3309v46.539l-5.7587-3.3192v-46.55zm-403.08 0.0118 5.7587 3.3309v46.527l-5.7587-3.3309v-46.527zm132.44 3.3074v6.65l-40.299 23.281v-6.65l40.299-23.281zm161.24 0v6.65l-40.299 23.281v-6.65l40.299-23.281zm80.61 0v6.65l-40.299 23.281v-6.65l40.299-23.281zm-241.85 13.3v6.65l-40.299 23.281v-6.65l40.299-23.281zm161.24 0v6.65l-40.299 23.281v-6.65l40.299-23.281zm80.61 0v6.65l-40.299 23.281v-6.65l40.299-23.281zm-247.61 16.619 40.299 23.269-5.7587 3.3309-40.287-23.269 5.7469-3.3309zm161.24 0 40.299 23.269-5.7587 3.3309-40.287-23.269 5.7469-3.3309zm80.61 0 40.299 23.269-5.7587 3.3309-40.287-23.269 5.747-3.3309zm80.621 0 40.299 23.269-5.7586 3.3309-40.299-23.281 5.7587-3.3192zm-403.08 0.0117 40.299 23.269-5.7587 3.3309-40.299-23.281 5.7587-3.3192zm161.23 0 40.299 23.269-5.7587 3.3309-40.299-23.281 5.7587-3.3191zm-92.139 6.6383 40.311 23.269-5.7704 3.3309-40.287-23.269 5.747-3.3309zm161.24 0 40.311 23.269-5.7704 3.3309-40.287-23.269 5.747-3.3309zm80.61 0 40.311 23.269-5.7704 3.3309-40.287-23.269 5.747-3.3309zm80.621 0 40.311 23.269-5.7704 3.3309-40.299-23.281 5.7587-3.3192zm-403.08 0.0117 40.311 23.269-5.7704 3.3309-40.299-23.281 5.7587-3.3192zm161.23 0 40.311 23.269-5.7704 3.3309-40.299-23.281 5.7587-3.3192zm-92.139 6.6383 40.311 23.269-5.7587 3.3192-40.299-23.258 5.747-3.3309zm161.24 0 40.311 23.269-5.7587 3.3192-40.299-23.258 5.747-3.3309zm80.61 0 40.311 23.269-5.7587 3.3192-40.299-23.258 5.747-3.3309zm80.621 0 40.311 23.269-5.7587 3.3192-40.311-23.269 5.7587-3.3192zm-403.08 0.0117 40.311 23.269-5.7587 3.3192-40.311-23.269 5.7587-3.3192zm161.23 0 40.311 23.269-5.7587 3.3192-40.311-23.269-5.7587 3.3309v46.539l-5.7587 3.3309 40.299 23.269-5.7587 3.3309-40.299-23.281-5.7587 3.3309 40.311 23.269-5.7704 3.3309-40.299-23.281-5.7587 3.3309 40.311 23.269-5.7587 3.3192-40.311-23.269-5.7587 3.3309v-0.0117l-5.7587-3.3309-5.7587-3.3192v-46.55l5.7587 3.3309v46.539l5.7587 3.3192 40.299-23.269v-6.65l-40.299 23.281v-6.65l40.299-23.281v-6.65l-40.299 23.281v-6.65l40.299-23.281v-6.6383l-40.299 23.269v-6.65l40.299-23.269v-6.65h0.0117l5.7587-3.3192 5.7587-3.3192zm230.32 6.6383h0.0116v46.539h-0.0116v-6.65l-40.299 23.281v-6.65l40.299-23.281v-6.65l-40.299 23.281v-6.65l40.299-23.281v-6.6383l-40.299 23.269v-6.65l40.299-23.269v-6.65zm-316.7 3.3192 5.7587 3.3309v46.539l-5.7587-3.3309v-46.539zm161.24 0 5.7587 3.3309v46.539l-5.7587-3.3192v-46.55zm80.61 0 5.7587 3.3309v46.539l-5.7587-3.3309v-46.539zm80.621 0 5.7587 3.3309v46.539l-5.7587-3.3192v-46.55zm-403.08 0.0117 5.7587 3.3309v46.539l-5.7587-3.3192v-46.55zm161.23 0 5.7587 3.3309v46.539l-5.7587-3.3192v-46.55zm155.47 3.3192v6.65l-40.299 23.269v-6.65l40.299-23.269zm-241.85 0.0118v6.65l-40.299 23.269v-6.65l40.299-23.269zm17.276 3.3074 5.7587 3.3309v46.539l-5.7587-3.3192v-46.55zm161.24 0 5.7587 3.3309v46.539l-5.7587-3.3192v-46.55zm80.61 0 5.7587 3.3309v46.539l-5.7587-3.3192v-46.55zm80.621 0 5.7587 3.3309v46.539l-5.7587-3.3192v-46.55zm-403.08 0.0117 5.7587 3.3309v46.539l-5.7587-3.3192v-46.55zm161.23 0 5.7587 3.3309v46.539l-5.7587-3.3192v-46.55zm92.139 6.6383 5.7587 3.3309v46.539l5.7587 3.3192 5.7587-3.3192 5.7587-3.3192 40.311 23.269-5.7587 3.3192-40.311-23.269-5.7587 3.3309v46.539h-0.0117v-6.65l-40.299 23.281v-6.65l40.299-23.281v-6.65l-40.299 23.281v-6.65l40.299-23.281v-6.6383l-40.299 23.269v-6.65l40.299-23.269v-6.65l-5.747-3.3309-5.7587-3.3192v-46.55zm80.61 0 5.7587 3.3309v46.539l5.7587 3.3192 5.7587-3.3192 5.7587-3.3192 40.311 23.269-5.7587 3.3192-40.311-23.269-5.7587 3.3309-5.7587-3.3309-5.7587-3.3192v-46.55zm-322.46 0.0117 5.7587 3.3309v46.539l5.7587 3.3192v46.539l-0.0117 0.0117v-6.65l-40.299 23.281v-6.65l40.299-23.281v-6.65l-40.299 23.281v-6.65l40.299-23.281v-6.6383l-40.299 23.269v-6.65l40.299-23.269v-6.65l-5.7469-3.3309-5.7587-3.3192v-46.55zm161.23 0 5.7587 3.3309v46.539l5.7587 3.3192v46.539l-0.0117 0.0117v-6.65l-40.299 23.281v-6.65l40.299-23.281v-6.65l-40.299 23.281v-6.65l40.299-23.281v-6.6383l-40.299 23.269v-6.65l40.299-23.269v-6.65l-5.747-3.3309-5.7587-3.3192v-46.55zm132.44 3.3074v6.65l-40.299 23.281v-6.65l40.299-23.281zm-241.85 0.0117v6.65l-40.299 23.281v-6.65l40.299-23.281zm241.85 13.288v6.65l-40.299 23.281v-6.65l40.299-23.281zm-241.85 0.0117v6.65l-40.299 23.281v-6.65l40.299-23.281zm-5.747 16.619 40.299 23.269-5.7587 3.3309-40.299-23.281 5.7587-3.3192zm161.23 0 40.299 23.269-5.7587 3.3309-40.299-23.281 5.7587-3.3192zm80.621 0 40.299 23.269-5.7587 3.331-40.299-23.281 5.7587-3.3192zm80.61 0 40.299 23.269-5.7587 3.3309-40.299-23.281 5.7587-3.3191zm-333.98 6.65 40.311 23.269-5.7704 3.3309-40.299-23.281 5.7587-3.3192zm161.23 0 40.311 23.269-5.7704 3.3309-40.299-23.281 5.7587-3.3192zm80.621 0 40.311 23.269-5.7704 3.3309-40.299-23.281 5.7587-3.3192zm80.61 0 40.311 23.269-5.7704 3.3309-40.299-23.281 5.7586-3.3192zm-333.98 6.65 40.311 23.269-5.7587 3.3192-40.311-23.269 5.7587-3.3192zm161.23 0 40.311 23.269-5.7587 3.3192-40.311-23.269 5.7587-3.3192zm-166.99 9.9692 5.7587 3.3309v46.539l-5.7587-3.3192v-46.55zm161.23 0 5.7587 3.3309v46.539l-5.7587-3.3192v-46.55zm80.621 0 5.7587 3.3309v46.539l-5.7587-3.3192v-46.55zm80.61 0 5.7587 3.3309v46.539l-5.7587-3.3192v-46.55zm-403.08 0.0117 5.7587 3.3309v46.527l-5.7587-3.3192v-46.539zm161.23 0 5.7587 3.3309v46.527l-5.7587-3.3192v-46.539zm-5.7587 3.3192v6.65l-40.299 23.269v-6.65l40.299-23.269zm241.85 0v6.65l-40.299 23.269v-6.65l40.299-23.269zm-305.19 3.3192 5.7587 3.3309v46.539l-5.7587-3.3192v-46.55zm161.23 0 5.7587 3.3309v46.539l-5.7587-3.3192v-46.55zm80.621 0 5.7587 3.3309v46.539l-5.7587-3.3192v-46.55zm80.61 0 5.7586 3.3309v46.539l-5.7586-3.3192v-46.55zm-403.08 0.0117 5.7587 3.3309v46.539l-5.7587-3.3309v-46.539zm161.23 0 5.7587 3.3309v46.539l-5.7587-3.3309v-46.539zm-69.092 6.6383 5.7587 3.3309v46.539l5.7587 3.3192-0.0117 0.0117-5.747-3.3309-5.7587-3.3192v-46.55zm161.23 0 5.7587 3.3309v46.539l5.7587 3.3192 5.7587-3.3192 5.7587-3.3192 40.311 23.269-5.7587 3.3192-40.311-23.269-5.7587 3.3309v46.539l5.7587 3.3309v-46.55l5.7587 3.3309v46.539l-5.7587-3.3192-5.7587-3.3192-5.7587 3.3309 40.299 23.269-5.7587 3.3309-40.299-23.281-5.7587 3.3309 40.311 23.269-5.7704 3.3309-40.299-23.281-5.7587 3.3309 40.311 23.269-5.7587 3.3192-40.311-23.269-5.7587 3.3309v46.527l-0.0117 0.0116v-6.6383l-40.299 23.281v-6.6501l40.299-23.281v-6.6501l-40.299 23.281v-6.65l40.299-23.281v-6.6383l-40.299 23.269v-6.6501l40.299-23.269v-6.6501l-40.299-23.281-5.7587 3.3309 40.299 23.269-5.7587 3.3309-40.299-23.281-5.7587 3.3309 40.311 23.269-5.7704 3.3309-40.299-23.281-5.7587 3.3309 40.311 23.269-5.7587 3.3191-40.311-23.269-5.7587 3.3309v-0.0116l-11.517-6.6618v-46.55l5.7587 3.3309v46.539l5.7587 3.3191 40.299-23.269v-6.65l-40.299 23.281v-6.65l40.299-23.281v-6.65l-40.299 23.281v-6.65l40.299-23.281v-6.6383l-40.299 23.269v-6.65l40.299-23.269v-6.65h0.0117v46.539l5.7587 3.3309v-46.55l5.7587 3.3309v46.539l5.7587 3.3309v-46.55l5.7587 3.3309v46.539l5.7587 3.3309v-46.55l5.7587 3.3309v46.539l5.7587 3.3191 40.299-23.269v-6.65l-40.299 23.281v-6.65l40.299-23.281v-6.65l-40.299 23.281v-6.65l40.299-23.281v-6.6383l-40.299 23.269v-6.65l40.299-23.269v-6.65l-5.7469-3.3309-5.7587-3.3192v-46.55zm80.621 0 5.7587 3.3309v46.539l5.7587 3.3192-0.0117 0.0117-5.747-3.3309-5.7587-3.3192v-46.55zm80.61 0 5.7587 3.3309v46.539l5.7587 3.3192 5.7587-3.3192 5.7587-3.3192 40.311 23.269-5.7587 3.3192-40.311-23.269-5.7587 3.3309v46.539l5.7587 3.3309v-46.55l5.7587 3.3309v46.539l-5.7587-3.3192-5.7587-3.3192-5.7587 3.3309 40.299 23.269-5.7587 3.3309-40.299-23.281-5.7587 3.3309 40.311 23.269-5.7704 3.3309-40.299-23.281-5.7587 3.3309 40.311 23.269-5.7587 3.3192-40.311-23.269-5.7587 3.3309-11.517-6.6618v-46.55l5.7587 3.3309v46.539l5.7587 3.3191 40.299-23.269v-6.65l-40.299 23.281v-6.65l40.299-23.281v-6.65l-40.299 23.281v-6.65l40.299-23.281v-6.6383l-40.299 23.269v-6.65l40.299-23.269v-6.65l-5.747-3.3309-5.7587-3.3192v-46.55zm-403.08 0.0117 5.7587 3.3309v46.539l-5.7587-3.3192v-46.55zm161.23 0 5.7587 3.3309v46.539l-5.7587-3.3192v-46.55zm-28.793 3.3074v6.65l-40.299 23.281v-6.65l40.299-23.281zm241.85 0v6.65l-40.299 23.281v-6.65l40.299-23.281zm-241.85 13.3v6.65l-40.299 23.281v-6.65l40.299-23.281zm241.85 0v6.65l-40.299 23.281v-6.65l40.299-23.281zm-328.22 16.631 40.299 23.269-5.7587 3.3309-40.299-23.281 5.7587-3.3192zm80.61 0 40.299 23.269-5.7587 3.3309-40.299-23.281 5.7587-3.3192zm80.621 0 40.299 23.269-5.7587 3.3309-40.299-23.281 5.7587-3.3192zm80.621 0 40.299 23.269-5.7587 3.3309-40.299-23.281 5.7587-3.3192zm80.61 0 40.299 23.269-5.7587 3.3309-40.299-23.281 5.7587-3.3192zm80.621 0 40.299 23.269-5.7586 3.3309-40.299-23.281 5.7587-3.3192zm-414.6 6.6502 40.311 23.269-5.7704 3.3309-40.299-23.281 5.7587-3.3192zm80.61 0 40.311 23.269-5.7704 3.3309-40.299-23.281 5.7587-3.3192zm80.621 0 40.311 23.269-5.7704 3.3309-40.299-23.281 5.7587-3.3192zm80.621 0 40.311 23.269-5.7704 3.3309-40.299-23.281 5.7587-3.3192zm80.61 0 40.311 23.269-5.7704 3.3309-40.299-23.281 5.7587-3.3192zm80.621 0 40.311 23.269-5.7704 3.3309-40.299-23.281 5.7587-3.3192zm-414.6 6.65 40.311 23.269-5.7587 3.3192-40.311-23.269 5.7587-3.3192zm80.61 0 40.311 23.269-5.7587 3.3192-40.311-23.269 5.7587-3.3192zm80.621 0 40.311 23.269-5.7587 3.3192-40.311-23.269 5.7587-3.3192zm161.23 0 40.311 23.269-5.7587 3.3192-40.311-23.269 5.7587-3.3192zm-247.61 9.9692 5.7587 3.3309v46.539l-5.7587-3.3192v-46.55zm241.85 0 5.7587 3.3309v46.539l-5.7587-3.3192v-46.55zm-247.61 3.3309v6.65l-40.299 23.269v-6.65l40.299-23.269zm241.85 0v6.65l-40.299 23.269v-6.65l40.299-23.269zm-224.58 3.3192 5.7587 3.3309v46.539l-5.7587-3.3192v-46.55zm161.24 0 5.7587 3.3309v46.539l-5.7587-3.3192v-46.55zm80.61 0 5.7587 3.3309v46.539l-5.7587-3.3192v-46.55zm80.621 0 5.7587 3.3309v46.539l-5.7587-3.3192v-46.55zm-149.71 6.65 5.7587 3.3309v46.539l5.7587 3.3191 40.299-23.269 0.0117 0.0117-5.7587 3.3309 40.299 23.269-5.7587 3.3309-40.299-23.281-5.7587 3.3309 40.311 23.269-5.7704 3.3309-40.299-23.281-5.7587 3.3309 40.311 23.269-5.7587 3.3192-40.311-23.269-5.7587 3.3309v46.527l-0.0117 0.0116v-6.6501l-40.299 23.281v-6.65l40.299-23.281v-6.65l-40.299 23.281v-6.6501l40.299-23.281v-6.6383l-40.299 23.269v-6.65l40.299-23.269v-6.6501l-11.506-6.6618v-46.55zm-190.04 3.3192v6.65l-40.299 23.281v-6.65l40.299-23.281zm241.85 0v6.65l-40.299 23.281v-6.65l40.299-23.281zm-241.85 13.3v6.65l-40.299 23.281v-6.65l40.299-23.281zm241.85 0v6.65l-40.299 23.281v-6.65l40.299-23.281zm-276.39 39.912 5.7587 3.3309v46.527l-5.7587-3.3191v-46.539zm161.23 0 5.7587 3.3309v46.527l-5.7587-3.3191v-46.539zm80.621 0 5.7587 3.3309v46.527l-5.7587-3.3191v-46.539zm80.61 0 5.7587 3.3309v46.527l-5.7587-3.3309v-46.527zm-403.08 0.0116 5.7587 3.3309v46.515l-5.7587-3.3191v-46.527zm161.23 0 5.7587 3.3309v46.515l-5.7587-3.3309v-46.515zm-5.7587 3.3192v6.65l-40.299 23.269v-6.65l40.299-23.269zm241.85 0v6.65l-40.299 23.269v-6.65l40.299-23.269zm-305.19 3.3191 5.7587 3.3309v46.539l-5.7587-3.3309v-46.539zm161.23 0 5.7587 3.3309v46.539l-5.7587-3.3309v-46.539zm80.621 0 5.7587 3.3309v46.539l-5.7587-3.3309v-46.539zm80.61 0 5.7586 3.3309v46.527l-5.7586-3.3309v-46.527zm-403.08 0.0116 5.7587 3.3309v46.527l-5.7587-3.3309v-46.527zm161.23 0 5.7587 3.3309v46.515l-5.7587-3.3309v-46.515zm-69.092 6.6383 5.7587 3.3309v46.539l-5.7587-3.3191v-46.55zm161.23 0 5.7587 3.3309v46.539l-5.7587-3.3191v-46.55zm80.621 0 5.7587 3.3309v46.539l-5.7587-3.3191v-46.55zm80.61 0 5.7587 3.3309v46.527l-5.7587-3.3192v-46.539zm-403.08 0.0116 5.7587 3.3309v46.527l-5.7587-3.3309v-46.527zm161.23 0 5.7587 3.3309v46.515l-5.7587-3.3192v-46.527zm-28.793 3.3074v6.6501l-40.299 23.281v-6.6501l40.299-23.281zm241.85 0v6.6501l-40.299 23.281v-6.6501l40.299-23.281zm-241.85 13.3v6.65l-40.299 23.281v-6.65l40.299-23.281zm241.85 0v6.65l-40.299 23.281v-6.65l40.299-23.281zm-328.21 16.619 40.287 23.269-5.7587 3.3309-40.287-23.269 5.7587-3.3309zm80.61 0 40.299 23.269-5.7587 3.3309-40.299-23.281 5.7587-3.3191zm80.621 0 40.287 23.269-5.7587 3.3309-40.287-23.269 5.7587-3.3309zm80.61 0 40.299 23.269-5.7587 3.3309-40.299-23.281 5.7587-3.3191zm80.621 0 40.299 23.269-5.7587 3.3309-40.299-23.281 5.7587-3.3191zm80.61 0 40.299 23.269-5.7586 3.3309-40.299-23.281 5.7587-3.3191zm-414.59 6.6503 40.299 23.269-5.7704 3.3309-40.287-23.269 5.7587-3.3309zm80.61 0 40.311 23.269-5.7704 3.3309-40.299-23.281 5.7587-3.3191zm80.621 0 40.299 23.269-5.7704 3.3309-40.287-23.269 5.7587-3.3309zm80.61 0 40.311 23.269-5.7704 3.3309-40.299-23.281 5.7587-3.3191zm80.621 0 40.311 23.269-5.7704 3.3309-40.299-23.281 5.7587-3.3191zm80.61 0 40.311 23.269-5.7704 3.3309-40.299-23.281 5.7587-3.3191zm-414.59 6.65 40.299 23.269-5.7587 3.3192-40.299-23.258 5.7587-3.3309zm80.61 0 40.311 23.269-5.7587 3.3192-40.311-23.269 5.7587-3.3192zm80.621 0 40.299 23.269-5.7587 3.3192-40.299-23.258 5.7587-3.3309zm80.61 0 40.311 23.269-5.7587 3.3192-40.311-23.269 5.7587-3.3192zm80.621 0 40.311 23.269-5.7587 3.3192-40.311-23.269 5.7587-3.3192zm80.61 0 40.311 23.269-5.7587 3.3192-40.311-23.269 5.7587-3.3192zm-253.37 13.3v6.65l-40.299 23.269v-6.65l40.299-23.269zm241.85 0v6.65l-40.299 23.269v-6.65l40.299-23.269zm-241.85 13.288v6.6501l-40.299 23.281v-6.6501l40.299-23.281zm241.85 0v6.6501l-40.299 23.281v-6.6501l40.299-23.281zm-241.85 13.3v6.65l-40.299 23.281v-6.65l40.299-23.281zm241.85 0v6.65l-40.299 23.281v-6.65l40.299-23.281z" />
  </g>
  <metadata>
    <rdf:RDF>
      <cc:Work>
        <dc:format>image/svg+xml</dc:format>
        <dc:type rdf:resource="http://purl.org/dc/dcmitype/StillImage" />
        <cc:license rdf:resource="http://creativecommons.org/licenses/publicdomain/" />
        <dc:publisher>
          <cc:Agent rdf:about="http://openclipart.org/">
            <dc:title>Openclipart</dc:title>
          </cc:Agent>
        </dc:publisher>
        <dc:title>Isometric Weave</dc:title>
        <dc:date>2012-05-17T13:08:05</dc:date>
        <dc:description>An weave pattern following isometric axes.</dc:description>
        <dc:source>https://openclipart.org/detail/170066/isometric-weave-by-gubrww2</dc:source>
        <dc:creator>
          <cc:Agent>
            <dc:title>gubrww2</dc:title>
          </cc:Agent>
        </dc:creator>
        <dc:subject>
          <rdf:Bag>
            <rdf:li>background</rdf:li>
            <rdf:li>pattern</rdf:li>
            <rdf:li>weave</rdf:li>
          </rdf:Bag>
        </dc:subject>
      </cc:Work>
      <cc:License rdf:about="http://creativecommons.org/licenses/publicdomain/">
        <cc:permits rdf:resource="http://creativecommons.org/ns#Reproduction" />
        <cc:permits rdf:resource="http://creativecommons.org/ns#Distribution" />
        <cc:permits rdf:resource="http://creativecommons.org/ns#DerivativeWorks" />
      </cc:License>
    </rdf:RDF>
  </metadata>
</svg>